<svg xmlns="http://www.w3.org/2000/svg" xmlns:xlink="http://www.w3.org/1999/xlink" xmlns:inkscape="http://www.inkscape.org/namespaces/inkscape" version="1.1" width="1728" height="1728" viewBox="0 0 1728 1728">
<g inkscape:groupmode="layer" inkscape:label="Layer 1">
<path transform="matrix(1,0,0,-1,0,1728)" d="M828.174 1677.5617C1305.3482 1677.5617 1692.174 1290.7355 1692.174 813.5617 1692.174 336.388 1305.3482-50.4383 828.174-50.4383 351-50.4383-35.826 336.388-35.826 813.5617-35.826 1290.7355 351 1677.5617 828.174 1677.5617Z" fill="#1a1a18" fill-rule="evenodd"/>
<path transform="matrix(1,0,0,-1,0,1728)" stroke-width=".5" stroke-linecap="butt" stroke-miterlimit="22.925585" stroke-linejoin="miter" fill="none" stroke="#1a1a18" d="M828.174 1677.5617C1305.3482 1677.5617 1692.174 1290.7355 1692.174 813.5617 1692.174 336.388 1305.3482-50.4383 828.174-50.4383 351-50.4383-35.826 336.388-35.826 813.5617-35.826 1290.7355 351 1677.5617 828.174 1677.5617Z"/>
<path transform="matrix(1,0,0,-1,0,1728)" d="M864 1728C1341.174 1728 1728 1341.1738 1728 864 1728 386.8262 1341.174 0 864 0 386.826 0 0 386.8262 0 864 0 1341.1738 386.826 1728 864 1728Z" fill="#ffffff" fill-rule="evenodd"/>
<path transform="matrix(1,0,0,-1,0,1728)" stroke-width=".5" stroke-linecap="butt" stroke-miterlimit="22.925585" stroke-linejoin="miter" fill="none" stroke="#1a1a18" d="M864 1728C1341.174 1728 1728 1341.1738 1728 864 1728 386.8262 1341.174 0 864 0 386.826 0 0 386.8262 0 864 0 1341.1738 386.826 1728 864 1728Z"/>
<path transform="matrix(1,0,0,-1,0,1728)" d="M263.3845 1061.3477C263.3845 1040.1106 264.5524 1013.4227 267.2753 991.9675 268.7445 980.3818 269.896 970.9934 271.9755 960.0256 279.6191 919.6965 282.0237 910.031 293.62 870.7133 296.5255 860.8584 300.1836 853.0824 303.2957 843.734 304.7604 839.3253 306.5502 835.0277 308.4018 830.5143 313.5957 817.8797 319.2146 803.81 325.5908 791.7032 340.1138 764.151 355.4677 736.1277 374.2946 711.0595 377.136 707.2804 379.0587 703.9845 381.8529 700.2836L406.8967 669.3026C419.2739 653.9593 446.917 625.6826 462.1524 613.5117 491.2319 590.2832 504.7104 579.7205 536.9754 558.9238 548.3225 551.6048 560.4503 545.8842 572.0465 538.9605 591.982 527.0528 614.1251 518.7912 635.4371 509.597 644.2157 505.813 653.5091 503.1754 662.2472 499.7089 692.8152 487.5712 749.8202 475.6258 782.5578 471.1598 843.8097 462.8132 909.8614 465.8987 969.0982 480.579 1007.82 490.176 1045.0582 504.9346 1080.1483 522.4331L1115.5208 542.0979C1118.6873 543.7979 1119.727 544.4303 1122.5234 546.3054 1131.5061 552.3364 1140.0471 557.5881 1149.0508 563.593 1174.9541 580.8784 1199.3217 600.8675 1222.1626 621.9295L1227.6224 626.6557C1238.352 636.1387 1252.118 648.6245 1260.8963 659.6016 1265.5894 665.4645 1272.2621 670.2902 1277.0717 676.0321 1279.3031 678.6958 1279.5783 679.5198 1282.2063 682.1033 1290.282 690.0449 1303.8936 704.2708 1303.8936 716.4275 1303.8936 727.9257 1301.8496 735.9219 1293.4653 743.6741 1266.9948 768.1482 1245.6493 739.7317 1232.7333 728.3897 1229.474 725.5293 1227.8027 724.5088 1224.5791 721.2648 1215.364 711.9876 1202.3671 699.2558 1192.2738 691.4208 1171.9514 675.6534 1151.821 659.1353 1129.4147 646.2612 1086.4129 621.5505 1044.9584 604.8147 996.2546 593.8991 961.1385 586.0307 921.0589 585.472 884.4401 582.2328 851.019 579.2729 838.713 638.7412 879.5809 647.187 887.55 648.8351 898.8089 649.2353 907.1578 650.2037 952.9869 655.5504 964.7374 659.3437 1006.664 674.0691 1031.1548 682.6762 1055.3179 698.3538 1072.1032 717.6705 1086.23 733.928 1097.1377 753.046 1079.7327 772.647 1065.2216 788.9896 1040.8683 781.0123 1022.7776 777.0416 1012.252 774.733 1001.3774 772.8744 991.5355 770.5562 958.2282 762.7068 911.8341 756.0198 877.3994 753.143 871.422 752.6458 865.6157 752.4799 859.5601 751.6086 837.2982 748.3884 810.5902 749.9109 787.6638 748.0191 775.4411 747.0128 762.302 749.1509 750.5631 747.3821 744.5931 746.4824 738.6608 747.3892 732.6884 746.8991 715.7866 745.5022 698.4672 742.985 682.7238 739.7552 663.4035 735.7986 642.2573 730.2841 624.5201 722.5152 620.2732 720.6562 616.2497 719.0201 611.5303 717.1566L585.7316 705.244C581.1905 702.9947 578.0713 700.8613 573.1551 698.4556 561.6088 692.7987 555.7952 687.9399 540.8544 687.9399 528.2447 687.9399 519.516 697.9867 512.0289 704.9718 511.0461 705.8883 510.8088 706.0161 509.8663 706.8875 509.7121 707.0318 509.4842 707.2308 509.3348 707.3751 509.1829 707.5174 508.9643 707.7302 508.8172 707.8748L489.0787 727.8687C487.3102 729.6211 486.1069 730.6699 484.5969 732.5546L463.458 757.2583C452.6334 770.8141 441.4952 784.7442 432.3869 799.5266 422.8512 815.01 413.0734 830.0976 404.8245 846.3078 400.53 854.742 396.7676 862.6317 392.9553 871.0968L382.1567 896.9559C378.3917 906.2782 375.6523 914.1749 372.405 923.8615 347.2044 999.0286 341.3815 1080.0086 350.174 1158.9381 351.1568 1167.77 353.0537 1176.7654 354.6108 1186.0569 357.5449 1203.5645 361.4805 1219.9666 366.0432 1236.7166 370.4253 1252.8037 376.3431 1268.0408 382.3087 1283.5739 391.1346 1306.5512 401.0499 1325.5462 411.9769 1347.5928 422.0654 1367.9467 435.689 1386.2359 448.2371 1405.0319 452.6666 1411.6666 456.7805 1416.8189 461.7156 1423.1316 464.1489 1426.2406 466.2235 1428.6178 468.5593 1431.5681 479.9112 1445.9031 492.9979 1459.7337 505.8998 1472.6668L522.2174 1487.9323C525.1728 1490.7711 527.25 1491.9976 530.3857 1495.0474L547.5438 1509.4772C550.967 1512.0272 553.6208 1513.8125 556.8565 1516.4694 571.085 1528.1237 586.6526 1538.843 602.4813 1548.2883L643.2211 1570.733C716.6364 1607.915 798.3652 1629.0386 881.6105 1630.059 887.4714 1630.1373 889.3565 1631.1696 895.8512 1631.1696L941.4737 1628.8064C959.6432 1626.46 978.3964 1624.9255 996.2524 1621.3762 1021.4172 1616.3705 1046.3567 1610.0745 1070.6743 1602.0003 1084.3997 1597.4396 1103.4046 1591.0158 1116.539 1584.6605 1124.0048 1581.0497 1130.9315 1578.5136 1138.307 1574.8342 1165.3997 1561.316 1192.7863 1546.382 1217.054 1528.2232 1227.3279 1520.5371 1237.9462 1513.2515 1247.5508 1504.7152 1249.5805 1502.911 1250.0765 1502.9277 1252.1083 1501.1209L1277.0717 1479.2162C1279.9962 1476.7774 1282.5219 1473.8743 1285.2758 1471.1227 1292.9216 1463.4984 1301.1163 1456.2125 1307.8247 1447.8256 1313.358 1440.9046 1323.8169 1431.1395 1330.2785 1422.4046L1344.118 1404.6625C1346.6083 1401.3689 1348.0824 1399.0198 1350.5227 1395.7926 1352.9795 1392.5415 1354.8098 1390.1452 1356.9415 1386.9346 1375.9534 1358.2979 1393.9638 1328.2807 1406.7658 1296.218 1408.494 1291.8966 1410.2769 1289.0316 1412.0144 1285.1746 1413.6143 1281.613 1414.7277 1278.1895 1416.4534 1274.3368 1420.5317 1265.2396 1424.859 1251.8257 1429.716 1243.813 1430.9434 1241.7885 1430.2216 1242.7926 1431.4085 1241.4312 1431.4085 1258.6004 1408.2826 1314.19 1399.801 1333.0188L1384.4707 1363.5164C1382.4887 1367.3169 1381.1854 1370.2388 1378.8068 1374.1458 1374.7238 1380.8611 1371.4503 1386.7333 1367.3412 1393.2329 1355.3867 1412.1259 1342.2025 1430.3654 1328.2444 1447.8446 1323.5134 1453.7642 1319.3544 1458.7036 1314.4119 1464.5735L1291.8986 1488.9196C1290.46 1490.3379 1289.6552 1491.0695 1288.4423 1492.5969 1283.709 1498.5448 1265.8649 1514.8806 1260.3314 1519.5025L1244.0231 1533.7568C1229.7611 1545.7144 1215.0009 1557.3263 1199.4426 1567.6359L1171.3198 1585.3757C1140.9395 1602.81 1109.8091 1619.3256 1076.54 1631.2476 1072.73 1632.6139 1069.2879 1633.7387 1065.3378 1635.3394 1061.6253 1636.8381 1058.3709 1638.0624 1053.9694 1639.2606L1005.6195 1653.1004 953.566 1663.249C921.8398 1668.1173 880.6017 1671.4395 848.8729 1668.8184 842.7722 1668.3163 835.7363 1669.2918 829.6926 1668.617 818.6873 1667.3856 806.3481 1666.8955 795.0416 1665.534 763.6003 1661.7359 731.5773 1654.8976 701.0048 1646.39 676.9791 1639.7008 654.0316 1630.438 631.2214 1621.367L605.1163 1609.7548C600.7533 1607.5576 596.8624 1605.6349 592.198 1603.3073 568.3765 1591.4302 542.7156 1576.6858 521.6168 1560.7715L444.3605 1496.397 403.3979 1451.7896C389.5109 1436.9196 374.8975 1414.8845 363.5578 1397.9188L332.0569 1344.8911C321.8734 1325.8916 312.8125 1305.6704 304.9027 1285.4894 303.0582 1280.7846 301.8739 1276.3189 300.1195 1271.9452 294.7499 1258.5481 289.5511 1243.2495 286.0262 1229.021 271.1494 1168.9445 263.3845 1125.909 263.3845 1061.3477" fill="#0c6c6e" fill-rule="evenodd"/>
<path transform="matrix(1,0,0,-1,0,1728)" d="M867.2868 1136.6376C867.2868 1108.4343 878.9873 1091.0188 894.5504 1070.2247 897.5341 1066.2395 899.6967 1063.0123 902.6997 1059.0225 921.543 1033.9872 934.2692 1017.2443 948.2153 989.4484 972.7206 940.5975 969.4896 888.2589 936.7974 844.4894 921.8968 824.5403 897.209 807.5582 872.8084 801.4728 837.239 792.6077 812.2544 795.911 779.5502 812.0597 771.8043 815.8884 765.4853 820.5744 758.7102 825.8686L749.2102 833.692C746.4756 836.2281 742.2004 840.6558 738.7534 841.5723 746.5635 826.8562 757.787 813.3191 770.5202 803.0523 773.3472 800.7721 773.9195 799.8367 777.2998 797.6064 805.038 779.2911 827.8622 770.3549 867.2868 770.3549 902.9061 770.3549 943.0523 787.7917 970.4772 809.8741 976.267 814.534 982.8425 822.0611 988.4353 827.5759 996.8196 835.8491 1012.3753 857.6923 1019.2856 868.0303 1031.309 886.0141 1041.9817 905.203 1050.8956 925.0146 1058.2852 941.4428 1068.9937 975.9444 1071.4884 994.0158 1072.737 1003.0799 1075.3078 1015.8426 1075.4291 1025.6928 1075.5003 1031.4349 1075.0232 1037.1152 1075.854 1042.6347 1076.908 1049.648 1073.9146 1083.8469 1072.2694 1091.8052 1071.1372 1097.2702 1065.9977 1113.8828 1062.1284 1118.3224 1062.1284 1096.8438 1063.9777 1071.0249 1059.1991 1054.0902 1054.867 1038.7372 1044.1063 1019.6311 1025.403 1019.6311 1005.9375 1019.6311 995.6778 1024.4426 979.149 1033.5231 962.5629 1042.6323 960.9843 1044.2733 947.4534 1054.817L941.7467 1059.2994C941.5854 1059.4392 941.3504 1059.6286 941.1888 1059.7636L937.9295 1062.6192C923.7532 1075.9856 908.5085 1096.0223 899.9294 1113.2317L889.5986 1137.5258C879.9205 1164.2278 883.8513 1188.5737 889.1402 1216.5851 889.6507 1219.3036 890.1397 1222.5285 890.5456 1224.4487 891.4501 1228.7251 892.4922 1229.2413 889.7289 1231.2612 889.6198 1226.3432 885.0787 1213.7794 883.4811 1209.0059 879.1228 1195.9852 872.9887 1176.9429 870.2399 1163.1978 868.8702 1156.3405 867.2868 1144.7666 867.2868 1136.6376" fill="#0c6c6e" fill-rule="evenodd"/>
<path transform="matrix(1,0,0,-1,0,1728)" d="M819.3402 1106.1091C819.3402 1089.5817 808.2663 1062.953 799.5472 1048.533L788.4853 1033.1087C776.7085 1020.6232 770.2257 1013.1503 754.2782 1003.1272 746.4067 998.1833 734.5281 992.1572 724.4725 992.1572 702.574 992.1572 694.878 1022.1837 694.8567 1039.9425 694.8496 1044.3703 694.9327 1048.8169 694.9256 1053.2426 694.9182 1059.1314 693.8714 1060.327 693.8714 1065.4155 687.8752 1061.0352 685.309 1028.056 685.6911 1021.6721 687.9393 984.1348 693.5652 950.0097 710.5192 916.1756 723.276 890.7262 748.7283 851.0247 771.2561 834.3102 774.2186 832.1151 775.6523 830.6164 778.7191 828.5326L795.5212 818.8339C830.2813 802.2994 871.8494 803.8882 903.5827 826.7377 915.2405 835.1388 932.7237 854.5646 935.634 867.0124 931.0147 863.9246 924.698 855.8172 914.8014 848.1098 912.0951 846.0026 909.8804 844.2573 907.2386 842.4247 891.4003 831.4401 875.4457 829.366 856.0658 829.366 827.2902 829.366 806.6426 846.7081 792.5754 863.7163 790.7071 865.9774 789.4964 867.7723 787.9059 870.2515 764.4762 906.7706 767.363 947.4146 786.3724 985.3637L800.6581 1011.8149C802.4244 1014.9948 803.9863 1016.8795 805.8852 1019.8253 817.2465 1037.4633 834.6444 1065.6972 834.6444 1085.76 834.6444 1126.5293 820.1781 1134.4876 817.3035 1146.8075H815.262C815.262 1136.195 819.3402 1119.9467 819.3402 1106.1091" fill="#ef7c00" fill-rule="evenodd"/>
<path transform="matrix(1,0,0,-1,0,1728)" d="M506.1705 1187.5082C506.1705 1172.0938 518.7492 1146.9353 530.8985 1134.8453 549.7753 1116.0587 586.1543 1104.6033 610.2201 1117.3042 599.4689 1133.318 580.2979 1143.7719 577.5775 1147.8257 594.5505 1143.8833 607.1292 1133.9572 619.4021 1127.4789 619.4021 1147.4754 610.6093 1159.2933 597.7457 1172.0109 588.858 1180.7977 567.3606 1191.5785 550.0363 1191.5785 529.9537 1191.5785 526.8892 1192.3245 506.1705 1187.5082" fill="#8ac440" fill-rule="evenodd"/>
<path transform="matrix(1,0,0,-1,0,1728)" d="M977.4587 1246.5197C977.4587 1236.648 979.7709 1231.7085 981.5391 1224.1338 987.3575 1224.6194 995.1248 1234.117 999.1531 1238.1111 1003.9861 1242.9085 1010.9248 1253.5021 1014.1841 1255.6784 1010.6257 1240.4435 998.4195 1225.6495 992.7604 1214.9799 1007.3619 1214.9799 1019.5325 1221.7802 1030.0961 1229.6322 1044.8209 1240.581 1059.066 1263.9135 1059.066 1287.2203 1059.066 1298.9432 1058.5202 1314.3886 1053.9694 1323.846 1047.0833 1323.6968 1030.3809 1317.7131 1025.0563 1315.0352 998.3792 1301.6262 977.4587 1279.1815 977.4587 1246.5197" fill="#8ac440" fill-rule="evenodd"/>
<path transform="matrix(1,0,0,-1,0,1728)" d="M1117.2155 1138.6718C1115.06 1135.7379 1103.3975 1127.2493 1099.4474 1124.8483L1084.5088 1116.3478C1080.934 1114.4534 1081.563 1116.2222 1080.4901 1112.2183 1084.1409 1111.9127 1086.4531 1110.7194 1089.8192 1110.331 1112.3255 1107.75 1134.8983 1111.7376 1153.1293 1123.1978 1171.7473 1134.9069 1185.5628 1157.9009 1185.5628 1180.3859 1182.3416 1180.4567 1176.6183 1181.4727 1172.9032 1182.0053 1167.9135 1182.7205 1163.2205 1182.0623 1158.2614 1182.7346 1139.221 1185.3062 1105.4177 1177.2366 1089.9116 1162.8496 1084.6301 1157.946 1080.1696 1153.1605 1076.6015 1146.6204 1075.5215 1144.641 1067.5621 1126.674 1072.5613 1124.1143 1074.0214 1123.3659 1092.2168 1128.7196 1095.367 1129.9368 1099.4213 1131.4996 1102.2796 1132.7142 1106.2888 1134.3053 1109.8543 1135.7238 1114.0132 1137.9284 1117.2155 1138.6718" fill="#8ac440" fill-rule="evenodd"/>
<path transform="matrix(1,0,0,-1,0,1728)" d="M816.2827 1303.4968C816.2827 1287.0545 821.4766 1270.0225 831.822 1258.967 834.8769 1255.6973 838.4805 1251.0349 843.8238 1250.592 846.7509 1263.1156 851.7027 1281.6272 851.9876 1294.3427L852.588 1292.91C854.9286 1285.7664 854.4254 1281.7267 855.4819 1274.4266 856.55 1267.0628 856.0658 1258.4392 856.0658 1250.592 862.9617 1252.4273 872.2505 1267.7852 875.1679 1274.2682 892.9148 1313.7185 882.2801 1344.6497 849.9461 1372.6848 844.0089 1368.7186 831.7791 1351.192 827.8362 1343.8613 822.3335 1333.6345 816.2827 1318.5986 816.2827 1303.4968" fill="#8ac440" fill-rule="evenodd"/>
<path transform="matrix(1,0,0,-1,0,1728)" d="M1171.2796 1035.9099V1031.8374C1187.545 1031.8374 1205.0307 1038.9526 1218.2055 1042.0166 1215.872 1038.8367 1203.8224 1032.808 1199.1648 1030.483 1193.2328 1027.5137 1183.9819 1023.1946 1177.4015 1021.665 1179.0111 1019.4749 1181.9735 1018.6603 1184.6679 1017.718 1212.7527 1007.9175 1255.1967 1015.2907 1275.2059 1042.1397 1279.9559 1048.5068 1288.5942 1064.0588 1288.5942 1074.5719 1281.672 1074.7236 1268.077 1080.2098 1252.8919 1080.6763 1240.5668 1081.055 1252.4479 1082.341 1233.4192 1080.7639 1216.705 1079.3764 1199.0248 1074.5056 1186.821 1063.1425 1181.2996 1058.0092 1171.2796 1045.6914 1171.2796 1035.9099" fill="#8ac440" fill-rule="evenodd"/>
<path transform="matrix(1,0,0,-1,0,1728)" d="M689.7883 1252.626C694.9111 1248.8825 711.4995 1223.5017 713.2513 1215.998 716.8334 1216.9478 717.0163 1218.83 718.2459 1222.2088 719.3974 1225.3723 719.9456 1227.127 720.703 1230.9508 723.1241 1243.169 720.3991 1258.1858 715.5944 1269.2058 712.7291 1275.7694 710.8302 1278.5516 706.8421 1283.8792 695.1416 1299.5164 664.3624 1318.4425 650.0078 1318.7597 649.2932 1310.2356 638.1102 1291.229 645.5523 1264.4606 646.9101 1259.5734 649.5165 1252.2756 651.6981 1248.2053 660.0872 1232.5564 683.5051 1211.9279 702.0326 1211.9279 701.7335 1225.2112 691.1391 1246.8461 689.7883 1252.626" fill="#8ac440" fill-rule="evenodd"/>
<path transform="matrix(1,0,0,-1,0,1728)" d="M1052.949 625.8719C1055.6765 624.0509 1054.9667 623.8497 1058.1619 624.6193 1065.7155 626.4332 1070.8688 629.5776 1076.4544 632.9517 1083.8064 637.382 1090.7283 641.1231 1098.4218 645.6339 1106.0989 650.1376 1112.6744 654.1274 1120.235 658.4723 1150.143 675.6579 1174.185 694.3782 1198.569 718.717 1202.7518 722.8894 1213.1039 731.7947 1213.1039 738.8082 1213.1039 756.9978 1184.3118 758.9891 1171.1065 743.0513 1156.602 725.546 1083.037 654.4494 1061.4115 634.7276 1058.2092 631.8079 1055.237 629.2791 1052.949 625.8719" fill="#0c6c6e" fill-rule="evenodd"/>
<path transform="matrix(1,0,0,-1,0,1728)" d="M727.5348 1352.338C732.0807 1349.3 745.3621 1326.4174 746.9147 1319.778 751.5604 1321.0164 752.5358 1327.5017 753.6302 1333.4262 757.1815 1352.6862 753.0225 1366.8032 743.5463 1382.5518 738.6205 1390.7466 734.9363 1393.3112 728.7905 1398.3616 721.0755 1404.6908 702.923 1415.1923 692.8506 1415.4197 688.8129 1407.8117 684.3665 1384.827 686.2635 1372.2182 688.9292 1354.5094 692.4946 1346.8966 701.4274 1335.4555 706.8444 1328.5106 722.2742 1317.1022 732.6315 1315.4472 739.366 1314.3626 737.0419 1318.5584 733.6568 1331.9889Z" fill="#8ac440" fill-rule="evenodd"/>
<path transform="matrix(1,0,0,-1,0,1728)" d="M619.4021 944.3387C622.7847 949.3775 647.7265 960.3927 653.0652 961.6357 645.1509 973.4253 595.8156 979.9934 568.6662 942.0347 564.6044 936.3521 555.8023 921.8112 555.1353 913.8149 563.5624 911.8542 571.5315 906.8085 585.7863 905.7192 599.9913 904.6372 610.4954 906.1645 620.297 909.87 629.2678 913.2585 636.6005 919.2821 643.1355 925.7536 648.6928 931.254 656.1252 942.9273 656.1252 951.461 650.2286 951.461 642.7344 950.0522 637.3553 948.8137 631.366 947.4381 624.8854 944.7934 619.4021 944.3387" fill="#8ac440" fill-rule="evenodd"/>
<path transform="matrix(1,0,0,-1,0,1728)" d="M964.1985 1345.2157C968.9817 1348.4098 974.1305 1354.294 977.7529 1359.1644L989.7029 1375.7369C985.919 1359.5435 974.7666 1342.4973 974.3987 1338.0932 999.6636 1340.191 1025.403 1369.0242 1025.403 1399.1383 1025.403 1423.534 1023.6036 1418.2846 1019.2856 1436.7892 1011.0934 1436.6047 992.1645 1426.7307 985.4512 1421.6871 971.854 1411.4747 961.1671 1395.7404 959.1707 1377.6976 957.6323 1363.8244 958.767 1355.4494 964.1985 1345.2157" fill="#8ac440" fill-rule="evenodd"/>
<path transform="matrix(1,0,0,-1,0,1728)" d="M451.0831 1065.4155C451.7597 1057.3294 466.4823 1039.3529 473.8221 1033.1515 493.0929 1016.8843 516.2686 1013.0224 540.1542 1023.3771 544.1777 1025.1198 544.0425 1025.8112 546.9763 1027.7694 543.2686 1033.2865 526.856 1041.6543 519.1197 1044.7537 517.9635 1045.218 517.9754 1045.192 516.9713 1045.6654L514.3317 1047.1004C519.3499 1046.9891 528.9449 1045.0947 533.5169 1043.8493 536.1707 1043.1272 538.7916 1042.3316 542.2952 1041.4176 547.0407 1040.184 547.323 1039.0663 552.0756 1038.962 547.7125 1057.6395 521.8257 1077.624 499.0297 1077.624 477.4113 1077.624 469.8675 1075.3226 451.0831 1065.4155" fill="#8ac440" fill-rule="evenodd"/>
<path transform="matrix(1,0,0,-1,0,1728)" d="M965.2167 1083.7261C965.2167 1072.1449 966.259 1060.3009 974.6243 1051.3956 999.3359 1025.077 1027.4445 1048.6182 1027.4445 1073.5515 1027.4445 1086.3071 1026.6398 1094.5259 1017.9799 1104.8091 1005.2634 1119.8993 984.4353 1119.1416 974.209 1106.301 970.3845 1101.5036 965.2167 1091.9614 965.2167 1083.7261" fill="#0c6c6e" fill-rule="evenodd"/>
<path transform="matrix(1,0,0,-1,0,1728)" d="M1078.4509 944.3387C1081.9832 939.0702 1099.7323 931.7418 1107.1624 929.2224L1112.1117 927.0417C1097.2114 927.3708 1082.6787 934.022 1076.4094 934.1617 1079.4694 921.0699 1109.09 898.5518 1131.4965 898.5518 1145.279 898.5518 1163.427 904.1445 1169.2404 912.7967 1168.1414 916.905 1160.818 924.605 1157.7509 927.7897 1153.2526 932.4663 1150.523 935.9779 1144.1895 940.7183 1128.7477 952.2876 1108.7101 960.2172 1088.5114 952.6167 1084.8745 951.2481 1079.4765 948.1745 1078.4509 944.3387" fill="#8ac440" fill-rule="evenodd"/>
<path transform="matrix(1,0,0,-1,0,1728)" d="M798.9395 1361.492C798.9395 1372.6707 795.958 1382.9494 793.8383 1392.0182 799.9934 1387.5216 804.3565 1371.3517 808.1192 1363.5309 820.0451 1371.4915 821.7782 1407.2528 801.7668 1427.3912 795.4642 1433.7346 777.1669 1448.799 768.3361 1448.9955 767.2893 1444.5108 765.1505 1442.569 763.6479 1437.393 762.1951 1432.3803 761.0414 1428.3788 760.3316 1423.4014 757.7416 1405.2166 761.9885 1392.1983 772.5498 1378.9193 777.8268 1372.2824 778.6361 1371.9179 786.5314 1366.4124 789.7955 1364.1347 794.1206 1361.8922 798.9395 1361.492" fill="#8ac440" fill-rule="evenodd"/>
<path transform="matrix(1,0,0,-1,0,1728)" d="M1026.4238 628.924C1030.566 628.0503 1031.2877 628.7488 1034.8413 631.7087 1037.4644 633.8942 1039.4133 635.4876 1042.1668 637.6425 1064.139 654.8564 1067.1775 657.5156 1086.8638 675.4757 1088.1218 676.624 1089.1712 677.2799 1090.2084 678.2485L1110.2437 698.9598C1110.8228 699.5991 1111.0459 699.8692 1111.7013 700.5606 1112.5794 701.4886 1112.6674 701.5005 1113.7212 702.6111L1116.5723 705.8738C1118.0225 707.567 1118.488 708.0523 1120.0167 709.5631 1126.8034 716.2594 1144.7711 734.3734 1132.5552 741.903 1116.6528 751.7106 1104.7388 732.9124 1095.362 720.9238 1091.1912 715.5986 1087.6946 711.4431 1083.6969 706.1037 1078.9089 699.7105 1028.0214 635.7648 1026.4238 628.924" fill="#0c6c6e" fill-rule="evenodd"/>
<path transform="matrix(1,0,0,-1,0,1728)" d="M1096.8126 1076.6061C1103.8344 1076.0236 1111.4116 1074.5719 1119.2522 1074.5719 1124.4249 1074.5719 1124.814 1075.5901 1130.4757 1075.5901L1129.1797 1074.8444C1122.7323 1071.7543 1106.6734 1068.4653 1099.8723 1068.4653 1104.7694 1061.1771 1126.0675 1055.2433 1133.5357 1055.2433 1147.4915 1055.2433 1158.3065 1055.0846 1170.591 1065.0841 1179.0371 1071.9605 1181.4727 1076.1325 1186.5835 1085.76 1164.7089 1097.3056 1135.3255 1109.3888 1110.8632 1094.1279 1101.871 1088.5209 1100.2689 1083.7877 1096.8126 1076.6061" fill="#8ac440" fill-rule="evenodd"/>
<path transform="matrix(1,0,0,-1,0,1728)" d="M887.6874 1388.9636C887.6874 1382.6511 889.8004 1373.201 892.9383 1367.7454 894.3225 1365.3422 894.9158 1364.324 897.8902 1363.5309L912.1711 1388.9636C912.1711 1383.1387 910.4074 1378.3014 909.1162 1373.6983 907.903 1369.3582 905.394 1363.8244 905.0306 1359.4558 920.202 1360.7178 938.6963 1385.2273 938.6963 1402.1929 938.6963 1432.5911 932.8022 1427.7986 929.5143 1441.8729 919.319 1441.6481 887.6874 1419.0233 887.6874 1388.9636" fill="#8ac440" fill-rule="evenodd"/>
<path transform="matrix(1,0,0,-1,0,1728)" d="M827.5014 1428.6461C827.5014 1416.9728 830.3428 1406.8573 837.4192 1398.8588 839.9948 1395.9513 840.541 1394.0357 844.8446 1393.0339L850.879 1417.5388C851.4771 1419.0114 851.4369 1418.6991 851.9876 1419.4922 851.9876 1403.9212 854.3614 1413.5678 851.7977 1392.0443 856.2722 1392.3757 857.2099 1394.5802 859.9184 1397.3292 868.9581 1406.514 872.3857 1419.2932 872.3857 1432.7141 872.3857 1443.3294 868.8583 1449.1685 865.262 1456.132 863.4815 1459.5868 861.3737 1462.3761 859.1471 1465.2933 856.7257 1468.471 854.0955 1470.2703 851.9876 1473.4125 841.0394 1466.1054 827.5014 1447.0042 827.5014 1428.6461" fill="#8ac440" fill-rule="evenodd"/>
<path transform="matrix(1,0,0,-1,0,1728)" d="M629.6049 1356.4035C636.9565 1351.495 641.0965 1338.8389 644.904 1336.0567 659.5957 1363.7487 629.7471 1401.177 599.0014 1401.177 598.7948 1391.8856 591.7776 1374.3612 603.0938 1354.3838 609.5055 1343.0679 622.3218 1333.0046 636.7428 1333.0046 636.7428 1342.1895 631.4159 1348.6419 629.6049 1356.4035" fill="#8ac440" fill-rule="evenodd"/>
<path transform="matrix(1,0,0,-1,0,1728)" d="M568.398 1024.7173C570.7267 1020.3248 573.0245 1018.0706 576.1128 1014.0973 590.9185 995.0672 619.9574 987.914 638.191 999.8739 641.5072 1002.0498 640.2631 1002.3885 643.8858 1003.3498 642.4804 1008.5992 633.5501 1010.8015 626.5474 1013.5315L619.4021 1016.5791C627.3139 1016.5791 640.1494 1014.088 646.9455 1012.5085 646.1172 1022.4417 627.6557 1036.4213 613.3037 1037.9724 603.9578 1038.981 596.319 1038.7797 587.9083 1035.7821 583.1773 1034.0963 570.9807 1028.2357 568.398 1024.7173" fill="#8ac440" fill-rule="evenodd"/>
<path transform="matrix(1,0,0,-1,0,1728)" d="M596.9599 1209.8963C600.2595 1203.0364 600.948 1192.038 612.5037 1179.6093 623.3854 1167.9072 633.4574 1164.1045 650.0078 1164.1045 655.2493 1164.1045 661.0034 1165.0944 663.268 1168.1748 661.7914 1173.6873 648.1514 1181.0534 644.904 1185.4718 656.6451 1182.7466 660.543 1178.3637 665.9079 1175.8229 667.5741 1175.0346 668.5237 1173.943 668.5639 1176.3462 668.8253 1191.7539 647.1451 1213.9639 625.5241 1213.9639 606.4648 1213.9639 613.4295 1213.7202 596.9599 1209.8963" fill="#8ac440" fill-rule="evenodd"/>
<path transform="matrix(1,0,0,-1,0,1728)" d="M500.0505 1263.8167C501.1829 1261.463 501.6365 1258.3372 502.7924 1255.3634 503.9271 1252.4391 504.8362 1249.941 506.1988 1247.5684 507.3953 1245.4846 508.981 1242.5296 510.2841 1240.446 522.5117 1220.8947 549.3195 1213.9498 566.3565 1222.1022 564.3196 1229.7056 549.7656 1236.6148 546.9763 1240.4129 556.6878 1238.1563 563.629 1233.3566 571.4555 1229.2249 571.4555 1236.835 569.1053 1240.6519 566.3305 1245.4776 553.3739 1267.9934 521.3843 1275.078 500.0505 1263.8167" fill="#8ac440" fill-rule="evenodd"/>
<path transform="matrix(1,0,0,-1,0,1728)" d="M589.8195 1289.2564C597.8452 1287.1137 602.9751 1273.6171 609.2016 1271.9594 610.5359 1287.9448 609.0854 1300.0419 596.2144 1312.9302 585.7934 1323.3677 562.2188 1331.3021 555.3394 1328.8042 551.8712 1327.5374 552.9634 1321.8214 553.051 1316.6856 553.127 1312.1748 553.8084 1308.2632 554.7104 1304.091 556.4432 1296.076 559.114 1289.6898 563.5125 1284.3811 571.8923 1274.2798 586.1543 1263.4115 601.0381 1266.8709 600.5373 1272.9019 592.5492 1284.1041 589.8195 1289.2564" fill="#8ac440" fill-rule="evenodd"/>
<path transform="matrix(1,0,0,-1,0,1728)" d="M505.1497 1118.3224C508.9952 1118.0027 514.4717 1115.216 517.7426 1113.5844 523.8198 1110.5584 525.0779 1108.5267 529.6334 1108.1455 524.1402 1131.6677 507.5212 1146.8619 482.7288 1146.8358 473.0221 1146.8289 464.69 1145.8344 458.2236 1142.7395 458.5703 1127.356 475.6238 1101.8875 499.0037 1097.9473 512.9881 1095.5866 513.318 1097.6372 523.5111 1100.0072 522.9865 1106.3103 511.7845 1112.5664 505.1497 1118.3224" fill="#8ac440" fill-rule="evenodd"/>
<path transform="matrix(1,0,0,-1,0,1728)" d="M580.6375 1084.7442C583.1464 1081.01 585.2568 1077.7426 588.1958 1073.966 594.8019 1065.477 611.4237 1054.2251 624.5033 1054.2251 635.0882 1054.2251 650.6963 1056.3112 656.1252 1064.3973 653.0391 1068.5979 637.3174 1075.5901 629.6049 1075.5901V1076.6061C635.7529 1076.6061 639.1213 1076.097 644.7402 1075.422 649.5568 1074.8395 654.5775 1072.9168 659.1875 1072.5333 655.7573 1087.2091 633.5382 1098.989 618.3814 1098.989 602.1658 1098.989 591.7113 1092.1365 580.6375 1084.7442" fill="#8ac440" fill-rule="evenodd"/>
<path transform="matrix(1,0,0,-1,0,1728)" d="M489.848 961.6357C493.3208 960.7076 509.1755 944.3387 525.5527 944.3387H535.7554C548.3605 944.3387 565.8508 954.1556 568.398 963.6721 558.8053 964.4652 561.4662 966.7219 541.8729 966.7219 543.9025 968.4788 543.4109 968.2396 546.6821 969.0517 548.2987 969.4519 551.0169 969.6886 553.7942 970.0937 558.1882 970.7423 562.5417 970.7896 568.398 970.7896 567.1208 976.2452 562.9309 978.6651 556.8636 981.6724 540.4105 989.839 520.9404 989.1215 506.4338 978.6677 501.4488 975.0801 491.4383 967.5694 489.848 961.6357" fill="#8ac440" fill-rule="evenodd"/>
<path transform="matrix(1,0,0,-1,0,1728)" d="M1067.2299 1196.6647C1064.7207 1193.2575 1050.8386 1184.61 1045.806 1183.4357 1050.62 1176.8862 1076.3405 1176.609 1090.8541 1187.3449 1101.9898 1195.5801 1111.7962 1209.9317 1112.1117 1224.1338 1090.6929 1229.116 1072.5494 1228.8436 1055.3939 1215.593 1049.8604 1211.3215 1042.5254 1199.615 1042.0316 1193.101 1041.4429 1185.3726 1057.9575 1194.5075 1067.2299 1196.6647" fill="#8ac440" fill-rule="evenodd"/>
<path transform="matrix(1,0,0,-1,0,1728)" d="M777.5158 1261.7802C782.7596 1257.9514 785.651 1246.839 788.7368 1240.4129 796.0601 1245.7689 804.3401 1286.8958 765.9814 1306.2387 762.0097 1308.2417 759.7142 1309.6057 754.0529 1309.6057 753.2433 1299.9093 743.6911 1284.8737 752.1395 1262.924 756.2769 1252.1762 766.8383 1237.3632 781.5988 1237.3632 781.5988 1249.1099 777.9716 1256.3246 777.5158 1261.7802" fill="#8ac440" fill-rule="evenodd"/>
<path transform="matrix(1,0,0,-1,0,1728)" d="M918.2934 1262.7984C917.6193 1254.7454 912.2306 1246.2993 909.1114 1240.4129 922.2814 1240.4129 935.6105 1253.7462 941.0987 1264.47 945.2316 1272.5468 945.8439 1275.5682 945.8629 1287.2393 945.8796 1298.9362 942.8031 1301.7705 940.7333 1310.6215 922.7537 1306.4423 900.0765 1288.1983 897.9996 1268.7959 896.72 1256.8859 898.1538 1251.6837 901.9709 1244.4832 906.6569 1245.7359 910.709 1252.5812 914.3623 1257.5608L916.9118 1261.1242C918.3098 1262.9523 917.4484 1261.8275 918.2934 1262.7984" fill="#8ac440" fill-rule="evenodd"/>
<path transform="matrix(1,0,0,-1,0,1728)" d="M1074.3704 1362.5127C1074.2516 1357.3222 1067.7163 1343.8755 1065.1884 1339.1065 1077.841 1339.3908 1091.0798 1352.3474 1096.8457 1363.4929 1103.8391 1377.0227 1102.6902 1396.3136 1095.7918 1409.3152 1084.0365 1406.5805 1069.7247 1396.7396 1062.2614 1386.7948 1056.8823 1379.6249 1055.7831 1377.4535 1053.6681 1366.8742 1051.3939 1355.4873 1055.6337 1349.1486 1057.0272 1343.1768 1061.5374 1344.3798 1068.367 1353.3965 1070.6244 1357.0903Z" fill="#8ac440" fill-rule="evenodd"/>
<path transform="matrix(1,0,0,-1,0,1728)" d="M1211.065 1132.5674C1207.0579 1126.6004 1195.4594 1123.0911 1192.701 1119.3406 1204.9572 1113.4732 1237.4406 1118.4242 1249.6397 1138.8587 1252.1392 1143.0403 1255.9517 1153.6268 1255.9517 1160.0365 1250.8551 1160.0365 1250.3283 1161.0264 1244.7686 1161.0975 1232.1945 1161.2489 1220.795 1161.6965 1209.6834 1156.3285 1198.6498 1151.0011 1187.5995 1142.2946 1187.5995 1126.4607 1199.6799 1126.4607 1205.0923 1132.0702 1211.065 1132.5674" fill="#8ac440" fill-rule="evenodd"/>
<path transform="matrix(1,0,0,-1,0,1728)" d="M904.0124 1178.3517C904.0124 1173.6232 905.3986 1168.272 907.0722 1165.1227 911.3357 1166.2617 913.5624 1170.0883 916.5081 1173.0076 918.1936 1174.6817 919.5301 1175.8181 921.0447 1177.6414 922.9008 1179.8838 923.1313 1180.8853 925.4339 1182.4197 924.4559 1178.2429 922.2435 1174.8569 920.1472 1171.4165 917.5028 1167.069 914.5117 1163.6264 914.2126 1160.0365 944.7211 1162.5678 962.0691 1198.8715 949.9175 1224.1338L933.4431 1218.1859C928.1163 1216.0287 922.8892 1212.8655 919.0341 1209.1527 913.4198 1203.7445 907.7321 1196.6859 905.7951 1188.7798 905.489 1187.5343 904.0124 1179.9312 904.0124 1178.3517" fill="#8ac440" fill-rule="evenodd"/>
<path transform="matrix(1,0,0,-1,0,1728)" d="M922.3716 1110.1842C922.3716 1104.6223 922.0938 1099.7396 924.4131 1094.9213 931.8668 1096.6521 939.2187 1108.825 942.7745 1111.2024 940.9207 1103.2605 932.8425 1094.6489 931.5536 1089.8303 950.3756 1089.8303 971.339 1110.4021 971.339 1133.5833 971.339 1141.4917 969.7484 1146.6204 968.279 1152.9164 948.3177 1151.2568 922.3716 1133.0009 922.3716 1110.1842" fill="#8ac440" fill-rule="evenodd"/>
<path transform="matrix(1,0,0,-1,0,1728)" d="M763.2349 1158.0026C766.2898 1155.9617 769.8078 1153.6625 772.6683 1151.1289 775.9562 1148.2118 778.083 1145.086 781.5988 1142.7395 781.5988 1153.2078 781.2805 1156.9252 778.1377 1164.7295 773.3781 1176.5523 762.8122 1185.6141 750.8886 1189.438 742.3877 1192.1681 737.3364 1191.5785 726.514 1191.5785 726.514 1140.5801 766.6792 1132.8753 774.0405 1137.1561 778.6006 1139.8082 764.4691 1153.402 763.2349 1158.0026" fill="#8ac440" fill-rule="evenodd"/>
<path transform="matrix(1,0,0,-1,0,1728)" d="M735.696 1107.1298C739.4536 1106.1259 742.8745 1102.1763 745.7491 1099.8652 753.1152 1093.9408 751.8095 1093.0482 755.0736 1091.8667 755.0736 1114.2332 745.6422 1130.9692 724.3682 1138.5626 717.3414 1141.0728 709.4035 1140.7056 699.9911 1140.7056 699.9911 1118.2398 707.4213 1101.6553 720.9663 1092.4373 727.6796 1087.8698 743.8904 1082.5231 748.0613 1086.681 750.0197 1088.6392 744.5979 1094.694 743.0312 1097.1493Z" fill="#8ac440" fill-rule="evenodd"/>
<path transform="matrix(1,0,0,-1,0,1728)" d="M806.0825 1206.8394C806.0825 1188.9479 811.8839 1171.298 828.9471 1164.4102 840.9943 1159.549 832.9448 1171.1914 831.5844 1187.5082 835.0169 1183.5684 840.3724 1170.8482 840.7641 1166.1409H843.8238C847.0809 1180.0828 847.9046 1171.2745 847.9046 1191.5785 847.9046 1196.1746 846.0933 1203.1098 844.5407 1206.5363 842.0128 1212.1314 838.6466 1215.6548 834.5424 1219.9666L833.5287 1220.992C829.0942 1225.2943 818.4858 1232.1371 812.1997 1232.2769 810.1868 1223.6463 806.0825 1217.6461 806.0825 1206.8394" fill="#8ac440" fill-rule="evenodd"/>
<path transform="matrix(1,0,0,-1,0,1728)" d="M1124.3538 974.8602 1147.8189 970.7896C1147.5982 970.6547 1147.2138 970.7992 1147.0901 970.5008 1146.5773 969.2436 1140.0922 968.8646 1137.6259 968.7464 1133.747 968.5664 1129.315 968.758 1125.3745 968.758 1126.1364 965.912 1126.3952 965.6374 1131.9262 962.0666 1134.4164 960.4613 1138.1859 958.6783 1140.6762 957.5631 1164.2411 947.0214 1184.8887 953.0901 1198.823 973.842 1185.7694 982.5627 1170.9616 992.1572 1153.9363 992.1572 1141.609 992.1572 1125.2487 985.5794 1124.3538 974.8602" fill="#8ac440" fill-rule="evenodd"/>
<path transform="matrix(1,0,0,-1,0,1728)" d="M1137.6162 1230.243C1146.924 1230.243 1153.7062 1233.6148 1161.0791 1235.3316 1159.4887 1233.1672 1154.245 1230.3921 1151.242 1228.86 1148.8754 1227.6574 1147.6386 1227.1671 1145.5805 1226.367 1141.571 1224.8087 1141.7017 1225.9384 1140.6762 1222.1022 1159.0543 1217.8307 1174.2849 1215.6642 1190.4293 1230.4749 1197.8048 1237.2376 1202.6307 1246.7871 1204.9428 1256.694 1196.1882 1257.421 1176.3809 1269.9942 1151.4509 1253.0735 1145.4996 1249.0342 1137.6162 1239.5415 1137.6162 1230.243" fill="#8ac440" fill-rule="evenodd"/>
<path transform="matrix(1,0,0,-1,0,1728)" d="M1099.8723 1279.0772C1098.9111 1274.9689 1096.0007 1272.2482 1093.6148 1269.0422 1091.2293 1265.8433 1087.6969 1263.8095 1086.612 1259.7487 1097.9235 1259.7487 1107.5494 1263.3146 1115.5017 1269.5988 1126.1648 1278.0213 1131.7836 1290.3931 1132.5458 1304.5337 1132.8687 1310.4273 1131.601 1312.1133 1131.4965 1316.7258 1122.7799 1316.7258 1116.2163 1315.1322 1110.0538 1312.672 1098.3413 1308.0073 1101.1613 1308.9949 1093.3064 1302.9214 1084.4447 1296.076 1076.8344 1281.5138 1080.4901 1265.8504 1088.4898 1267.7117 1093.7477 1274.9902 1099.8723 1279.0772" fill="#8ac440" fill-rule="evenodd"/>
<path transform="matrix(1,0,0,-1,0,1728)" d="M706.1108 1038.962C706.1108 1025.3945 714.7468 1011.4906 730.5945 1011.4906 741.5237 1011.4906 750.9929 1023.0905 750.9929 1033.8735 750.9929 1044.8226 750.8529 1048.0048 744.3224 1056.7278 731.0599 1074.4489 706.1108 1063.5829 706.1108 1038.962" fill="#ef7c00" fill-rule="evenodd"/>
<path transform="matrix(1,0,0,-1,0,1728)" d="M668.3695 1121.3745C673.5016 1120.1837 675.6738 1116.6508 681.6297 1115.2704 681.4301 1124.1615 672.6637 1134.3574 666.9473 1138.2715 658.2781 1144.2146 645.5687 1143.2296 634.7061 1140.7056 635.4706 1131.5137 642.2811 1121.1829 647.6839 1116.0043 654.9905 1109.0027 663.9613 1106.0073 677.5489 1109.1637 677.0506 1115.1329 671.1111 1117.29 668.3695 1121.3745" fill="#8ac440" fill-rule="evenodd"/>
<path transform="matrix(1,0,0,-1,0,1728)" d="M1101.9138 1015.5583C1101.045 1015.0115 1101.446 1015.1345 1099.8369 1014.5781 1094.6616 1012.8047 1093.6148 1014.3935 1089.6696 1012.5085 1098.5645 1000.402 1135.4298 1000.2195 1140.6762 1022.6832 1106.9179 1045.2322 1081.207 1019.7754 1089.7977 1016.8322 1090.0066 1016.7661 1101.5269 1015.5679 1101.9138 1015.5583" fill="#8ac440" fill-rule="evenodd"/>
<path transform="matrix(1,0,0,-1,0,1728)" d="M1009.0806 1125.4425C1009.0806 1122.6934 1009.5695 1122.6369 1010.1036 1120.3566 1014.7467 1121.4315 1017.7021 1125.0567 1021.3223 1127.4789 1019.9954 1122.5183 1015.4852 1121.1475 1014.1841 1116.286 1030.3121 1116.286 1043.7644 1127.827 1043.7644 1143.7577V1153.9324C1026.248 1153.9324 1009.0806 1142.4696 1009.0806 1125.4425" fill="#8ac440" fill-rule="evenodd"/>
<path transform="matrix(1,0,0,-1,0,1728)" d="M979.5002 1169.193C985.7432 1170.6447 987.0299 1175.0604 991.7396 1176.3179 987.8443 1170.5142 984.5589 1168.7763 983.5807 1165.1227 1002.3863 1165.1227 1018.0369 1181.8987 1013.1636 1202.769 999.6517 1202.769 985.2117 1196.2243 980.6159 1183.3384 978.0568 1176.159 979.3483 1175.991 979.5002 1169.193" fill="#8ac440" fill-rule="evenodd"/>
<text fill="#ef7c00" xml:space="preserve" transform="matrix(.9501579 0 -0 1.0524566 0 1728)" font-size="176.64197" font-family="TimesNewRomB" font-style="italic"><tspan y="-277.33003" x="676.05416 842.6275 970.163 1077.9146">MCPL</tspan></text>
<text fill="#1a1a18" xml:space="preserve" transform="matrix(.98035708 0 -0 1.0200365 0 1728)" font-size="69.59065" font-family="TimesNewRomB" font-style="italic"><tspan y="-181.56616" x="437.61518 487.85966 541.9316 592.1761 642.42056 659.8182 702.2685 752.51296 798.8603 849.10476 899.3492 945.69656 963.0942 1017.1662 1067.4107 1117.655 1135.0527 1177.5029 1227.7474 1254.8182 1305.0626">YOUR FUTURE OUR PRIDE</tspan></text>
</g>
</svg>
