<?xml version="1.0" encoding="UTF-8"?>
<svg version="1.1" xmlns="http://www.w3.org/2000/svg" width="180" height="192">
<path d="M0 0 C2.65527344 1.13891602 2.65527344 1.13891602 5.359375 2.75390625 C6.38047363 3.35420654 7.40157227 3.95450684 8.45361328 4.57299805 C9.5414209 5.22953369 10.62922852 5.88606934 11.75 6.5625 C13.48076597 7.58419594 15.21154395 8.60587218 16.94302368 9.62635803 C18.74727923 10.69192247 20.54817969 11.76298629 22.34863281 12.83496094 C28.24350516 16.33845392 34.18592589 19.75970105 40.125 23.1875 C41.19588867 23.81019775 42.26677734 24.43289551 43.37011719 25.07446289 C46.23674247 26.73467498 49.11586657 28.37045932 52 30 C52.77182617 30.45584473 53.54365234 30.91168945 54.33886719 31.38134766 C58.28661556 33.66680324 58.28661556 33.66680324 62.66015625 33.2734375 C63.43230469 32.85320313 64.20445312 32.43296875 65 32 C70.25621159 31.34201718 74.64376258 31.33421072 79.4375 33.6875 C83.44304271 37.30225806 86.58312244 40.4736259 87.23828125 46.015625 C87.43531989 51.94752504 86.50053966 55.17493182 83 60 C82.1392688 60.5835878 81.2785376 61.1671756 80.39172363 61.76844788 C77.71312404 63.82857343 77.71312404 63.82857343 77.39440918 67.14280701 C77.40703796 68.99882286 77.40703796 68.99882286 77.41992188 70.89233398 C77.41746964 71.57739014 77.4150174 72.26244629 77.41249084 72.96826172 C77.41032224 74.45186732 77.41957625 75.93552415 77.4389801 77.41900444 C77.46904813 79.76939857 77.46801446 82.11797313 77.4588623 84.46852112 C77.44258002 90.30488672 77.47995259 96.14069073 77.51544189 101.97692871 C77.5433983 106.91034231 77.55106936 111.84298319 77.53187561 116.77644539 C77.53125867 119.08858773 77.56042315 121.39913035 77.59069824 123.71104431 C77.58862312 125.13345626 77.5851568 126.55586709 77.58007812 127.97827148 C77.59270691 129.83548073 77.59270691 129.83548073 77.60559082 131.73020935 C76.83081632 135.91348018 75.23474882 137.3308127 72 140 C69.2746582 141.79833984 69.2746582 141.79833984 66.30078125 143.4609375 C65.18574219 144.09040283 64.07070312 144.71986816 62.921875 145.3684082 C61.71875333 146.03727813 60.51562825 146.70614192 59.3125 147.375 C58.07107576 148.07350613 56.83019766 148.77298369 55.58984375 149.47338867 C53.02199761 150.92288343 50.45231909 152.36904478 47.88134766 153.81298828 C41.7310941 157.27251796 35.61495082 160.79107337 29.5 164.3125 C28.40341064 164.9401123 27.30682129 165.56772461 26.17700195 166.21435547 C25.15952881 166.79975098 24.14205566 167.38514648 23.09375 167.98828125 C21.75860352 168.75458862 21.75860352 168.75458862 20.39648438 169.53637695 C15.9422082 171.9707413 15.9422082 171.9707413 13.3828125 176.015625 C13.29773438 176.75296875 13.21265625 177.4903125 13.125 178.25 C12.16860726 183.43821904 9.92936045 186.54216281 6 190 C1.76678642 192.63145709 -3.15033209 192.67379606 -8 192 C-12.80715831 190.25963936 -16.3902904 187.38058396 -19 183 C-19.33423894 181.23885134 -19.65725089 179.47555636 -19.97265625 177.7109375 C-21.20038479 173.11808576 -22.43229472 171.09202456 -26.48046875 168.57421875 C-28.36446857 167.57654073 -30.26847868 166.61603321 -32.1875 165.6875 C-34.27340331 164.59616997 -36.35799749 163.50233477 -38.44140625 162.40625 C-39.5205127 161.85195312 -40.59961914 161.29765625 -41.71142578 160.7265625 C-47.11781741 157.88810655 -52.36503355 154.78650213 -57.625 151.6875 C-58.57012451 151.13731201 -59.51524902 150.58712402 -60.48901367 150.02026367 C-62.30236165 148.96235877 -64.1056806 147.8869928 -65.89637756 146.79118347 C-68.98636472 144.9390023 -68.98636472 144.9390023 -72.35284424 143.48904419 C-76.23348098 141.57263545 -78.86232797 139.99721541 -82 137 C-83.82036545 131.59616338 -83.59033506 126.4062128 -83.3828125 120.79296875 C-83.37337245 119.21977676 -83.37012659 117.64653657 -83.37277222 116.07331848 C-83.36517269 111.95095334 -83.28267963 107.83364295 -83.18133545 103.71264648 C-83.03385886 97.10224401 -83.01111335 90.48977963 -82.96938705 83.87804604 C-82.94560341 81.57118493 -82.89602192 79.26607024 -82.84109497 76.95976257 C-82.81848293 75.55024565 -82.79608168 74.14072533 -82.77392578 72.73120117 C-82.74581818 71.50068527 -82.71771057 70.27016937 -82.68875122 69.00236511 C-82.73196056 66.0304061 -82.73196056 66.0304061 -84.35397339 64.23554993 C-84.89716217 63.82781845 -85.44035095 63.42008698 -86 63 C-93.29077347 55.88705027 -93.29077347 55.88705027 -93.375 49.25 C-93.24999639 43.49288929 -92.65222012 40.47396965 -89 36 C-85.33688054 32.88515655 -82.22490274 31.17191617 -77.4375 30.5 C-74.56690609 30.91754093 -72.86972406 31.39270601 -70.3125 32.5625 C-66.76597747 34.10155694 -66.40299474 34.2275214 -63 33 C-61.22186917 32.11067193 -59.47016314 31.16774574 -57.73828125 30.19140625 C-56.71009277 29.61414795 -55.6819043 29.03688965 -54.62255859 28.44213867 C-53.53023926 27.82185791 -52.43791992 27.20157715 -51.3125 26.5625 C-50.18924316 25.92868408 -49.06598633 25.29486816 -47.90869141 24.6418457 C-41.537072 21.03667058 -35.18563119 17.39844508 -28.875 13.6875 C-28.20855469 13.2958667 -27.54210937 12.9042334 -26.85546875 12.50073242 C-23.48647072 10.50871247 -20.15024403 8.47476978 -16.83984375 6.38671875 C-16.16260254 5.96495361 -15.48536133 5.54318848 -14.78759766 5.10864258 C-13.51559186 4.31414996 -12.25028909 3.50877053 -10.99365234 2.69018555 C-7.08425548 0.25719217 -4.55866622 -0.39781233 0 0 Z M-10.76953125 17.0078125 C-11.89496338 17.65854736 -13.02039551 18.30928223 -14.17993164 18.97973633 C-15.39097779 19.69450235 -16.60182972 20.40959752 -17.8125 21.125 C-19.05733226 21.85076174 -20.30270007 22.57560562 -21.54858398 23.29956055 C-24.10537375 24.78736816 -26.65844795 26.28128456 -29.20898438 27.77978516 C-32.82010744 29.89904137 -36.44711942 31.98920329 -40.078125 34.07421875 C-42.23978896 35.31995576 -44.40125704 36.56603274 -46.5625 37.8125 C-47.57223877 38.39209473 -48.58197754 38.97168945 -49.62231445 39.56884766 C-50.55261475 40.10944824 -51.48291504 40.65004883 -52.44140625 41.20703125 C-53.25295166 41.6760083 -54.06449707 42.14498535 -54.90063477 42.62817383 C-57.64884507 44.42398656 -59.68080708 45.81988534 -60.5546875 49.05078125 C-60.66039062 49.79714844 -60.76609375 50.54351562 -60.875 51.3125 C-61.81870885 56.18172045 -63.50852173 58.50852173 -67 62 C-67.99 62.66 -68.98 63.32 -70 64 C-70.47473096 66.79832319 -70.47473096 66.79832319 -70.41992188 70.13037109 C-70.43583374 71.41865814 -70.45174561 72.70694519 -70.46813965 74.03427124 C-70.46940696 75.44732611 -70.46958373 76.86038231 -70.46875 78.2734375 C-70.47584844 79.71831561 -70.48354697 81.16319089 -70.49182129 82.60806274 C-70.50528371 85.63950427 -70.50682767 88.67068534 -70.50097656 91.70214844 C-70.49508569 95.58534921 -70.52563592 99.46729741 -70.56609344 103.35025597 C-70.59196017 106.33575156 -70.59484877 109.32094542 -70.59120178 112.30653763 C-70.59289477 113.73788216 -70.60255474 115.16924036 -70.62034607 116.60047531 C-70.64250326 118.60380835 -70.62963468 120.60743603 -70.61523438 122.61083984 C-70.61728882 123.75064301 -70.61934326 124.89044617 -70.62145996 126.06478882 C-70.24537635 129.19143888 -70.24537635 129.19143888 -67.62338257 131.29777527 C-64.99043834 133.00620424 -62.35704864 134.65543524 -59.6328125 136.21484375 C-58.59294189 136.81296875 -57.55307129 137.41109375 -56.48168945 138.02734375 C-55.37398193 138.65769531 -54.26627441 139.28804688 -53.125 139.9375 C-51.38076091 140.93161191 -49.6365226 141.92572517 -47.89234924 142.91995239 C-46.70215893 143.59807494 -45.51159407 144.2755405 -44.32066345 144.95236206 C-40.3258852 147.22716681 -36.36629337 149.55525624 -32.41796875 151.91015625 C-31.38849121 152.51545166 -30.35901367 153.12074707 -29.29833984 153.74438477 C-27.34876168 154.89069847 -25.40720433 156.05079553 -23.47509766 157.22631836 C-18.20121681 160.3203354 -18.20121681 160.3203354 -12.2109375 160.85546875 C-11.15132812 160.57316406 -10.09171875 160.29085937 -9 160 C-7.10620571 159.89214152 -5.20931502 159.82602935 -3.3125 159.8125 C-2.40113281 159.79832031 -1.48976563 159.78414062 -0.55078125 159.76953125 C2 160 2 160 4.01953125 161.07421875 C6.74155363 162.34664342 8.12358747 161.77601246 11 161 C13.41150347 159.85251119 13.41150347 159.85251119 15.82421875 158.3671875 C16.75854736 157.81514648 17.69287598 157.26310547 18.65551758 156.69433594 C19.65607178 156.09395508 20.65662598 155.49357422 21.6875 154.875 C23.83026019 153.60597862 25.97350767 152.33777976 28.1171875 151.0703125 C29.23577148 150.40676758 30.35435547 149.74322266 31.50683594 149.05957031 C37.41049427 145.56879467 43.3649243 142.16518613 49.3125 138.75 C51.49665299 137.49576503 53.68028939 136.24062981 55.86328125 134.984375 C57.24447144 134.19111816 57.24447144 134.19111816 58.65356445 133.38183594 C60.47062767 132.31175189 62.24541946 131.16972036 64 130 C64.48871275 127.17593023 64.48871275 127.17593023 64.45166016 123.80957031 C64.4740274 122.5077179 64.49639465 121.20586548 64.5194397 119.86456299 C64.52734656 118.43575723 64.53385271 117.00694314 64.5390625 115.578125 C64.55124113 114.11561838 64.56372708 112.65311428 64.57650757 111.19061279 C64.59900985 108.12050787 64.60853999 105.05065152 64.61083984 101.98046875 C64.61611262 98.05448437 64.66736221 94.13058281 64.73035622 90.20515823 C64.7713232 87.18182338 64.7804828 84.15898632 64.78095627 81.13539886 C64.78632939 79.68890349 64.80314674 78.24240214 64.83180618 76.79618073 C65.26035807 68.92517555 65.26035807 68.92517555 62.4586792 61.88317871 C60.64374284 60.29308938 60.64374284 60.29308938 58.69882202 59.1774292 C56.58826579 57.71463292 55.9402765 56.36268375 55 54 C54.84473496 52.56711602 54.71003033 51.13188572 54.59375 49.6953125 C53.91325959 46.51752618 53.30371917 45.26405028 50.82421875 43.10839844 C47.78064148 41.21095149 44.6843712 39.52544327 41.5 37.875 C39.7489198 36.91838795 37.99786533 35.96172494 36.24839783 35.00216675 C34.4191894 34.00349553 32.58340412 33.0177889 30.74658203 32.03320312 C25.15305736 29.01828475 19.66473068 25.82040257 14.17041016 22.62945557 C12.45476114 21.63500516 10.73520832 20.64729966 9.015625 19.65966797 C7.97792969 19.06299316 6.94023438 18.46631836 5.87109375 17.8515625 C4.95255615 17.32385254 4.03401855 16.79614258 3.08764648 16.25244141 C1 15 1 15 0 14 C-4.44408189 13.49444195 -6.9686724 14.78563925 -10.76953125 17.0078125 Z M-77 43 C-78.32 43.99 -79.64 44.98 -81 46 C-80.67 47.98 -80.34 49.96 -80 52 C-78.20800528 52.78282648 -78.20800528 52.78282648 -76 53 C-73.75244247 51.6483633 -73.75244247 51.6483633 -72 50 C-72.18828772 47.55519921 -72.18828772 47.55519921 -73 45 C-74.96758273 43.63979849 -74.96758273 43.63979849 -77 43 Z M70 43 C68.68 43.99 67.36 44.98 66 46 C66.33 47.98 66.66 49.96 67 52 C69.34533951 52.76956136 69.34533951 52.76956136 72 53 C74 52 74 52 75 50 C75.08024658 47.40110217 75.08024658 47.40110217 74 45 C72.03241727 43.63979849 72.03241727 43.63979849 70 43 Z M-6.75 171.1875 C-8.2842979 172.99648167 -8.2842979 172.99648167 -7.75 175.625 C-7.22254355 177.9312407 -7.22254355 177.9312407 -6 179 C-3.54190002 179.2500773 -3.54190002 179.2500773 -1 179 C1.23845015 177.17084359 1.23845015 177.17084359 1.3125 174.5 C1.209375 173.675 1.10625 172.85 1 172 C-2.0999373 169.93337513 -3.52940482 169.00209613 -6.75 171.1875 Z " fill="#000000" transform="translate(93,0)"/>
<path d="M0 0 C2.82983398 1.23413086 2.82983398 1.23413086 5.74609375 2.96484375 C6.8244751 3.59632324 7.90285645 4.22780273 9.01391602 4.87841797 C10.70859009 5.89766357 10.70859009 5.89766357 12.4375 6.9375 C13.60474057 7.62756009 14.77263124 8.31652167 15.94116211 9.00439453 C19.30301811 10.98811204 22.65155485 12.99372586 26 15 C27.66868506 15.98926999 29.33787761 16.97768499 31.0078125 17.96484375 C40.74036363 23.74036363 40.74036363 23.74036363 42 25 C42.1089531 26.57967786 42.14904958 28.16417395 42.16113281 29.74755859 C42.17074036 30.75885834 42.1803479 31.77015808 42.19024658 32.81210327 C42.19449646 33.91309357 42.19874634 35.01408386 42.203125 36.1484375 C42.20882507 37.27190582 42.21452515 38.39537415 42.22039795 39.55288696 C42.2298649 41.93531345 42.23638862 44.31775312 42.24023438 46.70019531 C42.24994006 50.3524451 42.28094823 54.00413245 42.3125 57.65625 C42.31902959 59.96614248 42.32428023 62.27603899 42.328125 64.5859375 C42.3404718 65.68287933 42.3528186 66.77982117 42.36553955 67.91000366 C42.36253845 68.92760773 42.35953735 69.94521179 42.35644531 70.99365234 C42.36191376 72.33814957 42.36191376 72.33814957 42.36749268 73.70980835 C41.92238809 76.48367262 41.17743338 77.28592558 39 79 C37.19891181 80.14356199 35.36468727 81.23553774 33.51171875 82.29296875 C32.41891602 82.92009766 31.32611328 83.54722656 30.20019531 84.19335938 C29.0295519 84.85852194 27.85864887 85.52322778 26.6875 86.1875 C24.90798315 87.20042759 23.12885878 88.21404149 21.349823 89.22781372 C19.61367447 90.21689246 17.87690976 91.20488937 16.14013672 92.19287109 C13.52972894 93.69514433 10.94678821 95.22748899 8.37890625 96.80078125 C7.74702393 97.18274658 7.1151416 97.56471191 6.46411133 97.95825195 C4.88124727 98.92023471 3.307374 99.89696954 1.734375 100.875 C-1.72049967 102.29643415 -3.39053375 101.85420596 -7 101 C-9.64624023 99.74414063 -9.64624023 99.74414063 -12.30859375 98.15625 C-13.29649902 97.57327148 -14.2844043 96.99029297 -15.30224609 96.38964844 C-16.85419678 95.45427246 -16.85419678 95.45427246 -18.4375 94.5 C-20.03198975 93.55302246 -20.03198975 93.55302246 -21.65869141 92.58691406 C-23.78811924 91.32055834 -25.91512138 90.0501139 -28.03955078 88.77539062 C-30.63353567 87.2197698 -33.23418216 85.67657054 -35.83984375 84.140625 C-37.18519692 83.34425843 -38.53027531 82.54742735 -39.875 81.75 C-40.78270142 81.21342773 -40.78270142 81.21342773 -41.70874023 80.66601562 C-44.0668716 79.25245594 -46.04643827 77.95356173 -48 76 C-48.26742554 73.88821411 -48.26742554 73.88821411 -48.29052734 71.24658203 C-48.30328705 70.25860626 -48.31604675 69.27063049 -48.32919312 68.25271606 C-48.33141876 67.18189789 -48.33364441 66.11107971 -48.3359375 65.0078125 C-48.3425943 63.91032684 -48.3492511 62.81284119 -48.35610962 61.68209839 C-48.36624948 59.35693034 -48.37092623 57.03173311 -48.37060547 54.70654297 C-48.37497384 51.14632196 -48.41126775 47.58734484 -48.44921875 44.02734375 C-48.4550875 41.77083758 -48.4590565 39.51432551 -48.4609375 37.2578125 C-48.47530853 36.19104279 -48.48967957 35.12427307 -48.50448608 34.025177 C-48.45897765 26.67165398 -48.45897765 26.67165398 -46.27709961 23.47875977 C-43.90958691 21.94128529 -41.57952892 20.44411725 -39.10546875 19.08203125 C-38.15663818 18.55375732 -37.20780762 18.0254834 -36.23022461 17.48120117 C-35.22612549 16.93052979 -34.22202637 16.3798584 -33.1875 15.8125 C-24.68786044 11.12741738 -24.68786044 11.12741738 -16.359375 6.1484375 C-15.68624268 5.72844482 -15.01311035 5.30845215 -14.31958008 4.87573242 C-13.10403147 4.10830797 -11.89495553 3.33048887 -10.6940918 2.5402832 C-6.90050929 0.15449979 -4.43746209 -0.39190286 0 0 Z M-11.6171875 17.0625 C-12.63554688 17.69414063 -13.65390625 18.32578125 -14.703125 18.9765625 C-15.74984375 19.64429688 -16.7965625 20.31203125 -17.875 21 C-18.94492188 21.66773438 -20.01484375 22.33546875 -21.1171875 23.0234375 C-23.75251145 24.67051497 -26.37945187 26.3295513 -29 28 C-24.4184003 31.75736463 -19.65136424 34.79992371 -14.5625 37.8125 C-13.31243164 38.5849707 -13.31243164 38.5849707 -12.03710938 39.37304688 C-11.22177734 39.85451172 -10.40644531 40.33597656 -9.56640625 40.83203125 C-8.46727905 41.49295776 -8.46727905 41.49295776 -7.34594727 42.16723633 C-4.16081108 43.29789504 -2.24523346 42.87121058 1 42 C3.74623192 40.72323859 3.74623192 40.72323859 6.3984375 39.05859375 C7.37167969 38.47529297 8.34492187 37.89199219 9.34765625 37.29101562 C10.34667969 36.67935547 11.34570312 36.06769531 12.375 35.4375 C13.39722656 34.82197266 14.41945312 34.20644531 15.47265625 33.57226562 C17.98703074 32.05659128 20.4957624 30.53234432 23 29 C19.68743509 25.54417443 16.24068738 23.22251502 12.0625 20.9375 C5.04503172 17.03063802 5.04503172 17.03063802 2.43359375 15.25390625 C-2.85287424 12.53005998 -6.8429362 14.05847671 -11.6171875 17.0625 Z M-36 39 C-36.22359275 43.16226504 -36.38625784 47.32130216 -36.49438477 51.48779297 C-36.5394723 52.90247491 -36.60076961 54.31674131 -36.67895508 55.72998047 C-37.37835076 63.92559123 -37.37835076 63.92559123 -34.25317383 71.12841797 C-31.90631315 72.71427847 -29.59163181 73.86331497 -27 75 C-25.55511559 75.83673903 -24.11842338 76.68782809 -22.69140625 77.5546875 C-21.3171847 78.33181562 -19.94089471 79.10529811 -18.5625 79.875 C-17.85673828 80.2771875 -17.15097656 80.679375 -16.42382812 81.09375 C-12.92849994 83.24724421 -12.92849994 83.24724421 -9 84 C-7.52576376 74.20010909 -5.99961002 63.62185034 -9 54 C-15.64538074 45.99600808 -26.36148654 42.21283782 -36 39 Z M18.75 44.75 C17.79480469 45.28882813 16.83960937 45.82765625 15.85546875 46.3828125 C14.46521484 47.17558594 14.46521484 47.17558594 13.046875 47.984375 C12.19963867 48.46616211 11.35240234 48.94794922 10.47949219 49.44433594 C6.50749288 51.92130189 6.50749288 51.92130189 3 55 C2.31209297 58.2799332 2.31209297 58.2799332 2.51171875 61.953125 C2.51879349 62.61334656 2.52586823 63.27356812 2.53315735 63.95379639 C2.56105273 66.05370492 2.62376713 68.15090379 2.6875 70.25 C2.71258983 71.6770447 2.73540183 73.10413138 2.75585938 74.53125 C2.8108588 78.02170748 2.89709088 81.51058911 3 85 C9.21115789 81.62484816 15.41792817 78.24520582 21.5625 74.75 C22.16384766 74.41226563 22.76519531 74.07453125 23.38476562 73.7265625 C25.87442885 72.31027032 27.96422377 71.03577623 30 69 C30.27904629 65.88961056 30.27904629 65.88961056 30.1953125 62.2421875 C30.19106766 61.24761032 30.19106766 61.24761032 30.18673706 60.23294067 C30.17553435 58.11344417 30.15043051 55.99436896 30.125 53.875 C30.11497028 52.43880818 30.10584441 51.00260975 30.09765625 49.56640625 C30.075595 46.04413372 30.04106494 42.52210797 30 39 C26.47273991 39 21.74814793 43.03791021 18.75 44.75 Z " fill="#FF4900" transform="translate(93,40)"/>
</svg>
