<?xml version="1.0" encoding="UTF-8"?>
<svg version="1.1" xmlns="http://www.w3.org/2000/svg" width="192" height="152">
<path d="M0 0 C8.17552739 6.6247618 13.44082523 14.76330092 16 25 C16 28.63 16 32.26 16 36 C-11.06 36 -38.12 36 -66 36 C-66 23.32486252 -64.32499006 15.44836221 -56 6 C-55.47535156 5.38253906 -54.95070313 4.76507813 -54.41015625 4.12890625 C-40.36313992 -11.24018221 -16.48814914 -11.72686543 0 0 Z M-50.75390625 13.10546875 C-54.44049983 18.26669976 -55.3491019 21.39640761 -57 28 C-35.88 28 -14.76 28 7 28 C3.47888881 16.26296272 0.1670448 10.00271562 -10.59375 4.15234375 C-24.55147189 -2.53195488 -40.82652151 1.18818506 -50.75390625 13.10546875 Z " fill="#000000" transform="translate(121,116)"/>
<path d="M0 0 C5.83602891 4.49517104 9.72168657 10.55735909 11.82421875 17.59765625 C11.82421875 21.22765625 11.82421875 24.85765625 11.82421875 28.59765625 C-4.67578125 28.59765625 -21.17578125 28.59765625 -38.17578125 28.59765625 C-38.83578125 23.31765625 -39.49578125 18.03765625 -40.17578125 12.59765625 C-40.83578125 10.61765625 -41.49578125 8.63765625 -42.17578125 6.59765625 C-42.1015625 3.92578125 -42.1015625 3.92578125 -41.17578125 1.59765625 C-39.03125 -0.16796875 -39.03125 -0.16796875 -36.36328125 -1.65234375 C-35.05423828 -2.40257813 -35.05423828 -2.40257813 -33.71875 -3.16796875 C-23.05539423 -8.34403699 -9.65425725 -6.22240279 0 0 Z M-32.17578125 6.59765625 C-31.18578125 10.88765625 -30.19578125 15.17765625 -29.17578125 19.59765625 C-18.61578125 19.59765625 -8.05578125 19.59765625 2.82421875 19.59765625 C-0.16978248 12.86918015 -0.16978248 12.86918015 -4.61328125 8.22265625 C-5.16886719 7.76117188 -5.72445312 7.2996875 -6.296875 6.82421875 C-13.77287098 1.94383884 -24.72580039 1.48909794 -32.17578125 6.59765625 Z " fill="#000000" transform="translate(180.17578125,123.40234375)"/>
<path d="M0 0 C1.8125 2.1875 1.8125 2.1875 1.75 5.5 C1.16334128 7.80752429 0.52520834 10.10324217 -0.1875 12.375 C-1.53543157 17.5139891 -1.74629375 22.893025 -2.1875 28.1875 C-18.6875 28.1875 -35.1875 28.1875 -52.1875 28.1875 C-52.1875 16.54923038 -51.04351551 12.91643732 -45 3.9375 C-31.98532171 -8.78796322 -15.21218138 -8.65006392 0 0 Z M-39.9609375 12.2109375 C-41.62069909 14.7153479 -41.62069909 14.7153479 -43.1875 20.1875 C-32.6275 20.1875 -22.0675 20.1875 -11.1875 20.1875 C-10.1975 15.5675 -9.2075 10.9475 -8.1875 6.1875 C-20.18617778 0.18816111 -31.33827612 2.04679475 -39.9609375 12.2109375 Z " fill="#000000" transform="translate(52.1875,123.8125)"/>
<path d="M0 0 C8.79576179 6.16714332 15.01381551 14.20412435 17.7265625 24.6796875 C18.32892306 29.66767731 18.33235666 34.69304503 17.7265625 39.6796875 C16.7365625 40.6696875 16.7365625 40.6696875 15.7265625 41.6796875 C12.19084821 41.14397321 12.19084821 41.14397321 10.7265625 39.6796875 C10.51375306 37.89082402 10.30645857 36.10107564 10.1315918 34.30810547 C9.4504392 27.4476527 8.7697746 21.46176354 4.7265625 15.6796875 C4.0046875 14.6278125 3.2828125 13.5759375 2.5390625 12.4921875 C-3.86584603 6.08727897 -11.99300114 2.74554345 -21.0234375 2.3046875 C-30.13567297 2.52626161 -38.79429975 6.27417632 -45.2734375 12.6796875 C-51.20554 20.10994854 -52.46243288 27.79542042 -52.9296875 37.10546875 C-53.2734375 39.6796875 -53.2734375 39.6796875 -55.2734375 41.6796875 C-58.80915179 41.14397321 -58.80915179 41.14397321 -60.2734375 39.6796875 C-61.28741711 27.87762973 -59.56917325 17.82397083 -51.96484375 8.5234375 C-38.31904935 -6.35142383 -17.98267883 -10.44354887 0 0 Z " fill="#FF4900" transform="translate(117.2734375,52.3203125)"/>
<path d="M0 0 C5.14681813 2.78719997 8.6600361 6.14334936 10.4140625 11.91796875 C11.61524027 18.00629139 11.13426671 22.65063134 8.15625 28.04296875 C5.21835045 32.18506549 1.63445802 35.33018066 -3.1875 36.9375 C-10.1830342 37.66296281 -15.79093192 37.63604732 -21.5703125 33.35546875 C-26.07647092 29.4044168 -28.10143706 25.86147965 -29.1875 19.9375 C-29.37301111 14.21757408 -28.16782938 9.45892974 -24.8984375 4.734375 C-17.82863198 -2.6905349 -9.02249978 -4.0114807 0 0 Z M-18.1875 10.9375 C-20.08673626 13.99279311 -20.1875 15.82276782 -20.1875 19.4375 C-19.15677027 23.04505406 -18.048415 24.83230564 -15.00390625 27.0625 C-11.03115983 28.97625312 -7.04674472 28.49024843 -2.875 27.25 C0.38773975 24.71231353 1.6471716 22.04756212 2.25 18 C1.68922496 14.07457473 0.30961051 11.98952395 -2.1875 8.9375 C-7.803428 4.8191528 -13.24605203 6.78219148 -18.1875 10.9375 Z " fill="#000000" transform="translate(105.1875,68.0625)"/>
<path d="M0 0 C3.28194868 2.55621064 5.21275524 4.88555065 6.15234375 8.92578125 C6.83859795 14.90599642 6.0478553 18.30129267 2.5546875 23.2265625 C-0.14532751 26.49816843 -2.15165257 27.72059857 -6.3984375 28.234375 C-10.96974682 28.43850654 -14.10841267 28.27524185 -18.28515625 26.30078125 C-22.72942622 22.18170176 -25.07150004 19.05644917 -25.34765625 12.92578125 C-25.13553206 8.21662432 -24.07154788 5.4890299 -20.84765625 1.92578125 C-14.0182418 -3.33855905 -7.70355 -4.47880814 0 0 Z M-13.53515625 7.55078125 C-16.11942436 9.75106498 -16.11942436 9.75106498 -16.34765625 12.98828125 C-16.03222735 15.84779998 -16.03222735 15.84779998 -14.78515625 17.80078125 C-11.70693714 19.58813428 -9.31859557 19.35964867 -5.84765625 18.92578125 C-3.47299343 16.85752654 -2.96079978 15.4914989 -2.34765625 12.42578125 C-2.65408899 9.6917671 -2.65408899 9.6917671 -5.16015625 7.61328125 C-8.73253293 5.37016101 -9.92822335 5.36984508 -13.53515625 7.55078125 Z " fill="#000000" transform="translate(169.84765625,87.07421875)"/>
<path d="M0 0 C3.67578656 2.90288278 5.83668973 5.60740813 6.49609375 10.25390625 C6.58547368 15.99209806 6.17260049 19.45191196 2.16015625 23.88671875 C-1.50034293 27.27937653 -4.40493641 28.20226112 -9.27734375 28.44921875 C-14.71280435 28.2347584 -18.13623943 26.88576729 -21.83984375 22.88671875 C-24.95763761 18.36088895 -25.62060953 14.23442958 -24.83984375 8.88671875 C-22.71317345 3.06635792 -19.5589959 0.24629483 -14.08984375 -2.48828125 C-9.03292691 -3.46076526 -4.44188822 -2.68776676 0 0 Z M-13.58984375 7.44921875 C-16.25922969 9.7779417 -16.25922969 9.7779417 -15.77734375 13.51171875 C-15.12648287 16.9281178 -15.12648287 16.9281178 -12.83984375 18.88671875 C-8.1775549 19.35076335 -8.1775549 19.35076335 -3.90234375 17.76171875 C-2.290187 14.91673625 -2.31595688 13.09552585 -2.83984375 9.88671875 C-5.04472634 7.42255741 -5.04472634 7.42255741 -7.83984375 5.88671875 C-10.93226468 5.63971405 -10.93226468 5.63971405 -13.58984375 7.44921875 Z " fill="#000000" transform="translate(40.83984375,87.11328125)"/>
<path d="M0 0 C3.75353637 0.27420633 5.55882557 2.20788978 8.109375 4.81640625 C8.86347656 5.58017578 9.61757813 6.34394531 10.39453125 7.13085938 C11.17183594 7.93330078 11.94914062 8.73574219 12.75 9.5625 C13.93916016 10.77196289 13.93916016 10.77196289 15.15234375 12.00585938 C17.10847046 13.99733778 19.05725719 15.99547721 21 18 C22.38544436 16.82795044 22.38544436 16.82795044 22.3125 13.5625 C23 10 23 10 24.9375 8.5 C27 8 27 8 29 9 C28.85879984 11.58366245 28.71221667 14.16682885 28.5625 16.75 C28.52318359 17.47960937 28.48386719 18.20921875 28.44335938 18.9609375 C28.23608465 22.46866362 27.8559939 25.57602438 27 29 C20.73 29.66 14.46 30.32 8 31 C7.67 29.35 7.34 27.7 7 26 C9.97 25.01 12.94 24.02 16 23 C15.49025635 22.5059668 14.9805127 22.01193359 14.45532227 21.50292969 C12.1498758 19.25984949 9.85614553 17.00514309 7.5625 14.75 C6.76005859 13.97269531 5.95761719 13.19539063 5.13085938 12.39453125 C3.98520508 11.26337891 3.98520508 11.26337891 2.81640625 10.109375 C2.10943604 9.41811523 1.40246582 8.72685547 0.67407227 8.01464844 C-1.06161484 5.92585013 -1.80257623 4.70248059 -2 2 C-1.34 1.34 -0.68 0.68 0 0 Z " fill="#FF4900" transform="translate(32,26)"/>
<path d="M0 0 C1.65 0.33 3.3 0.66 5 1 C5 9.91 5 18.82 5 28 C7.31 26.35 9.62 24.7 12 23 C13.32 23 14.64 23 16 23 C16.33 24.32 16.66 25.64 17 27 C15.58510266 28.27280294 14.16800334 29.5431583 12.75 30.8125 C11.96109375 31.52019531 11.1721875 32.22789063 10.359375 32.95703125 C9.58078125 33.63121094 8.8021875 34.30539063 8 35 C7.34515625 35.60199219 6.6903125 36.20398437 6.015625 36.82421875 C4 38 4 38 1.609375 37.9609375 C-1.7524497 36.72290026 -4.00361602 34.91860176 -6.75 32.625 C-7.71421875 31.83351563 -8.6784375 31.04203125 -9.671875 30.2265625 C-12 28 -12 28 -13 25 C-12.67 24.34 -12.34 23.68 -12 23 C-7.06369399 23.45919126 -4.73333401 24.81998807 -1 28 C-1.00523682 27.18732666 -1.01047363 26.37465332 -1.01586914 25.53735352 C-1.03656994 21.87907678 -1.04963803 18.22081233 -1.0625 14.5625 C-1.07506836 12.6434082 -1.07506836 12.6434082 -1.08789062 10.68554688 C-1.09272461 8.86313477 -1.09272461 8.86313477 -1.09765625 7.00390625 C-1.10289307 5.87799072 -1.10812988 4.7520752 -1.11352539 3.59204102 C-1 1 -1 1 0 0 Z " fill="#FF4900" transform="translate(94,0)"/>
<path d="M0 0 C0.5662207 0.2487085 1.13244141 0.49741699 1.71582031 0.75366211 C1.21293437 5.05613076 -0.01491218 6.96644697 -3.10058594 9.96069336 C-3.86435547 10.71157227 -4.628125 11.46245117 -5.41503906 12.23608398 C-6.21748047 13.00500977 -7.01992187 13.77393555 -7.84667969 14.56616211 C-8.65298828 15.35442383 -9.45929688 16.14268555 -10.29003906 16.95483398 C-12.27938137 18.89709127 -14.2774524 20.82939872 -16.28417969 22.75366211 C-11.82917969 23.74366211 -11.82917969 23.74366211 -7.28417969 24.75366211 C-6.90199202 26.40980868 -6.57022867 28.07823235 -6.28417969 29.75366211 C-6.61417969 30.08366211 -6.94417969 30.41366211 -7.28417969 30.75366211 C-9.71719596 30.68838606 -12.10955809 30.5613078 -14.53417969 30.37866211 C-15.20320312 30.33483398 -15.87222656 30.29100586 -16.56152344 30.24584961 C-20.20649184 29.98805224 -23.72133659 29.5684208 -27.28417969 28.75366211 C-28.31444913 22.05691075 -28.38570767 15.52219451 -28.28417969 8.75366211 C-26.63417969 8.75366211 -24.98417969 8.75366211 -23.28417969 8.75366211 C-22.62417969 12.05366211 -21.96417969 15.35366211 -21.28417969 18.75366211 C-20.45225098 17.88245728 -20.45225098 17.88245728 -19.60351562 16.99365234 C-17.09344822 14.37991737 -14.56426942 11.78551392 -12.03417969 9.19116211 C-11.16148437 8.27657227 -10.28878906 7.36198242 -9.38964844 6.41967773 C-8.5453125 5.55922852 -7.70097656 4.6987793 -6.83105469 3.81225586 C-6.05600586 3.01102295 -5.28095703 2.20979004 -4.48242188 1.38427734 C-2.28417969 -0.24633789 -2.28417969 -0.24633789 0 0 Z " fill="#FF4900" transform="translate(158.2841796875,25.246337890625)"/>
</svg>
