<?xml version="1.0" encoding="UTF-8"?>
<svg version="1.1" xmlns="http://www.w3.org/2000/svg" width="192" height="192">
<path d="M0 0 C10.27523308 0.13292669 17.53429072 4.65712658 25.0625 11.3125 C25.7534375 11.9209375 26.444375 12.529375 27.15625 13.15625 C38.50384148 23.80552816 45.52093303 38.76088904 46.1953125 54.390625 C46.18036991 60.45731599 45.97396099 66.29533319 44.98828125 72.2890625 C44.86034802 74.43820731 44.86034802 74.43820731 46.54296875 76.0859375 C47.04441406 76.49070312 47.54585937 76.89546875 48.0625 77.3125 C50.44980094 73.94219279 49.88950985 71.4508011 49.34008789 67.51513672 C46.97633277 48.75893731 52.31294434 32.92772942 63.25 17.5625 C69.70347562 9.70546578 79.0087599 2.58969537 89.0625 0.3125 C92.75985511 0.03460962 96.36518214 0.05945163 100.0625 0.3125 C105.70418126 10.85999105 105.76486686 24.60733749 102.5625 36.0625 C97.05565033 51.38506767 87.45534174 65.22569227 73.0625 73.3125 C70.99136754 74.15561587 68.90745486 74.96795258 66.8125 75.75 C61.08129692 77.99680841 57.74601497 80.73310556 55.0625 86.3125 C52.37539537 93.22895594 52.61535333 100.40984504 52.4375 107.75 C52.37949219 109.70583008 52.37949219 109.70583008 52.3203125 111.70117188 C52.22643299 114.90480999 52.14074846 118.10844832 52.0625 121.3125 C53.96140991 121.2810791 53.96140991 121.2810791 55.89868164 121.24902344 C60.61552528 121.17637859 65.33231988 121.13061125 70.04956055 121.09277344 C72.08740568 121.07271368 74.12519366 121.04545901 76.1628418 121.01074219 C79.09959047 120.96197566 82.03557518 120.93947459 84.97265625 120.921875 C86.32932152 120.89090729 86.32932152 120.89090729 87.71339417 120.85931396 C93.67826896 120.85721935 97.23317061 121.72308568 102.0625 125.3125 C104.25595385 128.28188486 104.30959062 130.85526104 104.29296875 134.48828125 C104.29103516 135.48150391 104.28910156 136.47472656 104.28710938 137.49804688 C104.27486328 138.52994141 104.26261719 139.56183594 104.25 140.625 C104.2490332 142.15543945 104.2490332 142.15543945 104.24804688 143.71679688 C104.223121 148.00127813 104.1695579 152.18220522 103.48828125 156.41796875 C102.79019599 159.24507572 102.79019599 159.24507572 104.0625 161.3125 C104.38545365 165.22228317 104.38698928 169.14103103 104.4375 173.0625 C104.49357422 174.69058594 104.49357422 174.69058594 104.55078125 176.3515625 C104.6497128 185.34334095 104.6497128 185.34334095 101.6640625 189.015625 C98.158767 192.1103904 96.62660009 192.43853477 92.06355286 192.45967102 C91.00546921 192.46682632 89.94738556 192.47398163 88.85723877 192.48135376 C87.69110046 192.48404266 86.52496216 192.48673157 85.32348633 192.48950195 C84.09883163 192.49607315 82.87417694 192.50264435 81.6124115 192.50941467 C77.53978229 192.52919939 73.46719264 192.54083007 69.39453125 192.55078125 C67.98886279 192.55483006 66.58319453 192.55894702 65.17752647 192.56313133 C58.56257324 192.58220081 51.94763118 192.59641934 45.33265573 192.6047433 C37.72527524 192.61447568 30.11818883 192.64068197 22.51091176 192.68124419 C16.61684055 192.71157827 10.72285267 192.72622903 4.82870501 192.72952431 C1.31647016 192.73185831 -2.19545128 192.74059757 -5.70760155 192.76598549 C-29.57071799 192.92943795 -49.53841344 191.25084827 -67.9375 174.3125 C-80.93578544 161.47669313 -87.89725229 145.24324948 -88.25 126.9375 C-88.28938989 108.14414727 -80.96714909 91.4817649 -67.77734375 78.125 C-54.16918099 65.45284843 -37.44582428 59.75229762 -18.93359375 60.109375 C-1.14578867 60.81180698 15.11327621 69.09972061 27.421875 81.734375 C34.1218062 89.33362583 40.04102082 99.23037258 42.0625 109.3125 C42.67684443 96.94119799 42.67684443 96.94119799 39.0625 85.3125 C38.381875 83.4871875 38.381875 83.4871875 37.6875 81.625 C35.01876021 77.07062554 30.11775162 76.17906173 25.37890625 74.54296875 C11.75686726 69.48885534 2.62342269 57.81090929 -3.9375 45.3125 C-9.66726644 32.16384522 -11.56114388 16.72714574 -6.69140625 2.96484375 C-5.17796277 -0.35218522 -3.48466906 0.09285934 0 0 Z M1.0625 11.3125 C-2.4153751 21.74612531 1.0693137 32.62653652 5.3828125 42.26171875 C10.25554309 51.80747785 16.53099697 59.26790132 26.0625 64.3125 C24.34191596 58.02689818 20.94465553 52.99960147 17.43164062 47.58984375 C14.01978476 42.06964859 14.01978476 42.06964859 14.26171875 37.78125 C14.52597656 36.9665625 14.79023437 36.151875 15.0625 35.3125 C17.3125 35 17.3125 35 20.0625 35.3125 C24.16623344 39.62849551 26.88847837 44.97918241 29.8125 50.125 C30.31910156 51.00865234 30.82570313 51.89230469 31.34765625 52.80273438 C32.58973909 54.97052046 33.82788423 57.14045538 35.0625 59.3125 C37.47518485 50.9951456 33.53711991 40.9612482 29.50390625 33.6171875 C23.63739908 24.23713538 15.88081579 14.97163622 5.0625 11.3125 C3.7425 11.3125 2.4225 11.3125 1.0625 11.3125 Z M74.0625 21.3125 C65.87085147 30.56156722 58.78376129 41.86691614 59 54.625 C59.020625 55.841875 59.04125 57.05875 59.0625 58.3125 C61.52284552 56.06874365 63.02108423 53.82864812 64.5859375 50.8984375 C65.05 50.05539063 65.5140625 49.21234375 65.9921875 48.34375 C66.95723769 46.57014425 67.9129637 44.79143379 68.859375 43.0078125 C69.32601562 42.16734375 69.79265625 41.326875 70.2734375 40.4609375 C70.68899902 39.68927246 71.10456055 38.91760742 71.53271484 38.12255859 C73.0625 36.3125 73.0625 36.3125 75.61181641 35.49072266 C78.0625 35.3125 78.0625 35.3125 80.0625 36.3125 C80.99367007 42.71560202 77.75024876 46.86051843 74.5 52.0625 C73.44999627 53.76129685 72.40663959 55.4642265 71.37109375 57.171875 C70.90501709 57.91920898 70.43894043 58.66654297 69.95874023 59.43652344 C69.66298096 60.0555957 69.36722168 60.67466797 69.0625 61.3125 C69.3925 61.9725 69.7225 62.6325 70.0625 63.3125 C82.66593493 54.76495769 90.86734962 43.41684727 94.0625 28.3125 C95.30023635 21.84743054 94.87088774 16.6343844 93.0625 10.3125 C86.35565433 10.3125 78.59276516 16.97750489 74.0625 21.3125 Z M-44.9375 75.3125 C-45.88882813 75.75980469 -46.84015625 76.20710938 -47.8203125 76.66796875 C-61.18338396 83.4587394 -71.18026515 94.61945707 -76.23046875 108.84765625 C-80.76506684 124.65611701 -79.57475698 139.86325741 -71.6640625 154.49609375 C-63.60153817 167.64785854 -52.31893052 176.9929161 -37.375 181.3515625 C-21.1430388 185.09470873 -6.34531812 183.11727774 8.0625 174.3125 C17.98719769 167.73450269 25.67597477 158.43774514 30.0625 147.3125 C30.36027344 146.56355469 30.65804687 145.81460938 30.96484375 145.04296875 C35.31003916 132.00738252 34.41377882 116.84930102 29.0625 104.3125 C28.67320313 103.38308594 28.28390625 102.45367187 27.8828125 101.49609375 C20.49830112 86.13718399 7.29009555 77.65501057 -8.28125 72.125 C-20.16099801 69.485056 -33.92796198 70.03641575 -44.9375 75.3125 Z M44.0625 131.3125 C43.58579253 132.72216773 43.11088861 134.13244542 42.63671875 135.54296875 C42.37205811 136.32824951 42.10739746 137.11353027 41.8347168 137.92260742 C40.27916172 142.73681185 39.0625 147.21079142 39.0625 152.3125 C57.2125 152.3125 75.3625 152.3125 94.0625 152.3125 C95.22948437 148.81154689 95.19518287 146.0002768 95.1875 142.3125 C95.19007813 141.075 95.19265625 139.8375 95.1953125 138.5625 C95.21241302 135.30019227 95.21241302 135.30019227 94.0625 132.3125 C91.64475419 131.10362709 90.12918936 131.19190657 87.42919922 131.19897461 C86.46835419 131.19905014 85.50750916 131.19912567 84.51754761 131.19920349 C82.95811935 131.20694542 82.95811935 131.20694542 81.3671875 131.21484375 C80.30460724 131.2162587 79.24202698 131.21767365 78.14724731 131.21913147 C74.74396991 131.22474166 71.34075762 131.23729591 67.9375 131.25 C65.63411553 131.25501369 63.33073003 131.25957682 61.02734375 131.26367188 C55.37237351 131.2747144 49.71744141 131.29146248 44.0625 131.3125 Z M25.9375 168.59765625 C25.22321905 169.74214077 24.53521555 170.9035896 23.87890625 172.08227539 C21.51837804 176.28014485 18.50688375 178.40789223 14.64453125 181.140625 C14.12246094 181.52734375 13.60039063 181.9140625 13.0625 182.3125 C13.0625 182.6425 13.0625 182.9725 13.0625 183.3125 C23.47592925 183.33562359 33.88935244 183.35341517 44.30280209 183.36431217 C49.13766827 183.36954097 53.97251694 183.37663854 58.80737305 183.38793945 C63.4692712 183.39876847 68.13115246 183.40477686 72.79306221 183.40737724 C74.57574288 183.40923147 76.35842259 183.41285203 78.14109612 183.41823006 C80.6291596 183.42544069 83.11715243 183.42649093 85.60522461 183.42602539 C86.34968842 183.42962067 87.09415222 183.43321594 87.86117554 183.43692017 C91.24817883 183.73230997 91.24817883 183.73230997 94.0625 182.3125 C94.14919432 180.8237814 94.16953494 179.331055 94.16015625 177.83984375 C94.15693359 176.94072266 94.15371094 176.04160156 94.15039062 175.11523438 C94.14201172 174.16970703 94.13363281 173.22417969 94.125 172.25 C94.12048828 171.30060547 94.11597656 170.35121094 94.11132812 169.37304688 C94.0995011 167.01946935 94.08302025 164.66601523 94.0625 162.3125 C86.30007646 162.00959445 78.53906635 161.77948402 70.77219677 161.63894176 C67.16410548 161.57143453 63.56009001 161.48013315 59.9543457 161.33178711 C41.00739714 159.55069969 41.00739714 159.55069969 25.9375 168.59765625 Z " fill="#000000" transform="translate(87.9375,-0.3125)"/>
<path d="M0 0 C0.90437805 0.00707474 1.8087561 0.01414948 2.74053955 0.0214386 C5.62474829 0.0493936 8.50700465 0.11213312 11.390625 0.17578125 C13.34762818 0.20086274 15.30466184 0.22367617 17.26171875 0.24414062 C22.055438 0.29922386 26.84770068 0.38550345 31.640625 0.48828125 C30.7734375 6.25390625 30.7734375 6.25390625 29.578125 8.36328125 C26.38006427 10.22021974 23.28543503 9.6675342 19.640625 9.48828125 C19.640625 10.47828125 19.640625 11.46828125 19.640625 12.48828125 C23.270625 12.48828125 26.900625 12.48828125 30.640625 12.48828125 C31.640625 16.48828125 31.640625 16.48828125 30.140625 19.23828125 C27.640625 21.48828125 27.640625 21.48828125 23.890625 21.80078125 C22.818125 21.69765625 21.745625 21.59453125 20.640625 21.48828125 C20.41375 22.37515625 20.186875 23.26203125 19.953125 24.17578125 C17.75720457 29.71786614 13.82440374 32.76679741 8.640625 35.48828125 C6.9782067 36.16547223 5.31205136 36.83363926 3.640625 37.48828125 C4.40246094 38.37128906 5.16429688 39.25429687 5.94921875 40.1640625 C23.90459351 61.01621828 23.90459351 61.01621828 25.640625 64.48828125 C13.6683246 66.54908706 13.6683246 66.54908706 8.9296875 63.32373047 C5.51807818 60.07442719 2.81985311 56.27558931 0.09765625 52.44726562 C-1.35662521 50.49197835 -2.9011257 48.70606516 -4.546875 46.91015625 C-5.06088867 46.34449951 -5.57490234 45.77884277 -6.10449219 45.19604492 C-7.08099377 44.12845177 -8.0656089 43.06820254 -9.05957031 42.0168457 C-11.60906794 39.12239934 -12.35208982 37.56564665 -12.71875 33.671875 C-12.359375 30.48828125 -12.359375 30.48828125 -11.359375 29.48828125 C-9.46609007 29.32928065 -7.56929451 29.21130292 -5.671875 29.11328125 C-0.93420409 28.74711168 2.67200455 28.30809052 6.640625 25.48828125 C7.300625 24.16828125 7.960625 22.84828125 8.640625 21.48828125 C1.050625 21.48828125 -6.539375 21.48828125 -14.359375 21.48828125 C-11.61853188 14.63617344 -11.61853188 14.63617344 -9.359375 12.48828125 C-6.00390625 11.87890625 -6.00390625 11.87890625 -2.171875 11.73828125 C-0.89957031 11.6815625 0.37273438 11.62484375 1.68359375 11.56640625 C2.65941406 11.540625 3.63523437 11.51484375 4.640625 11.48828125 C0.79221152 10.30796887 -3.117654 10.15592774 -7.109375 9.92578125 C-7.80675781 9.88259766 -8.50414062 9.83941406 -9.22265625 9.79492188 C-10.93469422 9.68938529 -12.64701061 9.58838215 -14.359375 9.48828125 C-13.04915155 0.64427296 -7.6879774 -0.22643666 0 0 Z " fill="#FF4900" transform="translate(56.359375,93.51171875)"/>
</svg>
