<?xml version="1.0" encoding="UTF-8"?>
<svg version="1.1" xmlns="http://www.w3.org/2000/svg" width="167" height="193">
<path d="M0 0 C1.99766088 1.19272856 3.99757009 2.3817017 6 3.56640625 C6.86625 4.09306885 7.7325 4.61973145 8.625 5.16235352 C10.83031836 6.34639728 12.50611865 7.21287712 15 7.4375 C15.721875 6.6125 16.44375 5.7875 17.1875 4.9375 C20.15406138 2.30055655 20.48655114 2.00505886 24.1875 2.1875 C29.90435878 3.19635743 35.02860476 6.23759193 39 10.4375 C40.34888031 15.24539441 39.8455809 17.71600491 37.49609375 22.0625 C36.65860596 23.62871094 36.65860596 23.62871094 35.80419922 25.2265625 C35.20881348 26.28617188 34.61342773 27.34578125 34 28.4375 C33.15912842 29.93410156 33.15912842 29.93410156 32.30126953 31.4609375 C30.57993908 34.46845553 28.82733969 37.45532864 27.0625 40.4375 C26.48048828 41.4275 25.89847656 42.4175 25.29882812 43.4375 C24.12994721 45.42576255 22.95891047 47.41275939 21.78564453 49.3984375 C20.53734057 51.5229778 19.29957087 53.65372706 18.06982422 55.7890625 C17.44736816 56.86929688 16.82491211 57.94953125 16.18359375 59.0625 C15.6208374 60.04476562 15.05808105 61.02703125 14.47827148 62.0390625 C13 64.4375 13 64.4375 11 66.4375 C4.46050803 67.37171314 0.76651303 65.62060917 -4.80078125 62.23828125 C-7.31929556 60.17605195 -8.64026788 58.3904536 -10 55.4375 C-9.25 51.8125 -9.25 51.8125 -8 48.4375 C-7.67 47.4475 -7.34 46.4575 -7 45.4375 C-12.18250484 45.23066779 -16.61410869 45.90950862 -21.55078125 47.37109375 C-22.24962936 47.56848648 -22.94847748 47.76587921 -23.66850281 47.96925354 C-25.88573242 48.59589181 -28.09938008 49.23401006 -30.3125 49.875 C-57.23604542 57.66436953 -57.23604542 57.66436953 -69.58496094 51.05371094 C-72.39390683 49.36999512 -75.13644001 47.6083607 -77.875 45.8125 C-79.97260299 44.46663527 -82.07162451 43.12297949 -84.171875 41.78125 C-85.27208984 41.07613281 -86.37230469 40.37101562 -87.50585938 39.64453125 C-91.16234825 37.32026758 -94.86473222 35.07565545 -98.578125 32.84375 C-99.20860748 32.46441315 -99.83908997 32.08507629 -100.48867798 31.69424438 C-102.97377718 30.20069221 -105.45981881 28.70881554 -107.95062256 27.22479248 C-125.16159889 16.96371171 -125.16159889 16.96371171 -127 11.4375 C-127.64908204 7.67965662 -127.84103267 4.02239424 -126.01953125 0.58984375 C-122.74159135 -3.5151456 -120.0903905 -5.25765139 -115 -6 C-104.29464819 -5.62214747 -93.48588623 2.34806195 -84.4375 7.625 C-83.16898549 8.35675411 -81.90010678 9.08787723 -80.63085938 9.81835938 C-71.68388872 14.98157419 -71.68388872 14.98157419 -68 17.4375 C-67.98582031 16.84582031 -67.97164062 16.25414062 -67.95703125 15.64453125 C-67.71124868 11.57251191 -67.41455958 9.03928004 -65.0625 5.625 C-58.32851885 0.81501347 -50.24364285 -1.18374298 -42.4375 -3.6875 C-41.64649902 -3.94136475 -40.85549805 -4.19522949 -40.04052734 -4.45678711 C-37.70177415 -5.18961582 -35.35403858 -5.8805584 -33 -6.5625 C-32.28344238 -6.79163086 -31.56688477 -7.02076172 -30.82861328 -7.25683594 C-19.25667112 -10.51396895 -9.77459159 -5.98194703 0 0 Z M-38.625 2.75 C-39.5015625 3.05873047 -40.378125 3.36746094 -41.28125 3.68554688 C-43.01637935 4.29696115 -44.74859016 4.9167314 -46.47753906 5.54541016 C-49.65602891 6.66951022 -52.87192172 7.65639533 -56.10302734 8.61791992 C-58.30556617 9.56951874 -59.52007041 10.55382035 -61 12.4375 C-60.92466753 15.0647914 -60.92466753 15.0647914 -60 17.4375 C-54.40872717 20.23313642 -45.48502294 16.63111084 -39.796875 15.05859375 C-37.09459429 14.45850627 -34.75636471 14.32181316 -32 14.4375 C-32 16.0875 -32 17.7375 -32 19.4375 C-35.59797858 20.46069925 -39.20414284 21.4515858 -42.8125 22.4375 C-43.81732422 22.72367188 -44.82214844 23.00984375 -45.85742188 23.3046875 C-56.69334023 26.23143072 -65.93051198 26.83186858 -76 21.4375 C-79.29163814 19.48194438 -82.52197631 17.43148066 -85.74902344 15.37158203 C-99.92897882 5.94536922 -99.92897882 5.94536922 -116 1.4375 C-118.55998481 2.62044263 -118.55998481 2.62044263 -120 4.4375 C-120.14257995 7.74450396 -120.14257995 7.74450396 -119 11.4375 C-116.60658852 13.8050833 -113.78961126 15.34417551 -110.875 17 C-110.03622314 17.50249268 -109.19744629 18.00498535 -108.33325195 18.52270508 C-106.51990227 19.6075257 -104.70070726 20.6826218 -102.87646484 21.74902344 C-98.93848922 24.06060377 -95.04330815 26.44003238 -91.14599609 28.81933594 C-89.18093133 30.01867733 -87.21381833 31.2146695 -85.24462891 32.40722656 C-78.59459097 36.43679925 -72.03696241 40.58140651 -65.546875 44.86328125 C-59.19322461 48.79046086 -52.24840763 48.15669853 -45.17138672 46.58984375 C-40.90125372 45.46047594 -36.66788618 44.20647391 -32.4375 42.9375 C-12.21032451 36.88491887 -12.21032451 36.88491887 -2 39.4375 C2.29 31.8475 6.58 24.2575 11 16.4375 C7.85212331 13.28962331 5.83819969 11.56147739 2.12109375 9.45703125 C1.20005859 8.93302734 0.27902344 8.40902344 -0.66992188 7.86914062 C-1.62447266 7.33482422 -2.57902344 6.80050781 -3.5625 6.25 C-4.52091797 5.70408203 -5.47933594 5.15816406 -6.46679688 4.59570312 C-17.80467907 -1.81611953 -26.42757287 -1.74712261 -38.625 2.75 Z M23 9.4375 C17.92023784 16.68310746 13.62117234 24.31228673 9.375 32.0625 C8.71391775 33.26322797 8.05246127 34.46374998 7.390625 35.6640625 C6.13832183 37.93544639 4.88842142 40.2081573 3.64135742 42.48242188 C2.30279108 44.89235896 0.92401968 47.26597187 -0.48828125 49.6328125 C-2.28261347 52.25252263 -2.28261347 52.25252263 -1.5625 54.6875 C0.41315949 56.90023863 2.33768242 58.1388085 5 59.4375 C5.99 59.4375 6.98 59.4375 8 59.4375 C8.40726318 58.70337891 8.81452637 57.96925781 9.23413086 57.21289062 C10.44872891 55.02390703 11.66368525 52.8351222 12.87890625 50.64648438 C14.25417478 48.16948684 15.6276486 45.69150541 17 43.21289062 C19.97296959 37.84839553 22.95014896 32.48876639 26.03515625 27.1875 C26.45998291 26.45337891 26.88480957 25.71925781 27.32250977 24.96289062 C28.08921105 23.64409447 28.86405746 22.32998927 29.64819336 21.02148438 C30.7758027 19.13070523 30.7758027 19.13070523 32 16.4375 C31.33029489 13.37350134 31.33029489 13.37350134 29.15234375 12.26953125 C28.42144531 11.93308594 27.69054687 11.59664062 26.9375 11.25 C25.625 10.64583333 24.3125 10.04166667 23 9.4375 Z " fill="#000000" transform="translate(127,126.5625)"/>
<path d="M0 0 C10.47766726 7.56214246 16.08984934 18.21202725 18.93359375 30.62109375 C20.45937501 45.26859382 16.64145999 58.91103645 7.43359375 70.55859375 C-2.04792215 80.4916104 -14.31322511 85.40730978 -27.87890625 85.87109375 C-41.82664885 85.70053711 -52.46053038 80.41123585 -62.4609375 71 C-71.96421026 61.14055688 -75.38368957 49.75233109 -75.2265625 36.27587891 C-74.80774315 25.52087109 -71.18324019 17.15232532 -64.75390625 8.62109375 C-63.88765625 7.32171875 -63.88765625 7.32171875 -63.00390625 5.99609375 C-46.08530748 -11.86242717 -20.02681295 -12.84920319 0 0 Z M-51.75390625 6.62109375 C-52.66140625 7.19859375 -53.56890625 7.77609375 -54.50390625 8.37109375 C-63.15562247 17.02280997 -67.1337656 26.16066031 -67.8203125 38.23828125 C-67.658037 46.50478621 -65.27799891 53.75695316 -60.75390625 60.62109375 C-59.26476651 58.64875232 -57.78982345 56.67169978 -56.359375 54.65625 C-51.70663278 48.18342681 -47.14028742 43.9625519 -39.75390625 40.62109375 C-40.02203125 40.08484375 -40.29015625 39.54859375 -40.56640625 38.99609375 C-40.95828125 38.21234375 -41.35015625 37.42859375 -41.75390625 36.62109375 C-42.55828125 35.35265625 -42.55828125 35.35265625 -43.37890625 34.05859375 C-45.52086109 28.70370666 -45.8667395 23.04132703 -44.0625 17.49609375 C-41.84287862 13.18687066 -39.06527713 10.69693899 -34.75390625 8.62109375 C-28.36727006 7.09041235 -23.54550155 7.21427299 -17.75390625 10.62109375 C-13.53227177 14.18602953 -11.11319388 17.16295029 -10.53515625 22.7265625 C-10.33125884 27.79851055 -10.94409314 31.25027336 -13.75390625 35.62109375 C-14.73556219 36.63910732 -15.72982057 37.64577405 -16.75390625 38.62109375 C-16.75390625 39.28109375 -16.75390625 39.94109375 -16.75390625 40.62109375 C-15.55765625 41.17796875 -14.36140625 41.73484375 -13.12890625 42.30859375 C-4.83354299 46.52929794 -1.16749626 51.56081413 3.24609375 59.62109375 C6.33213749 58.95761737 6.33213749 58.95761737 7.37890625 56.6953125 C7.87003906 55.51388672 7.87003906 55.51388672 8.37109375 54.30859375 C8.70367187 53.52871094 9.03625 52.74882813 9.37890625 51.9453125 C12.94396947 42.39030072 12.14334956 31.81308887 8.57421875 22.375 C6.40645517 17.88007846 3.6461692 14.2526637 0.24609375 10.62109375 C-0.53894531 9.77417969 -0.53894531 9.77417969 -1.33984375 8.91015625 C-7.87864676 2.62652604 -17.18814184 -0.98023911 -26.1953125 -1.44140625 C-36.03732473 -1.20099068 -43.48140889 1.32780398 -51.75390625 6.62109375 Z M-36.75390625 18.62109375 C-38.51736795 21.53463917 -38.76228141 23.21908609 -38.69140625 26.62109375 C-37.47111603 30.52602246 -36.00353366 32.14855115 -32.75390625 34.62109375 C-28.84093301 35.7390861 -26.7609934 36.05597229 -23.00390625 34.43359375 C-19.38268912 31.51650217 -17.95067042 29.94925188 -17.25390625 25.24609375 C-17.91337254 20.46496311 -19.37824732 18.99675268 -22.75390625 15.62109375 C-28.19339184 12.90135096 -32.39517165 14.9557942 -36.75390625 18.62109375 Z M-47.796875 54.36328125 C-50.69547751 57.70737755 -52.79000145 61.27535348 -53.75390625 65.62109375 C-53.5106933 68.19152079 -53.16515951 69.24205354 -51.2578125 71 C-41.0925548 77.19733015 -30.8496968 79.18037213 -19.01953125 77.15234375 C-12.79034619 75.52733895 -7.88094047 72.44779321 -2.75390625 68.62109375 C-3.03269132 62.06964464 -5.35579639 57.48727554 -9.75390625 52.62109375 C-22.3834012 42.95731087 -36.23077217 43.3845987 -47.796875 54.36328125 Z " fill="#FF4900" transform="translate(84.75390625,30.37890625)"/>
<path d="M0 0 C2.375 -0.125 2.375 -0.125 5 0 C7 2 7 2 7.265625 4.53125 C7.26046875 5.5109375 7.2553125 6.490625 7.25 7.5 C7.25515625 8.4796875 7.2603125 9.459375 7.265625 10.46875 C7 13 7 13 5 15 C2.375 15.125 2.375 15.125 0 15 C-1.30459914 12.39080172 -1.1326594 10.41057385 -1.125 7.5 C-1.12757812 6.5203125 -1.13015625 5.540625 -1.1328125 4.53125 C-1 2 -1 2 0 0 Z " fill="#000000" transform="translate(54,0)"/>
<path d="M0 0 C4.00197252 0.69599522 5.8249046 2.70446126 8.55859375 5.609375 C9.875 7.5 9.875 7.5 9.8125 10.4375 C8.875 12.5 8.875 12.5 6.8125 13.4375 C3.19844456 13.5143948 2.63154368 12.79261631 0.0625 10.375 C-2.18313358 7.93938875 -3.04907433 6.9365726 -3.625 3.625 C-2.96636904 0.8258184 -2.7991816 0.65863096 0 0 Z " fill="#000000" transform="translate(11.125,15.5)"/>
<path d="M0 0 C2.0625 0.9375 2.0625 0.9375 2.7578125 2.671875 C3.0625 4.9375 3.0625 4.9375 1.8046875 7.078125 C1.18851563 7.77421875 0.57234375 8.4703125 -0.0625 9.1875 C-0.66320312 9.89390625 -1.26390625 10.6003125 -1.8828125 11.328125 C-3.9375 12.9375 -3.9375 12.9375 -6.6171875 13.234375 C-8.9375 12.9375 -8.9375 12.9375 -9.9375 11.9375 C-10.4375 9.8125 -10.4375 9.8125 -9.9375 6.9375 C-7.25076812 3.21391667 -4.78865667 -0.10188631 0 0 Z " fill="#000000" transform="translate(102.9375,16.0625)"/>
<path d="M0 0 C1.2065625 0.0309375 1.2065625 0.0309375 2.4375 0.0625 C3.0625 2.4375 3.0625 2.4375 3.4375 5.0625 C2.7775 5.7225 2.1175 6.3825 1.4375 7.0625 C-0.6875 6.6875 -0.6875 6.6875 -2.5625 6.0625 C-2.94468767 4.40635343 -3.27645102 2.73792976 -3.5625 1.0625 C-2.5625 0.0625 -2.5625 0.0625 0 0 Z " fill="#FFFFFF" transform="translate(151.5625,140.9375)"/>
</svg>
