<?xml version="1.0" encoding="UTF-8"?>
<svg version="1.1" xmlns="http://www.w3.org/2000/svg" width="160" height="192">
<path d="M0 0 C2.6328125 1.6875 2.6328125 1.6875 5.125 4 C22.11168146 18.77911 42.62796067 26.36374247 65.02392578 26.58496094 C69.52024905 26.67695209 72.42157409 27.20691566 76 30 C77.29877445 32.59754891 77.14129161 34.50834534 77.16113281 37.41748047 C77.17074036 38.55402069 77.1803479 39.69056091 77.19024658 40.86154175 C77.1966214 42.7205864 77.1966214 42.7205864 77.203125 44.6171875 C77.20882507 45.89868683 77.21452515 47.18018616 77.22039795 48.5005188 C77.23092683 51.22935379 77.23675268 53.95815927 77.24023438 56.68701172 C77.24456955 59.44691554 77.25825847 62.206498 77.28125 64.96630859 C77.5942333 103.28865835 72.66240923 137.49365287 45 166 C33.95620212 177.08454991 13.46783049 191.27119154 -2.7421875 192.21875 C-17.84970981 191.99810157 -35.11489286 179.44575413 -46 170 C-46.83144531 169.31292969 -47.66289063 168.62585938 -48.51953125 167.91796875 C-69.29495298 150.20620368 -77.74111123 126.08198506 -82 100 C-82.26478149 98.56696533 -82.26478149 98.56696533 -82.53491211 97.10498047 C-83.37834805 91.0701211 -83.18340986 84.93939185 -83.203125 78.859375 C-83.20595238 78.1855201 -83.20877975 77.51166519 -83.21169281 76.81739044 C-83.22660228 73.26074338 -83.23588734 69.70413611 -83.24023438 66.14746094 C-83.24574876 62.47651292 -83.26986158 58.80593026 -83.29820633 55.1350975 C-83.31680686 52.30583609 -83.32203661 49.4766639 -83.32357025 46.6473465 C-83.32806566 44.63592744 -83.34670814 42.62455614 -83.36553955 40.61322021 C-83.36253845 39.39475403 -83.35953735 38.17628784 -83.35644531 36.92089844 C-83.36009094 35.84725037 -83.36373657 34.77360229 -83.36749268 33.66741943 C-83 31 -83 31 -81.66522217 29.19244385 C-78.74832494 27.10369184 -75.93025284 26.83478976 -72.45703125 26.60546875 C-48.00345144 24.81660913 -28.86947675 19.12066072 -10 3 C-9.29810547 2.11248047 -9.29810547 2.11248047 -8.58203125 1.20703125 C-5.80436003 -0.91222901 -3.34488116 -0.4028244 0 0 Z M-9.125 21 C-26.96557211 34.82101341 -47.17401792 38.68033724 -69 42 C-69.07556464 48.14824903 -69.12925108 54.29621335 -69.16479492 60.44482422 C-69.17965077 62.52560141 -69.19994095 64.60634868 -69.22631836 66.68701172 C-69.59759571 96.7823172 -66.53860127 126.48128795 -46 150 C-45.21109375 150.98484375 -44.4221875 151.9696875 -43.609375 152.984375 C-36.59400479 161.09195854 -27.50824958 166.53999644 -18.125 171.5 C-17.32884277 171.92120117 -16.53268555 172.34240234 -15.71240234 172.77636719 C-7.42526806 177.24772264 -7.42526806 177.24772264 1.65625 177.015625 C2.94934986 176.45359687 4.23046061 175.86339431 5.5 175.25 C6.18852051 174.93144043 6.87704102 174.61288086 7.58642578 174.28466797 C30.41519431 163.3312342 48.02672594 145.80207376 56.79785156 121.81835938 C57.54235729 119.59955576 58.22448849 117.37307669 58.875 115.125 C59.16165527 114.15699463 59.16165527 114.15699463 59.45410156 113.16943359 C63.69112712 97.13256101 63.26160797 80.31177405 63.125 63.875 C63.11493803 61.74088967 63.10581794 59.60677469 63.09765625 57.47265625 C63.07592543 52.3149862 63.04157764 47.15754666 63 42 C61.16150335 41.69243912 59.32295012 41.38521643 57.484375 41.078125 C56.38544922 40.89443359 55.28652344 40.71074219 54.15429688 40.52148438 C51.73463819 40.12145412 49.31409176 39.73512583 46.890625 39.359375 C30.05175334 36.54085142 13.80635658 30.48958796 0.6953125 19.22265625 C-3.83925333 15.4832824 -4.94736728 17.63057415 -9.125 21 Z " fill="#000000" transform="translate(83,0)"/>
<path d="M0 0 C1.9375 1.625 1.9375 1.625 3 4 C3.18148007 9.22704314 1.81197801 11.60784253 -1.69018555 15.46655273 C-3.32257788 17.13845599 -4.97262015 18.7932459 -6.63671875 20.43359375 C-7.94501396 21.7504995 -7.94501396 21.7504995 -9.27973938 23.0940094 C-11.59587532 25.41526442 -13.92600218 27.72131391 -16.26141357 30.02313232 C-17.68790018 31.43789689 -19.10212227 32.8638163 -20.51245117 34.29467773 C-23.22556142 37.04482055 -25.95858861 39.77340266 -28.69921875 42.49609375 C-29.96048836 43.77558144 -29.96048836 43.77558144 -31.24723816 45.08091736 C-32.04438736 45.85915359 -32.84153656 46.63738983 -33.6628418 47.43920898 C-34.35709763 48.12869125 -35.05135345 48.81817352 -35.76664734 49.52854919 C-38.67822098 51.44684784 -40.5787499 51.35293482 -44 51 C-45.94921875 49.85546875 -45.94921875 49.85546875 -47.6875 48.1875 C-48.35652344 47.55328125 -49.02554688 46.9190625 -49.71484375 46.265625 C-50.46894531 45.51796875 -51.22304688 44.7703125 -52 44 C-52.92941406 43.10796875 -53.85882813 42.2159375 -54.81640625 41.296875 C-59.41123531 36.83160655 -63.73916095 32.57694903 -67 27 C-67 23.46083503 -66.65097748 21.77616546 -64.375 19.0625 C-60.81736764 17.47092763 -58.75885258 18.03022379 -55 19 C-52.38165166 20.91261046 -50.25017965 23.17890874 -48.0625 25.5625 C-47.47404297 26.17802734 -46.88558594 26.79355469 -46.27929688 27.42773438 C-44.83878136 28.93851894 -43.41739751 30.46750555 -42 32 C-39.10326019 30.69001173 -37.05188193 29.29513935 -34.82373047 27.03491211 C-33.93293289 26.1390464 -33.93293289 26.1390464 -33.0241394 25.2250824 C-32.39484528 24.58232864 -31.76555115 23.93957489 -31.1171875 23.27734375 C-30.46170929 22.61666397 -29.80623108 21.95598419 -29.13088989 21.27528381 C-27.04078373 19.16738574 -24.95749438 17.05291634 -22.875 14.9375 C-20.7845016 12.8194003 -18.69256959 10.70276818 -16.59768677 8.58900452 C-15.29501617 7.27405934 -13.99502781 5.95645058 -12.69796753 4.63597107 C-12.1104068 4.04187943 -11.52284607 3.44778778 -10.91748047 2.83569336 C-10.40103973 2.3109996 -9.884599 1.78630585 -9.35250854 1.24571228 C-6.23671512 -1.62405305 -3.93821977 -1.04483382 0 0 Z " fill="#FF4900" transform="translate(112,71)"/>
</svg>
