<?xml version="1.0" encoding="UTF-8"?>
<svg version="1.1" xmlns="http://www.w3.org/2000/svg" width="192" height="192">
<path d="M0 0 C11.39032755 0.17442265 30.17431706 0.79736393 38.62792969 9.25097656 C38.75292969 12.87597656 38.75292969 12.87597656 38.62792969 16.25097656 C43.14947816 16.16972964 47.66971453 16.05691349 52.19042969 15.93847656 C53.46724609 15.91591797 54.7440625 15.89335938 56.05957031 15.87011719 C62.65769986 15.6815992 67.81359949 15.45238914 73.62792969 12.25097656 C83.0540326 7.81952252 90.29795009 6.51299413 100.34423828 10.10253906 C103.09122381 11.14725097 105.8113959 12.24814592 108.52441406 13.37792969 C110.67061959 14.26869465 112.82648006 15.13071151 114.98730469 15.98535156 C118.54072709 17.39139979 122.08612165 18.81593365 125.62792969 20.25097656 C125.91990234 19.34025391 125.91990234 19.34025391 126.21777344 18.41113281 C129.78264249 12.95026692 140.52191814 11.67597912 146.73339844 10.30175781 C154.41625404 8.74918832 162.12110132 7.92063354 169.94042969 7.43847656 C170.74706055 7.38530273 171.55369141 7.33212891 172.38476562 7.27734375 C176.4535534 7.08507664 179.097991 7.24784328 182.62792969 9.25097656 C182.65105361 19.40363807 182.66884503 29.55629336 182.67974186 39.70897579 C182.68497058 44.42277389 182.69206802 49.13655403 182.70336914 53.8503418 C182.71419842 58.3955306 182.72020661 62.94070208 182.72280693 67.48590279 C182.72466111 69.22392614 182.72828158 70.9619485 182.73365974 72.69996452 C182.74087072 75.12576251 182.74192061 77.55148802 182.74145508 79.97729492 C182.74505035 80.70305725 182.74864563 81.42881958 182.75234985 82.17657471 C182.74198185 87.1369244 182.74198185 87.1369244 181.62792969 88.25097656 C177.39006149 88.54083941 173.14640039 88.56492965 168.89990234 88.60107422 C167.4720022 88.61763617 166.04418505 88.64493042 164.61669922 88.68310547 C162.56010884 88.73784 160.50546245 88.75973826 158.44824219 88.77441406 C156.59610107 88.80414307 156.59610107 88.80414307 154.70654297 88.83447266 C151.62792969 88.25097656 151.62792969 88.25097656 149.70166016 85.71826172 C149.3473291 84.90405762 148.99299805 84.08985352 148.62792969 83.25097656 C145.46009673 85.7633958 144.25528668 87.9702821 143.12792969 91.75097656 C141.94093824 95.58200715 141.01293474 97.87232436 137.62792969 100.25097656 C135.63122358 101.0270073 133.61446523 101.7141269 131.58496094 102.39941406 C128.61889985 103.69003545 126.79576611 105.9024871 124.62792969 108.25097656 C122.00628332 109.99874081 120.58447198 110.25348374 117.37792969 110.43847656 C113.35268017 111.31061396 112.6527585 111.95908938 109.87792969 114.75097656 C105.81871909 118.64337029 102.55777516 119.07182588 97.04589844 119.18066406 C94.48358214 119.13880414 94.48358214 119.13880414 91.62792969 120.25097656 C77.43731162 121.90379397 68.63832042 114.10143904 58.07714844 105.79003906 C56.59314706 104.61151974 55.11006415 103.4318429 53.62792969 102.25097656 C52.9223291 101.69249023 52.21672852 101.13400391 51.48974609 100.55859375 C43.33625166 94.09288218 35.45831061 87.43711226 27.88574219 80.29785156 C25.80612308 78.22781605 25.80612308 78.22781605 23.62792969 77.25097656 C22.96792969 78.24097656 22.30792969 79.23097656 21.62792969 80.25097656 C18.6628418 80.60742188 18.6628418 80.60742188 14.90527344 80.57910156 C14.24459366 80.57722839 13.58391388 80.57535522 12.9032135 80.57342529 C11.50695752 80.56670266 10.11072044 80.55278373 8.71459961 80.53222656 C6.57029855 80.50104736 4.42673189 80.49125455 2.28222656 80.48535156 C-8.20869355 80.41435332 -8.20869355 80.41435332 -9.37207031 79.25097656 C-9.47236888 76.82240621 -9.50825456 74.42226043 -9.50146484 71.99316406 C-9.50321716 71.23384583 -9.50496948 70.47452759 -9.5067749 69.69219971 C-9.51119361 67.17010241 -9.50825537 64.64807464 -9.50488281 62.12597656 C-9.50555585 60.381022 -9.50652587 58.63606752 -9.50778198 56.89111328 C-9.50925898 53.22915761 -9.50710434 49.56722629 -9.50244141 45.90527344 C-9.49674411 41.20053164 -9.50002311 36.49584688 -9.50601387 31.79110718 C-9.50961943 28.18643765 -9.50848092 24.58178175 -9.50588608 20.97711182 C-9.50521679 19.24188226 -9.50604528 17.50665148 -9.50836563 15.77142334 C-9.51089208 13.35051169 -9.50705169 10.9296937 -9.50146484 8.50878906 C-9.50348907 7.78459778 -9.50551331 7.06040649 -9.50759888 6.31427002 C-9.47543052 -1.17199596 -6.91146279 0.00337969 0 0 Z M-0.37207031 9.25097656 C-0.37207031 29.71097656 -0.37207031 50.17097656 -0.37207031 71.25097656 C4.90792969 71.25097656 10.18792969 71.25097656 15.62792969 71.25097656 C19.75948559 59.06288666 23.05970239 46.83010801 26.00292969 34.31347656 C26.18364014 33.55101624 26.36435059 32.78855591 26.55053711 32.00299072 C27.06917952 29.80702288 27.58056926 27.60951578 28.08886719 25.41113281 C28.38583496 24.12859619 28.68280273 22.84605957 28.98876953 21.5246582 C29.75567893 18.15257986 29.75567893 18.15257986 29.62792969 14.25097656 C19.73082038 10.89981088 10.08556506 9.25097656 -0.37207031 9.25097656 Z M66.53417969 30.56347656 C60.59076219 37.57145397 60.59076219 37.57145397 58.94042969 46.12597656 C59.16730469 46.82722656 59.39417969 47.52847656 59.62792969 48.25097656 C65.82477419 48.777324 65.82477419 48.777324 71.44042969 46.50097656 C72.79732864 45.10530907 74.11855481 43.67273982 75.37792969 42.18847656 C79.60217504 38.55093195 84.62398203 37.47136536 90.07324219 36.87207031 C94.65277599 37.36021842 95.99073799 38.80916709 99.19042969 42.06347656 C100.23304465 43.0873639 101.280087 44.10675846 102.33105469 45.12207031 C102.87052734 45.64526855 103.41 46.1684668 103.96582031 46.70751953 C106.64861355 49.19879727 109.53281072 51.40560556 112.44042969 53.62597656 C117.65781992 57.64491532 122.71470824 61.81103093 127.69042969 66.12597656 C128.61915894 66.92914307 128.61915894 66.92914307 129.56665039 67.74853516 C133.05768719 70.79572726 136.39121867 73.93472444 139.62792969 77.25097656 C143.2810964 76.001209 144.40858804 75.57998903 146.62792969 72.25097656 C145.90060567 69.32222926 145.07058766 66.64471096 144.04199219 63.82128906 C143.74739105 62.99394257 143.45278992 62.16659607 143.14926147 61.31417847 C142.51903985 59.56147974 141.88133798 57.81145564 141.23681641 56.06396484 C140.26280447 53.40295455 139.33328058 50.72910039 138.40527344 48.05175781 C137.78685613 46.34896049 137.16584239 44.64710346 136.54199219 42.94628906 C136.13516708 41.75231003 136.13516708 41.75231003 135.72012329 40.53421021 C132.85943762 33.02884951 128.04131266 30.82878059 121.0168457 27.58178711 C116.15177199 25.6483134 116.15177199 25.6483134 111.27416992 23.74682617 C109.19162499 22.93894026 107.12004395 22.10648468 105.04785156 21.27246094 C88.86178882 14.89578424 78.49130742 17.35709668 66.53417969 30.56347656 Z M148.87792969 19.18847656 C148.00394531 19.37087891 147.12996094 19.55328125 146.22949219 19.74121094 C141.80380553 20.62572307 141.80380553 20.62572307 137.62792969 22.25097656 C138.26705135 25.85730545 139.22321008 29.15601126 140.4855957 32.59204102 C140.86591446 33.63274246 141.24623322 34.67344391 141.63807678 35.74568176 C142.0485173 36.85731186 142.45895782 37.96894196 142.88183594 39.11425781 C143.30214584 40.26137741 143.72245575 41.40849701 144.15550232 42.59037781 C145.4970562 46.24934379 146.84367511 49.90642201 148.19042969 53.56347656 C149.10157149 56.04577568 150.01238276 58.52819615 150.92285156 61.01074219 C153.15404645 67.09223441 155.38978534 73.17203866 157.62792969 79.25097656 C162.90792969 79.25097656 168.18792969 79.25097656 173.62792969 79.25097656 C173.62792969 58.79097656 173.62792969 38.33097656 173.62792969 17.25097656 C164.59734744 17.25097656 157.39551789 17.27135585 148.87792969 19.18847656 Z M37.62792969 24.25097656 C35.09401331 31.8527257 32.69617298 39.43400179 30.59912109 47.16235352 C30.19989706 48.602797 29.78433693 50.03880708 29.35302734 51.4699707 C26.57481649 59.6984733 26.57481649 59.6984733 27.84863281 67.8894043 C29.6422065 69.95444941 31.46244256 71.5879644 33.62792969 73.25097656 C34.30339844 73.981875 34.97886719 74.71277344 35.67480469 75.46582031 C40.98198795 80.83386577 46.70650957 85.58039907 52.62792969 90.25097656 C53.32337891 90.80156738 54.01882812 91.3521582 54.73535156 91.91943359 C57.07032803 93.76454438 59.41059238 95.60272096 61.75292969 97.43847656 C62.49269043 98.02064941 63.23245117 98.60282227 63.99462891 99.20263672 C74.22503563 107.75125691 74.22503563 107.75125691 86.62792969 111.25097656 C82.50823615 106.28621768 78.18570974 101.87637282 73.38574219 97.55957031 C71.15573682 94.63082993 71.28761548 92.84490087 71.62792969 89.25097656 C74.62792969 88.25097656 74.62792969 88.25097656 77.04980469 89.42407227 C79.64517689 91.26319823 81.69823427 93.16930312 83.87792969 95.48144531 C84.65136719 96.28388672 85.42480469 97.08632812 86.22167969 97.91308594 C87.83170855 99.60283214 89.43585165 101.29820521 91.03417969 102.99902344 C91.80761719 103.79759766 92.58105469 104.59617187 93.37792969 105.41894531 C94.07402344 106.15395264 94.77011719 106.88895996 95.48730469 107.64624023 C97.53981414 109.43014419 97.53981414 109.43014419 100.20605469 109.74047852 C102.79232686 109.46700066 102.79232686 109.46700066 104.44042969 107.25097656 C105.02824219 106.26097656 105.02824219 106.26097656 105.62792969 105.25097656 C105.08265625 104.73712402 104.53738281 104.22327148 103.97558594 103.69384766 C101.51069463 101.35378098 99.06939757 98.99046123 96.62792969 96.62597656 C95.76941406 95.81773437 94.91089844 95.00949219 94.02636719 94.17675781 C93.21425781 93.38398438 92.40214844 92.59121094 91.56542969 91.77441406 C90.81132813 91.0517334 90.05722656 90.32905273 89.28027344 89.58447266 C87.1948828 86.63941301 87.30814515 84.78193079 87.62792969 81.25097656 C89.41699219 80.59082031 89.41699219 80.59082031 91.62792969 80.25097656 C93.27636719 81.19238281 93.27636719 81.19238281 95.00292969 82.81347656 C95.68742187 83.44511719 96.37191406 84.07675781 97.07714844 84.72753906 C99.11059549 86.73918806 101.10371221 88.77461181 103.08496094 90.83691406 C104.00559326 91.78522095 104.00559326 91.78522095 104.94482422 92.75268555 C106.18096087 94.03189822 107.40493454 95.32298971 108.61572266 96.6262207 C111.9475163 100.20456394 111.9475163 100.20456394 116.44042969 101.75488281 C119.01679675 101.16139826 120.00448493 100.30164363 121.62792969 98.25097656 C118.27288082 90.23204108 109.708282 84.15553919 103.22167969 78.62597656 C101.97739924 77.5524797 100.7899601 76.41300697 99.62792969 75.25097656 C99.50292969 72.12597656 99.50292969 72.12597656 99.62792969 69.25097656 C101.39624023 68.57128906 101.39624023 68.57128906 103.62792969 68.25097656 C105.46313477 69.36816406 105.46313477 69.36816406 107.33496094 71.12597656 C108.03057129 71.774375 108.72618164 72.42277344 109.44287109 73.09082031 C113.90967921 77.50672179 118.25764465 82.03935535 122.53613281 86.63769531 C123.25091797 87.37632812 123.96570313 88.11496094 124.70214844 88.87597656 C125.33725342 89.54886719 125.9723584 90.22175781 126.62670898 90.91503906 C128.60154113 92.53386697 128.60154113 92.53386697 131.31079102 92.02441406 C133.56361753 91.46423742 133.56361753 91.46423742 134.62792969 90.25097656 C135.01440362 87.15918508 134.90196178 85.6727929 133.18652344 83.03222656 C126.17901276 75.49560366 118.52003552 68.84122585 110.62792969 62.25097656 C110.098125 61.80802246 109.56832031 61.36506836 109.02246094 60.90869141 C106.73851863 59.00615548 104.43996647 57.12523452 102.12011719 55.26660156 C100.45050605 53.91625776 98.80945001 52.52987228 97.19824219 51.11035156 C92.68210974 47.17425208 92.68210974 47.17425208 86.94042969 46.06347656 C82.22197904 47.75499661 78.8010005 50.29615148 74.94042969 53.43847656 C70.10952876 57.22485837 64.49893046 56.72065662 58.62792969 56.25097656 C55.27756063 55.07540847 53.43345901 54.27619569 51.25292969 51.50097656 C49.29098986 44.43799318 51.38539727 38.53921036 54.62792969 32.25097656 C56.18120617 30.10807104 57.85365544 28.2223924 59.62792969 26.25097656 C59.62792969 25.59097656 59.62792969 24.93097656 59.62792969 24.25097656 C52.36792969 24.25097656 45.10792969 24.25097656 37.62792969 24.25097656 Z " fill="#000000" transform="translate(9.3720703125,63.7490234375)"/>
<path d="M0 0 C5.89137955 4.73512749 10.3634184 10.95596539 11.77734375 18.4921875 C12.69527009 28.75490497 11.06094601 36.81518879 4.46484375 44.8671875 C-1.70739434 51.40870479 -9.00426944 54.52357115 -17.97265625 54.8671875 C-26.98512622 54.6775687 -33.90735306 51.65145001 -40.46484375 45.4921875 C-46.8144351 38.26776357 -48.61055863 31.06526319 -48.49609375 21.65625 C-47.75512342 13.0821647 -43.63278215 6.12608722 -37.22265625 0.4921875 C-25.49921836 -7.46866053 -11.94955876 -8.10637906 0 0 Z M-37.77734375 11.39453125 C-41.9024352 17.38148831 -41.93873767 23.44153962 -41.22265625 30.4921875 C-39.44923192 37.13691664 -34.77599155 41.66586709 -29.22265625 45.4921875 C-23.22378621 48.43281007 -16.33982095 48.59102538 -9.91015625 46.875 C-3.78132764 44.16969675 1.01687167 39.08355055 3.94921875 33.1015625 C5.85540232 27.09528598 5.84173062 19.98927192 3.27734375 14.1796875 C-0.20727763 8.23971013 -5.65721455 3.57583067 -12.22265625 1.4921875 C-23.65710722 0.13582504 -30.40083114 2.76572696 -37.77734375 11.39453125 Z " fill="#FF4900" transform="translate(114.22265625,7.5078125)"/>
<path d="M0 0 C1.11375 0.1546875 1.11375 0.1546875 2.25 0.3125 C2.9309082 2.58129883 2.9309082 2.58129883 3.25 5.3125 C2.11010742 7.2253418 2.11010742 7.2253418 0.35546875 9.01171875 C-0.58329102 9.98915039 -0.58329102 9.98915039 -1.54101562 10.98632812 C-2.20810547 11.65083984 -2.87519531 12.31535156 -3.5625 13 C-4.21798828 13.67611328 -4.87347656 14.35222656 -5.54882812 15.04882812 C-7.26866407 16.81795312 -9.00342449 18.5698312 -10.75 20.3125 C-11.41 20.9725 -12.07 21.6325 -12.75 22.3125 C-16.71927016 22.42590772 -18.82386875 20.62880587 -21.625 18.0625 C-24.75991751 14.77862312 -24.75991751 14.77862312 -24.6875 11.375 C-24.2234375 10.3540625 -24.2234375 10.3540625 -23.75 9.3125 C-19.88304097 9.84957764 -17.77939501 10.89804629 -14.75 13.3125 C-9.34174579 8.09133288 -9.34174579 8.09133288 -4.5625 2.3125 C-2.75 0.3125 -2.75 0.3125 0 0 Z " fill="#FF4900" transform="translate(106.75,20.6875)"/>
</svg>
