<?xml version="1.0" encoding="UTF-8"?>
<svg version="1.1" xmlns="http://www.w3.org/2000/svg" width="227" height="240">
<path d="M0 0 C12.96163128 9.45081516 22.25645445 22.97228363 25.65625 38.76171875 C28.50926249 57.33872051 25.28142544 74.17713814 15 90 C5.20502802 102.84062545 -8.96220859 112.18595101 -25 115 C-27.31 115 -29.62 115 -32 115 C-31.67 140.08 -31.34 165.16 -31 191 C-12.13015506 175.82314528 -12.13015506 175.82314528 -11.5625 161.3125 C-11.7147593 156.96734762 -11.7147593 156.96734762 -11.92822266 152.625 C-12.33755264 137.65521776 -5.11527067 120.9595345 4.83984375 109.96875 C19.1067776 96.66461537 39.26856013 92.33213913 58.28564453 92.87207031 C61.62881393 93.02963649 64.96277925 93.26842414 68.30078125 93.51171875 C69.55673096 93.60283936 70.81268066 93.69395996 72.10668945 93.7878418 C73.06148193 93.857854 74.01627441 93.92786621 75 94 C75.15008601 99.99151051 75.25802352 105.9818898 75.32958984 111.97485352 C75.35947117 114.00662331 75.40019234 116.03826746 75.45263672 118.06958008 C75.88511952 135.27137169 74.118541 148.81294248 62 162 C61.45214844 162.67289063 60.90429688 163.34578125 60.33984375 164.0390625 C56.28115561 168.65972285 51.72144629 171.532429 46.3125 174.3125 C45.37869507 174.80085327 45.37869507 174.80085327 44.42602539 175.29907227 C34.2148532 180.24834522 24.87253762 181.21968613 13.69360352 180.03955078 C3.32223358 179.04420307 -5.80140297 179.03407133 -14.3828125 185.55859375 C-22.56048021 192.31756537 -30.71700297 200.66584082 -32.62109375 211.421875 C-33.01293491 216.06793829 -32.79818605 220.53245455 -32.06201172 225.13427734 C-32.04154785 225.74996582 -32.02108398 226.3656543 -32 227 C-34 229 -34 229 -36.5 229.25 C-39 229 -39 229 -41 227 C-41.02709373 225.23451375 -41.00291734 223.46811693 -40.953125 221.703125 C-41.5868951 212.94033671 -46.84751921 207.68877616 -52.75 201.75 C-53.29800262 201.18673004 -53.84600525 200.62346008 -54.41061401 200.04312134 C-61.72135571 192.71708989 -67.58258814 188.62755356 -78.31958008 188.47314453 C-83.18439302 188.75175035 -88.01125997 189.20254898 -92.8515625 189.76025391 C-104.67498082 190.66057934 -117.49300499 184.96216886 -126.71484375 177.9296875 C-139.68039306 166.73837125 -146.22536842 153.87118976 -149 137 C-149.3065481 132.30194482 -149.35316064 127.64510584 -149.28125 122.93945312 C-149.24950456 120.84227032 -149.24020381 118.74583919 -149.234375 116.6484375 C-149.1652359 106.4957077 -149.1652359 106.4957077 -148 103 C-123.78825431 101.02064561 -98.76743264 101.16881846 -78.8125 117.125 C-67.09798607 128.09535423 -61.65175136 143.33957254 -60 159 C-60.01557386 161.01519216 -60.07652656 163.03056257 -60.18359375 165.04296875 C-60.22162109 166.05552734 -60.25964844 167.06808594 -60.29882812 168.11132812 C-60.39055523 170.14611958 -60.54084118 172.1791902 -60.75195312 174.20507812 C-60.96384155 177.95355793 -60.96384155 177.95355793 -59 184 C-53.39 189.61 -47.78 195.22 -42 201 C-41.67 172.62 -41.34 144.24 -41 115 C-43.64 115 -46.28 115 -49 115 C-67.51990338 110.59421246 -81.9247401 100.19238198 -92 84 C-100.53637082 68.70566894 -102.34486718 51.62657873 -97.83007812 34.77905273 C-92.75816215 17.46202191 -81.2191262 4.04499983 -65.4375 -4.6875 C-43.89852211 -14.77241678 -19.9212242 -12.84673499 0 0 Z M-76 14 C-87.56485956 27.9359913 -92.42646378 41.94349643 -91 60 C-88.1728401 75.84563872 -80.15162953 88.4765306 -67.25390625 98.03515625 C-54.42147718 106.23607089 -40.0426109 108.55226099 -25.1875 105.9375 C-11.10229018 102.6494217 0.84757432 94.62064578 8.875 82.5625 C17.38511113 68.16539435 19.80931502 53.87563068 16.0234375 37.5859375 C11.93941956 23.27628685 2.57053839 11.90689662 -10.23046875 4.3984375 C-31.37446 -6.27793608 -59.35311223 -4.33979161 -76 14 Z M8.75 119.3125 C-3.27353922 134.39174532 -3.65991303 152.64426512 -3 171 C5.9002978 175.4501489 23.75787732 172.71876284 33.1796875 170.04296875 C47.2215192 164.85021381 56.98617193 157.58327825 63.48046875 143.875 C68.32412822 131.60250209 71.02310662 116.04324228 68 103 C50.62631793 94.31315897 20.56292768 106.5352517 8.75 119.3125 Z M-140 112 C-144.45574467 125.367234 -139.6443047 143.68797272 -134 156 C-126.84985071 167.92945961 -115.67395354 176.05332913 -102.375 179.8125 C-93.44781346 181.7139585 -77.2753594 184.1376797 -69 180 C-68.46360727 160.43159842 -69.52830846 142.42734974 -82.3125 126.5 C-93.0694527 115.28785331 -109.1848631 111.2578175 -124.2421875 110.84765625 C-132.29081755 110.39481458 -132.29081755 110.39481458 -140 112 Z " fill="#FF7F2E" transform="translate(152,11)"/>
<path d="M0 0 C1.55521173 0.00031721 3.11044535 0.0116478 4.66552734 0.03173828 C5.89316299 0.03598312 5.89316299 0.03598312 7.14559937 0.04031372 C9.76436877 0.05152546 12.38279848 0.07663149 15.00146484 0.10205078 C16.77489741 0.11207931 18.54833533 0.12120538 20.32177734 0.12939453 C24.6734711 0.151468 29.02491034 0.18600434 33.37646484 0.22705078 C32.25194757 3.19898929 31.15352693 5.56145765 29.37646484 8.22705078 C25.75146484 8.91455078 25.75146484 8.91455078 22.37646484 9.22705078 C22.37646484 9.88705078 22.37646484 10.54705078 22.37646484 11.22705078 C25.67646484 11.22705078 28.97646484 11.22705078 32.37646484 11.22705078 C32.87146484 12.21705078 32.87146484 12.21705078 33.37646484 13.22705078 C31.75146484 15.66455078 31.75146484 15.66455078 29.37646484 18.22705078 C27.86052734 18.44361328 27.86052734 18.44361328 26.31396484 18.66455078 C25.34458984 18.85017578 24.37521484 19.03580078 23.37646484 19.22705078 C22.30571893 21.19008496 21.31350742 23.19679188 20.37646484 25.22705078 C16.35026566 29.16174544 12.54977613 31.26119249 7.37646484 33.22705078 C8.66734308 34.81102698 9.95923306 36.39417863 11.25146484 37.97705078 C12.06228516 38.97091797 12.87310547 39.96478516 13.70849609 40.98876953 C15.5187544 43.19681272 17.35087693 45.38407668 19.20068359 47.55908203 C19.88638428 48.36877441 19.88638428 48.36877441 20.5859375 49.19482422 C21.88897325 50.73062889 23.19707386 52.26213195 24.50537109 53.79345703 C26.37646484 56.22705078 26.37646484 56.22705078 26.37646484 58.22705078 C22.51332746 58.95414318 19.22852503 59.0874094 15.37646484 58.22705078 C11.36694901 55.09535794 8.45799697 51.24988693 5.37646484 47.22705078 C4.52974704 46.1866309 3.67821385 45.15011032 2.82177734 44.11767578 C1.26422386 42.2366687 -0.28143411 40.34570154 -1.81103516 38.44189453 C-3.58479872 36.19951511 -3.58479872 36.19951511 -5.62353516 34.22705078 C-5.89345422 31.53865694 -5.71090873 28.93563142 -5.62353516 26.22705078 C-4.81529297 26.18966797 -4.00705078 26.15228516 -3.17431641 26.11376953 C-2.10568359 26.04802734 -1.03705078 25.98228516 0.06396484 25.91455078 C1.11970703 25.85654297 2.17544922 25.79853516 3.26318359 25.73876953 C6.69066788 25.17540637 8.62684351 24.33140196 11.37646484 22.22705078 C12.03646484 20.90705078 12.69646484 19.58705078 13.37646484 18.22705078 C6.44646484 18.22705078 -0.48353516 18.22705078 -7.62353516 18.22705078 C-5.62353516 13.22705078 -5.62353516 13.22705078 -4.62353516 11.22705078 C-2.07412142 10.91463708 0.38007998 10.71401657 2.93896484 10.60205078 C3.64988281 10.56337891 4.36080078 10.52470703 5.09326172 10.48486328 C6.85388909 10.39033295 8.61514212 10.30759261 10.37646484 10.22705078 C6.39252874 8.38138547 2.93269802 7.86682249 -1.43603516 7.60205078 C-2.59748047 7.52728516 -3.75892578 7.45251953 -4.95556641 7.37548828 C-5.83599609 7.32650391 -6.71642578 7.27751953 -7.62353516 7.22705078 C-5.07816839 0.31819813 -5.07816839 0.31819813 0 0 Z " fill="#FF4900" transform="translate(102.62353515625,39.77294921875)"/>
</svg>
