<?xml version="1.0" encoding="UTF-8"?>
<svg version="1.1" xmlns="http://www.w3.org/2000/svg" width="227" height="238">
<path d="M0 0 C0.90953556 -0.06500198 1.81907112 -0.13000397 2.75616837 -0.19697571 C4.25177103 -0.28735611 4.25177103 -0.28735611 5.77758789 -0.37956238 C6.83128445 -0.44792801 7.884981 -0.51629364 8.97060776 -0.58673096 C22.8234308 -1.44096962 36.68866027 -1.94970721 50.56274414 -2.28263855 C51.22635641 -2.29927803 51.88996868 -2.31591751 52.57369041 -2.33306122 C112.36932773 -3.79665697 112.36932773 -3.79665697 130.74035645 12.62658691 C138.64595999 20.17221779 145.219837 29.22033312 150.64575195 38.6743927 C153.83119508 44.20494235 157.65262321 49.05718033 162.53083801 53.20211792 C166.24886785 56.42085565 167.97772718 58.55945071 168.44921875 63.54719543 C168.48964952 65.45636129 168.49314657 67.36656744 168.46508789 69.2759552 C168.4773793 70.28706863 168.48967072 71.29818207 168.50233459 72.3399353 C168.53397126 75.54982352 168.51781383 78.75740317 168.50024414 81.96736145 C168.51335848 84.15162751 168.52960099 86.33587718 168.54907227 88.52009583 C168.58984575 93.85702716 168.59145127 99.19287565 168.56274414 104.52986145 C169.65607056 105.09531677 169.65607056 105.09531677 170.77148438 105.67219543 C173.5695052 107.11979713 176.36714217 108.56813764 179.16455078 110.016922 C180.9330704 110.93258191 182.70200079 111.84744832 184.47094727 112.76228333 C193.86494892 117.62842823 203.21894157 122.56807821 212.56274414 127.52986145 C212.70243966 136.20581913 212.80871378 144.88138324 212.87361717 153.55822468 C212.90478524 157.58832141 212.94698597 161.61764259 213.01538086 165.64729309 C213.08110078 169.54421676 213.11655909 173.44039977 213.1320076 177.33783531 C213.14300074 178.81651135 213.16446594 180.29515186 213.19712448 181.77350807 C213.40192558 191.43830106 212.21981145 198.4663406 206.56274414 206.52986145 C206.17105042 207.10938065 205.77935669 207.68889984 205.37579346 208.28598022 C201.95720975 212.83913643 197.26364456 215.99671241 192.68774414 219.27986145 C191.85146484 219.88604309 191.01518555 220.49222473 190.15356445 221.11677551 C187.63226876 222.93414156 185.10043402 224.73547431 182.56274414 226.52986145 C181.82443359 227.05322083 181.08612305 227.5765802 180.32543945 228.11579895 C178.33114196 229.51895289 176.32592384 230.9039733 174.31274414 232.27986145 C173.43900146 232.88846008 173.43900146 232.88846008 172.54760742 233.50935364 C166.52884782 237.53810971 160.78067486 238.77808917 153.6111908 238.79055786 C152.94790773 238.79438341 152.28462467 238.79820896 151.60124213 238.80215043 C149.39814124 238.81239711 147.19530505 238.80850439 144.9921875 238.80451965 C143.40484885 238.80887065 141.81751229 238.81405509 140.23017883 238.82000732 C135.93278308 238.83336412 131.63547546 238.83397991 127.338063 238.83144403 C123.74697082 238.83037247 120.15589633 238.83526218 116.56480795 238.84004945 C108.09332197 238.85113225 99.62188034 238.85158836 91.15039062 238.84553528 C82.41559267 238.83949006 73.68095557 238.8518232 64.94618505 238.87310535 C57.4394201 238.89072183 49.93270636 238.8967228 42.4259215 238.89346761 C37.94553884 238.89165533 33.46527106 238.89428571 28.98490715 238.90818214 C24.77330992 238.92075732 20.56196378 238.91881941 16.35037041 238.90577126 C14.8064414 238.90340558 13.26249472 238.90613986 11.71858597 238.91439438 C9.60787119 238.92486436 7.49799865 238.91676034 5.38731384 238.90408325 C4.20729262 238.90425099 3.0272714 238.90441874 1.81149197 238.90459156 C-2.57102188 238.39908606 -5.85959832 236.83550907 -9.24975586 234.02986145 C-12.28288333 230.19854255 -11.58543249 225.43980063 -11.58442688 220.81945801 C-11.58810357 219.91866306 -11.59178026 219.01786811 -11.59556836 218.08977634 C-11.60661756 215.05897543 -11.61045112 212.02820879 -11.61425781 208.99739075 C-11.62052145 206.82937002 -11.62716816 204.66135037 -11.63417053 202.49333191 C-11.65158759 196.59453822 -11.66213388 190.69575264 -11.67037606 184.79693961 C-11.67552394 181.11350408 -11.68159972 177.43007109 -11.68788719 173.74663734 C-11.70693987 162.2275026 -11.72117175 150.70837428 -11.72949916 139.18922681 C-11.7392777 125.88175059 -11.76561298 112.57451048 -11.80600005 99.26708859 C-11.83612976 88.98761244 -11.85096499 78.70818397 -11.85428017 68.42866451 C-11.85663393 62.2859831 -11.86563697 56.14347909 -11.89074135 50.00084496 C-11.91397242 44.22325868 -11.9182752 38.44596723 -11.90797997 32.66834641 C-11.90748331 30.54711618 -11.91384165 28.42587167 -11.92753601 26.30468559 C-11.94518042 23.40984012 -11.93818532 20.51606133 -11.92500305 17.62121582 C-11.9359723 16.78083965 -11.94694154 15.94046349 -11.95824319 15.07462138 C-11.89985447 9.76760744 -10.97827997 6.72716787 -7.43725586 2.52986145 C-4.39258433 0.50008043 -3.47766221 0.23790849 0 0 Z M-2.43725586 10.52986145 C-2.53737532 13.32180686 -2.57164868 16.08908793 -2.5642395 18.88154602 C-2.56579949 19.76782574 -2.56735948 20.65410546 -2.56896675 21.56724215 C-2.57298071 24.56065781 -2.56978558 27.55402346 -2.56665039 30.54743958 C-2.56800426 32.68386871 -2.5697841 34.82029762 -2.57196045 36.95672607 C-2.57653654 42.77680211 -2.5747445 48.59686051 -2.57158136 54.41693687 C-2.56905866 60.49303105 -2.57139505 66.56912366 -2.57296753 72.6452179 C-2.57478949 82.85107191 -2.57238222 93.05691869 -2.56762695 103.26277161 C-2.56218428 115.08079307 -2.56394692 126.89879729 -2.56945336 138.71681833 C-2.57398374 148.84331107 -2.57463541 158.9697986 -2.57201469 169.09629202 C-2.5704515 175.15325802 -2.57025929 181.21021591 -2.57355118 187.2671814 C-2.5764288 192.96010716 -2.57445621 198.65301058 -2.56865692 204.34593391 C-2.56732874 206.44183884 -2.56772442 208.53774563 -2.56991959 210.63364983 C-2.57262881 213.48185136 -2.56925277 216.32998006 -2.5642395 219.17817688 C-2.56647022 220.0189177 -2.56870095 220.85965852 -2.57099926 221.72587633 C-2.91340122 225.43030728 -2.91340122 225.43030728 -1.43725586 228.52986145 C0.48636041 228.62647097 2.4135748 228.65173313 4.33961487 228.65011597 C5.59469849 228.65149063 6.8497821 228.6528653 8.14289856 228.65428162 C9.54660058 228.650742 10.95030236 228.64710719 12.35400391 228.64338684 C13.82211302 228.64310498 15.29022227 228.64326269 16.7583313 228.64382935 C20.75609071 228.64411735 24.75382038 228.63822019 28.75157285 228.63125539 C32.92495147 228.6250223 37.0983307 228.62441809 41.27171326 228.62322998 C49.18007206 228.62011653 57.08841711 228.61190296 64.99676985 228.60188049 C73.99782908 228.59071978 82.99888896 228.58520901 91.99995339 228.58018506 C110.52089145 228.56972036 129.04181669 228.55212065 147.56274414 228.52986145 C145.24573548 226.18603737 143.02987578 224.00864442 140.32055664 222.1275177 C139.72887695 221.71179504 139.13719727 221.29607239 138.52758789 220.86775208 C137.92043945 220.44687317 137.31329102 220.02599426 136.68774414 219.59236145 C124.46265229 211.0873782 116.42283373 202.15933451 113.0430603 187.23506165 C112.5572224 184.49876234 112.40889057 181.95346486 112.36987305 179.17634583 C112.35381012 178.13176208 112.33774719 177.08717834 112.32119751 176.01094055 C112.27654762 171.2683957 112.23573293 166.52598511 112.21264648 161.78327942 C112.1960443 159.28090645 112.16869903 156.77858171 112.13061523 154.27644348 C112.07594154 150.66275012 112.05399151 147.05016225 112.03930664 143.43611145 C112.01663727 142.31829285 111.9939679 141.20047424 111.97061157 140.04878235 C111.99155615 132.37226301 111.99155615 132.37226301 114.57006836 128.56941223 C118.24982962 126.061603 121.981774 123.96605329 125.96899414 121.99079895 C126.7713147 121.58326385 127.57363525 121.17572876 128.40026855 120.75584412 C130.94988906 119.46296222 133.50595426 118.18349746 136.06274414 116.90486145 C138.61807127 115.61635593 141.1719929 114.32511732 143.72521973 113.03245544 C145.30971386 112.23139768 146.89566732 111.43321792 148.48327637 110.63835144 C149.90007149 109.92623045 151.31141431 109.2031067 152.71577454 108.46676636 C154.56274414 107.52986145 154.56274414 107.52986145 157.55761719 106.31428528 C159.99187003 104.53366835 159.99187003 104.53366835 160.13037109 100.60920715 C160.12912301 98.97447217 160.10158138 97.33959622 160.05102539 95.7056427 C160.04347229 94.56016968 160.04347229 94.56016968 160.0357666 93.39155579 C160.00962395 90.54144194 159.93981594 87.69186366 159.87524414 84.84236145 C159.77211914 78.46923645 159.66899414 72.09611145 159.56274414 65.52986145 C140.75274414 65.52986145 121.94274414 65.52986145 102.56274414 65.52986145 C102.56274414 47.04986145 102.56274414 28.56986145 102.56274414 9.52986145 C84.10278474 9.50079899 84.10278474 9.50079899 65.64282227 9.48103333 C58.1191335 9.47504424 50.59545684 9.46794218 43.07177734 9.454422 C37.00936691 9.44359531 30.94696945 9.43758508 24.88455009 9.43498421 C22.56598137 9.43312956 20.2474134 9.4295082 17.92885017 9.42413139 C14.69359906 9.41692387 11.45840231 9.41587039 8.22314453 9.41633606 C6.76982224 9.41094315 6.76982224 9.41094315 5.28713989 9.40544128 C3.97246986 9.40750328 3.97246986 9.40750328 2.63124084 9.40960693 C1.48222589 9.40822424 1.48222589 9.40822424 0.30999851 9.40681362 C-1.46594992 9.33999354 -1.46594992 9.33999354 -2.43725586 10.52986145 Z M111.56274414 15.52986145 C111.56274414 29.05986145 111.56274414 42.58986145 111.56274414 56.52986145 C124.76274414 56.52986145 137.96274414 56.52986145 151.56274414 56.52986145 C149.81301354 53.03040025 148.62946314 51.34779596 145.95507812 48.67927551 C145.21768906 47.93880981 144.48029999 47.19834412 143.7205658 46.43544006 C142.92469559 45.64675537 142.12882538 44.85807068 141.30883789 44.04548645 C140.4927858 43.22989258 139.6767337 42.41429871 138.83595276 41.57398987 C137.11256425 39.85361995 135.38674844 38.13567865 133.65869141 36.41999817 C131.00177129 33.78137808 128.35298372 31.13479983 125.70532227 28.4868927 C124.0319663 26.81845027 122.35815389 25.15046547 120.68383789 23.48298645 C119.88594345 22.68620483 119.08804901 21.88942322 118.26597595 21.0684967 C117.16462059 19.97671112 117.16462059 19.97671112 116.04101562 18.86286926 C115.39196762 18.21763306 114.74291962 17.57239685 114.07420349 16.90760803 C112.78043132 15.41758466 112.78043132 15.41758466 111.56274414 15.52986145 Z M155.46508789 116.0728302 C154.75679337 116.4383046 154.04849884 116.80377899 153.31874084 117.18032837 C151.81388681 117.95778067 150.31004347 118.73719189 148.80712891 119.51838684 C146.53574319 120.69891126 144.26148551 121.87372985 141.98657227 123.04743958 C140.52090211 123.80556419 139.05540217 124.56401798 137.59008789 125.3228302 C136.92097885 125.66887802 136.25186981 126.01492584 135.56248474 126.37145996 C130.5107593 128.99935671 125.52923352 131.7445492 120.56274414 134.52986145 C120.46040481 141.2700436 120.39088909 148.01002169 120.34301758 154.75080872 C120.32303788 157.0386453 120.29584463 159.32643171 120.26098633 161.61408997 C119.55983346 184.04384627 119.55983346 184.04384627 129.56274414 203.50642395 C133.28417002 207.27146029 137.25788821 210.46246609 141.56274414 213.52986145 C142.36244629 214.10591125 143.16214844 214.68196106 143.98608398 215.27546692 C146.7655313 217.26064353 149.56641101 219.21152132 152.37524414 221.15486145 C153.29515137 221.80801331 154.21505859 222.46116516 155.1628418 223.1341095 C156.04375488 223.73134827 156.92466797 224.32858704 157.83227539 224.94392395 C158.622229 225.49000305 159.41218262 226.03608215 160.22607422 226.59870911 C162.55920508 227.79576151 162.55920508 227.79576151 165.07641602 226.87532043 C167.51638475 225.55494851 169.79475704 224.16939499 172.07446289 222.5884552 C172.91025879 222.00926331 173.74605469 221.43007141 174.60717773 220.83332825 C175.47938965 220.2175592 176.35160156 219.60179016 177.25024414 218.96736145 C178.14565918 218.33547913 179.04107422 217.7035968 179.96362305 217.05256653 C191.90649688 208.52986554 203.46066816 199.80630145 206.08203125 184.49714661 C207.02471775 176.71723009 206.98613254 168.87919658 207.07763672 161.05036926 C207.1094338 158.94947898 207.15734834 156.84877219 207.22119141 154.74861145 C207.31230199 151.70366248 207.35119943 148.66190331 207.37915039 145.61579895 C207.43638023 144.21096756 207.43638023 144.21096756 207.49476624 142.77775574 C207.54264799 137.85186927 207.54264799 137.85186927 204.93489075 133.90577698 C202.86519397 132.58567417 200.79962253 131.53719933 198.56274414 130.52986145 C197.55284424 129.97492004 196.54294434 129.41997864 195.50244141 128.84822083 C194.55425537 128.36159973 193.60606934 127.87497864 192.62915039 127.37361145 C191.56760742 126.82575989 190.50606445 126.27790833 189.41235352 125.7134552 C188.32760742 125.15786926 187.24286133 124.60228333 186.12524414 124.02986145 C183.95924593 122.91650996 181.79387025 121.80194643 179.62915039 120.68611145 C178.60063965 120.15630676 177.57212891 119.62650208 176.51245117 119.0806427 C173.05675927 117.26384457 169.66187965 115.3542417 166.28515625 113.39509583 C162.29519612 111.39078418 159.04840179 114.20497551 155.46508789 116.0728302 Z " fill="#FF7C2B" transform="translate(14.437255859375,-0.5298614501953125)"/>
<path d="M0 0 C0.91230881 -0.00335861 1.82461761 -0.00671722 2.76457214 -0.01017761 C5.79105986 -0.01970426 8.81749235 -0.02163155 11.84399414 -0.02270508 C13.94145226 -0.02591634 16.03891016 -0.02928031 18.1363678 -0.03279114 C22.53720621 -0.03878661 26.93802497 -0.0406306 31.33886719 -0.04003906 C36.98617869 -0.03993739 42.63336461 -0.05359324 48.28064632 -0.07081127 C52.61369916 -0.08191333 56.94672146 -0.08395883 61.27978706 -0.08342934 C63.36225378 -0.08461203 65.44472122 -0.08904988 67.527174 -0.0967617 C70.43617502 -0.1065259 73.34490109 -0.10369775 76.25390625 -0.09765625 C77.11894775 -0.10327576 77.98398926 -0.10889526 78.87524414 -0.11468506 C84.84917501 -0.08305325 84.84917501 -0.08305325 88.19165039 2.14526367 C88.50415039 4.64526367 88.50415039 4.64526367 88.19165039 7.14526367 C85.52039459 9.81651947 83.50504053 9.39095622 79.8727417 9.4163208 C78.98540344 9.41227234 78.09806519 9.40822388 77.18383789 9.40405273 C75.78370453 9.40930969 75.78370453 9.40930969 74.35528564 9.41467285 C71.25899902 9.42350069 68.16293948 9.41763728 65.06665039 9.41088867 C62.92195593 9.41223502 60.77726177 9.41417529 58.63256836 9.41668701 C54.13335266 9.4196397 49.63421626 9.41533595 45.13500977 9.40600586 C39.35755095 9.39461128 33.58027793 9.40116997 27.80282593 9.41315079 C23.37286978 9.42036546 18.94295794 9.41808326 14.51300049 9.4128952 C12.38226296 9.41155762 10.25152146 9.41321021 8.12078857 9.41785431 C5.14690438 9.42291307 2.17332434 9.41521843 -0.80053711 9.40405273 C-1.68787537 9.4081012 -2.57521362 9.41214966 -3.48944092 9.4163208 C-9.57982201 9.37379127 -9.57982201 9.37379127 -11.80834961 7.14526367 C-11.55834961 4.08276367 -11.55834961 4.08276367 -10.80834961 1.14526367 C-7.45879848 -0.52951189 -3.68358042 -0.00192528 0 0 Z " fill="#FF4900" transform="translate(54.808349609375,99.854736328125)"/>
<path d="M0 0 C1.57689857 -0.00956978 1.57689857 -0.00956978 3.18565369 -0.01933289 C4.32523026 -0.02044571 5.46480682 -0.02155853 6.63891602 -0.02270508 C7.80536148 -0.02603348 8.97180695 -0.02936188 10.17359924 -0.03279114 C12.64421188 -0.03786117 15.11483138 -0.04019944 17.58544922 -0.04003906 C21.37356805 -0.04222522 25.16139564 -0.0603795 28.94946289 -0.0793457 C31.34594627 -0.08227961 33.74243103 -0.08426442 36.13891602 -0.08520508 C37.84524452 -0.09598335 37.84524452 -0.09598335 39.58604431 -0.10697937 C41.16767113 -0.10236443 41.16767113 -0.10236443 42.78125 -0.09765625 C44.17451759 -0.09979378 44.17451759 -0.09979378 45.59593201 -0.10197449 C47.95532227 0.14526367 47.95532227 0.14526367 50.95532227 2.14526367 C51.26782227 4.64526367 51.26782227 4.64526367 50.95532227 7.14526367 C48.36345391 9.73713203 47.31705599 9.39811683 43.71118164 9.40405273 C42.06937927 9.41350922 42.06937927 9.41350922 40.39440918 9.42315674 C39.207948 9.41910828 38.02148682 9.41505981 36.79907227 9.41088867 C35.58586304 9.41280212 34.37265381 9.41471558 33.12268066 9.41668701 C30.55370883 9.41805001 27.98473014 9.41434559 25.41577148 9.40600586 C21.47176723 9.39530828 17.52821852 9.40589761 13.58422852 9.41870117 C11.09334209 9.4173796 8.60245595 9.41481725 6.11157227 9.41088867 C4.33188049 9.41696136 4.33188049 9.41696136 2.51623535 9.42315674 C1.42170044 9.41685242 0.32716553 9.4105481 -0.80053711 9.40405273 C-1.76713257 9.40246155 -2.73372803 9.40087036 -3.72961426 9.39923096 C-6.04467773 9.14526367 -6.04467773 9.14526367 -8.04467773 7.14526367 C-7.79467773 4.08276367 -7.79467773 4.08276367 -7.04467773 1.14526367 C-4.53478776 -0.10968131 -2.80874501 0.01153642 0 0 Z " fill="#FF4900" transform="translate(51.044677734375,184.854736328125)"/>
<path d="M0 0 C1.09461044 -0.00637985 2.18922089 -0.0127597 3.31700134 -0.01933289 C5.10443504 -0.02100212 5.10443504 -0.02100212 6.92797852 -0.02270508 C8.14260269 -0.02603348 9.35722687 -0.02936188 10.60865784 -0.03279114 C13.18360006 -0.03786556 15.75854888 -0.04019931 18.33349609 -0.04003906 C22.28632374 -0.04222496 26.23887222 -0.06037394 30.19165039 -0.0793457 C32.68709214 -0.08227955 35.18253522 -0.0842644 37.67797852 -0.08520508 C38.86757675 -0.09239059 40.05717499 -0.09957611 41.28282166 -0.10697937 C42.38058426 -0.10390274 43.47834686 -0.10082611 44.609375 -0.09765625 C45.57898666 -0.09908127 46.54859833 -0.10050629 47.54759216 -0.10197449 C49.86938477 0.14526367 49.86938477 0.14526367 51.86938477 2.14526367 C52.11938477 4.64526367 52.11938477 4.64526367 51.86938477 7.14526367 C49.29878851 9.71585993 48.30496069 9.40252117 44.73291016 9.41992188 C43.66162369 9.42945389 42.59033722 9.4389859 41.48658752 9.44880676 C40.32513718 9.44789536 39.16368683 9.44698395 37.96704102 9.44604492 C36.77839951 9.45033005 35.589758 9.45461517 34.36509705 9.45903015 C31.84740843 9.46478186 29.32970318 9.46526756 26.81201172 9.4609375 C22.95129137 9.45777955 19.09133829 9.48122049 15.23071289 9.5065918 C12.78865657 9.50886482 10.34659818 9.50956827 7.90454102 9.50854492 C6.7451149 9.51775467 5.58568878 9.52696442 4.39112854 9.53645325 C3.31668991 9.53022446 2.24225128 9.52399567 1.13525391 9.51757812 C0.18864395 9.51820755 -0.757966 9.51883698 -1.73326111 9.51948547 C-4.13061523 9.14526367 -4.13061523 9.14526367 -5.97535706 7.78605652 C-7.13061523 6.14526367 -7.13061523 6.14526367 -6.88061523 3.52026367 C-5.57193966 -0.62387565 -4.11749263 0.01620024 0 0 Z " fill="#FF4900" transform="translate(50.130615234375,156.854736328125)"/>
<path d="M0 0 C1.11785889 -0.00315216 2.23571777 -0.00630432 3.38745117 -0.009552 C5.21240112 -0.00651566 5.21240112 -0.00651566 7.07421875 -0.00341797 C8.31341064 -0.00437469 9.55260254 -0.00533142 10.8293457 -0.00631714 C13.45560156 -0.00699921 16.08176508 -0.00564085 18.70800781 -0.00097656 C22.08100589 0.00472073 25.4539244 0.00144151 28.82691956 -0.00454903 C32.03435552 -0.00902317 35.24178175 -0.00589429 38.44921875 -0.00341797 C39.66585205 -0.0054422 40.88248535 -0.00746643 42.13598633 -0.009552 C43.81277466 -0.00482376 43.81277466 -0.00482376 45.5234375 0 C46.51303467 0.00079559 47.50263184 0.00159119 48.5222168 0.00241089 C50.76171875 0.12939453 50.76171875 0.12939453 51.76171875 1.12939453 C51.88671875 4.12939453 51.88671875 4.12939453 51.76171875 7.12939453 C50.05870633 8.83240696 47.86808898 8.26566062 45.53930664 8.2746582 C44.42467545 8.28103806 43.31004425 8.28741791 42.16163635 8.29399109 C40.34139198 8.29566032 40.34139198 8.29566032 38.484375 8.29736328 C36.62914467 8.30235588 36.62914467 8.30235588 34.73643494 8.30744934 C32.1144142 8.31252383 29.49238697 8.31485751 26.87036133 8.31469727 C24.17465533 8.31461582 21.47911856 8.3215811 18.78344727 8.33520508 C14.91286977 8.35344799 11.04249108 8.35843039 7.171875 8.35986328 C5.35466698 8.37064156 5.35466698 8.37064156 3.50074768 8.38163757 C2.38296432 8.37856094 1.26518097 8.37548431 0.11352539 8.37231445 C-0.87385117 8.37373947 -1.86122772 8.37516449 -2.87852478 8.37663269 C-5.23828125 8.12939453 -5.23828125 8.12939453 -7.23828125 6.12939453 C-6.52888129 0.31231483 -5.66065886 0.00455092 0 0 Z " fill="#FF4900" transform="translate(50.23828125,128.87060546875)"/>
<path d="M0 0 C2.475 0.495 2.475 0.495 5 1 C5.86328125 3.03125 5.86328125 3.03125 6 6 C4.40710087 8.78218937 2.2991992 11.09921287 0.1875 13.5 C-1.01885951 14.91632507 -2.22326192 16.33431925 -3.42578125 17.75390625 C-4.02986816 18.4617627 -4.63395508 19.16961914 -5.25634766 19.89892578 C-6.88138207 21.85706722 -8.41439838 23.85010947 -9.91796875 25.90234375 C-10.57671997 26.79953125 -10.57671997 26.79953125 -11.2487793 27.71484375 C-12.43306549 29.34534587 -13.60746272 30.98301733 -14.78125 32.62109375 C-17 35 -17 35 -19.4140625 36.16796875 C-23.34042757 35.91293295 -25.29166959 33.58134614 -27.875 30.875 C-28.38546875 30.38773438 -28.8959375 29.90046875 -29.421875 29.3984375 C-30.8671875 27.9296875 -30.8671875 27.9296875 -33 25 C-32.8203125 22.1328125 -32.8203125 22.1328125 -32 20 C-29.9375 19.125 -29.9375 19.125 -27 19 C-25.18188477 20.30029297 -25.18188477 20.30029297 -23.31640625 21.9921875 C-22.6932251 22.55019043 -22.07004395 23.10819336 -21.42797852 23.68310547 C-20.95674561 24.11768066 -20.4855127 24.55225586 -20 25 C-19.64284912 24.52691406 -19.28569824 24.05382812 -18.91772461 23.56640625 C-17.2607408 21.37524738 -15.59914773 19.18762384 -13.9375 17 C-13.37611328 16.25621094 -12.81472656 15.51242188 -12.23632812 14.74609375 C-8.35440648 9.64413959 -4.28319479 4.76975532 0 0 Z " fill="#FF4900" transform="translate(193,151)"/>
</svg>
