<?xml version="1.0" encoding="UTF-8"?>
<svg version="1.1" xmlns="http://www.w3.org/2000/svg" width="184" height="240">
<path d="M0 0 C0.97853439 -0.0071553 1.95706879 -0.01431061 2.96525574 -0.02168274 C4.04267532 -0.02437164 5.12009491 -0.02706055 6.23016357 -0.02983093 C7.92789665 -0.03968773 7.92789665 -0.03968773 9.65992737 -0.04974365 C13.41869161 -0.06951132 17.17741584 -0.08114699 20.93621826 -0.09111023 C22.217705 -0.09518576 23.49919174 -0.09926128 24.81951141 -0.10346031 C30.90211466 -0.1221815 36.98469778 -0.13674377 43.06732392 -0.14507228 C50.08504917 -0.15484002 57.10245861 -0.18114609 64.1200726 -0.22157317 C70.20053365 -0.25539718 76.28086215 -0.26721943 82.36141205 -0.27127647 C84.9466033 -0.27615367 87.53179092 -0.28779965 90.11692047 -0.30631447 C93.73435203 -0.3306121 97.35095697 -0.32975747 100.96844482 -0.32279968 C102.03776749 -0.33560974 103.10709015 -0.3484198 104.20881653 -0.36161804 C113.30212796 -0.29782594 117.41423392 2.95572388 123.78094482 9.31123352 C124.28579407 9.81257812 124.79064331 10.31392273 125.31079102 10.83045959 C126.96179982 12.47273589 128.60546694 14.12213545 130.24871826 15.77217102 C131.40091258 16.92301667 132.55340353 18.07356541 133.70617676 19.22383118 C136.11326947 21.62798448 138.51673058 24.03569483 140.91766357 26.44599915 C143.99318157 29.53293665 147.07762634 32.61077361 150.16482925 35.6860199 C152.54305159 38.0570136 154.91648794 40.43275211 157.28850555 42.80995178 C158.42412334 43.94690195 159.56122379 45.08237323 160.69983673 46.21632385 C162.28905736 47.80045999 163.87171715 49.39087538 165.45281982 50.98310852 C166.80467377 52.33734924 166.80467377 52.33734924 168.18383789 53.71894836 C172.15000839 58.14839359 172.60965961 61.1702916 172.6255188 67.11759949 C172.63004991 67.8191548 172.63458102 68.52071011 172.63924944 69.24352467 C172.65190886 71.5941235 172.65027211 73.94449109 172.64862061 76.29512024 C172.65460489 77.9805379 172.66141021 79.66595283 172.66897583 81.35136414 C172.68665301 85.92991115 172.69133193 90.50838343 172.6926074 95.08696127 C172.69450632 98.90903931 172.70186374 102.73109994 172.70895159 106.55317128 C172.72523961 115.57067886 172.73012016 124.58814651 172.72869873 133.60566711 C172.7274971 142.90790578 172.7486022 152.2099125 172.78018606 161.51209247 C172.80633662 169.49862379 172.81706654 177.4850793 172.81578791 185.4716531 C172.81527793 190.24163599 172.82098122 195.01141276 172.84214401 199.781353 C172.86150593 204.26791504 172.86166498 208.75407393 172.84711075 213.24065018 C172.84501901 214.88617288 172.84974528 216.53172068 172.86183167 218.17720032 C172.87727953 220.42619888 172.86798078 222.67380646 172.85256958 224.92277527 C172.85365911 226.18043638 172.85474865 227.4380975 172.8558712 228.73386955 C172.26062626 232.81550974 170.93105799 234.95753327 168.35809326 238.14717102 C164.70637137 240.58165228 162.97482782 240.40278958 158.62181091 240.41459656 C157.93336068 240.41912767 157.24491046 240.42365878 156.5355981 240.4283272 C154.22335097 240.44101089 151.91133818 240.4393483 149.59906006 240.43769836 C147.94334611 240.44368121 146.28763496 240.45048619 144.63192749 240.45805359 C140.12976488 240.47574723 135.62767825 240.48041043 131.12548423 240.48168516 C127.36807475 240.4835829 123.61068302 240.49093912 119.85328037 240.49802935 C110.98776942 240.51432426 102.1222991 240.51919736 93.2567749 240.51777649 C84.11076562 240.51657526 74.96499241 240.5376708 65.81904286 240.56926382 C57.96841149 240.5954163 50.11785725 240.60614419 42.26718265 240.60486567 C37.57766702 240.60435566 32.88836104 240.6100599 28.19888878 240.63122177 C23.7870284 240.65058648 19.37557799 240.65074083 14.96370316 240.63618851 C13.34559468 240.63409699 11.72746066 240.63882175 10.10939598 240.65090942 C7.8975582 240.66636076 5.68713416 240.65705634 3.47532654 240.64164734 C2.23848964 240.64273687 1.00165274 240.64382641 -0.27266407 240.64494896 C-4.32586939 240.04612115 -6.47039821 238.69911836 -9.64190674 236.14717102 C-12.27176209 232.20238799 -11.92882276 228.82567459 -11.9160614 224.24694824 C-11.92129808 223.32573553 -11.92653476 222.40452282 -11.93193012 221.45539457 C-11.9469827 218.35545829 -11.94763643 215.25568631 -11.94830322 212.15571594 C-11.95592119 209.93843302 -11.96434806 207.72115275 -11.973526 205.50387573 C-11.99551416 199.47078001 -12.00427576 193.43773499 -12.00935245 187.40460372 C-12.01299105 183.63740862 -12.01922853 179.8702269 -12.02635384 176.10303688 C-12.04581462 165.67250363 -12.06232437 155.24197966 -12.06523037 144.81142712 C-12.06541794 144.14386171 -12.06560551 143.4762963 -12.06579876 142.78850164 C-12.06616501 141.43518372 -12.06652871 140.08186581 -12.06688987 138.72854789 C-12.06707269 138.05675944 -12.0672555 137.38497099 -12.06744385 136.69282532 C-12.0676244 136.02021675 -12.06780495 135.34760817 -12.06799097 134.65461753 C-12.07153252 123.75620933 -12.09855314 112.85799873 -12.13594174 101.95965906 C-12.17402198 90.77015228 -12.19294672 79.58071778 -12.19368988 68.39113885 C-12.19448398 62.10869936 -12.20328381 55.8265147 -12.23168755 49.54413414 C-12.25780449 43.63516515 -12.26010873 37.7266634 -12.24403191 31.81766319 C-12.24221233 29.64805587 -12.24895377 27.47842207 -12.26485062 25.30887222 C-12.28522307 22.34813963 -12.27481082 19.38905534 -12.25663757 16.42834473 C-12.26983754 15.56851382 -12.28303751 14.70868291 -12.29663748 13.82279652 C-12.23768922 9.62192701 -11.91437897 6.95820005 -9.22848606 3.62959766 C-5.87977625 0.41572891 -4.49185281 0.02249966 0 0 Z M-2.24432373 9.70539856 C-4.14367986 13.02383866 -4.17180439 15.95060773 -4.0960083 19.66963196 C-4.09659241 20.421241 -4.09717651 21.17285004 -4.09777832 21.94723511 C-4.09499672 24.42581237 -4.0639029 26.90317947 -4.03253174 29.38154602 C-4.02506958 31.10218143 -4.01937653 32.82282534 -4.01538086 34.54347229 C-4.00012249 39.06792241 -3.96083916 43.5918573 -3.91656494 48.11610413 C-3.87561648 52.73446178 -3.85737077 57.35290283 -3.83721924 61.97138977 C-3.79434492 71.03020965 -3.72609128 80.08864746 -3.64190674 89.14717102 C1.48037089 89.47037328 6.59665175 89.7051407 11.72674561 89.86128235 C13.46770588 89.92637856 15.20796266 90.01490211 16.94647217 90.12788391 C25.26467803 90.74120639 25.26467803 90.74120639 33.35809326 89.14717102 C36.58340997 85.95090619 37.98206602 83.51715783 39.84881592 79.40180969 C43.6714512 71.15859537 52.1706737 66.37707048 60.35809326 63.14717102 C70.96833357 59.49909808 84.60622568 59.30046282 94.94403076 63.89326477 C95.74067139 64.30705383 96.53731201 64.7208429 97.35809326 65.14717102 C98.21660889 65.57127258 99.07512451 65.99537415 99.95965576 66.43232727 C110.25331556 72.01453855 117.56725847 80.95485893 120.98309326 92.20576477 C121.55824998 95.18339901 121.41620365 98.12543067 121.35809326 101.14717102 C116.60809326 102.14717102 116.60809326 102.14717102 114.35809326 102.14717102 C114.13121826 100.84779602 113.90434326 99.54842102 113.67059326 98.20967102 C111.69359036 89.30614729 106.71803747 81.38453349 99.29559326 76.08467102 C90.09528488 70.27631973 81.25055497 67.84697462 70.35809326 69.14717102 C57.38432704 72.16590355 48.4039211 80.49944821 41.48309326 91.58467102 C41.09379639 92.24338196 40.70449951 92.9020929 40.30340576 93.58076477 C39.35809326 95.14717102 39.35809326 95.14717102 38.35809326 96.14717102 C35.33002282 96.30752662 32.32223872 96.4067755 29.29168701 96.46357727 C28.38306412 96.48435837 27.47444122 96.50513947 26.5382843 96.52655029 C23.6241338 96.59214774 20.70989022 96.65097782 17.79559326 96.70967102 C15.82488035 96.75284656 13.854177 96.79646053 11.88348389 96.8405304 C7.04178338 96.94783945 2.1999889 97.04907777 -2.64190674 97.14717102 C-2.71191667 114.45365454 -2.76485548 131.76009401 -2.79734325 149.06668663 C-2.8128273 157.10202639 -2.83394602 165.13727828 -2.8682251 173.17256165 C-2.89808059 180.17424534 -2.91747055 187.17586542 -2.92417222 194.17761099 C-2.92809106 197.88670513 -2.93733238 201.59561724 -2.95909691 205.30465317 C-2.98316863 209.44023035 -2.98387923 213.57548892 -2.98248291 217.71113586 C-2.99326874 218.94759354 -3.00405457 220.18405121 -3.01516724 221.45797729 C-3.01104324 222.57980911 -3.00691925 223.70164093 -3.00267029 224.85746765 C-3.00543567 225.8364118 -3.00820105 226.81535595 -3.01105022 227.82396507 C-2.88923287 228.59062304 -2.76741552 229.357281 -2.64190674 230.14717102 C0.9439664 232.53775311 2.51250988 232.39840011 6.77288818 232.40113831 C7.75361062 232.40581828 7.75361062 232.40581828 8.75414562 232.41059279 C10.94904229 232.41858196 13.14366319 232.41224571 15.33856201 232.40596008 C16.91047325 232.40866954 18.48238322 232.41223022 20.05429077 232.4165802 C24.32693712 232.42571185 28.59948709 232.42215676 32.87213516 232.41582203 C37.33905552 232.41076605 41.80596751 232.41545236 46.27288818 232.41859436 C53.7749378 232.42223518 61.27694806 232.41743187 68.7789917 232.40791321 C77.45806755 232.39702843 86.13704944 232.40055393 94.81612301 232.41156602 C102.26161219 232.4206356 109.70707304 232.42192579 117.15256596 232.41668868 C121.60214338 232.41356716 126.05167662 232.41316461 130.50125122 232.41976166 C134.68401879 232.42552971 138.86666497 232.42154819 143.0494194 232.40997314 C144.58653944 232.40732365 146.12366966 232.40809657 147.66078568 232.41249847 C149.75509553 232.41794407 151.84901361 232.41113216 153.94329834 232.40113831 C155.11653152 232.40038425 156.28976471 232.3996302 157.49855042 232.3988533 C160.55862411 232.35987117 160.55862411 232.35987117 163.35809326 230.14717102 C163.80366385 228.14816544 163.80366385 228.14816544 163.71885681 225.80656433 C163.7229808 224.89508636 163.7271048 223.9836084 163.73135376 223.04450989 C163.72056793 222.04182068 163.7097821 221.03913147 163.69866943 220.00605774 C163.69910751 218.95238007 163.69954559 217.89870239 163.69999695 216.81309509 C163.69790077 213.31749679 163.67453029 209.82237341 163.65106201 206.32685852 C163.64546902 203.90833295 163.64119752 201.48980398 163.63819885 199.0712738 C163.62672679 192.6958025 163.59723918 186.32053518 163.56408691 179.94514465 C163.53343693 173.44350444 163.51970437 166.94183136 163.50457764 160.44013977 C163.47237181 147.67571266 163.4195845 134.91149069 163.35809326 122.14717102 C149.16809326 122.14717102 134.97809326 122.14717102 120.35809326 122.14717102 C119.03809326 124.78717102 117.71809326 127.42717102 116.35809326 130.14717102 C108.49353433 140.94946403 97.58460874 147.94599834 84.35809326 150.14717102 C70.40468724 151.10947488 58.69422573 147.86804624 47.17059326 139.95967102 C38.87884691 131.66792467 33.21315861 121.90431963 32.35809326 110.14717102 C34.17059326 109.08467102 34.17059326 109.08467102 36.35809326 108.14717102 C37.34809326 108.47717102 38.33809326 108.80717102 39.35809326 109.14717102 C40.31512451 111.55342102 40.31512451 111.55342102 41.17059326 114.64717102 C44.46812414 125.07082669 49.93599351 132.39787324 59.35809326 138.14717102 C70.6039634 143.10037685 80.98642526 143.72832826 92.50262451 139.46748352 C102.84865739 134.68368172 109.45697594 126.19446153 114.35809326 116.14717102 C117.50611651 114.04848885 118.31831156 113.88755099 121.92132568 113.82832336 C122.85488892 113.80826233 123.78845215 113.78820129 124.75030518 113.76753235 C125.72817993 113.75617249 126.70605469 113.74481262 127.71356201 113.73310852 C128.61481812 113.71546448 129.51607422 113.69782043 130.44464111 113.67964172 C133.81144363 113.61657339 137.1785453 113.5703876 140.54559326 113.52217102 C148.07371826 113.39842102 155.60184326 113.27467102 163.35809326 113.14717102 C163.35809326 97.30717102 163.35809326 81.46717102 163.35809326 65.14717102 C159.81832764 65.13299133 156.27856201 65.11881165 152.63153076 65.10420227 C149.19605016 65.07357201 145.76076236 65.03448553 142.32537842 64.99458313 C139.9413334 64.97141347 137.55718617 64.95700987 135.17303467 64.95161438 C131.74188619 64.94231781 128.31234309 64.90130821 124.88153076 64.85420227 C123.81880951 64.85813492 122.75608826 64.86206757 121.66116333 64.86611938 C113.38177218 64.70358149 113.38177218 64.70358149 109.70037842 61.79048157 C106.61858117 58.31261844 106.23513674 55.88339485 106.152771 51.40034485 C106.12285316 49.9591906 106.12285316 49.9591906 106.09233093 48.48892212 C106.07561844 47.45446457 106.05890594 46.42000702 106.04168701 45.35420227 C106.02090591 44.29303696 106.00012482 43.23187164 105.97871399 42.1385498 C105.91328088 38.74565665 105.85436234 35.35268552 105.79559326 31.95967102 C105.75240212 29.6608348 105.70878764 27.3620065 105.66473389 25.06318665 C105.55760586 19.42459742 105.45582775 13.78593047 105.35809326 8.14717102 C91.73693476 8.05457007 78.11585091 7.98345615 64.49444199 7.93992233 C58.16974536 7.91903032 51.84526377 7.89068268 45.52069092 7.84541321 C39.41934337 7.80201386 33.31820292 7.77804608 27.21671295 7.76766205 C24.88663725 7.76026011 22.55657314 7.74580622 20.22658539 7.72425079 C16.96776156 7.69529615 13.70979806 7.6912118 10.4508667 7.69306946 C9.48342026 7.67868835 8.51597382 7.66430725 7.51921082 7.64949036 C2.38185518 7.68071523 2.38185518 7.68071523 -2.24432373 9.70539856 Z M114.35809326 14.14717102 C114.308744 19.80715148 114.27239797 25.46700738 114.24822998 31.12715149 C114.23815744 33.05360596 114.22449883 34.9800451 114.20721436 36.90644836 C114.18302085 39.67162354 114.1716229 42.43659702 114.16278076 45.20185852 C114.15245819 46.06648712 114.14213562 46.93111572 114.13150024 47.82194519 C114.1311022 49.93170623 114.23544083 52.0409782 114.35809326 54.14717102 C116.3477573 56.58003686 116.3477573 56.58003686 120.25701904 56.3742218 C121.93918119 56.37390443 123.62136346 56.36256498 125.30340576 56.34248352 C126.18841766 56.33965363 127.07342957 56.33682373 127.98526001 56.33390808 C130.81800739 56.32269342 133.6504411 56.29758672 136.48309326 56.27217102 C138.40105745 56.26214287 140.31902659 56.25301674 142.23699951 56.24482727 C146.94415202 56.22274991 151.65106942 56.18821147 156.35809326 56.14717102 C151.86467759 50.76539379 147.11399896 45.75653019 142.15106201 40.80732727 C141.3850618 40.04037033 140.61906158 39.27341339 139.82984924 38.48321533 C138.2233859 36.87607555 136.61567531 35.27018161 135.0067749 33.66548157 C132.53221703 31.19632398 130.06309683 28.72181777 127.59442139 26.2467804 C126.0302892 24.68330822 124.46584726 23.12014584 122.90106201 21.55732727 C122.15946335 20.81370438 121.41786469 20.07008148 120.65379333 19.30392456 C119.63186638 18.28672585 119.63186638 18.28672585 118.58929443 17.24897766 C117.98784103 16.64831985 117.38638763 16.04766205 116.76670837 15.42880249 C115.55221823 14.03500752 115.55221823 14.03500752 114.35809326 14.14717102 Z " fill="#FF812F" transform="translate(11.64190673828125,-0.1471710205078125)"/>
<path d="M0 0 C5.59878262 3.12490193 7.73815625 8.29587804 9.7265625 14.1328125 C11.98026337 22.51657974 10.70905038 30.87284885 8 39 C8.50789063 38.4946875 9.01578125 37.989375 9.5390625 37.46875 C15.13070475 32.19124495 15.13070475 32.19124495 19.125 31.3125 C22.70825731 32.16936588 25.08734916 33.78083746 28 36 C28.391875 35.525625 28.78375 35.05125 29.1875 34.5625 C31.50079753 32.56827799 32.96360297 32.2168855 36 32 C39.18884507 32.81575106 40.56566945 33.29679816 42.3125 36.125 C42.539375 36.74375 42.76625 37.3625 43 38 C44.98567708 37.96744792 46.97135417 37.93489583 48.95703125 37.90234375 C51 38 51 38 54 39 C54.6875 41.3125 54.6875 41.3125 55 44 C53.3866441 46.25655427 52.44788865 46.9225684 49.6953125 47.3984375 C40.80887372 47.31740614 40.80887372 47.31740614 37 44 C36.67 43.01 36.34 42.02 36 41 C35.13375 41.66 34.2675 42.32 33.375 43 C29.72777543 45.16131826 28.14086911 45.63013226 24 45 C21.625 43.5 21.625 43.5 20 42 C17.4754254 43.08196054 15.99423858 44.00633756 14.125 46.0625 C11.40559356 48.54195881 9.6379235 48.77726999 6 49 C3.125 48.5625 3.125 48.5625 1 48 C0.29875 48.99 -0.4025 49.98 -1.125 51 C-3.30290766 53.64460216 -3.6591556 53.9541171 -7.25 54.4375 C-10 54 -10 54 -11 53 C-11.2890625 50.68359375 -11.2890625 50.68359375 -11 48 C-9.27847237 45.82079795 -7.3645706 44.05276989 -5.3359375 42.16015625 C-3.6586363 40.00339406 -3.6586363 40.00339406 -4.59765625 37.1640625 C-5.06042969 36.11992187 -5.52320312 35.07578125 -6 34 C-6.48597656 32.90300781 -6.97195312 31.80601562 -7.47265625 30.67578125 C-7.99730469 29.56589844 -8.52195312 28.45601562 -9.0625 27.3125 C-12.66555057 19.67473755 -14.10692022 13.50412742 -13 5 C-10.19756275 -0.03437834 -5.38936505 -0.8818961 0 0 Z M-5 8 C-5.71925996 15.48030361 -3.4882441 21.39347708 0 28 C0.66 28.33 1.32 28.66 2 29 C2.71404789 20.65357353 1.3449235 15.15360619 -3 8 C-3.66 8 -4.32 8 -5 8 Z " fill="#FF4900" transform="translate(109,174)"/>
<path d="M0 0 C28.05 0 56.1 0 85 0 C85.495 3.465 85.495 3.465 86 7 C82.26539622 9.41776818 78.56375113 9.29588304 74.265625 9.29052734 C73.49118042 9.29724457 72.71673584 9.30396179 71.91882324 9.31088257 C69.36248334 9.32985871 66.80640591 9.33378618 64.25 9.3359375 C62.47167859 9.3423644 60.69335824 9.34909268 58.91503906 9.35610962 C55.18942817 9.36808047 51.46391001 9.37179051 47.73828125 9.37060547 C42.96307321 9.37040199 38.1884584 9.39773447 33.41339111 9.43214989 C29.74167139 9.45437686 26.07009556 9.45844435 22.39831543 9.45738602 C20.63763377 9.45974715 18.87694845 9.46859946 17.11633301 9.48405075 C14.65525575 9.50363156 12.19547277 9.4979053 9.734375 9.48583984 C9.0069812 9.49707886 8.2795874 9.50831787 7.53015137 9.51989746 C3.98632952 9.47571373 2.30284968 9.24760239 -0.48339844 6.96963501 C-0.98387695 6.31965546 -1.48435547 5.6696759 -2 5 C-1.34 3.35 -0.68 1.7 0 0 Z " fill="#FF8936" transform="translate(43,162)"/>
<path d="M0 0 C1.67542976 0.28604898 3.34385343 0.61781233 5 1 C5.82421875 3.0390625 5.82421875 3.0390625 6 6 C4.61770544 8.72007589 2.72258027 11.00656965 0.8125 13.375 C0.27093262 14.06529297 -0.27063477 14.75558594 -0.82861328 15.46679688 C-1.96796127 16.91573957 -3.11328401 18.36000162 -4.26416016 19.79980469 C-5.97254856 21.96520501 -7.62206431 24.16507158 -9.26171875 26.3828125 C-10.2987211 27.75578123 -11.33645432 29.12819831 -12.375 30.5 C-12.8496167 31.15274902 -13.3242334 31.80549805 -13.81323242 32.47802734 C-16.02230577 35.32802136 -17.4291111 36.86008359 -20.98046875 37.73046875 C-24.96782582 36.76586879 -27.18799955 34.69521985 -29.9375 31.8125 C-30.44345703 31.32974609 -30.94941406 30.84699219 -31.47070312 30.34960938 C-32.90234375 28.89453125 -32.90234375 28.89453125 -35 26 C-34.81640625 23.13671875 -34.81640625 23.13671875 -34 21 C-32 20.125 -32 20.125 -29 20 C-26.10933821 21.73653434 -23.55843792 23.80977399 -21 26 C-19.71263656 24.3907957 -18.42527765 22.78158778 -17.13793945 21.17236328 C-16.04280394 19.8034847 -14.94758864 18.43466996 -13.85229492 17.06591797 C-11.38537362 13.98290393 -8.91889662 10.89955353 -6.45703125 7.8125 C-5.39548828 6.4821875 -5.39548828 6.4821875 -4.3125 5.125 C-3.68988281 4.34382813 -3.06726563 3.56265625 -2.42578125 2.7578125 C-1 1 -1 1 0 0 Z " fill="#FF4900" transform="translate(103,86)"/>
<path d="M0 0 C1.18154663 -0.00218285 1.18154663 -0.00218285 2.38696289 -0.00440979 C4.05130718 -0.0027508 5.71566681 0.00881063 7.37988281 0.02954102 C9.92839676 0.05849034 12.47482999 0.05015265 15.0234375 0.03710938 C16.64063512 0.04334708 18.25782616 0.05173828 19.875 0.0625 C21.01884155 0.05809654 21.01884155 0.05809654 22.18579102 0.05360413 C27.42028078 0.14700829 27.42028078 0.14700829 29.95703125 1.85913086 C30.9375 3.49609375 30.9375 3.49609375 30.6875 6.12109375 C29.9375 8.49609375 29.9375 8.49609375 28.9375 9.49609375 C26.22193773 9.59711488 23.53235462 9.63579652 20.81640625 9.62890625 C19.5937632 9.63034134 19.5937632 9.63034134 18.34642029 9.63180542 C16.61888553 9.63248728 14.89134823 9.63063259 13.16381836 9.62646484 C10.51475272 9.6211235 7.86585716 9.62640607 5.21679688 9.6328125 C3.54166629 9.63215158 1.86653581 9.63087014 0.19140625 9.62890625 C-1.00239906 9.6319426 -1.00239906 9.6319426 -2.22032166 9.63504028 C-7.83258912 9.61104919 -7.83258912 9.61104919 -10.0625 8.49609375 C-10.875 6.68359375 -10.875 6.68359375 -11.0625 4.49609375 C-8.72033841 -0.51411055 -4.93192427 -0.07265665 0 0 Z " fill="#FF8B38" transform="translate(52.0625,186.50390625)"/>
</svg>
