<?xml version="1.0" encoding="UTF-8"?>
<svg version="1.1" xmlns="http://www.w3.org/2000/svg" width="240" height="232">
<path d="M0 0 C7.79718263 5.71278727 12.24281303 11.98547478 14.4921875 21.421875 C14.4921875 22.411875 14.4921875 23.401875 14.4921875 24.421875 C22.15596892 25.44466904 29.82303205 26.44024259 37.4921875 27.421875 C38.84207764 27.59734863 38.84207764 27.59734863 40.21923828 27.77636719 C42.62154499 28.08553362 45.02510032 28.38105167 47.4296875 28.671875 C48.13077637 28.76388184 48.83186523 28.85588867 49.55419922 28.95068359 C54.43383549 29.52054239 58.6764669 29.17517208 63.4921875 28.421875 C63.2653125 27.49375 63.0384375 26.565625 62.8046875 25.609375 C62.4921875 22.421875 62.4921875 22.421875 63.484375 20.828125 C66.48731581 18.72489797 69.76010767 18.32246032 73.3046875 17.734375 C74.35366211 17.54004883 74.35366211 17.54004883 75.42382812 17.34179688 C83.74881648 15.8699327 83.74881648 15.8699327 87.4921875 16.421875 C90.40068877 20.25988449 91.20206204 23.95004362 92.02612305 28.63964844 C92.15335754 29.34768616 92.28059204 30.05572388 92.41168213 30.78521729 C92.82762225 33.11555433 93.22863209 35.44817515 93.62890625 37.78125 C93.91540383 39.4117607 94.20259022 41.04215051 94.49043274 42.67242432 C95.09106261 46.08747898 95.68451658 49.50367953 96.27270508 52.92089844 C97.02371536 57.28166878 97.79056995 61.63946536 98.56265545 65.9965477 C99.15782241 69.36375682 99.74538657 72.73225837 100.33063698 76.10120392 C100.61040437 77.70738633 100.89226757 79.31320525 101.17633629 80.91863251 C104.15593395 97.81603903 104.15593395 97.81603903 103.4921875 104.421875 C99.8539327 106.8473782 96.40145304 107.38123702 92.1796875 108.109375 C91.43267578 108.25181641 90.68566406 108.39425781 89.91601562 108.54101562 C85.49147975 109.32181607 81.93729088 109.47484861 77.4921875 108.421875 C77.1621875 107.101875 76.8321875 105.781875 76.4921875 104.421875 C73.88835092 106.83518695 71.98232145 109.48904602 69.9921875 112.421875 C66.77809628 117.15843048 66.77809628 117.15843048 64.8515625 118.93359375 C63.04643564 120.90989644 62.80128874 122.63455422 62.2421875 125.234375 C60.93562511 129.84101764 59.35934474 132.46999423 55.54296875 135.37109375 C52.00620155 137.18326589 48.41703931 137.40407522 44.4921875 137.421875 C44.1209375 138.63875 43.7496875 139.855625 43.3671875 141.109375 C41.74054848 145.34463327 39.62811815 148.37107121 35.4921875 150.421875 C33.77125349 150.74086433 32.04038892 151.00918925 30.3046875 151.234375 C27.7168135 151.55156689 27.7168135 151.55156689 25.4921875 152.421875 C24.24161559 154.38006589 23.76675657 156.13715924 23.19921875 158.3828125 C21.80816572 162.39457871 18.19029809 164.57281971 14.4921875 166.421875 C11.8198254 166.55602972 9.16968262 166.46506041 6.4921875 166.421875 C6.4509375 167.2675 6.4096875 168.113125 6.3671875 168.984375 C5.19551266 173.58738328 3.00748514 176.28616349 -0.5078125 179.421875 C-5.39627671 182.02905591 -10.22602309 181.61267843 -15.5078125 180.421875 C-16.17039062 180.06351563 -16.83296875 179.70515625 -17.515625 179.3359375 C-19.97791605 178.20618043 -21.14019856 178.49133823 -23.7578125 179.046875 C-28.16516532 179.64226698 -30.92177793 178.9980902 -34.77734375 176.8125 C-37.69552423 174.46741592 -38.95051197 171.79602614 -40.5078125 168.421875 C-41.0234375 168.586875 -41.5390625 168.751875 -42.0703125 168.921875 C-47.96492207 170.13102568 -52.45856093 169.6003074 -57.70703125 166.77734375 C-60.73005213 164.50188118 -61.93708725 161.82511305 -63.5078125 158.421875 C-64.2090625 158.54046875 -64.9103125 158.6590625 -65.6328125 158.78125 C-71.45275714 159.57200335 -75.73580834 159.82330157 -80.84765625 156.6953125 C-83.80010679 154.43060926 -85.04113956 152.90522324 -86.5078125 149.421875 C-86.49952886 147.25432291 -86.43113501 145.08660802 -86.3203125 142.921875 C-86.03774764 138.33801966 -86.03774764 138.33801966 -87.98046875 134.38671875 C-89.82970104 132.84164283 -89.82970104 132.84164283 -91.78125 131.66796875 C-93.8918516 130.14470651 -94.5683884 128.82828155 -95.5078125 126.421875 C-95.6109375 125.4525 -95.7140625 124.483125 -95.8203125 123.484375 C-96.72096081 119.47239616 -98.54757349 118.25054783 -101.5078125 115.421875 C-107.5078125 107.33736796 -107.5078125 107.33736796 -107.5078125 104.421875 C-108.4978125 104.421875 -109.4878125 104.421875 -110.5078125 104.421875 C-110.5078125 105.741875 -110.5078125 107.061875 -110.5078125 108.421875 C-117.2098242 111.77288085 -128.77148595 107.49459086 -135.5078125 105.421875 C-136.5078125 104.421875 -136.5078125 104.421875 -136.74365234 100.90136719 C-136.65154917 93.42538384 -135.06483663 86.08378035 -133.734375 78.75 C-133.44717918 77.13825651 -133.16051622 75.52641798 -132.87435913 73.91448975 C-132.2756309 70.55163168 -131.67158277 67.18978787 -131.06347656 63.82861328 C-130.28558727 59.52742109 -129.51944587 55.22423779 -128.75704384 50.92027664 C-128.16746671 47.59780761 -127.5725489 44.27631267 -126.97593307 40.95510101 C-126.69142638 39.36857682 -126.4083724 37.78179137 -126.12681961 36.1947403 C-125.73257625 33.97811873 -125.33135854 31.76287074 -124.92822266 29.54785156 C-124.70172028 28.28926331 -124.4752179 27.03067505 -124.24185181 25.73394775 C-122.65362734 18.56768984 -122.65362734 18.56768984 -120.5078125 16.421875 C-112.31512082 16.48441463 -104.40601785 18.42534932 -96.5078125 20.421875 C-95.91048431 23.18451789 -95.5078125 25.58220269 -95.5078125 28.421875 C-86.61709806 29.60912235 -78.74985464 29.04167524 -69.9453125 27.484375 C-67.65261382 27.09865168 -65.35965649 26.71446171 -63.06640625 26.33203125 C-62.06923584 26.15808838 -61.07206543 25.98414551 -60.04467773 25.80493164 C-57.5078125 25.421875 -57.5078125 25.421875 -54.5078125 25.421875 C-54.36085938 24.6484375 -54.21390625 23.875 -54.0625 23.078125 C-52.50839403 15.86135704 -50.60813097 10.78880102 -45.5078125 5.421875 C-44.92 4.79410156 -44.3321875 4.16632812 -43.7265625 3.51953125 C-31.67012223 -8.16632172 -13.94860095 -8.77762427 0 0 Z M-39.5078125 12.421875 C-40.2503125 13.22625 -40.9928125 14.030625 -41.7578125 14.859375 C-43.75565031 17.78478037 -44.03086555 19.95447067 -44.5078125 23.421875 C-43.56421875 23.50824219 -42.620625 23.59460938 -41.6484375 23.68359375 C-34.88117843 24.42418736 -29.3383612 25.23582821 -23.1328125 28.234375 C-19.19777822 30.02828769 -17.03059249 30.83589091 -12.8828125 29.421875 C-11.42050554 28.76397005 -9.96229664 28.09689829 -8.5078125 27.421875 C-6.74456218 26.87592046 -4.97332623 26.35514233 -3.1953125 25.859375 C-0.10004212 24.97714818 2.64973116 23.93741808 5.4921875 22.421875 C1.88112137 14.00160097 -1.81855455 9.18026203 -9.6953125 4.546875 C-21.05950106 1.19350788 -31.70055647 3.27623223 -39.5078125 12.421875 Z M-115.5078125 25.421875 C-117.07747884 34.200724 -118.64250241 42.98038434 -120.20162964 51.76111126 C-120.92576437 55.83846511 -121.65148609 59.91552307 -122.38085938 63.99194336 C-123.08487922 67.92700378 -123.78469792 71.86279037 -124.48162842 75.79911232 C-124.74805682 77.29964549 -125.01598969 78.79991234 -125.28546143 80.29990196 C-125.66306196 82.40326638 -126.03526889 84.50752001 -126.40625 86.61206055 C-126.72601807 88.407425 -126.72601807 88.407425 -127.05224609 90.23905945 C-127.62588676 93.71092541 -127.62588676 93.71092541 -127.5078125 98.421875 C-124.2078125 99.081875 -120.9078125 99.741875 -117.5078125 100.421875 C-115.93814616 91.643026 -114.37312259 82.86336566 -112.81399536 74.08263874 C-112.08986063 70.00528489 -111.36413891 65.92822693 -110.63476562 61.85180664 C-109.93074578 57.91674622 -109.23092708 53.98095963 -108.53399658 50.04463768 C-108.26756818 48.54410451 -107.99963531 47.04383766 -107.73016357 45.54384804 C-107.35256304 43.44048362 -106.98035611 41.33622999 -106.609375 39.23168945 C-106.39619629 38.03477982 -106.18301758 36.83787018 -105.96337891 35.60469055 C-105.38973824 32.13282459 -105.38973824 32.13282459 -105.5078125 27.421875 C-108.8078125 26.761875 -112.1078125 26.101875 -115.5078125 25.421875 Z M75.3046875 26.359375 C74.0465625 26.71 72.7884375 27.060625 71.4921875 27.421875 C73.03884735 36.2017395 74.58612648 44.98149458 76.13419247 53.76111126 C76.85303026 57.83800186 77.5716561 61.91492958 78.28979492 65.99194336 C78.98307001 69.92775496 79.67690528 73.86346744 80.37112617 77.79911232 C80.63565514 79.29933989 80.89998352 80.79960284 81.16410637 82.29990196 C81.53457037 84.40404934 81.90575252 86.50806887 82.27709961 88.61206055 C82.48805771 89.80897018 82.69901581 91.00587982 82.91636658 92.23905945 C83.41087232 94.97241023 83.94743129 97.69809397 84.4921875 100.421875 C89.4421875 99.431875 89.4421875 99.431875 94.4921875 98.421875 C93.84997135 89.82384678 92.55032806 81.47939404 90.98828125 73.00390625 C90.74266781 71.65206903 90.4974821 70.30015404 90.25270081 68.94816589 C89.61415637 65.42775449 88.96989297 61.90841438 88.32434082 58.38928223 C87.66387103 54.78294965 87.0089424 51.17561125 86.35351562 47.56835938 C85.0717588 40.518548 83.78394499 33.46986157 82.4921875 26.421875 C79.27500858 25.34948203 78.43935138 25.48578015 75.3046875 26.359375 Z M-65.2265625 35.28564453 C-76.40136361 37.32271765 -87.15694585 37.7001583 -98.5078125 37.421875 C-99.93690779 45.18057576 -101.36050891 52.94027001 -102.78027344 60.70068359 C-103.26363355 63.34129209 -103.74874723 65.9815695 -104.23535156 68.62158203 C-104.93365346 72.41378889 -105.62742745 76.20680017 -106.3203125 80 C-106.53905029 81.18241272 -106.75778809 82.36482544 -106.9831543 83.58306885 C-107.18336182 84.68390808 -107.38356934 85.78474731 -107.58984375 86.91894531 C-107.76749268 87.88713196 -107.9451416 88.8553186 -108.12817383 89.85284424 C-108.60527083 92.64855796 -108.60527083 92.64855796 -108.5078125 96.421875 C-106.93 96.6075 -106.93 96.6075 -105.3203125 96.796875 C-102.49125811 97.56843529 -101.66573703 98.18017088 -100.03515625 100.67578125 C-99.19774379 102.43511568 -98.40029029 104.21415522 -97.6484375 106.01171875 C-96.53169349 108.37141414 -95.45896705 109.72302492 -93.5078125 111.421875 C-89.91652787 109.99422852 -87.45076697 107.68830388 -84.63525391 105.12939453 C-73.29903964 94.85452074 -73.29903964 94.85452074 -66.5078125 94.421875 C-61.20189413 94.79811285 -57.25120519 96.56838253 -53.5078125 100.421875 C-50.87241279 104.81420785 -51.31331365 109.46215433 -51.5078125 114.421875 C-50.69376953 114.78539062 -50.69376953 114.78539062 -49.86328125 115.15625 C-42.53741081 118.58818931 -42.53741081 118.58818931 -40.5078125 122.421875 C-40.2809375 123.453125 -40.0540625 124.484375 -39.8203125 125.546875 C-39.3871875 126.495625 -38.9540625 127.444375 -38.5078125 128.421875 C-34.99960912 129.59531187 -34.99960912 129.59531187 -32.53515625 130.015625 C-28.90327566 130.74340069 -26.41843252 132.08430855 -24.31640625 135.171875 C-23.32241769 136.88970889 -22.40871127 138.65344407 -21.5078125 140.421875 C-21.0128125 140.256875 -20.5178125 140.091875 -20.0078125 139.921875 C-14.84723619 138.88975974 -10.42115927 138.63388968 -5.6953125 141.046875 C-1.30763276 144.31612657 -0.02468819 147.39413192 1.3046875 152.609375 C2.3011279 155.64469947 2.3011279 155.64469947 5.2421875 157.421875 C9.19528837 158.63821373 10.83011785 158.25290983 14.4921875 156.421875 C16.50067843 153.4091386 17.10477761 151.94814261 16.48046875 148.3828125 C14.13267723 143.72434869 8.74803675 141.16133583 4.4921875 138.421875 C3.17541016 137.51115234 3.17541016 137.51115234 1.83203125 136.58203125 C-2.00823754 133.57006904 -2.00823754 133.57006904 -6.5078125 132.421875 C-6.1778125 130.441875 -5.8478125 128.461875 -5.5078125 126.421875 C-0.23484609 126.87957503 2.90838045 127.95173484 7.1796875 131.0546875 C8.20835937 131.77785156 9.23703125 132.50101562 10.296875 133.24609375 C12.43079417 134.7826199 14.56100192 136.32431336 16.6875 137.87109375 C17.71617187 138.59167969 18.74484375 139.31226563 19.8046875 140.0546875 C20.72894531 140.72387207 21.65320313 141.39305664 22.60546875 142.08251953 C26.34162499 143.81598986 28.54834039 143.40606982 32.4921875 142.421875 C35.10726555 140.21540289 35.4405314 139.00300615 35.7421875 135.609375 C33.74193303 130.5087261 29.93797851 128.44259191 25.4921875 125.421875 C24.780625 124.93251465 24.0690625 124.4431543 23.3359375 123.93896484 C20.91550336 122.27740449 18.48734766 120.6279797 16.0546875 118.984375 C15.249104 118.43958496 14.44352051 117.89479492 13.61352539 117.33349609 C12.85289795 116.8277002 12.09227051 116.3219043 11.30859375 115.80078125 C10.62224854 115.3426001 9.93590332 114.88441895 9.22875977 114.41235352 C7.53583754 113.25672775 7.53583754 113.25672775 5.4921875 113.421875 C5.8221875 111.441875 6.1521875 109.461875 6.4921875 107.421875 C12.11237429 107.85519565 15.79028448 109.43487556 20.44921875 112.640625 C21.39277473 113.26753235 21.39277473 113.26753235 22.35539246 113.90710449 C24.34661749 115.23366946 26.32569206 116.57715133 28.3046875 117.921875 C30.3040721 119.26248893 32.30575766 120.59961687 34.30754089 121.93664551 C35.54821585 122.76727816 36.78698774 123.60076192 38.02363586 124.43737793 C42.48846613 127.4554415 44.97922476 129.08343053 50.4921875 128.421875 C53.08340654 126.4120393 53.08340654 126.4120393 54.4921875 123.421875 C54.33681104 119.96246384 54.12017258 118.07710455 51.69140625 115.54296875 C50.86253906 114.98738281 50.03367188 114.43179688 49.1796875 113.859375 C47.69855469 112.85197266 47.69855469 112.85197266 46.1875 111.82421875 C44.95698298 111.02151217 43.72507043 110.22094301 42.4921875 109.421875 C40.90619388 108.38159597 39.32026059 107.34122496 37.734375 106.30078125 C34.27015822 104.03536059 30.79467468 101.78848087 27.3125 99.55078125 C24.48257624 97.72699155 21.67861267 95.88183525 18.921875 93.94921875 C14.29417119 90.71707575 10.19744327 88.15260791 4.8046875 86.421875 C-3.14718684 83.79419935 -8.49888064 78.66377761 -12.5703125 71.421875 C-13.23465378 70.09766613 -13.88796048 68.76748339 -14.5078125 67.421875 C-20.56640174 67.98372253 -25.7504821 68.59021642 -30.09375 73.1171875 C-31.5770002 75.23537288 -33.0355685 77.37105946 -34.46875 79.5234375 C-37.79076286 84.24553241 -41.23294194 86.85073757 -46.94921875 87.84765625 C-52.81005851 88.16083089 -57.74007916 86.91587566 -62.5078125 83.421875 C-65.22096388 79.35214794 -65.20326039 76.2021025 -64.5078125 71.421875 C-63.35999388 68.53447959 -61.77278622 66.09465373 -60.0078125 63.546875 C-59.54713379 62.85851562 -59.08645508 62.17015625 -58.61181641 61.4609375 C-57.68222331 60.07927539 -56.74437284 58.70312861 -55.79785156 57.33300781 C-54.67667468 55.67203646 -53.64234011 53.95308575 -52.625 52.2265625 C-47.8823816 44.5915849 -42.00756837 41.51537167 -34.01953125 37.98046875 C-30.4913513 36.53329769 -30.4913513 36.53329769 -27.5078125 34.421875 C-38.74757332 29.09582725 -53.54006551 33.12630915 -65.2265625 35.28564453 Z M-16.2578125 38.609375 C-17.60187412 39.19563538 -18.94692621 39.77963031 -20.29296875 40.36132812 C-22.88910364 41.48933885 -25.46750161 42.64785966 -28.03588867 43.83764648 C-30.12699298 44.79181116 -32.238011 45.70594797 -34.38012695 46.53930664 C-42.2010647 49.78881411 -45.77741146 55.47652632 -50.1953125 62.484375 C-50.92169922 63.57298828 -51.64808594 64.66160156 -52.39648438 65.78320312 C-56.16721252 70.82389378 -56.16721252 70.82389378 -57.30004883 76.68139648 C-56.6115265 78.53847302 -56.6115265 78.53847302 -54.8828125 79.734375 C-51.41887839 80.73709277 -48.99214442 80.27767582 -45.5078125 79.421875 C-41.52315504 76.72219235 -39.52214299 74.06210963 -37.2578125 69.859375 C-34.92938899 66.06938695 -33.41045347 63.79022355 -29.1328125 62.359375 C-27.59924321 62.00929274 -26.05660873 61.69687065 -24.5078125 61.421875 C-23.72792969 61.22335938 -22.94804688 61.02484375 -22.14453125 60.8203125 C-17.8238538 59.73106608 -13.9833888 59.33863824 -9.5078125 59.421875 C-9.1675 60.20691406 -8.8271875 60.99195312 -8.4765625 61.80078125 C-4.69439589 69.99882857 -0.850537 75.62908719 7.2421875 79.859375 C16.75816395 81.50637092 23.31749667 80.70802738 31.80078125 75.9296875 C34.33430331 74.51032681 36.73115108 73.32169819 39.4921875 72.421875 C40.1521875 72.751875 40.8121875 73.081875 41.4921875 73.421875 C41.74609375 75.7265625 41.74609375 75.7265625 41.4921875 78.421875 C39.76953125 80.1171875 39.76953125 80.1171875 37.4296875 81.546875 C36.20765625 82.29710937 36.20765625 82.29710937 34.9609375 83.0625 C31.86555751 84.7669181 28.79118358 86.15842969 25.4921875 87.421875 C25.4921875 88.081875 25.4921875 88.741875 25.4921875 89.421875 C27.86450681 91.18123044 30.2403841 92.81798196 32.7109375 94.4296875 C33.80964172 95.15791214 33.80964172 95.15791214 34.93054199 95.90084839 C37.28018774 97.45604809 39.63605869 99.001519 41.9921875 100.546875 C43.58244929 101.59702347 45.17229876 102.64779662 46.76171875 103.69921875 C50.66712036 106.28072103 54.57813287 108.85351323 58.4921875 111.421875 C63.50275862 109.21232784 64.45552483 105.81443697 66.63671875 100.953125 C69.12803296 97.55444793 71.49868165 97.41528155 75.4921875 96.421875 C72.23000931 76.7425726 68.95654378 57.06681295 65.4921875 37.421875 C64.50347656 37.47988281 63.51476562 37.53789063 62.49609375 37.59765625 C49.90958054 38.06966893 37.85595663 36.33930706 25.49633789 34.20043945 C9.64190458 31.49699199 -1.70066865 31.99588637 -16.2578125 38.609375 Z M-75.0078125 107.671875 C-76.12194621 108.65675886 -77.23652306 109.64114167 -78.3515625 110.625 C-78.88265625 111.10187256 -79.41375 111.57874512 -79.9609375 112.07006836 C-81.37951982 113.30976065 -82.8632638 114.47383926 -84.3515625 115.62890625 C-86.6680472 117.27021485 -86.6680472 117.27021485 -87.5078125 119.859375 C-87.5078125 123.16578855 -86.41923923 124.77528414 -84.5078125 127.421875 C-83.41552066 128.72437689 -83.41552066 128.72437689 -80.75 128.70703125 C-76.86253986 128.36512211 -75.55527952 127.38419487 -72.6328125 124.859375 C-71.78074219 124.12847656 -70.92867187 123.39757812 -70.05078125 122.64453125 C-69.21160156 121.91105469 -68.37242188 121.17757812 -67.5078125 120.421875 C-66.72019531 119.80183594 -65.93257812 119.18179688 -65.12109375 118.54296875 C-61.878057 115.94038809 -59.82384415 114.1743313 -58.1953125 110.296875 C-58.2857094 107.21712014 -58.2857094 107.21712014 -60.6328125 104.546875 C-63.23475346 102.31047272 -63.23475346 102.31047272 -65.78125 101.9609375 C-69.76475247 102.63436628 -72.11541751 105.03449395 -75.0078125 107.671875 Z M-64.5078125 128.109375 C-65.69504965 129.17607388 -66.88254729 130.2424829 -68.0703125 131.30859375 C-68.64152832 131.83243652 -69.21274414 132.3562793 -69.80126953 132.89599609 C-71.44951404 134.36974834 -73.14659581 135.75083332 -74.875 137.12890625 C-77.70618697 139.22774559 -77.70618697 139.22774559 -78.6328125 142.421875 C-78.72407269 145.52706878 -78.72407269 145.52706878 -76.9453125 148.296875 C-74.68399991 150.66229608 -74.68399991 150.66229608 -71.68359375 150.80078125 C-67.72098126 150.32799723 -66.24132316 149.09718 -63.2578125 146.484375 C-62.31808594 145.66453125 -61.37835938 144.8446875 -60.41015625 144 C-59.45238281 143.14921875 -58.49460937 142.2984375 -57.5078125 141.421875 C-56.53972656 140.63296875 -55.57164063 139.8440625 -54.57421875 139.03125 C-53.66542969 138.27328125 -52.75664063 137.5153125 -51.8203125 136.734375 C-50.99144531 136.04988281 -50.16257812 135.36539063 -49.30859375 134.66015625 C-47.23596989 132.48916826 -47.23596989 132.48916826 -47.13671875 129.30078125 C-47.29594158 126.34546454 -47.29594158 126.34546454 -49.1328125 124.046875 C-55.50454112 119.68727121 -59.75328372 123.68184983 -64.5078125 128.109375 Z M-47.8828125 143.046875 C-48.51058594 143.56894531 -49.13835937 144.09101563 -49.78515625 144.62890625 C-52.75883811 147.23007505 -54.31397328 148.80518189 -55.51953125 152.640625 C-55.72686394 155.55994748 -55.72686394 155.55994748 -53.9453125 158.296875 C-51.6859945 160.65580481 -51.6859945 160.65580481 -48.70703125 160.8203125 C-44.61534136 160.31072475 -42.96759943 158.8656326 -39.8828125 156.171875 C-38.96242188 155.38296875 -38.04203125 154.5940625 -37.09375 153.78125 C-32.57586528 149.9162621 -32.57586528 149.9162621 -29.5078125 144.984375 C-29.30683211 142.26746324 -29.30683211 142.26746324 -31.0078125 139.609375 C-33.36595107 137.15074999 -33.36595107 137.15074999 -36.703125 136.93359375 C-41.78995678 137.58642124 -44.15913963 139.68842378 -47.8828125 143.046875 Z M-24.8828125 153.046875 C-25.51058594 153.56894531 -26.13835937 154.09101563 -26.78515625 154.62890625 C-29.75883811 157.23007505 -31.31397328 158.80518189 -32.51953125 162.640625 C-32.72686394 165.55994748 -32.72686394 165.55994748 -30.9453125 168.296875 C-28.68305718 170.66586225 -28.68305718 170.66586225 -25.671875 170.7890625 C-21.81139699 170.34105641 -20.35566718 169.19940965 -17.4453125 166.671875 C-16.62933594 165.97578125 -15.81335938 165.2796875 -14.97265625 164.5625 C-14.15925781 163.85609375 -13.34585938 163.1496875 -12.5078125 162.421875 C-11.15042969 161.39126953 -11.15042969 161.39126953 -9.765625 160.33984375 C-7.27896764 158.54912116 -7.27896764 158.54912116 -6.4453125 155.484375 C-6.28268951 152.33414602 -6.28268951 152.33414602 -8.0078125 149.546875 C-10.37754724 147.1549884 -10.37754724 147.1549884 -13.703125 146.9375 C-18.79176446 147.585335 -21.15857885 149.68791799 -24.8828125 153.046875 Z M-3.5078125 165.421875 C-4.84398602 166.39716237 -6.1766876 167.37720819 -7.5078125 168.359375 C-8.6215625 169.17728516 -8.6215625 169.17728516 -9.7578125 170.01171875 C-10.3353125 170.47707031 -10.9128125 170.94242188 -11.5078125 171.421875 C-11.5078125 171.751875 -11.5078125 172.081875 -11.5078125 172.421875 C-6.49246198 172.09227284 -6.49246198 172.09227284 -2.5078125 169.421875 C-2.8263302 167.31366703 -2.8263302 167.31366703 -3.5078125 165.421875 Z " fill="#FF7F2D" transform="translate(136.5078125,50.578125)"/>
<path d="M0 0 C5.42046332 3.24311019 8.57007329 8.16995468 11 13.875 C12.07580292 20.80795213 11.65723995 26.33929951 7.875 32.375 C4.45576843 37.02712757 1.09251327 39.65666224 -4.4375 41.5 C-11.6347125 42.18919956 -17.82653693 42.44521293 -23.7890625 37.9921875 C-28.49619618 33.73122763 -31.94145341 29.35878106 -32.7734375 22.88671875 C-32.88327627 15.29685994 -31.85977932 10.04622505 -26.49609375 4.48828125 C-19.1670216 -2.16592238 -9.44000607 -4.15287089 0 0 Z M-19.4375 9.5 C-22.60875519 12.82981795 -23.69493055 15.49730464 -23.9375 20 C-23.68636805 24.52037502 -22.67009015 27.18856618 -19.4375 30.5 C-15.1033236 32.85953233 -11.59586742 33.63514287 -6.6875 33.0625 C-2.62047136 31.10719777 -0.84259885 29.31986288 1.5625 25.5 C2.85803188 21.4854506 2.8329957 18.28143202 1.4375 14.25 C-1.25582129 10.29979544 -3.6848776 8.08420747 -8.25 6.5625 C-12.52635105 6.47864998 -15.73781856 7.3510361 -19.4375 9.5 Z " fill="#FF802E" transform="translate(127.4375,1.5)"/>
<path d="M0 0 C2.81707371 0.08285511 4.53443313 0.57675739 6.6328125 2.484375 C11.42545542 7.90214525 11.42545542 7.90214525 12 12 C11.67 12.66 11.34 13.32 11 14 C7.0909364 13.77662494 6.08342012 13.09136489 3.375 10.125 C2.59125 9.09375 1.8075 8.0625 1 7 C0.01709032 5.98319689 -0.97334787 4.97261781 -2 4 C-1.34 2.68 -0.68 1.36 0 0 Z " fill="#FFA851" transform="translate(126,60)"/>
<path d="M0 0 C2.125 0.375 2.125 0.375 4 1 C4 2.65 4 4.3 4 6 C2.35 6 0.7 6 -1 6 C-1.625 4.125 -1.625 4.125 -2 2 C-1.34 1.34 -0.68 0.68 0 0 Z " fill="#FFA650" transform="translate(119,56)"/>
</svg>
