<?xml version="1.0" encoding="UTF-8"?>
<svg version="1.1" xmlns="http://www.w3.org/2000/svg" width="224" height="238">
<path d="M0 0 C3.05347008 1.01162015 6.12224967 1.97358108 9.19067383 2.9387207 C10.85241044 3.46212148 12.5130685 3.98895939 14.17260742 4.51928711 C18.38632073 5.86301858 22.59970675 7.10056265 26.87792969 8.22607422 C31.8019272 9.68440101 34.39757123 12.370205 37.31542969 16.53857422 C38.2991562 19.57918343 38.04344645 22.48853371 38.00292969 25.66357422 C41.48623091 23.65591339 44.96929023 21.64783356 48.45214844 19.6394043 C50.20332984 18.62967348 51.95468967 17.62025215 53.70605469 16.61083984 C55.40761719 15.62954102 55.40761719 15.62954102 57.14355469 14.62841797 C58.2846167 13.97147949 59.42567871 13.31454102 60.60131836 12.63769531 C62.84369657 11.33633378 65.07849648 10.02181274 67.30493164 8.69335938 C76.03717893 3.49299001 85.50110726 -1.91924489 96.06542969 -0.01611328 C100.07865199 1.39175099 102.90943833 3.87115024 105.13964844 7.52685547 C106.73832159 11.48375237 106.52103844 15.47884966 106.00292969 19.66357422 C101.69537203 28.99661582 90.22296741 34.12391552 81.81542969 39.22607422 C80.66467753 39.92865919 79.51420945 40.63170963 78.36401367 41.33520508 C76.03424275 42.7599062 73.70351008 44.18301216 71.37207031 45.60498047 C66.42542112 48.62745481 61.49403929 51.67430078 56.56542969 54.72607422 C55.7046582 55.25765137 54.84388672 55.78922852 53.95703125 56.33691406 C48.66847616 59.60875296 43.42756203 62.93814313 38.25683594 66.39404297 C27.80962884 72.27851837 15.98916782 70.28423976 4.99902344 67.22216797 C1.46949289 66.21392532 -2.04613112 65.16387432 -5.55957031 64.10107422 C-8.24772489 63.2970657 -10.93720622 62.49926252 -13.63157654 61.71632385 C-15.29265389 61.23288669 -16.95024345 60.73723871 -18.60340881 60.22740173 C-23.11364122 58.90602913 -26.32123128 58.43367895 -30.99707031 59.66357422 C-30.50207031 60.68451172 -30.50207031 60.68451172 -29.99707031 61.72607422 C-28.7614372 65.35574648 -28.52832989 67.84668794 -28.99707031 71.66357422 C-32.70194619 78.14710701 -39.12991587 81.15897545 -45.99707031 83.66357422 C-48.99113364 84.06313783 -50.0711964 83.76077694 -52.99707031 82.66357422 C-56.07599145 79.96270687 -58.03104597 77.1890012 -59.99316406 73.61279297 C-60.82219238 72.11546631 -60.82219238 72.11546631 -61.66796875 70.58789062 C-62.25094727 69.51974121 -62.83392578 68.4515918 -63.43457031 67.35107422 C-64.6775825 65.10211238 -65.92108412 62.85342099 -67.16503906 60.60498047 C-67.79716309 59.45787598 -68.42928711 58.31077148 -69.08056641 57.12890625 C-72.10319416 51.66353321 -75.17301688 46.22513902 -78.24707031 40.78857422 C-78.79548584 39.8149292 -79.34390137 38.84128418 -79.90893555 37.83813477 C-80.67185913 36.48715698 -80.67185913 36.48715698 -81.45019531 35.10888672 C-81.89524414 34.3201416 -82.34029297 33.53139648 -82.79882812 32.71875 C-83.80315444 30.99617076 -84.89101 29.32266468 -85.99707031 27.66357422 C-86.46799602 22.57757656 -86.04714543 19.74940401 -82.99707031 15.66357422 C-80.07128906 13.64404297 -80.07128906 13.64404297 -76.68457031 11.85107422 C-75.5746875 11.24650391 -74.46480469 10.64193359 -73.32128906 10.01904297 C-69.86736175 8.61068483 -67.6812477 8.29201656 -63.99707031 8.66357422 C-60.25121471 10.40583264 -58.36932118 12.35472862 -55.99707031 15.66357422 C-55.31193359 15.26041992 -54.62679687 14.85726562 -53.92089844 14.44189453 C-50.78118907 12.59644078 -47.63915439 10.75498163 -44.49707031 8.91357422 C-43.41941406 8.27935547 -42.34175781 7.64513672 -41.23144531 6.99169922 C-26.22179949 -1.79443492 -16.95925386 -5.67868463 0 0 Z M-39.55957031 16.35107422 C-40.7707083 17.06082799 -41.98229396 17.76981842 -43.19433594 18.47802734 C-46.13305736 20.19911121 -49.06704251 21.92774554 -51.99707031 23.66357422 C-50.60289663 27.37254681 -48.91888552 30.74195734 -46.95800781 34.18310547 C-46.37792969 35.2046875 -45.79785156 36.22626953 -45.20019531 37.27880859 C-44.59691406 38.33390625 -43.99363281 39.38900391 -43.37207031 40.47607422 C-42.45554687 42.08772461 -42.45554687 42.08772461 -41.52050781 43.73193359 C-40.01551147 46.37743498 -38.50761241 49.02123671 -36.99707031 51.66357422 C-36.422798 51.33925415 -35.8485257 51.01493408 -35.2568512 50.68078613 C-28.66312212 47.71270201 -21.08943277 50.13422799 -14.50097656 52.06982422 C-13.62738998 52.31398071 -12.75380341 52.55813721 -11.85374451 52.80969238 C-8.15543409 53.8433556 -4.46488723 54.90346125 -0.77416992 55.96386719 C1.93899564 56.73905735 4.65622515 57.49856465 7.37402344 58.25732422 C8.19100204 58.49793579 9.00798065 58.73854736 9.84971619 58.9864502 C19.33062507 61.62594701 26.71618889 61.5282652 35.38964844 56.80029297 C41.69006342 53.12042043 47.88316592 49.26245476 54.06152344 45.38232422 C58.28665018 42.72902182 62.53003722 40.10736835 66.78808594 37.50732422 C67.94677752 36.79882841 69.10546892 36.09033231 70.26416016 35.38183594 C72.48948282 34.02147523 74.71661652 32.66423999 76.94482422 31.30859375 C87.52545605 25.22767991 87.52545605 25.22767991 97.00292969 17.66357422 C96.82725611 14.18301548 96.82725611 14.18301548 96.00292969 10.66357422 C93.06776859 8.24028631 93.06776859 8.24028631 89.19042969 9.10107422 C76.2684641 12.44509726 64.51726626 20.79183481 53.20214844 27.57763672 C51.47047255 28.60863265 49.73744181 29.63735705 48.00292969 30.66357422 C47.18002441 31.15051758 46.35711914 31.63746094 45.50927734 32.13916016 C44.72987793 32.58807617 43.95047852 33.03699219 43.14746094 33.49951172 C42.46659424 33.89444824 41.78572754 34.28938477 41.08422852 34.69628906 C32.22013113 38.81588482 22.93551403 35.97554138 13.94042969 33.85107422 C12.78220703 33.59003906 11.62398437 33.32900391 10.43066406 33.06005859 C4.92037448 31.77822787 -0.11261835 30.56290132 -4.99707031 27.66357422 C-4.66707031 26.01357422 -4.33707031 24.36357422 -3.99707031 22.66357422 C3.30813766 22.31050318 9.26275927 23.92409369 16.20019531 26.06201172 C21.05872475 27.49176585 21.05872475 27.49176585 26.01464844 26.92529297 C28.09615549 25.80653271 28.09615549 25.80653271 29.12792969 23.85107422 C29.20731641 21.40154351 29.20731641 21.40154351 26.90673828 19.17602539 C23.73209808 16.42924362 21.41902932 15.45954452 17.41699219 14.27685547 C16.15628906 13.8959375 14.89558594 13.51501953 13.59667969 13.12255859 C12.27386083 12.74005872 10.95094332 12.35789985 9.62792969 11.97607422 C8.31239052 11.58364934 6.99728112 11.18978069 5.68261719 10.79443359 C2.1274837 9.73333508 -1.43221757 8.69149077 -4.99707031 7.66357422 C-6.24439941 7.29901123 -7.49172852 6.93444824 -8.77685547 6.55883789 C-20.14127698 3.39937362 -30.13109988 10.76090285 -39.55957031 16.35107422 Z M-72.62207031 20.66357422 C-73.84796875 21.49888672 -73.84796875 21.49888672 -75.09863281 22.35107422 C-75.72511719 22.78419922 -76.35160156 23.21732422 -76.99707031 23.66357422 C-68.14561324 40.59098306 -58.72032575 57.2224332 -48.99707031 73.66357422 C-44.48228633 73.13242316 -41.65040174 71.2973713 -37.99707031 68.66357422 C-43.30289704 57.54749356 -49.34804869 46.91820797 -55.50585938 36.25683594 C-57.77939553 32.30308658 -60.01586933 28.32882636 -62.24707031 24.35107422 C-62.62976074 23.66932129 -63.01245117 22.98756836 -63.40673828 22.28515625 C-64.27083108 20.74499272 -65.13406348 19.20434651 -65.99707031 17.66357422 C-68.86984109 17.66357422 -70.27377591 19.0533152 -72.62207031 20.66357422 Z " fill="#FF7C2B" transform="translate(85.9970703125,154.33642578125)"/>
<path d="M0 0 C0.97356445 0.52287598 1.94712891 1.04575195 2.95019531 1.58447266 C4.04928223 2.16527588 5.14836914 2.7460791 6.28076172 3.34448242 C7.43495605 3.97281982 8.58915039 4.60115723 9.77832031 5.24853516 C10.9838141 5.89173898 12.19003925 6.53357387 13.39697266 7.17407227 C15.81218416 8.45817408 18.22321392 9.74962107 20.63085938 11.04785156 C25.28514467 13.54891116 29.96963506 15.99066449 34.65332031 18.43603516 C36.75571609 19.53766813 38.85532846 20.64327637 40.94726562 21.76464844 C42.44895603 22.56482181 43.95998979 23.34754569 45.4765625 24.11914062 C46.28512695 24.54211426 47.09369141 24.96508789 47.92675781 25.40087891 C48.6632959 25.77849365 49.39983398 26.1561084 50.15869141 26.54516602 C52.43905949 28.16536486 53.00178784 29.27878438 54.02832031 31.87353516 C54.28901672 34.53817749 54.28901672 34.53817749 54.30297852 37.61328125 C54.31251053 38.76903656 54.32204254 39.92479187 54.3318634 41.11557007 C54.330952 42.36343292 54.33004059 43.61129578 54.32910156 44.89697266 C54.33338669 46.18987213 54.33767181 47.48277161 54.34208679 48.81484985 C54.34954766 51.5569467 54.34926238 54.29891488 54.34399414 57.04101562 C54.33825245 60.51484059 54.35500051 63.98812311 54.37833881 67.46185875 C54.39685359 70.81524951 54.39288505 74.16853147 54.39160156 77.52197266 C54.40081131 78.7495932 54.41002106 79.97721375 54.41950989 81.24203491 C54.33272852 97.78353111 50.61351004 113.02085299 38.95410156 125.24853516 C32.45745923 131.07729837 25.20927185 135.93523397 18.02832031 140.87353516 C16.52415146 141.9174277 15.02023794 142.96168828 13.51660156 144.00634766 C10.26012661 146.261226 7.00134876 148.51216514 3.71386719 150.72167969 C2.07951306 151.83855147 0.48266804 153.00970493 -1.11230469 154.18212891 C-4.24624548 156.03594907 -5.42587691 156.22953538 -8.97167969 155.87353516 C-10.921875 154.87060547 -10.921875 154.87060547 -12.79980469 153.45166016 C-13.86328125 152.6642041 -13.86328125 152.6642041 -14.94824219 151.86083984 C-15.69847656 151.2875293 -16.44871094 150.71421875 -17.22167969 150.12353516 C-18.83016423 148.92442311 -20.4395619 147.72653509 -22.04980469 146.52978516 C-22.86642578 145.91876953 -23.68304688 145.30775391 -24.52441406 144.67822266 C-27.57393138 142.42941659 -30.68208822 140.27459159 -33.80126953 138.12402344 C-48.29899217 128.10118842 -59.79502467 118.29604075 -64.97167969 100.87353516 C-65.14768707 100.29800903 -65.32369446 99.72248291 -65.5050354 99.1295166 C-66.11696982 96.17113324 -66.13131942 93.35399737 -66.16455078 90.33251953 C-66.17272827 89.68487137 -66.18090576 89.03722321 -66.18933105 88.36994934 C-66.21406062 86.23573716 -66.23066376 84.10159063 -66.24511719 81.96728516 C-66.25044086 81.23676437 -66.25576454 80.50624359 -66.26124954 79.75358582 C-66.28791972 75.89107311 -66.30731899 72.02859214 -66.32177734 68.16601562 C-66.335145 64.97073927 -66.36305654 61.77609727 -66.40380859 58.58105469 C-66.45306783 54.71843904 -66.47788857 50.85640084 -66.48500443 46.9934845 C-66.49172184 45.5230325 -66.50695697 44.05259365 -66.53089523 42.58232117 C-66.56248543 40.52571096 -66.56259576 38.47133944 -66.55517578 36.41455078 C-66.56326263 35.24525024 -66.57134949 34.07594971 -66.5796814 32.87121582 C-65.97167969 29.87353516 -65.97167969 29.87353516 -63.62870789 27.57398987 C-60.62538799 25.65191412 -57.58784958 23.97961167 -54.40527344 22.36962891 C-53.77786758 22.04950333 -53.15046173 21.72937775 -52.50404358 21.39955139 C-50.47497092 20.36494542 -48.44221457 19.33783011 -46.40917969 18.31103516 C-43.60370421 16.88672689 -40.80055421 15.45792982 -37.99902344 14.02587891 C-37.30767303 13.67266571 -36.61632263 13.31945251 -35.90402222 12.95553589 C-29.19291691 9.50789662 -22.60427492 5.84087815 -16.12573242 1.97290039 C-15.40458252 1.55854736 -14.68343262 1.14419434 -13.94042969 0.71728516 C-13.03454102 0.1787793 -13.03454102 0.1787793 -12.11035156 -0.37060547 C-7.88430493 -1.86419455 -4.14791195 -1.57233534 0 0 Z M-14.84667969 10.76806641 C-16.5753125 11.70875977 -16.5753125 11.70875977 -18.33886719 12.66845703 C-19.55005741 13.34052783 -20.76099579 14.01305268 -21.97167969 14.68603516 C-23.70641 15.63698992 -25.44115663 16.58791678 -27.17700195 17.53683472 C-28.38126276 18.1952587 -29.58486884 18.8548815 -30.7878418 19.51565552 C-39.77644199 24.43742922 -48.88262051 29.14079927 -57.97167969 33.87353516 C-58.04167793 41.22848277 -58.09474067 48.58335671 -58.1271162 55.93857193 C-58.14266726 59.35516509 -58.16370781 62.77152773 -58.19799805 66.18798828 C-58.23730852 70.13001596 -58.25147609 74.07195547 -58.26464844 78.01416016 C-58.28013229 79.22090393 -58.29561615 80.42764771 -58.31156921 81.67095947 C-58.31433075 95.8117237 -55.01655774 108.62611855 -45.28417969 119.24853516 C-38.68818207 125.47685048 -30.88269538 130.25920299 -23.35449219 135.26904297 C-19.78257483 137.67423158 -16.27906911 140.17072181 -12.78417969 142.68603516 C-12.19032471 143.11263428 -11.59646973 143.5392334 -10.98461914 143.97875977 C-9.64573777 144.9419707 -8.30849159 145.90745412 -6.97167969 146.87353516 C-2.85714422 145.03557008 0.7177316 142.43443849 4.40332031 139.87353516 C5.10650391 139.3865918 5.8096875 138.89964844 6.53417969 138.39794922 C8.70157589 136.89362436 10.86531934 135.38417108 13.02832031 133.87353516 C13.68348633 133.41785156 14.33865234 132.96216797 15.01367188 132.49267578 C29.46709354 122.42065677 40.7231252 113.79188403 45.02832031 95.87353516 C45.52177991 90.9495344 45.49781894 86.08372889 45.41894531 81.13916016 C45.41146229 79.76626419 45.40577914 78.39335736 45.40179443 77.02044678 C45.38669959 73.44955677 45.34756366 69.87934307 45.30297852 66.30871582 C45.26167135 62.6481236 45.2437087 58.98741948 45.22363281 55.32666016 C45.18104849 48.17534592 45.11300034 41.02448526 45.02832031 33.87353516 C26.80421059 23.89227923 26.80421059 23.89227923 8.46582031 14.12353516 C7.31919922 13.50994141 6.17257813 12.89634766 4.99121094 12.26416016 C3.88841797 11.68666016 2.785625 11.10916016 1.64941406 10.51416016 C0.68447021 10.00401367 -0.28047363 9.49386719 -1.2746582 8.96826172 C-6.73144477 6.75334084 -9.82435617 8.00011759 -14.84667969 10.76806641 Z " fill="#FF812F" transform="translate(122.9716796875,1.12646484375)"/>
<path d="M0 0 C1 1 1 1 1.0625 3.4375 C1.041875 4.283125 1.02125 5.12875 1 6 C1 6.66 1 7.32 1 8 C1.68964844 8.35191406 2.37929687 8.70382813 3.08984375 9.06640625 C19.79871752 17.84486805 19.79871752 17.84486805 23.125 24.4375 C24.5073155 30.06549881 24.02534546 33.94930908 21.4375 39.125 C12.73003861 49.39533908 -1.09437262 55.15070564 -14 58 C-15.99909922 58.06001915 -18.0015042 58.07755357 -20 58 C-21.125 55.6875 -21.125 55.6875 -22 53 C-19.31573164 48.97359747 -16.11200923 48.55854331 -11.6875 47.25 C2.54410092 42.93047742 2.54410092 42.93047742 14 34 C14.66721536 31.08559301 14.66721536 31.08559301 14 28 C10.05406905 22.55733663 3.87543147 19.99430921 -2 17 C-2.2475 17.639375 -2.495 18.27875 -2.75 18.9375 C-4 21 -4 21 -5.87890625 21.9453125 C-8.87775959 22.022631 -9.7875006 20.91004893 -11.9375 18.875 C-12.62714844 18.2253125 -13.31679687 17.575625 -14.02734375 16.90625 C-14.67832031 16.2771875 -15.32929688 15.648125 -16 15 C-16.99 14.13375 -17.98 13.2675 -19 12.375 C-21 10 -21 10 -21.3125 7.1875 C-21.209375 6.465625 -21.10625 5.74375 -21 5 C-13.96822187 1.22685076 -7.9175384 -0.40952785 0 0 Z " fill="#FFA64F" transform="translate(200,57)"/>
<path d="M0 0 C1.25 2.0625 1.25 2.0625 2 4 C-0.25026298 7.56944662 -2.03907187 8.69755324 -6.04296875 9.9296875 C-7.03490234 10.25066406 -8.02683594 10.57164063 -9.04882812 10.90234375 C-11.12124782 11.54457462 -13.19415607 12.18523136 -15.26757812 12.82421875 C-22.7964644 15.2641806 -28.39781081 18.39781081 -34 24 C-34.3058402 27.38283089 -34.3058402 27.38283089 -33 31 C-28.59850302 35.61993355 -22.71322309 38.34743214 -17 41 C-16.855625 40.360625 -16.71125 39.72125 -16.5625 39.0625 C-16 37 -16 37 -15 36 C-12.8359375 35.58203125 -12.8359375 35.58203125 -10 36 C-7.6387031 37.83688977 -5.68980793 39.5654745 -3.625 41.6875 C-3.06683594 42.21794922 -2.50867187 42.74839844 -1.93359375 43.29492188 C-0.3515625 44.88671875 -0.3515625 44.88671875 2 48 C1.8515625 50.89453125 1.8515625 50.89453125 1 53 C-0.87300025 53.65161012 -2.7485055 54.29602195 -4.625 54.9375 C-6.19121094 55.47697266 -6.19121094 55.47697266 -7.7890625 56.02734375 C-15.71510516 58.42829828 -15.71510516 58.42829828 -20 57 C-20.625 54.6875 -20.625 54.6875 -21 52 C-20.34 51.01 -19.68 50.02 -19 49 C-19.78375 48.79375 -20.5675 48.5875 -21.375 48.375 C-29.53031818 45.28160345 -38.44817178 40.36280308 -42.9375 32.6875 C-44.37345233 27.70390075 -44.27012885 23.86703843 -42.1953125 19.18359375 C-37.10118839 10.87310661 -10.36511451 -5.37450382 0 0 Z " fill="#FF4E04" transform="translate(53,61)"/>
<path d="M0 0 C2.4375 0.375 2.4375 0.375 4.4375 2.375 C4.41799386 7.69042277 0.70744656 11.36282498 -2.4375 15.3125 C-3.02031738 16.05886719 -3.60313477 16.80523437 -4.20361328 17.57421875 C-5.98171919 19.84771975 -7.7714449 22.11169404 -9.5625 24.375 C-10.58418807 25.67771552 -11.6050743 26.98106047 -12.625 28.28515625 C-14.44889362 30.61703663 -16.28344677 32.93986634 -18.125 35.2578125 C-19.66240659 37.223919 -21.16754438 39.21610337 -22.625 41.2421875 C-23.223125 42.06976563 -23.82125 42.89734375 -24.4375 43.75 C-24.92992188 44.45898438 -25.42234375 45.16796875 -25.9296875 45.8984375 C-27.5625 47.375 -27.5625 47.375 -29.80078125 48.01953125 C-34.25966696 46.97891436 -36.75430898 43.90460784 -39.875 40.6875 C-40.52017578 40.06166016 -41.16535156 39.43582031 -41.83007812 38.79101562 C-46.41185119 34.16075819 -46.41185119 34.16075819 -47.10546875 30.54296875 C-46.5625 28.375 -46.5625 28.375 -44.5625 26.375 C-40.15848686 26.60066018 -38.27564996 28.25632297 -35.375 31.4375 C-34.1386797 32.78255975 -32.87444852 34.10359735 -31.5625 35.375 C-30.9025 35.375 -30.2425 35.375 -29.5625 35.375 C-27.69200464 33.05668247 -25.92952336 30.72499947 -24.1875 28.3125 C-19.42918866 21.83588931 -14.53543943 15.5007187 -9.48486328 9.24975586 C-7.55519554 6.8612883 -5.64488584 4.49263931 -3.8828125 1.9765625 C-2.5625 0.375 -2.5625 0.375 0 0 Z " fill="#FF4900" transform="translate(143.5625,49.625)"/>
</svg>
