<?xml version="1.0" encoding="UTF-8"?>
<svg version="1.1" xmlns="http://www.w3.org/2000/svg" width="208" height="240">
<path d="M0 0 C0.7940625 -0.00322266 1.588125 -0.00644531 2.40625 -0.00976562 C10.61353795 0.06546785 10.61353795 0.06546785 14 2.3125 C15.265625 5.2109375 15.265625 5.2109375 16.25 8.6875 C18.31150598 14.57212372 18.31150598 14.57212372 23.0625 18.25 C27.99603068 19.89451023 32.29125046 18.85141522 37.203125 17.5 C40 17.3125 40 17.3125 42.62890625 18.88671875 C47.9496207 24.3301515 53.22852119 32.59771189 54 40.3125 C52.33834211 43.57190587 50.65853756 45.74437391 47.89453125 48.12890625 C44.85913451 51.62743569 45.27858194 54.79828134 45.3984375 59.265625 C46.24287994 63.54267113 48.2222525 65.69299928 51.37109375 68.59375 C53.23920811 70.56490184 53.76316414 71.61977928 54 74.3125 C51.91197705 81.84378278 46.78982918 91.1938633 40 95.3125 C36.75 95 36.75 95 33 94.3125 C27.81427375 93.84913663 24.33924426 94.24950405 20 97.3125 C19.34 97.3125 18.68 97.3125 18 97.3125 C17.80664062 98.07175781 17.61328125 98.83101563 17.4140625 99.61328125 C17.15367188 100.60714844 16.89328125 101.60101563 16.625 102.625 C16.36976562 103.61113281 16.11453125 104.59726563 15.8515625 105.61328125 C15 108.3125 15 108.3125 13 111.3125 C5.0382707 113.81731371 -4.18516516 114.19500049 -12.171875 111.609375 C-14.78054877 109.75877737 -15.25452415 107.81472875 -16.25 104.8125 C-16.58515625 103.8328125 -16.9203125 102.853125 -17.265625 101.84375 C-18 99.3125 -18 99.3125 -18 97.3125 C-18.78375 97.003125 -19.5675 96.69375 -20.375 96.375 C-23 95.3125 -23 95.3125 -25 94.3125 C-29.15733194 94.17157349 -32.60231132 94.23161417 -36.6875 95.0625 C-40 95.3125 -40 95.3125 -42.4375 93.75390625 C-45.36428458 90.96543009 -47.34611881 87.98874082 -49.3125 84.5 C-49.85100586 83.61344727 -49.85100586 83.61344727 -50.40039062 82.70898438 C-52.8465972 78.43627689 -53.66872906 75.19712968 -53 70.3125 C-51.46875 68.30078125 -51.46875 68.30078125 -49.5 66.625 C-46.29773156 63.25935052 -45.37086148 60.96630657 -45.125 56.3125 C-45.42480055 50.48466987 -47.46916061 48.19702229 -51.48046875 44.2265625 C-53.29320344 41.94316919 -53.52287041 40.88602255 -53.375 38 C-52.17271051 32.03001081 -48.5040731 27.17076729 -45 22.3125 C-44.50757813 21.55195312 -44.01515625 20.79140625 -43.5078125 20.0078125 C-42 18.3125 -42 18.3125 -38.25 18 C-35.5068178 18.10992716 -33.2665772 18.48585448 -30.5625 19.125 C-26.15492141 19.35697782 -23.75123328 18.42427933 -20.00390625 16.1796875 C-16.87543597 13.26466061 -16.05148963 9.91020794 -15.046875 5.8359375 C-14 3.3125 -14 3.3125 -11.953125 1.49609375 C-7.89783497 -0.12924075 -4.32613665 -0.08778686 0 0 Z M-6 9.3125 C-6.64995297 10.72728135 -7.29478722 12.14441487 -7.9375 13.5625 C-8.29714844 14.35140625 -8.65679687 15.1403125 -9.02734375 15.953125 C-10.0589875 18.24747476 -10.0589875 18.24747476 -10.4609375 20.546875 C-10.63882813 21.12953125 -10.81671875 21.7121875 -11 22.3125 C-12.97583715 23.04769522 -14.98177598 23.70322482 -17 24.3125 C-17.969375 25.01375 -18.93875 25.715 -19.9375 26.4375 C-25.54638238 29.87150962 -31.76307554 28.18785782 -38 27.3125 C-40.97 32.7575 -40.97 32.7575 -44 38.3125 C-42.576875 40.16875 -42.576875 40.16875 -41.125 42.0625 C-36.06836812 48.6581068 -35.45424786 53.26759482 -36.2421875 61.58203125 C-37.38411887 67.20339443 -39.77739895 69.55054634 -44 73.3125 C-42.02 77.2725 -40.04 81.2325 -38 85.3125 C-35.89625 85.02375 -33.7925 84.735 -31.625 84.4375 C-24.00458723 83.85844128 -19.91408287 85.72298579 -14 90.3125 C-12.515 91.3025 -12.515 91.3025 -11 92.3125 C-9.39062357 95.89726488 -8.25765085 99.58291473 -7 103.3125 C-2.38 103.3125 2.24 103.3125 7 103.3125 C7.556875 101.476875 8.11375 99.64125 8.6875 97.75 C11.47444587 91.12413433 15.00301089 88.41800399 21.41796875 85.3828125 C27.11445663 83.68069944 32.22821933 84.1883725 38 85.3125 C39.03612271 83.90697701 40.05344925 82.48758306 41.0625 81.0625 C41.63097656 80.27359375 42.19945312 79.4846875 42.78515625 78.671875 C44.18863328 76.43803514 44.18863328 76.43803514 43.875 74.18359375 C42.86350884 72.02062827 41.76824693 71.13547442 39.9375 69.625 C35.62310576 64.79748606 35.99308109 58.55222408 36.31640625 52.42578125 C36.88303609 47.46748966 39.17062246 44.65283095 42.55859375 41.09375 C44.37304808 39.27762285 44.37304808 39.27762285 43.6875 36.125 C41.8804256 33.11320934 40.04195344 30.17123482 38 27.3125 C36.515 27.56 36.515 27.56 35 27.8125 C27.42601044 28.81830143 23.14792612 29.0644051 16.859375 24.50390625 C14.9022169 23.24984486 13.2688763 22.74920849 11 22.3125 C10.70996094 21.15621094 10.70996094 21.15621094 10.4140625 19.9765625 C10.15367188 18.97367188 9.89328125 17.97078125 9.625 16.9375 C9.36976562 15.93976563 9.11453125 14.94203125 8.8515625 13.9140625 C8.17595681 11.18708985 8.17595681 11.18708985 6 9.3125 C3.10116917 9.06910449 3.10116917 9.06910449 -0.125 9.1875 C-1.76855469 9.21457031 -1.76855469 9.21457031 -3.4453125 9.2421875 C-4.28835937 9.26539062 -5.13140625 9.28859375 -6 9.3125 Z " fill="#F35813" transform="translate(104,63.6875)"/>
<path d="M0 0 C1.86351501 2.79527252 2.58161478 4.78634701 3.5625 7.9375 C5.08917654 11.75698745 6.3235638 13.81538348 10 15.75 C15.00468231 17.57289753 19.17724802 16.57028097 24.203125 15.1875 C27 15 27 15 29.62890625 16.57421875 C34.9496207 22.0176515 40.22852119 30.28521189 41 38 C39.33834211 41.25940587 37.65853756 43.43187391 34.89453125 45.81640625 C31.85913451 49.31493569 32.27858194 52.48578134 32.3984375 56.953125 C33.24287994 61.23017113 35.2222525 63.38049928 38.37109375 66.28125 C40.23920811 68.25240184 40.76316414 69.30727928 41 72 C38.91197705 79.53128278 33.78982918 88.8813633 27 93 C23.75 92.6875 23.75 92.6875 20 92 C14.81427375 91.53663663 11.33924426 91.93700405 7 95 C6.34 95 5.68 95 5 95 C4.80664062 95.75925781 4.61328125 96.51851563 4.4140625 97.30078125 C4.15367188 98.29464844 3.89328125 99.28851563 3.625 100.3125 C3.36976562 101.29863281 3.11453125 102.28476563 2.8515625 103.30078125 C2 106 2 106 0 109 C-7.5946014 111.3893128 -15.21594742 111.13389742 -23 110 C-24 105.25 -24 105.25 -24 103 C-24.57971412 100.00481039 -25.23785739 98.64321392 -27 96 C-26.34 96 -25.68 96 -25 96 C-24.67 94.02 -24.34 92.04 -24 90 C-21.55160412 93.67259383 -20 96.54648201 -20 101 C-15.38 101 -10.76 101 -6 101 C-5.5875 99.4325 -5.175 97.865 -4.75 96.25 C-3.08850955 89.9363363 0.46522475 87.00378109 5.9375 83.6875 C12.40066992 80.20262865 17.93774738 80.76494787 25 82 C25.86941494 80.76055724 26.72005457 79.50792941 27.5625 78.25 C28.03816406 77.55390625 28.51382813 76.8578125 29.00390625 76.140625 C30.17713536 74.07456778 30.17713536 74.07456778 29.84375 71.90234375 C28.86266603 69.69036276 27.79104439 68.84178367 25.9375 67.3125 C21.62310576 62.48498606 21.99308109 56.23972408 22.31640625 50.11328125 C22.88283932 45.15671146 25.16417625 42.33811835 28.5625 38.7890625 C29.036875 38.19867188 29.51125 37.60828125 30 37 C29.516364 32.72788197 27.6032664 30.31324814 25 27 C25 26.34 25 25.68 25 25 C24.01 25.33 23.02 25.66 22 26 C17.11542792 27.34645146 12.52649336 28.23793573 7.85546875 25.94921875 C6.50092402 25.09728802 5.16622185 24.21249561 3.859375 23.2890625 C2.04719774 21.91961713 2.04719774 21.91961713 -0.09375 21.21875 C-2.98393373 19.37092761 -3.2903195 17.09678453 -4.25 13.875 C-4.58515625 12.77929688 -4.9203125 11.68359375 -5.265625 10.5546875 C-5.62914062 9.29011719 -5.62914062 9.29011719 -6 8 C-5.34 8 -4.68 8 -4 8 C-4 8.99 -4 9.98 -4 11 C-2.68 10.67 -1.36 10.34 0 10 C0 12.31 0 14.62 0 17 C0.33 16.67 0.66 16.34 1 16 C0.59070014 13.94603274 0.59070014 13.94603274 0 12 C0.66 12 1.32 12 2 12 C1.67 10.68 1.34 9.36 1 8 C0.34 8 -0.32 8 -1 8 C-0.67 5.36 -0.34 2.72 0 0 Z " fill="#F6AD5D" transform="translate(117,66)"/>
<path d="M0 0 C0 6.6 0 13.2 0 20 C-2.18625 21.36125 -4.3725 22.7225 -6.625 24.125 C-7.30127441 24.56086426 -7.97754883 24.99672852 -8.67431641 25.44580078 C-11.75900945 27.28404435 -13.4537588 28.10303775 -17.0234375 27.4296875 C-19.19662828 26.38587145 -21.33915668 25.27752044 -23.4609375 24.1328125 C-27.016568 22.56169838 -27.016568 22.56169838 -30.3515625 24.4921875 C-31.46092152 25.26081482 -32.55212048 26.05622352 -33.625 26.875 C-39.27507984 31.04593158 -39.27507984 31.04593158 -42.8359375 30.8203125 C-45 30 -45 30 -46 29 C-46.375 26.6875 -46.375 26.6875 -46 24 C-42.35255332 20.35255332 -37.54952055 17.45051438 -33 15 C-32.34 15 -31.68 15 -31 15 C-31.17402344 14.09378906 -31.34804687 13.18757813 -31.52734375 12.25390625 C-32.54148911 3.12659797 -32.54148911 3.12659797 -29.78564453 -0.67529297 C-19.16925557 -11.13248584 -11.31415922 -7.30914711 0 0 Z M-19.75 4.5625 C-22.31334411 6.89840073 -22.31334411 6.89840073 -22.625 10.5625 C-22.33703512 14.07941976 -22.33703512 14.07941976 -19.875 16 C-16.41909025 17.20205557 -14.49172917 17.00872176 -11 16 C-8.57855488 14.00314251 -8.57855488 14.00314251 -8.625 10.0625 C-8.70091501 7.07470202 -8.72395052 6.31548512 -10.75 4 C-14.30428882 2.42031608 -16.41065357 2.66514407 -19.75 4.5625 Z " fill="#F7A354" transform="translate(207,57)"/>
<path d="M0 0 C4.08969194 1.14839487 7.40093804 3.38736515 11.0078125 5.5859375 C14.19952023 6.97084516 15.4825571 6.91465492 18.7265625 5.765625 C19.88741879 4.93198995 21.03369645 4.07765763 22.1640625 3.203125 C24.1953125 2.09375 24.1953125 2.09375 26.7265625 1.765625 C31.87225096 3.89101806 37.74475902 6.78382152 41.7265625 10.765625 C41.81307861 12.18132623 41.83361154 13.60122 41.82421875 15.01953125 C41.82099609 15.87353516 41.81777344 16.72753906 41.81445312 17.60742188 C41.80188477 18.95416992 41.80188477 18.95416992 41.7890625 20.328125 C41.78455078 21.22982422 41.78003906 22.13152344 41.77539062 23.06054688 C41.76356475 25.29563814 41.7470847 27.53059937 41.7265625 29.765625 C39.48476873 31.13527708 37.23483912 32.48615308 34.9765625 33.828125 C34.34234375 34.21806641 33.708125 34.60800781 33.0546875 35.00976562 C28.24351959 37.84133841 28.24351959 37.84133841 25.71289062 37.47070312 C22.63187099 36.37704719 19.82678489 34.78484182 16.9765625 33.203125 C16.37457031 32.87376953 15.77257812 32.54441406 15.15234375 32.20507812 C13.67485747 31.3959785 12.20040214 30.58134838 10.7265625 29.765625 C10.7265625 25.145625 10.7265625 20.525625 10.7265625 15.765625 C8.2515625 14.775625 8.2515625 14.775625 5.7265625 13.765625 C3.9540161 12.87148547 2.20329773 11.9328146 0.4765625 10.953125 C-0.39484375 10.47230469 -1.26625 9.99148437 -2.1640625 9.49609375 C-4.2734375 7.765625 -4.2734375 7.765625 -5.140625 5.18359375 C-5.2734375 2.765625 -5.2734375 2.765625 -4.1484375 0.890625 C-2.2734375 -0.234375 -2.2734375 -0.234375 0 0 Z M22.0390625 14.328125 C19.408432 16.6513849 19.408432 16.6513849 19.1015625 20.328125 C19.38952738 23.84504476 19.38952738 23.84504476 21.8515625 25.765625 C25.32192832 26.97270876 27.21448518 26.75816859 30.7265625 25.765625 C31.7165625 25.105625 32.7065625 24.445625 33.7265625 23.765625 C34.47701756 20.35106166 34.47701756 20.35106166 33.7265625 16.765625 C29.65141726 13.23383246 26.97576645 11.45794828 22.0390625 14.328125 Z " fill="#F9B25D" transform="translate(166.2734375,151.234375)"/>
<path d="M0 0 C2.31 0.33 4.62 0.66 7 1 C6.94457031 2.30195313 6.88914062 3.60390625 6.83203125 4.9453125 C6.30474984 14.55434183 6.30474984 14.55434183 10.515625 22.59765625 C13.32248828 24.06226312 15.94808624 25.17040235 19 26 C20.37355291 42.17740095 20.37355291 42.17740095 17.171875 46.42578125 C14.8351332 47.92299827 12.57969808 48.98903724 10 50 C9.113125 50.639375 8.22625 51.27875 7.3125 51.9375 C3.36810617 53.74978906 -0.20185242 52.24760053 -4.2109375 51.00390625 C-7.86408188 49.33969603 -10.25834394 47.96047368 -13 45 C-14.95516917 39.31653028 -14.80009718 32.71109967 -13 27 C-10.45069793 23.7769179 -7.90276131 22.22577702 -4 21 C-3.34 21 -2.68 21 -2 21 C-2.02320312 19.81921875 -2.04640625 18.6384375 -2.0703125 17.421875 C-2.08907497 15.86458967 -2.10727466 14.30729748 -2.125 12.75 C-2.14175781 11.97269531 -2.15851563 11.19539062 -2.17578125 10.39453125 C-2.23662606 3.27568856 -2.23662606 3.27568856 0 0 Z M-4 32 C-5 35.5 -5 35.5 -4 39 C-1.5 41.75 -1.5 41.75 2 43 C5.60814688 42.3061256 7.40286494 41.59713506 10 39 C10.66707548 35.58500409 10.66707548 35.58500409 10 32 C4.27290051 27.14441565 1.72709949 27.14441565 -4 32 Z " fill="#FAAE57" transform="translate(101,187)"/>
<path d="M0 0 C0.495 2.97 0.495 2.97 1 6 C-10.73786408 15 -10.73786408 15 -14 15 C-13.82597656 15.90621094 -13.65195312 16.81242187 -13.47265625 17.74609375 C-12.45851089 26.87340203 -12.45851089 26.87340203 -15.21435547 30.67529297 C-19.04213826 34.44567696 -23.60557261 37.32554893 -29 38 C-35.18436192 36.86004376 -39.73574584 33.40080136 -45 30 C-45.33 23.73 -45.66 17.46 -46 11 C-43.64875 9.47375 -41.2975 7.9475 -38.875 6.375 C-38.14651855 5.88692871 -37.41803711 5.39885742 -36.66748047 4.89599609 C-31.78874883 1.85390115 -31.78874883 1.85390115 -27.66796875 2.6171875 C-25 4 -25 4 -22.4375 5.75 C-20.10386109 7.27433352 -20.10386109 7.27433352 -17.75 6.5 C-16.11594238 5.60869584 -14.49244086 4.69678285 -12.89453125 3.7421875 C-5.34301172 -0.6850015 -5.34301172 -0.6850015 0 0 Z M-33.625 13.5 C-36.13648241 16.1436657 -36.40434748 16.62742718 -36.5625 20.0625 C-36.35696959 23.92661601 -36.35696959 23.92661601 -34.3125 26.0625 C-31.34632853 27.26500195 -30.00566164 27.05198158 -27 26 C-24.59616005 25.00965774 -24.59616005 25.00965774 -23 23 C-22.16654185 19.54295504 -22.16654185 19.54295504 -23 16 C-27.95005857 11.76831079 -27.95005857 11.76831079 -33.625 13.5 Z " fill="#F88E3F" transform="translate(46,153)"/>
<path d="M0 0 C4.94693846 1.75770341 9.05982123 3.54956096 13 7 C13.578125 10.296875 13.578125 10.296875 13.4375 13.9375 C13.16556298 17.59106463 13.16556298 17.59106463 14 21 C16.94285613 23.38248882 19.54746575 24.92988428 22.98608398 26.42749023 C24.875 27.25390625 24.875 27.25390625 28 29 C29.00390625 31.59765625 29.00390625 31.59765625 29 34 C27.9375 35.875 27.9375 35.875 26 37 C20.56422493 37.13257988 16.77608759 34.1355798 12.46484375 31.1796875 C9.41791352 29.72141027 8.15404281 29.89915714 5 31 C3.83914371 31.83363505 2.69286605 32.68796737 1.5625 33.5625 C-0.46875 34.671875 -0.46875 34.671875 -3 35 C-8.14568846 32.87460694 -14.01819652 29.98180348 -18 26 C-18.08651611 24.58429877 -18.10704904 23.164405 -18.09765625 21.74609375 C-18.09443359 20.89208984 -18.09121094 20.03808594 -18.08789062 19.15820312 C-18.07951172 18.26037109 -18.07113281 17.36253906 -18.0625 16.4375 C-18.05798828 15.53580078 -18.05347656 14.63410156 -18.04882812 13.70507812 C-18.03700225 11.46998686 -18.0205222 9.23502563 -18 7 C-15.75820623 5.63034792 -13.50827662 4.27947192 -11.25 2.9375 C-10.61578125 2.54755859 -9.9815625 2.15761719 -9.328125 1.75585938 C-5.71797234 -0.36886589 -3.97151249 -1.3497376 0 0 Z M-5.0234375 9.625 C-7.18533051 10.85184617 -7.18533051 10.85184617 -10 13 C-10 15.64 -10 18.28 -10 21 C-6.17787794 23.3355684 -6.17787794 23.3355684 -1.875 23.8125 C0.12673573 22.94508118 2.07673629 22.03031985 4 21 C4 18.36 4 15.72 4 13 C-0.12184314 9.61598244 -0.12184314 9.61598244 -5.0234375 9.625 Z " fill="#F3813A" transform="translate(18,52)"/>
<path d="M0 0 C3.65314438 1.66421022 6.04740644 3.04343257 8.7890625 6.00390625 C10.74345993 11.68513261 10.59240016 18.29549927 8.7890625 24.00390625 C6.21261278 27.21557532 3.62449611 28.62619634 -0.2109375 30.00390625 C-1.2009375 30.49890625 -1.2009375 30.49890625 -2.2109375 31.00390625 C-2.23599365 31.57423584 -2.2610498 32.14456543 -2.28686523 32.73217773 C-2.40250299 35.30216782 -2.52537374 37.87176152 -2.6484375 40.44140625 C-2.68775391 41.33923828 -2.72707031 42.23707031 -2.76757812 43.16210938 C-2.80947266 44.01611328 -2.85136719 44.87011719 -2.89453125 45.75 C-2.93118896 46.54075928 -2.96784668 47.33151855 -3.00561523 48.14624023 C-3.2109375 50.00390625 -3.2109375 50.00390625 -4.2109375 51.00390625 C-6.55038486 50.7166057 -8.8848518 50.38453846 -11.2109375 50.00390625 C-11.15550781 48.70195313 -11.10007812 47.4 -11.04296875 46.05859375 C-10.51568734 36.44956442 -10.51568734 36.44956442 -14.7265625 28.40625 C-17.53342578 26.94164313 -20.15902374 25.8335039 -23.2109375 25.00390625 C-24.58449041 8.8265053 -24.58449041 8.8265053 -21.3828125 4.578125 C-19.0460707 3.08090798 -16.79063558 2.01486901 -14.2109375 1.00390625 C-13.3240625 0.36453125 -12.4371875 -0.27484375 -11.5234375 -0.93359375 C-7.57904367 -2.74588281 -4.00908508 -1.24369428 0 0 Z M-14.2109375 12.00390625 C-14.75428446 14.85104434 -14.50383082 17.07497307 -14.2109375 20.00390625 C-9.89263508 22.6791199 -9.89263508 22.6791199 -4.9609375 22.31640625 C-2.14461457 21.15996909 -2.14461457 21.15996909 -0.2109375 19.00390625 C0.45613798 15.58891034 0.45613798 15.58891034 -0.2109375 12.00390625 C-5.900094 7.18049095 -8.54680355 7.07857238 -14.2109375 12.00390625 Z " fill="#F06E26" transform="translate(111.2109375,1.99609375)"/>
<path d="M0 0 C9.24 0 18.48 0 28 0 C27.34 1.65 26.68 3.3 26 5 C22.875 5.8125 22.875 5.8125 20 6 C20 6.66 20 7.32 20 8 C22.64 8 25.28 8 28 8 C27.3125 10.4375 27.3125 10.4375 26 13 C24.824375 13.2165625 24.824375 13.2165625 23.625 13.4375 C22.75875 13.623125 21.8925 13.80875 21 14 C20.401875 14.928125 19.80375 15.85625 19.1875 16.8125 C16.4059398 20.86563058 13.44547143 22.16570354 9 24 C9.88751953 25.06927734 9.88751953 25.06927734 10.79296875 26.16015625 C15.05379915 31.32458853 19.20133556 36.48580969 23 42 C19.39024577 42.63027455 17.46380685 42.94467459 14 42 C10.45193374 38.73021345 7.81207302 34.90214627 5 31 C3.82744649 29.6947501 2.64232054 28.40052597 1.4375 27.125 C-1 24 -1 24 -1.375 21.0625 C-1.189375 20.0415625 -1.189375 20.0415625 -1 19 C-0.09507813 18.92652344 -0.09507813 18.92652344 0.828125 18.8515625 C1.62734375 18.77679688 2.4265625 18.70203125 3.25 18.625 C4.03890625 18.55539063 4.8278125 18.48578125 5.640625 18.4140625 C8.12085981 17.9787895 9.85982375 17.31630309 12 16 C12.33 15.34 12.66 14.68 13 14 C8.05 13.67 3.1 13.34 -2 13 C-1.34 11.35 -0.68 9.7 0 8 C5.445 7.505 5.445 7.505 11 7 C9.18884044 5.18884044 6.38721773 5.61800552 3.9375 5.4375 C2.83277344 5.35371094 1.72804688 5.26992187 0.58984375 5.18359375 C-0.26480469 5.12300781 -1.11945313 5.06242187 -2 5 C-1.34 3.35 -0.68 1.7 0 0 Z " fill="#EA5719" transform="translate(91,99)"/>
<path d="M0 0 C1.20366211 0.00773437 1.20366211 0.00773437 2.43164062 0.015625 C6.21275008 0.0658306 9.22090578 0.32085144 12.9375 1.25 C12.6075 4.22 12.2775 7.19 11.9375 10.25 C12.5975 10.25 13.2575 10.25 13.9375 10.25 C15.06483524 14.19567332 15.25984763 17.28295711 13.9375 21.25 C11.9375 19.25 11.9375 19.25 11.8125 16.125 C11.85375 15.17625 11.895 14.2275 11.9375 13.25 C10.9475 13.25 9.9575 13.25 8.9375 13.25 C8.9375 12.26 8.9375 11.27 8.9375 10.25 C3.9875 10.25 -0.9625 10.25 -6.0625 10.25 C-6.660625 12.10625 -7.25875 13.9625 -7.875 15.875 C-10.82633587 23.12074341 -15.10721028 25.29750285 -22.0625 28.25 C-22.3925 28.58 -22.7225 28.91 -23.0625 29.25 C-27.22714926 29.41017882 -31.00976192 29.23248196 -35.0625 28.25 C-35.0625 27.92 -35.0625 27.59 -35.0625 27.25 C-33.1753125 27.12625 -33.1753125 27.12625 -31.25 27 C-27.72438788 26.58442857 -27.72438788 26.58442857 -25.0625 24.1875 C-24.7325 23.548125 -24.4025 22.90875 -24.0625 22.25 C-25.51885371 22.02825067 -26.97772956 21.82301302 -28.4375 21.625 C-29.24960938 21.50898437 -30.06171875 21.39296875 -30.8984375 21.2734375 C-31.61257812 21.26570313 -32.32671875 21.25796875 -33.0625 21.25 C-33.7225 21.91 -34.3825 22.57 -35.0625 23.25 C-36.0525 22.92 -37.0425 22.59 -38.0625 22.25 C-38.0625 21.59 -38.0625 20.93 -38.0625 20.25 C-39.7125 20.58 -41.3625 20.91 -43.0625 21.25 C-42.5675 19.765 -42.5675 19.765 -42.0625 18.25 C-37.9921061 18.17858958 -34.59967351 18.12303172 -30.625 19.0625 C-26.21742141 19.29447782 -23.81373328 18.36177933 -20.06640625 16.1171875 C-16.93793597 13.20216061 -16.11398963 9.84770794 -15.109375 5.7734375 C-14.0625 3.25 -14.0625 3.25 -12.01953125 1.4296875 C-7.94212797 -0.1969648 -4.34514417 -0.11222326 0 0 Z " fill="#F17731" transform="translate(104.0625,63.75)"/>
<path d="M0 0 C0.7425 0.268125 1.485 0.53625 2.25 0.8125 C3.24 1.1425 4.23 1.4725 5.25 1.8125 C5.25 2.8025 5.25 3.7925 5.25 4.8125 C4.280625 5.245625 3.31125 5.67875 2.3125 6.125 C-1.02731765 7.5139861 -1.02731765 7.5139861 -1.75 10.8125 C-3.8125 11.5 -3.8125 11.5 -5.75 11.8125 C-5.94335938 12.57175781 -6.13671875 13.33101562 -6.3359375 14.11328125 C-6.59632812 15.10714844 -6.85671875 16.10101563 -7.125 17.125 C-7.50785156 18.60419922 -7.50785156 18.60419922 -7.8984375 20.11328125 C-8.75 22.8125 -8.75 22.8125 -10.75 25.8125 C-18.3446014 28.2018128 -25.96594742 27.94639742 -33.75 26.8125 C-34.75 22.0625 -34.75 22.0625 -34.75 19.8125 C-35.32971412 16.81731039 -35.98785739 15.45571392 -37.75 12.8125 C-37.09 12.8125 -36.43 12.8125 -35.75 12.8125 C-35.42 10.8325 -35.09 8.8525 -34.75 6.8125 C-32.30160412 10.48509383 -30.75 13.35898201 -30.75 17.8125 C-26.13 17.8125 -21.51 17.8125 -16.75 17.8125 C-16.3375 16.245 -15.925 14.6775 -15.5 13.0625 C-13.72480358 7.22736362 -11.35650019 4.74960533 -6.3125 1.5 C-2.75 -0.1875 -2.75 -0.1875 0 0 Z " fill="#F38D43" transform="translate(127.75,149.1875)"/>
<path d="M0 0 C4.08969194 1.14839487 7.40093804 3.38736515 11.0078125 5.5859375 C14.16337958 6.95516344 15.50533489 6.81914293 18.7265625 5.765625 C19.3865625 5.415 20.0465625 5.064375 20.7265625 4.703125 C23.17646037 3.55473537 25.05294585 3.61709074 27.7265625 3.765625 C28.7265625 6.765625 28.7265625 6.765625 28.0390625 8.765625 C26.51860845 11.08250736 25.0921445 12.33193894 22.7265625 13.765625 C21.7365625 13.765625 20.7465625 13.765625 19.7265625 13.765625 C20.0565625 14.755625 20.3865625 15.745625 20.7265625 16.765625 C20.0665625 16.765625 19.4065625 16.765625 18.7265625 16.765625 C18.84515625 17.36890625 18.96375 17.9721875 19.0859375 18.59375 C20.13916995 25.12379119 20.13916995 25.12379119 18.0390625 28.390625 C15.7265625 29.765625 15.7265625 29.765625 11.7265625 28.765625 C11.2315625 22.330625 11.2315625 22.330625 10.7265625 15.765625 C8.2515625 14.775625 8.2515625 14.775625 5.7265625 13.765625 C3.9540161 12.87148547 2.20329773 11.9328146 0.4765625 10.953125 C-0.39484375 10.47230469 -1.26625 9.99148437 -2.1640625 9.49609375 C-4.2734375 7.765625 -4.2734375 7.765625 -5.140625 5.18359375 C-5.2734375 2.765625 -5.2734375 2.765625 -4.1484375 0.890625 C-2.2734375 -0.234375 -2.2734375 -0.234375 0 0 Z " fill="#FAA54F" transform="translate(166.2734375,151.234375)"/>
<path d="M0 0 C1.50559539 1.96382007 2.89131683 3.78263366 4 6 C4.89460938 5.85820312 5.78921875 5.71640625 6.7109375 5.5703125 C15.81151988 4.46427157 20.77086945 5.38996745 28 11 C28.99 11.66 29.98 12.32 31 13 C31.47114738 15.7427508 31.17805784 18.19558897 31 21 C30.505 21.495 30.505 21.495 30 22 C30.66 22.66 31.32 23.32 32 24 C31.505 25.485 31.505 25.485 31 27 C31.66 27.33 32.32 27.66 33 28 C33 29.32 33 30.64 33 32 C31.02 32.495 31.02 32.495 29 33 C25.10055136 24.67513059 25.10055136 24.67513059 24.5625 21.0625 C24.376875 20.381875 24.19125 19.70125 24 19 C21.60470331 17.67518454 21.60470331 17.67518454 19 17 C18.34 16.67 17.68 16.34 17 16 C12.84266806 15.85907349 9.39768868 15.91911417 5.3125 16.75 C2 17 2 17 -0.5625 15.6875 C-4.01336486 11.88270029 -6.83630819 7.66901916 -9 3 C-8.67 2.34 -8.34 1.68 -8 1 C-7.34 1.33 -6.68 1.66 -6 2 C-5.375 4.5625 -5.375 4.5625 -5 7 C-4.01 7 -3.02 7 -2 7 C-1.67 8.98 -1.34 10.96 -1 13 C0.32 13 1.64 13 3 13 C3 13.66 3 14.32 3 15 C4.32 14.67 5.64 14.34 7 14 C5.3545622 12.31237149 3.68711423 10.6459651 2 9 C1.67 9 1.34 9 1 9 C0.67 6.03 0.34 3.06 0 0 Z " fill="#F37129" transform="translate(62,142)"/>
<path d="M0 0 C0.33 0.66 0.66 1.32 1 2 C1.99 2.33 2.98 2.66 4 3 C4 3.66 4 4.32 4 5 C3.401875 5.0825 2.80375 5.165 2.1875 5.25 C-0.69809268 6.23934606 -1.41015579 7.4209194 -3 10 C-3.56984448 12.57873609 -3.56984448 12.57873609 -3.6875 15.25 C-3.75324219 16.14203125 -3.81898437 17.0340625 -3.88671875 17.953125 C-3.92410156 18.62859375 -3.96148437 19.3040625 -4 20 C-3.34 20 -2.68 20 -2 20 C-2 20.66 -2 21.32 -2 22 C-0.02 22 1.96 22 4 22 C4.33 23.32 4.66 24.64 5 26 C1.74686335 28.30430513 -0.93940938 28.04367378 -4.8046875 27.58203125 C-7 27 -7 27 -13 24 C-13.33 17.73 -13.66 11.46 -14 5 C-5 -0.625 -5 -0.625 0 0 Z " fill="#FC5609" transform="translate(14,159)"/>
<path d="M0 0 C0 6.6 0 13.2 0 20 C-2.18625 21.36125 -4.3725 22.7225 -6.625 24.125 C-7.63941162 24.77879639 -7.63941162 24.77879639 -8.67431641 25.44580078 C-11.91290106 27.3757521 -13.51152874 28.09863362 -17.25 27.34375 C-18.1575 26.9003125 -19.065 26.456875 -20 26 C-21.11375 25.46375 -22.2275 24.9275 -23.375 24.375 C-24.24125 23.92125 -25.1075 23.4675 -26 23 C-25.01 22.34 -24.02 21.68 -23 21 C-22.525625 20.484375 -22.05125 19.96875 -21.5625 19.4375 C-19.6876032 17.71259495 -18.4653421 17.56350676 -16 17 C-13.98473831 16.03112419 -11.98166034 15.0358679 -10 14 C-10 11.03 -10 8.06 -10 5 C-8.35 5 -6.7 5 -5 5 C-5 3.68 -5 2.36 -5 1 C-2 0 -2 0 0 0 Z " fill="#FAB05A" transform="translate(207,57)"/>
<path d="M0 0 C1.86351501 2.79527252 2.58161478 4.78634701 3.5625 7.9375 C5.11463788 11.89257726 6.27829979 13.69402395 10.1875 15.4375 C11.78165738 15.98820891 13.38659897 16.50851739 15 17 C16.22783203 17.47759766 16.22783203 17.47759766 17.48046875 17.96484375 C20.67858872 19.20920708 20.67858872 19.20920708 24 20 C24.99 19.34 25.98 18.68 27 18 C28.32 18.66 29.64 19.32 31 20 C30.34 21.32 29.68 22.64 29 24 C27.68 23.67 26.36 23.34 25 23 C25 23.66 25 24.32 25 25 C19.34105681 26.8863144 13.48849802 28.70930049 7.85546875 25.94921875 C6.50092402 25.09728802 5.16622185 24.21249561 3.859375 23.2890625 C2.04719774 21.91961713 2.04719774 21.91961713 -0.09375 21.21875 C-2.98393373 19.37092761 -3.2903195 17.09678453 -4.25 13.875 C-4.58515625 12.77929688 -4.9203125 11.68359375 -5.265625 10.5546875 C-5.62914063 9.29011719 -5.62914063 9.29011719 -6 8 C-5.34 8 -4.68 8 -4 8 C-4 8.99 -4 9.98 -4 11 C-2.68 10.67 -1.36 10.34 0 10 C0 12.31 0 14.62 0 17 C0.33 16.67 0.66 16.34 1 16 C0.59070014 13.94603274 0.59070014 13.94603274 0 12 C0.66 12 1.32 12 2 12 C1.67 10.68 1.34 9.36 1 8 C0.34 8 -0.32 8 -1 8 C-0.67 5.36 -0.34 2.72 0 0 Z " fill="#F59547" transform="translate(117,66)"/>
<path d="M0 0 C4.97209562 1.76429199 9.43438061 4.3939166 14 7 C14.18964787 9.89890315 14.32785971 12.78538869 14.4375 15.6875 C14.49615234 16.50412109 14.55480469 17.32074219 14.61523438 18.16210938 C14.78524894 24.16119491 14.78524894 24.16119491 12.41064453 26.69775391 C10.47265625 28.08203125 10.47265625 28.08203125 7 30 C6.01 29.34 5.02 28.68 4 28 C3.88810355 24.78111219 4.03225822 21.70236124 4.29296875 18.49804688 C4.44538582 16.24776821 4.44538582 16.24776821 4 13 C1.15635703 10.58242475 -0.26474809 10 -4 10 C-4 9.34 -4 8.68 -4 8 C-1.03 8.495 -1.03 8.495 2 9 C1.34 6.03 0.68 3.06 0 0 Z " fill="#FCA652" transform="translate(106,1)"/>
<path d="M0 0 C3.5267201 1.62229125 6.79649714 3.44039828 10.125 5.4375 C9.5990625 7.108125 9.5990625 7.108125 9.0625 8.8125 C7.75260669 12.24014476 7.75260669 12.24014476 9.125 14.4375 C9.16747282 17.11328752 9.17264115 19.76430213 9.125 22.4375 C9.125 23.4275 9.125 24.4175 9.125 25.4375 C7.81370078 26.79250919 6.47808313 28.12421343 5.125 29.4375 C4.815625 30.13875 4.50625 30.84 4.1875 31.5625 C3.125 33.4375 3.125 33.4375 0.9375 34.9375 C-3.35631795 35.70084541 -5.30977715 33.81431523 -8.875 31.4375 C-6.27402318 30.13701159 -3.73544938 29.87278578 -0.875 29.4375 C-0.545 28.4475 -0.215 27.4575 0.125 26.4375 C-1.855 26.1075 -3.835 25.7775 -5.875 25.4375 C-5.875 24.7775 -5.875 24.1175 -5.875 23.4375 C-6.535 23.4375 -7.195 23.4375 -7.875 23.4375 C-7.545 22.7775 -7.215 22.1175 -6.875 21.4375 C-5.885 22.0975 -4.895 22.7575 -3.875 23.4375 C-0.41081611 23.09108161 1.17429881 22.40463413 4.125 20.4375 C4.79176878 16.98000051 4.79176878 16.98000051 4.125 13.4375 C1.98201707 11.28495634 1.98201707 11.28495634 -0.875 10.4375 C-3.12828412 10.64393199 -3.12828412 10.64393199 -4.875 11.4375 C-4.545 10.4475 -4.215 9.4575 -3.875 8.4375 C-2.555 8.4375 -1.235 8.4375 0.125 8.4375 C0.125 7.7775 0.125 7.1175 0.125 6.4375 C-1.195 6.1075 -2.515 5.7775 -3.875 5.4375 C-3.875 4.7775 -3.875 4.1175 -3.875 3.4375 C-5.195 3.1075 -6.515 2.7775 -7.875 2.4375 C-4.96120843 0.20930645 -3.68335104 -0.72065564 0 0 Z " fill="#F58135" transform="translate(17.875,155.5625)"/>
<path d="M0 0 C0.66 0.33 1.32 0.66 2 1 C2 4 2 7 2 10 C1.01 10.495 1.01 10.495 0 11 C-0.02505615 11.57032959 -0.0501123 12.14065918 -0.07592773 12.72827148 C-0.19156549 15.29826157 -0.31443624 17.86785527 -0.4375 20.4375 C-0.47681641 21.33533203 -0.51613281 22.23316406 -0.55664062 23.15820312 C-0.59853516 24.01220703 -0.64042969 24.86621094 -0.68359375 25.74609375 C-0.73858032 26.93223267 -0.73858032 26.93223267 -0.79467773 28.14233398 C-1 30 -1 30 -2 31 C-4.33944736 30.71269945 -6.6739143 30.38063221 -9 30 C-9.0093457 29.44014404 -9.01869141 28.88028809 -9.02832031 28.3034668 C-9.08204507 25.76391854 -9.16568187 23.22620889 -9.25 20.6875 C-9.26417969 19.80642578 -9.27835937 18.92535156 -9.29296875 18.01757812 C-9.33032818 12.9371324 -9.33032818 12.9371324 -12.046875 8.89453125 C-12.69140625 8.59933594 -13.3359375 8.30414063 -14 8 C-8.125 8.875 -8.125 8.875 -7 10 C-6.67 9.01 -6.34 8.02 -6 7 C-6.66 7 -7.32 7 -8 7 C-8.33 5.02 -8.66 3.04 -9 1 C-8.2575 1.20625 -7.515 1.4125 -6.75 1.625 C-3.62463243 2.05118649 -2.67770324 1.47735351 0 0 Z " fill="#FA7F30" transform="translate(109,22)"/>
<path d="M0 0 C0 0.66 0 1.32 0 2 C-1.32 2 -2.64 2 -4 2 C-4 2.66 -4 3.32 -4 4 C-2.02 3.67 -0.04 3.34 2 3 C1.0625 5 1.0625 5 -1 7 C-4.02534949 7.36475845 -6.96663814 7.22893297 -10 7 C-10 7.66 -10 8.32 -10 9 C-10.99 9 -11.98 9 -13 9 C-13.66 12.63 -14.32 16.26 -15 20 C-16.32 20 -17.64 20 -19 20 C-19 20.66 -19 21.32 -19 22 C-20.32 21.67 -21.64 21.34 -23 21 C-23.53009493 15.90706263 -23.96105294 10.81953688 -22 6 C-19.92653985 3.57964371 -17.60415069 1.99359856 -14.875 0.375 C-14.22329834 -0.02066162 -13.57159668 -0.41632324 -12.90014648 -0.82397461 C-7.63269024 -3.57093575 -5.09363168 -2.89741646 0 0 Z " fill="#F99A48" transform="translate(198,52)"/>
<path d="M0 0 C3.96 1.98 7.92 3.96 12 6 C13.37355291 22.17740095 13.37355291 22.17740095 10.171875 26.42578125 C7.8351332 27.92299827 5.57969808 28.98903724 3 30 C2.113125 30.639375 1.22625 31.27875 0.3125 31.9375 C-2.99158752 33.45559427 -4.52236302 33.07004215 -8 32 C-11.07951845 30.46024078 -14.05113928 28.77586946 -17 27 C-13.28272326 25.86416544 -11.52948291 26.33329974 -8 28 C-7.87625 27.38125 -7.7525 26.7625 -7.625 26.125 C-7 24 -7 24 -5 22 C-3.00827818 21.30899447 -1.00838196 20.64097297 1 20 C2.20561184 19.01732141 2.20561184 19.01732141 2.09765625 17.15234375 C2.08605469 16.42144531 2.07445313 15.69054687 2.0625 14.9375 C2.041875 13.638125 2.02125 12.33875 2 11 C2.66 11 3.32 11 4 11 C4 13.64 4 16.28 4 19 C7.465 18.505 7.465 18.505 11 18 C11 14.37 11 10.74 11 7 C9.68 6.67 8.36 6.34 7 6 C4.58956984 4.78008717 2.32319752 3.38498314 0 2 C0 1.34 0 0.68 0 0 Z " fill="#F5B666" transform="translate(108,207)"/>
<path d="M0 0 C0.80244141 0.00515625 1.60488281 0.0103125 2.43164062 0.015625 C6.21275008 0.0658306 9.22090578 0.32085144 12.9375 1.25 C12.6075 4.22 12.2775 7.19 11.9375 10.25 C12.5975 10.25 13.2575 10.25 13.9375 10.25 C15.06483524 14.19567332 15.25984763 17.28295711 13.9375 21.25 C11.9375 19.25 11.9375 19.25 11.8125 16.125 C11.85375 15.17625 11.895 14.2275 11.9375 13.25 C10.9475 13.25 9.9575 13.25 8.9375 13.25 C8.9375 12.26 8.9375 11.27 8.9375 10.25 C3.9875 9.92 -0.9625 9.59 -6.0625 9.25 C-6.0625 8.26 -6.0625 7.27 -6.0625 6.25 C-9.0325 5.755 -9.0325 5.755 -12.0625 5.25 C-12.7225 6.57 -13.3825 7.89 -14.0625 9.25 C-14.375 6.4375 -14.375 6.4375 -14.0625 3.25 C-9.74800374 -0.46909578 -5.38646904 -0.13911784 0 0 Z " fill="#F98234" transform="translate(104.0625,63.75)"/>
<path d="M0 0 C9.24 0 18.48 0 28 0 C27.34 1.32 26.68 2.64 26 4 C23.87109375 4.5390625 23.87109375 4.5390625 21.4375 4.625 C19.06407953 4.68524737 19.06407953 4.68524737 17 5 C16.67 5.66 16.34 6.32 16 7 C16.99 7.33 17.98 7.66 19 8 C18 10 18 10 16 12 C13.25514407 12.14507695 10.61519457 12.18652423 7.875 12.125 C7.12089844 12.11597656 6.36679688 12.10695313 5.58984375 12.09765625 C3.72642746 12.0740687 1.86317407 12.03819719 0 12 C0 10.68 0 9.36 0 8 C5.445 7.505 5.445 7.505 11 7 C9.18884044 5.18884044 6.38721773 5.61800552 3.9375 5.4375 C2.83277344 5.35371094 1.72804688 5.26992187 0.58984375 5.18359375 C-0.26480469 5.12300781 -1.11945313 5.06242187 -2 5 C-1.34 3.35 -0.68 1.7 0 0 Z " fill="#FB4C06" transform="translate(91,99)"/>
<path d="M0 0 C2.475 0.99 2.475 0.99 5 2 C4.90976562 2.9178125 4.81953125 3.835625 4.7265625 4.78125 C4.6138448 8.90845176 4.749677 12.04914942 6 16 C8.59556684 18.52612325 11.68897716 19.99173212 14.98291016 21.42578125 C16.875 22.25390625 16.875 22.25390625 20 24 C21.00390625 26.59765625 21.00390625 26.59765625 21 29 C19.9375 30.875 19.9375 30.875 18 32 C12.5975676 32.13176664 8.78238686 29.17616811 4.46484375 26.27734375 C1.72801645 24.85905132 0.03718244 24.745548 -3 25 C-2.67 24.34 -2.34 23.68 -2 23 C0.64 23.33 3.28 23.66 6 24 C6 22.35 6 20.7 6 19 C5.01 18.67 4.02 18.34 3 18 C2.95101563 16.92878906 2.90203125 15.85757813 2.8515625 14.75390625 C2.77654706 13.35674361 2.7009987 11.9596095 2.625 10.5625 C2.5940625 9.85544922 2.563125 9.14839844 2.53125 8.41992188 C2.42719371 6.60760812 2.22080108 4.80182012 2 3 C1.34 2.67 0.68 2.34 0 2 C0 1.34 0 0.68 0 0 Z " fill="#F09952" transform="translate(26,57)"/>
<path d="M0 0 C1.32 0.33 2.64 0.66 4 1 C3.34 4.63 2.68 8.26 2 12 C2.99 12.33 3.98 12.66 5 13 C5.309375 14.093125 5.61875 15.18625 5.9375 16.3125 C7.04838618 20.16792851 8.10138145 21.3912433 11 24 C11 24.66 11 25.32 11 26 C11.66 26.33 12.32 26.66 13 27 C11.35 27.33 9.7 27.66 8 28 C8 27.34 8 26.68 8 26 C6.68 26 5.36 26 4 26 C3.67 24.02 3.34 22.04 3 20 C2.01 20 1.02 20 0 20 C-0.33 18.35 -0.66 16.7 -1 15 C-1.639375 14.87625 -2.27875 14.7525 -2.9375 14.625 C-3.618125 14.41875 -4.29875 14.2125 -5 14 C-6.52491998 10.95016004 -6.23562548 8.3576631 -6 5 C-4.6875 3.0625 -4.6875 3.0625 -3 2 C-2.01 2 -1.02 2 0 2 C0 1.34 0 0.68 0 0 Z " fill="#FB5306" transform="translate(57,129)"/>
<path d="M0 0 C0.556875 0.7734375 0.556875 0.7734375 1.125 1.5625 C0.465 2.2225 -0.195 2.8825 -0.875 3.5625 C-1.205 4.5525 -1.535 5.5425 -1.875 6.5625 C-2.535 6.5625 -3.195 6.5625 -3.875 6.5625 C-3.73351011 8.1670556 -3.58664314 9.77113767 -3.4375 11.375 C-3.35628906 12.26832031 -3.27507813 13.16164063 -3.19140625 14.08203125 C-2.94010233 16.68993559 -2.94010233 16.68993559 -1.875 19.5625 C-2.535 20.2225 -3.195 20.8825 -3.875 21.5625 C-6.49080479 21.2355244 -8.51578137 20.74210932 -10.875 19.5625 C-10.95569658 16.60362541 -11.01534665 13.6469341 -11.0625 10.6875 C-11.08763672 9.84574219 -11.11277344 9.00398438 -11.13867188 8.13671875 C-11.14833984 7.33105469 -11.15800781 6.52539062 -11.16796875 5.6953125 C-11.1836792 4.95168457 -11.19938965 4.20805664 -11.21557617 3.44189453 C-11.10318604 2.82169434 -10.9907959 2.20149414 -10.875 1.5625 C-7.37148868 -0.77317422 -3.70510377 -2.84057956 0 0 Z " fill="#FB560C" transform="translate(10.875,57.4375)"/>
<path d="M0 0 C2.02350324 3.03525486 2.32124018 4.19426202 2.625 7.6875 C2.69976562 8.49574219 2.77453125 9.30398437 2.8515625 10.13671875 C2.92503906 11.05904297 2.92503906 11.05904297 3 12 C3.98742187 12.06058594 4.97484375 12.12117187 5.9921875 12.18359375 C7.27351563 12.26738281 8.55484375 12.35117188 9.875 12.4375 C11.15117188 12.51871094 12.42734375 12.59992188 13.7421875 12.68359375 C17 13 17 13 19 14 C19 14.66 19 15.32 19 16 C19.99 15.67 20.98 15.34 22 15 C22.33 15.66 22.66 16.32 23 17 C21 20 21 20 19.22265625 20.546875 C13.04184449 21.12807249 7.15664873 20.74800405 1 20 C0 15.25 0 15.25 0 13 C-0.57971412 10.00481039 -1.23785739 8.64321392 -3 6 C-2.34 6 -1.68 6 -1 6 C-0.67 4.02 -0.34 2.04 0 0 Z " fill="#FB8230" transform="translate(93,156)"/>
<path d="M0 0 C-0.0721875 0.65226563 -0.144375 1.30453125 -0.21875 1.9765625 C-0.71756166 6.6737056 -1.12451246 11.26852656 -1 16 C-0.34 16.33 0.32 16.66 1 17 C0.34 18.98 -0.32 20.96 -1 23 C-3.64 22.34 -6.28 21.68 -9 21 C-9.05379226 18.04142591 -9.09357093 15.08382279 -9.125 12.125 C-9.14175781 11.28324219 -9.15851563 10.44148438 -9.17578125 9.57421875 C-9.18222656 8.76855469 -9.18867187 7.96289062 -9.1953125 7.1328125 C-9.21102295 6.01737061 -9.21102295 6.01737061 -9.22705078 4.87939453 C-9 3 -9 3 -7 1 C-4.49940039 0.19335496 -2.66053211 0 0 0 Z " fill="#F55913" transform="translate(97,6)"/>
<path d="M0 0 C0.99 0.33 1.98 0.66 3 1 C2.01 1.495 2.01 1.495 1 2 C1 6.29 1 10.58 1 15 C1.66 15.33 2.32 15.66 3 16 C2.34 16 1.68 16 1 16 C1.66 16.66 2.32 17.32 3 18 C5.24105681 20.24105681 5.83091193 20.87187072 6 24 C4.85678533 26.49575034 3.47788286 28.67121489 2 31 C1.67 31 1.34 31 1 31 C0.93941406 30.39671875 0.87882812 29.7934375 0.81640625 29.171875 C0.73261719 28.37265625 0.64882813 27.5734375 0.5625 26.75 C0.48128906 25.96109375 0.40007813 25.1721875 0.31640625 24.359375 C0.02353704 22.1755108 -0.45789357 20.13198159 -1 18 C-1 17.34 -1 16.68 -1 16 C-1.33 16.66 -1.66 17.32 -2 18 C-6.875 16.125 -6.875 16.125 -8 15 C-8.27447755 10.92572382 -8.02678716 7.32429216 -5.4765625 4.03515625 C-3.69381729 2.43670327 -2.14210892 1.07573155 0 0 Z " fill="#FA5208" transform="translate(60,92)"/>
<path d="M0 0 C0.66 0.33 1.32 0.66 2 1 C2.33 1.99 2.66 2.98 3 4 C4.36465054 5.09172044 5.73041092 6.18208083 7.1015625 7.265625 C11.22072221 11.02880795 14.64438842 15.55567889 18 20 C18 20.33 18 20.66 18 21 C14.80670376 21.66527005 12.17707417 21.81148179 9 21 C5.7402294 18.05948528 3.37239445 14.67667466 1 11 C0.42507812 10.11054688 -0.14984375 9.22109375 -0.7421875 8.3046875 C-2 6 -2 6 -1.75 3.8125 C-1.21535034 2.52043 -0.62534713 1.25069425 0 0 Z " fill="#ED5317" transform="translate(96,120)"/>
<path d="M0 0 C1.50559539 1.96382007 2.89131683 3.78263366 4 6 C6.58605332 6.4683265 6.58605332 6.4683265 9.5625 6.625 C10.57441406 6.69976562 11.58632812 6.77453125 12.62890625 6.8515625 C13.80259766 6.92503906 13.80259766 6.92503906 15 7 C15 7.66 15 8.32 15 9 C15.99 9.33 16.98 9.66 18 10 C18 10.66 18 11.32 18 12 C16.88625 12.28875 15.7725 12.5775 14.625 12.875 C10.99708908 13.69241329 10.99708908 13.69241329 9 16 C5.20202933 17.00323754 2.99367393 17.50895494 -0.5625 15.6875 C-4.01336486 11.88270029 -6.83630819 7.66901916 -9 3 C-8.67 2.34 -8.34 1.68 -8 1 C-7.34 1.33 -6.68 1.66 -6 2 C-5.375 4.5625 -5.375 4.5625 -5 7 C-4.01 7 -3.02 7 -2 7 C-1.67 8.98 -1.34 10.96 -1 13 C0.32 13 1.64 13 3 13 C3 13.66 3 14.32 3 15 C4.32 14.67 5.64 14.34 7 14 C5.3545622 12.31237149 3.68711423 10.6459651 2 9 C1.67 9 1.34 9 1 9 C0.67 6.03 0.34 3.06 0 0 Z " fill="#F95F17" transform="translate(62,142)"/>
<path d="M0 0 C0.33 0.66 0.66 1.32 1 2 C0.34 2 -0.32 2 -1 2 C-0.34 3.65 0.32 5.3 1 7 C0.34 7 -0.32 7 -1 7 C-1.268125 7.61875 -1.53625 8.2375 -1.8125 8.875 C-3 11 -3 11 -6 13 C-10.17300608 13.23183367 -13.94020228 12.98419339 -18 12 C-18 11.67 -18 11.34 -18 11 C-16.1128125 10.87625 -16.1128125 10.87625 -14.1875 10.75 C-10.66188788 10.33442857 -10.66188788 10.33442857 -8 7.9375 C-7.67 7.298125 -7.34 6.65875 -7 6 C-8.45635371 5.77825067 -9.91522956 5.57301302 -11.375 5.375 C-12.18710938 5.25898437 -12.99921875 5.14296875 -13.8359375 5.0234375 C-14.55007812 5.01570313 -15.26421875 5.00796875 -16 5 C-16.66 5.66 -17.32 6.32 -18 7 C-18.99 6.67 -19.98 6.34 -21 6 C-21 5.34 -21 4.68 -21 4 C-22.65 4.33 -24.3 4.66 -26 5 C-25.67 4.01 -25.34 3.02 -25 2 C-20.91863159 1.92839705 -17.28619489 1.95230085 -13.25 2.625 C-9.73554856 3.03051363 -8.93585028 2.70468726 -6 1 C-4.00889599 0.61709538 -2.00899487 0.27395385 0 0 Z " fill="#F46A24" transform="translate(87,80)"/>
<path d="M0 0 C0.66 0.33 1.32 0.66 2 1 C1.67 3.64 1.34 6.28 1 9 C2.2065625 9.433125 2.2065625 9.433125 3.4375 9.875 C6 11 6 11 7 13 C7.99 13.33 8.98 13.66 10 14 C11.25 15.9375 11.25 15.9375 12 18 C11.67 18.66 11.34 19.32 11 20 C3.0798993 20.75429531 -0.82554279 18.90453338 -7 14 C-6.01 14 -5.02 14 -4 14 C-2.32900023 13.68911632 -0.66128463 13.35919668 1 13 C0.67 12.01 0.34 11.02 0 10 C-0.06802967 8.27204648 -0.08495645 6.54164635 -0.0625 4.8125 C-0.05347656 3.91144531 -0.04445313 3.01039062 -0.03515625 2.08203125 C-0.02355469 1.39496094 -0.01195312 0.70789063 0 0 Z M12 11 C12.99 11 13.98 11 15 11 C14.67 11.99 14.34 12.98 14 14 C12.68 13.67 11.36 13.34 10 13 C10.66 12.34 11.32 11.68 12 11 Z " fill="#F3631B" transform="translate(7,64)"/>
<path d="M0 0 C0 0.99 0 1.98 0 3 C0.9075 2.938125 1.815 2.87625 2.75 2.8125 C6.28982642 3.01672076 7.44931155 3.64551835 10 6 C9.67 6.66 9.34 7.32 9 8 C4.5089694 9.4970102 -0.04375436 9.444219 -4.75 9.71875 C-8.0092931 9.87350971 -8.0092931 9.87350971 -11 11 C-10.67 10.01 -10.34 9.02 -10 8 C-9.34 8 -8.68 8 -8 8 C-7.67 7.34 -7.34 6.68 -7 6 C-6.01 6 -5.02 6 -4 6 C-4 5.01 -4 4.02 -4 3 C-4.61875 2.87625 -5.2375 2.7525 -5.875 2.625 C-8 2 -8 2 -10 0 C-6.7169902 -1.6415049 -3.57454967 -0.51888624 0 0 Z " fill="#FAA44C" transform="translate(137,148)"/>
<path d="M0 0 C3.125 0.8125 3.125 0.8125 5.8125 2 C6.575625 2.268125 7.33875 2.53625 8.125 2.8125 C9.115 2.1525 10.105 1.4925 11.125 0.8125 C12.445 1.4725 13.765 2.1325 15.125 2.8125 C14.465 4.1325 13.805 5.4525 13.125 6.8125 C11.805 6.4825 10.485 6.1525 9.125 5.8125 C9.125 6.4725 9.125 7.1325 9.125 7.8125 C4.175 7.8125 -0.775 7.8125 -5.875 7.8125 C-5.875 2.8125 -5.875 2.8125 -4.75 0.9375 C-2.875 -0.1875 -2.875 -0.1875 0 0 Z " fill="#FCA348" transform="translate(132.875,83.1875)"/>
<path d="M0 0 C0.66 0.33 1.32 0.66 2 1 C3.28614943 4.85844829 3.37171328 8.55841538 3.62109375 12.6015625 C3.74613281 13.39304687 3.87117188 14.18453125 4 15 C4.66 15.33 5.32 15.66 6 16 C6.625 18.5625 6.625 18.5625 7 21 C3.79937313 22.60031344 1.27728194 21.03173691 -2 20 C-3.25073332 13.90267506 -4.29860535 7.65131926 -1.5 1.9375 C-1.005 1.298125 -0.51 0.65875 0 0 Z " fill="#FC8937" transform="translate(26,60)"/>
<path d="M0 0 C2.84303092 0.94767697 5.12603367 2.23282213 7.625 3.875 C7.41875 4.473125 7.2125 5.07125 7 5.6875 C6.31828085 8.15950846 6.31828085 8.15950846 8.625 10.875 C8.295 11.535 7.965 12.195 7.625 12.875 C2.82141655 12.29274746 -0.43835186 10.60037179 -4.375 7.875 C-5.5 5.3125 -5.5 5.3125 -5.375 2.875 C-3.81048545 0.26747576 -3.04939913 -0.16049469 0 0 Z " fill="#F4994B" transform="translate(166.375,151.125)"/>
<path d="M0 0 C0.66 0 1.32 0 2 0 C2 6.6 2 13.2 2 20 C-0.2275 21.36125 -2.455 22.7225 -4.75 24.125 C-5.44448242 24.56086426 -6.13896484 24.99672852 -6.85449219 25.44580078 C-8.546875 26.4453125 -8.546875 26.4453125 -12 28 C-14.453125 27.2421875 -14.453125 27.2421875 -16 26 C-13.69 25.34 -11.38 24.68 -9 24 C-8.67 22.35 -8.34 20.7 -8 19 C-7.34 19 -6.68 19 -6 19 C-5.87625 18.071875 -5.87625 18.071875 -5.75 17.125 C-5 15 -5 15 -3 13.875 C-2.34 13.58625 -1.68 13.2975 -1 13 C-0.67 12.34 -0.34 11.68 0 11 C-0.99 11 -1.98 11 -3 11 C-3 10.34 -3 9.68 -3 9 C-2.01 9 -1.02 9 0 9 C0 6.03 0 3.06 0 0 Z " fill="#F3B66C" transform="translate(205,57)"/>
<path d="M0 0 C0.66 0.66 1.32 1.32 2 2 C4.9254644 2.2236068 4.9254644 2.2236068 7 1 C8.54613014 1.08651631 10.08909387 1.24002636 11.625 1.4375 C12.85089844 1.59025391 12.85089844 1.59025391 14.1015625 1.74609375 C15.04128906 1.87177734 15.04128906 1.87177734 16 2 C15.34 3.98 14.68 5.96 14 8 C9.71 8 5.42 8 1 8 C1 7.01 1 6.02 1 5 C-0.32 5 -1.64 5 -3 5 C-1.125 1.125 -1.125 1.125 0 0 Z " fill="#FD5E12" transform="translate(65,83)"/>
<path d="M0 0 C0.66 0.33 1.32 0.66 2 1 C3.18912391 4.87156623 2.91625106 8.04287247 2.25 12 C2.09015625 13.010625 1.9303125 14.02125 1.765625 15.0625 C0.95297765 18.1804123 -0.10680757 20.3992508 -2 23 C-2.66 23 -3.32 23 -4 23 C-5.16343227 20.67313547 -5.19895988 19.15278587 -5.25 16.5625 C-5.28867188 15.38880859 -5.28867188 15.38880859 -5.328125 14.19140625 C-4.92232661 11.4812527 -4.01977922 10.77173615 -2 9 C-0.35116058 5.61554014 0 3.86245304 0 0 Z " fill="#FCAA53" transform="translate(146,107)"/>
<path d="M0 0 C0.66 0.33 1.32 0.66 2 1 C2 4 2 7 2 10 C1.01 10.495 1.01 10.495 0 11 C-0.02505615 11.57032959 -0.0501123 12.14065918 -0.07592773 12.72827148 C-0.19156549 15.29826157 -0.31443624 17.86785527 -0.4375 20.4375 C-0.47681641 21.33533203 -0.51613281 22.23316406 -0.55664062 23.15820312 C-0.59853516 24.01220703 -0.64042969 24.86621094 -0.68359375 25.74609375 C-0.73858032 26.93223267 -0.73858032 26.93223267 -0.79467773 28.14233398 C-1 30 -1 30 -2 31 C-3.66617115 31.04063832 -5.33388095 31.042721 -7 31 C-4 29 -4 29 -2 29 C-2.33 21.08 -2.66 13.16 -3 5 C-4.32 5 -5.64 5 -7 5 C-7 4.34 -7 3.68 -7 3 C-7.66 3 -8.32 3 -9 3 C-8.67 2.34 -8.34 1.68 -8 1 C-7.13375 1.309375 -7.13375 1.309375 -6.25 1.625 C-3.46120465 2.08979923 -2.43530833 1.29883111 0 0 Z " fill="#F59041" transform="translate(109,22)"/>
<path d="M0 0 C0.33 1.98 0.66 3.96 1 6 C-0.28716647 7.00578589 -1.57988658 8.00446798 -2.875 9 C-3.95394531 9.8353125 -3.95394531 9.8353125 -5.0546875 10.6875 C-7 12 -7 12 -9 12 C-8.34 9.03 -7.68 6.06 -7 3 C-7.99 2.67 -8.98 2.34 -10 2 C-6.5980513 -0.09350689 -3.94727588 -0.17942163 0 0 Z " fill="#F2AB63" transform="translate(46,153)"/>
<path d="M0 0 C4.10035673 1.53763377 5.45351941 3.60486506 8 7.125 C6.3789897 7.82185498 4.75303934 8.50722861 3.125 9.1875 C2.22007813 9.57035156 1.31515625 9.95320313 0.3828125 10.34765625 C-2 11.125 -2 11.125 -4 10.125 C-3.835 9.50625 -3.67 8.8875 -3.5 8.25 C-2.92365356 6.16436614 -2.92365356 6.16436614 -3 4.125 C-4.65 4.125 -6.3 4.125 -8 4.125 C-5.28553522 1.49037242 -3.84842754 0.16035115 0 0 Z " fill="#F4681F" transform="translate(13,52.875)"/>
<path d="M0 0 C9.24 0 18.48 0 28 0 C27.67 0.99 27.34 1.98 27 3 C26.67 2.34 26.34 1.68 26 1 C20.39 1 14.78 1 9 1 C9 1.99 9 2.98 9 4 C9.99 4.33 10.98 4.66 12 5 C11.67 5.66 11.34 6.32 11 7 C10.67 6.67 10.34 6.34 10 6 C7.98405418 5.76572222 5.961526 5.58663876 3.9375 5.4375 C2.83277344 5.35371094 1.72804688 5.26992187 0.58984375 5.18359375 C-0.26480469 5.12300781 -1.11945313 5.06242187 -2 5 C-1.34 3.35 -0.68 1.7 0 0 Z " fill="#F15B19" transform="translate(91,99)"/>
<path d="M0 0 C2.38564077 0.57584432 4.66682784 1.22227595 7 2 C7 2.99 7 3.98 7 5 C6.05125 5.45375 5.1025 5.9075 4.125 6.375 C0.99686321 7.80238254 0.99686321 7.80238254 -1 10 C-1.33 9.01 -1.66 8.02 -2 7 C-3.32 7 -4.64 7 -6 7 C-6 7.66 -6 8.32 -6 9 C-5.34 9.33 -4.68 9.66 -4 10 C-5.98 10.99 -5.98 10.99 -8 12 C-9.0625 10.125 -9.0625 10.125 -10 8 C-8.70256222 5.40512445 -7.70637529 4.97730219 -5 4 C-2.25 4.375 -2.25 4.375 0 5 C0 3.35 0 1.7 0 0 Z " fill="#FC933B" transform="translate(126,149)"/>
<path d="M0 0 C0.7734375 0.433125 0.7734375 0.433125 1.5625 0.875 C4.12475535 2.14341867 4.12475535 2.14341867 7.5625 2.9375 C10.74136983 3.92005977 12.0201464 4.43783652 14 7 C12.5594333 9.8811334 11.41593514 11.71115615 8.75 13.5625 C4.51804468 14.23576562 2.50595719 12.33730479 -1 10 C1.60097682 8.69951159 4.13955062 8.43528578 7 8 C7.33 7.01 7.66 6.02 8 5 C5.03 4.505 5.03 4.505 2 4 C2 3.34 2 2.68 2 2 C1.34 2 0.68 2 0 2 C0 1.34 0 0.68 0 0 Z " fill="#F0752D" transform="translate(10,177)"/>
<path d="M0 0 C0.33 0.66 0.66 1.32 1 2 C0.34 2 -0.32 2 -1 2 C-1 5.63 -1 9.26 -1 13 C-0.01 13.33 0.98 13.66 2 14 C2.33 15.98 2.66 17.96 3 20 C3.66 20 4.32 20 5 20 C4.67 22.31 4.34 24.62 4 27 C3.67 27 3.34 27 3 27 C3 25.35 3 23.7 3 22 C1.700625 21.87625 0.40125 21.7525 -0.9375 21.625 C-3.15234375 21.4140625 -3.15234375 21.4140625 -5 21 C-5.33 20.34 -5.66 19.68 -6 19 C-5.01 18.67 -4.02 18.34 -3 18 C-1.31461399 16.00334686 -1.31461399 16.00334686 0 14 C-0.99 13.67 -1.98 13.34 -3 13 C-3.08086147 11.20906809 -3.13912702 9.41710372 -3.1875 7.625 C-3.23970703 6.12839844 -3.23970703 6.12839844 -3.29296875 4.6015625 C-3.14794922 3.31378906 -3.14794922 3.31378906 -3 2 C-2.01 1.34 -1.02 0.68 0 0 Z " fill="#F96C21" transform="translate(98,9)"/>
<path d="M0 0 C2.91672884 -0.02700675 5.83320677 -0.04684237 8.75 -0.0625 C9.9875 -0.07506836 9.9875 -0.07506836 11.25 -0.08789062 C12.04921875 -0.09111328 12.8484375 -0.09433594 13.671875 -0.09765625 C14.4050293 -0.10289307 15.13818359 -0.10812988 15.89355469 -0.11352539 C18 0 18 0 22 1 C21.67 3.97 21.34 6.94 21 10 C21.66 10 22.32 10 23 10 C24.12733524 13.94567332 24.32234763 17.03295711 23 21 C21 19 21 19 20.875 15.875 C20.91625 14.92625 20.9575 13.9775 21 13 C20.01 13 19.02 13 18 13 C18.185625 11.88625 18.37125 10.7725 18.5625 9.625 C19.31680657 6.17431139 19.31680657 6.17431139 18 4 C18.66 4 19.32 4 20 4 C20 3.34 20 2.68 20 2 C19.01 2.33 18.02 2.66 17 3 C17 2.34 17 1.68 17 1 C11.39 1 5.78 1 0 1 C0 0.67 0 0.34 0 0 Z " fill="#F58D3D" transform="translate(95,64)"/>
<path d="M0 0 C2.3828125 0.99609375 2.3828125 0.99609375 5.125 2.4375 C6.03507813 2.91058594 6.94515625 3.38367188 7.8828125 3.87109375 C8.58148438 4.24363281 9.28015625 4.61617187 10 5 C8.68 5.33 7.36 5.66 6 6 C6.50603992 8.16874252 6.99983813 9.99967627 8 12 C7.40832031 11.97679687 6.81664062 11.95359375 6.20703125 11.9296875 C1.66198041 11.82588536 -1.85940059 11.86291643 -6 14 C-6 13.34 -6 12.68 -6 12 C-4.34467377 10.98133771 -2.67739862 9.98189187 -1 9 C-0.67 8.34 -0.34 7.68 0 7 C0.66 7 1.32 7 2 7 C2 5.35 2 3.7 2 2 C0.68 1.67 -0.64 1.34 -2 1 C-1.34 0.67 -0.68 0.34 0 0 Z " fill="#F3AA5C" transform="translate(192,153)"/>
<path d="M0 0 C0.33 0.66 0.66 1.32 1 2 C1.99 2.33 2.98 2.66 4 3 C4 3.66 4 4.32 4 5 C3.4225 5.0825 2.845 5.165 2.25 5.25 C-0.6159304 6.20531013 -1.9990764 7.78469173 -4 10 C-4.33 8.02 -4.66 6.04 -5 4 C-6.11375 4.350625 -7.2275 4.70125 -8.375 5.0625 C-12 6 -12 6 -14 5 C-5.92255125 -0.74031891 -5.92255125 -0.74031891 0 0 Z " fill="#F05F1C" transform="translate(14,159)"/>
<path d="M0 0 C0 2.31 0 4.62 0 7 C-0.66 7 -1.32 7 -2 7 C-2.33 8.32 -2.66 9.64 -3 11 C-4.32 11.33 -5.64 11.66 -7 12 C-6.67 10.35 -6.34 8.7 -6 7 C-8.475 6.01 -8.475 6.01 -11 5 C-4.87096774 0 -4.87096774 0 0 0 Z " fill="#F99E4D" transform="translate(39,156)"/>
<path d="M0 0 C1.32 1.32 2.64 2.64 4 4 C2.42334814 10.04383212 0.80824293 15.00988858 -3 20 C-3.33 19.34 -3.66 18.68 -4 18 C-4.66 18 -5.32 18 -6 18 C-5.34 16.68 -4.68 15.36 -4 14 C-3.34 14 -2.68 14 -2 14 C-2.33 10.37 -2.66 6.74 -3 3 C-2.67 3.66 -2.34 4.32 -2 5 C-1.01 5.33 -0.02 5.66 1 6 C0.67 4.02 0.34 2.04 0 0 Z " fill="#F5B467" transform="translate(154,132)"/>
<path d="M0 0 C0.66 0 1.32 0 2 0 C2 0.66 2 1.32 2 2 C3.98 2 5.96 2 8 2 C8.33 3.32 8.66 4.64 9 6 C5.60602809 8.40406344 2.82722497 8.09203815 -1.09375 7.4921875 C-3.55810962 6.85589793 -5.17264897 5.7512114 -7 4 C-5.35 4 -3.7 4 -2 4 C-1.34 2.68 -0.68 1.36 0 0 Z " fill="#FC691C" transform="translate(10,179)"/>
<path d="M0 0 C1.65 0.33 3.3 0.66 5 1 C4.67 1.66 4.34 2.32 4 3 C3.67 3 3.34 3 3 3 C3.061875 4.794375 3.061875 4.794375 3.125 6.625 C3.11823778 10.43213083 2.62168236 13.50058016 1 17 C0.01 17.33 -0.98 17.66 -2 18 C-3.43396751 15.13206499 -2.55024337 13.11804577 -2 10 C-1.96377667 8.33372702 -1.95100158 6.66594626 -2 5 C-1.34 5 -0.68 5 0 5 C0 3.35 0 1.7 0 0 Z " fill="#FD7322" transform="translate(91,68)"/>
<path d="M0 0 C-2.56565668 4.27609447 -4.62399485 6.63459181 -9 9 C-9.33 9.66 -9.66 10.32 -10 11 C-10.99 10.67 -11.98 10.34 -13 10 C-11.38135593 3.29418886 -11.38135593 3.29418886 -8.8125 1.3125 C-5.63225084 -0.17161628 -3.46785727 -0.24194353 0 0 Z " fill="#FA9A47" transform="translate(175,75)"/>
<path d="M0 0 C2.25 1.5625 2.25 1.5625 3.125 4.5625 C3.25 7.5625 3.25 7.5625 2.25 9.5625 C1.59 9.5625 0.93 9.5625 0.25 9.5625 C0.25 8.5725 0.25 7.5825 0.25 6.5625 C-1.07 6.2325 -2.39 5.9025 -3.75 5.5625 C-3.75 4.9025 -3.75 4.2425 -3.75 3.5625 C-5.07 3.2325 -6.39 2.9025 -7.75 2.5625 C-3.54193665 -0.56348992 -3.54193665 -0.56348992 0 0 Z " fill="#FB7427" transform="translate(17.75,155.4375)"/>
<path d="M0 0 C3.06098195 3.06098195 3.82645413 4.69822763 5.1875 8.6875 C5.53167969 9.68136719 5.87585938 10.67523438 6.23046875 11.69921875 C6.48441406 12.45847656 6.73835937 13.21773437 7 14 C6.34 14.66 5.68 15.32 5 16 C4.67 15.01 4.34 14.02 4 13 C1.99878825 10.63493157 1.03200339 10.0106678 -2 9 C-1.34 6.03 -0.68 3.06 0 0 Z " fill="#F4B369" transform="translate(151,90)"/>
<path d="M0 0 C4.40848864 3.33085808 6.94967471 5.69915902 9 11 C9.05284189 13.75334053 8.98371279 16.16976458 8.6875 18.875 C8.62626953 19.56335938 8.56503906 20.25171875 8.50195312 20.9609375 C8.35018142 22.64210098 8.17726382 24.32133301 8 26 C7.67 26 7.34 26 7 26 C6.98582031 25.04738281 6.97164063 24.09476563 6.95703125 23.11328125 C6.96144542 15.48461226 6.96144542 15.48461226 3.5 9.0625 C2.675 8.381875 1.85 7.70125 1 7 C0.1875 3.1875 0.1875 3.1875 0 0 Z " fill="#EE6222" transform="translate(60,103)"/>
<path d="M0 0 C1.9375 1.375 1.9375 1.375 2.875 3.8125 C2.9375 6.375 2.9375 6.375 1.875 8.25 C-0.0625 9.375 -0.0625 9.375 -3.1875 9.1875 C-4.13625 8.919375 -5.085 8.65125 -6.0625 8.375 C-6.3925 7.715 -6.7225 7.055 -7.0625 6.375 C-5.0825 6.375 -3.1025 6.375 -1.0625 6.375 C-2.3825 5.385 -3.7025 4.395 -5.0625 3.375 C-4.7325 2.385 -4.4025 1.395 -4.0625 0.375 C-2.0625 -0.625 -2.0625 -0.625 0 0 Z " fill="#F4AF65" transform="translate(44.0625,79.625)"/>
<path d="M0 0 C2.0625 0.6875 2.0625 0.6875 5.0625 2.6875 C5.0625 3.3475 5.0625 4.0075 5.0625 4.6875 C5.7225 5.0175 6.3825 5.3475 7.0625 5.6875 C7.3925 6.3475 7.7225 7.0075 8.0625 7.6875 C7.4025 7.6875 6.7425 7.6875 6.0625 7.6875 C6.0625 9.0075 6.0625 10.3275 6.0625 11.6875 C3.0925 11.1925 3.0925 11.1925 0.0625 10.6875 C1.3825 9.6975 2.7025 8.7075 4.0625 7.6875 C3.299375 7.089375 2.53625 6.49125 1.75 5.875 C-0.2858575 4.21790668 -2.1353279 2.58452326 -3.9375 0.6875 C-1.9375 -0.3125 -1.9375 -0.3125 0 0 Z " fill="#F77A2F" transform="translate(15.9375,51.3125)"/>
<path d="M0 0 C1.32 0.66 2.64 1.32 4 2 C4.33 2.99 4.66 3.98 5 5 C5.99 5.66 6.98 6.32 8 7 C8 7.66 8 8.32 8 9 C4.00439392 11.83022097 0.57262677 10.76210446 -4 10 C-4 9.34 -4 8.68 -4 8 C-1.03 8.495 -1.03 8.495 2 9 C1.34 6.03 0.68 3.06 0 0 Z " fill="#F59242" transform="translate(106,1)"/>
<path d="M0 0 C0.99 0.33 1.98 0.66 3 1 C3.33 2.65 3.66 4.3 4 6 C4.99 6 5.98 6 7 6 C7.33 7.98 7.66 9.96 8 12 C9.32 12 10.64 12 12 12 C12 12.66 12 13.32 12 14 C13.98 14 15.96 14 18 14 C18 14.33 18 14.66 18 15 C11.86564299 16.44337812 11.86564299 16.44337812 8.4375 14.6875 C5.06968363 10.97426656 0 5.23310865 0 0 Z " fill="#E95C22" transform="translate(53,143)"/>
<path d="M0 0 C2 6.625 2 6.625 2 10 C0.02 9.34 -1.96 8.68 -4 8 C-4 6.68 -4 5.36 -4 4 C-4.99 3.34 -5.98 2.68 -7 2 C-4 0 -4 0 0 0 Z " fill="#F98133" transform="translate(106,0)"/>
<path d="M0 0 C0 2 0 4 0 6 C0.33 6.33 0.66 6.66 1 7 C1.66 6.34 2.32 5.68 3 5 C3.625 7.3125 3.625 7.3125 4 10 C3.01 11.485 3.01 11.485 2 13 C0.0625 12.625 0.0625 12.625 -2 12 C-3.52491998 8.95016004 -3.23562548 6.3576631 -3 3 C-1.5 1.0625 -1.5 1.0625 0 0 Z " fill="#F35211" transform="translate(54,131)"/>
<path d="M0 0 C1.98 0.66 3.96 1.32 6 2 C6.18964787 4.89890315 6.32785971 7.78538869 6.4375 10.6875 C6.49615234 11.50412109 6.55480469 12.32074219 6.61523438 13.16210938 C6.78524894 19.16119491 6.78524894 19.16119491 4.41064453 21.69775391 C2.47265625 23.08203125 2.47265625 23.08203125 -1 25 C-1.33 24.34 -1.66 23.68 -2 23 C-1.34 23 -0.68 23 0 23 C0 22.34 0 21.68 0 21 C0.66 21 1.32 21 2 21 C2 20.34 2 19.68 2 19 C2.99 19 3.98 19 5 19 C5 13.72 5 8.44 5 3 C3.68 3 2.36 3 1 3 C0.67 2.01 0.34 1.02 0 0 Z " fill="#EEAF6D" transform="translate(114,6)"/>
<path d="M0 0 C0.33 0.99 0.66 1.98 1 3 C1.99 3.33 2.98 3.66 4 4 C4 5.32 4 6.64 4 8 C2.68 8 1.36 8 0 8 C0 7.34 0 6.68 0 6 C-1.65 5.67 -3.3 5.34 -5 5 C-4.1875 3.0625 -4.1875 3.0625 -3 1 C-2.01 0.67 -1.02 0.34 0 0 Z " fill="#FCB356" transform="translate(152,99)"/>
<path d="M0 0 C0.99 0 1.98 0 3 0 C2.67 0.99 2.34 1.98 2 3 C0.68 2.67 -0.64 2.34 -2 2 C-1.34 1.34 -0.68 0.68 0 0 Z M-4 3 C-3.34 3 -2.68 3 -2 3 C-0.9375 4.875 -0.9375 4.875 0 7 C-0.33 7.66 -0.66 8.32 -1 9 C-3.97 9 -6.94 9 -10 9 C-10 8.01 -10 7.02 -10 6 C-7.525 6.99 -7.525 6.99 -5 8 C-4.67 6.35 -4.34 4.7 -4 3 Z " fill="#F97124" transform="translate(19,75)"/>
<path d="M0 0 C1.65 0.33 3.3 0.66 5 1 C5 2.32 5 3.64 5 5 C0.92857143 8 0.92857143 8 -2 8 C-1.34 5.36 -0.68 2.72 0 0 Z " fill="#F7A958" transform="translate(39,157)"/>
<path d="M0 0 C3.98069267 2.87494471 6.43571997 5.82117329 9 10 C6.69 10 4.38 10 2 10 C1.67 8.68 1.34 7.36 1 6 C1.66 5.67 2.32 5.34 3 5 C2.2575 4.319375 2.2575 4.319375 1.5 3.625 C0 2 0 2 0 0 Z " fill="#E8571D" transform="translate(105,131)"/>
<path d="M0 0 C2.59487555 1.29743778 3.02269781 2.29362471 4 5 C3.625 7.75 3.625 7.75 3 10 C2.34 10 1.68 10 1 10 C-0.6875 8.25 -0.6875 8.25 -2 6 C-1.72330471 3.64809002 -1.05656463 2.11312926 0 0 Z " fill="#F84C04" transform="translate(96,120)"/>
<path d="M0 0 C0.66 0 1.32 0 2 0 C1.67 1.65 1.34 3.3 1 5 C0.34 5 -0.32 5 -1 5 C-1 5.66 -1 6.32 -1 7 C-2.65 7.33 -4.3 7.66 -6 8 C-5.67 6.02 -5.34 4.04 -5 2 C-3.35 2 -1.7 2 0 2 C0 1.34 0 0.68 0 0 Z " fill="#FB913F" transform="translate(183,55)"/>
<path d="M0 0 C0.66 0 1.32 0 2 0 C3.38938077 1.96147874 4.7260411 3.96166576 6 6 C5.01 6 4.02 6 3 6 C3.33 7.32 3.66 8.64 4 10 C3.34 10 2.68 10 2 10 C-1.125 3.375 -1.125 3.375 0 0 Z " fill="#F34F0A" transform="translate(103,131)"/>
<path d="M0 0 C0.66 0.33 1.32 0.66 2 1 C1.979375 1.78375 1.95875 2.5675 1.9375 3.375 C1.81315937 5.98114961 1.81315937 5.98114961 3 8 C2.9129796 9.71233688 2.75902838 11.42175406 2.5625 13.125 C2.46066406 14.03507812 2.35882813 14.94515625 2.25390625 15.8828125 C2.12822266 16.93082031 2.12822266 16.93082031 2 18 C1.67 18 1.34 18 1 18 C0.97421875 17.26394531 0.9484375 16.52789062 0.921875 15.76953125 C0.50939957 8.08058844 0.50939957 8.08058844 -4 2 C-2.68 2.33 -1.36 2.66 0 3 C0 2.01 0 1.02 0 0 Z " fill="#E36025" transform="translate(58,107)"/>
<path d="M0 0 C0.66 0 1.32 0 2 0 C2 1.32 2 2.64 2 4 C3.91666921 6.25065102 3.91666921 6.25065102 6 8 C3.69 7.67 1.38 7.34 -1 7 C-1.625 5.1875 -1.625 5.1875 -2 3 C-1.34 2.01 -0.68 1.02 0 0 Z " fill="#FAA74F" transform="translate(38,79)"/>
<path d="M0 0 C2.97 0.495 2.97 0.495 6 1 C6 1.66 6 2.32 6 3 C4.35 3.66 2.7 4.32 1 5 C1 5.66 1 6.32 1 7 C1.66 7 2.32 7 3 7 C2.67 7.99 2.34 8.98 2 10 C1.34 10 0.68 10 0 10 C0 6.7 0 3.4 0 0 Z " fill="#FB5207" transform="translate(89,17)"/>
<path d="M0 0 C0.99 0 1.98 0 3 0 C3.8125 1.6875 3.8125 1.6875 4 4 C1.5625 6.75 1.5625 6.75 -1 9 C-3.475 8.01 -3.475 8.01 -6 7 C-6 6.67 -6 6.34 -6 6 C-3.69 6 -1.38 6 1 6 C0.67 4.02 0.34 2.04 0 0 Z " fill="#ED7630" transform="translate(17,78)"/>
<path d="M0 0 C0 2 0 4 0 6 C0.66 6.33 1.32 6.66 2 7 C2 6.34 2 5.68 2 5 C3.65 5.33 5.3 5.66 7 6 C5.8125 7.5625 5.8125 7.5625 4 9 C-0.42105263 8.57894737 -0.42105263 8.57894737 -2 7 C-2.1875 4.5625 -2.1875 4.5625 -2 2 C-1.34 1.34 -0.68 0.68 0 0 Z " fill="#E89D5B" transform="translate(163,79)"/>
<path d="M0 0 C0.33 0 0.66 0 1 0 C1.103125 1.093125 1.20625 2.18625 1.3125 3.3125 C1.97307727 6.85559629 2.2027092 7.93243723 5 10 C2.69 10.33 0.38 10.66 -2 11 C-1.855625 10.29875 -1.71125 9.5975 -1.5625 8.875 C-0.98521625 5.92443859 -0.48304859 2.96729849 0 0 Z " fill="#F2B268" transform="translate(96,219)"/>
<path d="M0 0 C3.375 -0.125 3.375 -0.125 7 0 C7.66 0.66 8.32 1.32 9 2 C8.34 2 7.68 2 7 2 C6.67 2.99 6.34 3.98 6 5 C4.35 4.67 2.7 4.34 1 4 C0.67 2.68 0.34 1.36 0 0 Z " fill="#FC923E" transform="translate(162,154)"/>
<path d="M0 0 C0.66 0.66 1.32 1.32 2 2 C-0.40545638 3.20272819 -1.94996953 3.10071472 -4.625 3.0625 C-5.85089844 3.04896484 -5.85089844 3.04896484 -7.1015625 3.03515625 C-8.04128906 3.01775391 -8.04128906 3.01775391 -9 3 C-9 2.34 -9 1.68 -9 1 C-5.98675805 -0.50662097 -3.31713623 -0.17770373 0 0 Z " fill="#FB4A04" transform="translate(100,108)"/>
<path d="M0 0 C0.33 0 0.66 0 1 0 C1 3.3 1 6.6 1 10 C0.34 10 -0.32 10 -1 10 C-3 7 -3 7 -2.75 5 C-2 3 -2 3 0 0 Z " fill="#F45F1B" transform="translate(9,169)"/>
<path d="M0 0 C1.32 0 2.64 0 4 0 C2.6104538 3.35806998 1.27054981 5.32052848 -2 7 C-5.75 6.6875 -5.75 6.6875 -9 6 C-9 5.67 -9 5.34 -9 5 C-4.545 4.505 -4.545 4.505 0 4 C0 2.68 0 1.36 0 0 Z " fill="#EDA963" transform="translate(146,152)"/>
<path d="M0 0 C3.3 0.33 6.6 0.66 10 1 C10 1.66 10 2.32 10 3 C10.66 3 11.32 3 12 3 C12.33 3.99 12.66 4.98 13 6 C9.59687262 4.94124926 6.98646769 3.99097846 4 2 C1.37468476 1.83286431 1.37468476 1.83286431 -1 2 C-0.67 1.34 -0.34 0.68 0 0 Z " fill="#EA9654" transform="translate(24,80)"/>
<path d="M0 0 C2.475 0.99 2.475 0.99 5 2 C4.67 3.65 4.34 5.3 4 7 C2.68 7 1.36 7 0 7 C0 4.69 0 2.38 0 0 Z " fill="#F75613" transform="translate(1,176)"/>
<path d="M0 0 C0.99 0 1.98 0 3 0 C3.33 0.66 3.66 1.32 4 2 C4.99 2.33 5.98 2.66 7 3 C7 3.66 7 4.32 7 5 C6.38125 5.12375 5.7625 5.2475 5.125 5.375 C2.80879168 5.87197356 2.80879168 5.87197356 1 8 C0.67 5.36 0.34 2.72 0 0 Z " fill="#FA6B18" transform="translate(11,159)"/>
<path d="M0 0 C1.32 0.66 2.64 1.32 4 2 C3.67 2.99 3.34 3.98 3 5 C0.36 4.67 -2.28 4.34 -5 4 C-3.35 2.68 -1.7 1.36 0 0 Z " fill="#F1964A" transform="translate(33,157)"/>
<path d="M0 0 C1.9375 0.8125 1.9375 0.8125 4 2 C4.33 2.99 4.66 3.98 5 5 C4.01 5.99 3.02 6.98 2 8 C1.34 7.67 0.68 7.34 0 7 C0 4.69 0 2.38 0 0 Z " fill="#FC9D47" transform="translate(110,22)"/>
<path d="M0 0 C0 1.65 0 3.3 0 5 C-0.70125 4.95875 -1.4025 4.9175 -2.125 4.875 C-5.38371628 5.01668332 -7.9559947 5.86734686 -11 7 C-8.69714115 4.2907543 -3.67024802 0 0 0 Z " fill="#EA9551" transform="translate(126,149)"/>
<path d="M0 0 C2.31 0 4.62 0 7 0 C6.34 1.65 5.68 3.3 5 5 C3.35 5 1.7 5 0 5 C0.99 4.67 1.98 4.34 3 4 C3 3.34 3 2.68 3 2 C2.01 2 1.02 2 0 2 C0 1.34 0 0.68 0 0 Z " fill="#DC612C" transform="translate(112,107)"/>
<path d="M0 0 C2.18975773 3.28463659 2.99806563 6.20696275 4 10 C3.01 10 2.02 10 1 10 C1 9.34 1 8.68 1 8 C0.34 8 -0.32 8 -1 8 C-0.67 5.36 -0.34 2.72 0 0 Z " fill="#EF934E" transform="translate(117,66)"/>
<path d="M0 0 C0.99 0.66 1.98 1.32 3 2 C3 3.32 3 4.64 3 6 C3.66 6.66 4.32 7.32 5 8 C2.03824877 7.38722388 0.61941217 6.74627478 -2 5 C-2 3.68 -2 2.36 -2 1 C-1.34 0.67 -0.68 0.34 0 0 Z " fill="#FD6F22" transform="translate(89,158)"/>
<path d="M0 0 C0.66 0.33 1.32 0.66 2 1 C1.67 2.65 1.34 4.3 1 6 C-0.32 6.33 -1.64 6.66 -3 7 C-3.33 6.01 -3.66 5.02 -4 4 C-2.68 2.68 -1.36 1.36 0 0 Z " fill="#FA4804" transform="translate(109,110)"/>
<path d="M0 0 C0.99 0.33 1.98 0.66 3 1 C2.67 2.32 2.34 3.64 2 5 C-0.64 4.01 -3.28 3.02 -6 2 C-4.68 1.67 -3.36 1.34 -2 1 C-1.34 0.67 -0.68 0.34 0 0 Z " fill="#F25F1B" transform="translate(9,182)"/>
<path d="M0 0 C0.33 0 0.66 0 1 0 C1 3.63 1 7.26 1 11 C2.65 11.33 4.3 11.66 6 12 C6 12.66 6 13.32 6 14 C4.02 13.34 2.04 12.68 0 12 C0 8.04 0 4.08 0 0 Z " fill="#E6AC73" transform="translate(177,169)"/>
<path d="M0 0 C1.65 0 3.3 0 5 0 C5.625 2.3125 5.625 2.3125 6 5 C5.01 6.485 5.01 6.485 4 8 C2.66666667 5.33333333 1.33333333 2.66666667 0 0 Z " fill="#F97726" transform="translate(97,3)"/>
<path d="M0 0 C0 0.99 0 1.98 0 3 C-4.51718381 4.36884358 -7.58774263 3.47075246 -12 2 C-12 1.67 -12 1.34 -12 1 C-10.948125 1.020625 -9.89625 1.04125 -8.8125 1.0625 C-5.67295096 1.01103198 -3.03116604 0.73482813 0 0 Z " fill="#E97030" transform="translate(86,155)"/>
<path d="M0 0 C0.66 0.33 1.32 0.66 2 1 C1.01 2.485 1.01 2.485 0 4 C-2.1640625 4.29296875 -2.1640625 4.29296875 -4.625 4.1875 C-5.44226563 4.16042969 -6.25953125 4.13335937 -7.1015625 4.10546875 C-8.04128906 4.05326172 -8.04128906 4.05326172 -9 4 C-9 3.34 -9 2.68 -9 2 C-7.88625 1.855625 -6.7725 1.71125 -5.625 1.5625 C-2.17857953 1.21627965 -2.17857953 1.21627965 0 0 Z " fill="#E96C31" transform="translate(81,81)"/>
<path d="M0 0 C-3.96 1.98 -3.96 1.98 -8 4 C-8.33 2.68 -8.66 1.36 -9 0 C-3.375 -1.125 -3.375 -1.125 0 0 Z " fill="#F3BA74" transform="translate(208,181)"/>
<path d="M0 0 C0.66 0.99 1.32 1.98 2 3 C0.02 4.32 -1.96 5.64 -4 7 C-4 5.35 -4 3.7 -4 2 C-2.68 1.34 -1.36 0.68 0 0 Z " fill="#F64D06" transform="translate(4,163)"/>
<path d="M0 0 C2.29013653 3.4352048 2.17842973 4.985331 2 9 C0.0625 8.625 0.0625 8.625 -2 8 C-2.33 7.34 -2.66 6.68 -3 6 C-2.34 6 -1.68 6 -1 6 C-0.67 4.02 -0.34 2.04 0 0 Z " fill="#F47B33" transform="translate(93,156)"/>
<path d="M0 0 C2.3125 0.8125 2.3125 0.8125 4 2 C1.75 3.625 1.75 3.625 -1 5 C-3.3125 4.1875 -3.3125 4.1875 -5 3 C-2.75 1.375 -2.75 1.375 0 0 Z " fill="#E77033" transform="translate(15,155)"/>
<path d="M0 0 C0.598125 0.639375 1.19625 1.27875 1.8125 1.9375 C3.90810337 4.20310389 3.90810337 4.20310389 7 5 C7.33 5.99 7.66 6.98 8 8 C2.25 6.375 2.25 6.375 0 3 C0 2.01 0 1.02 0 0 Z " fill="#EA9854" transform="translate(161,154)"/>
<path d="M0 0 C0.33 1.32 0.66 2.64 1 4 C0.01 4.495 0.01 4.495 -1 5 C-2.65 3.35 -4.3 1.7 -6 0 C-3.50907189 -1.24546405 -2.58919267 -0.7767578 0 0 Z " fill="#F07534" transform="translate(18,52)"/>
<path d="M0 0 C2.38564077 0.57584432 4.66682784 1.22227595 7 2 C7 2.99 7 3.98 7 5 C4.69 4.34 2.38 3.68 0 3 C0 2.01 0 1.02 0 0 Z " fill="#FB9A47" transform="translate(126,149)"/>
<path d="M0 0 C-0.99 1.485 -0.99 1.485 -2 3 C-2.99 3 -3.98 3 -5 3 C-5 2.34 -5 1.68 -5 1 C-5.99 0.67 -6.98 0.34 -8 0 C-4.71023192 -1.09658936 -3.28696233 -0.79953138 0 0 Z " fill="#F64D14" transform="translate(104,118)"/>
<path d="M0 0 C0.66 0.33 1.32 0.66 2 1 C1.67 1.99 1.34 2.98 1 4 C1.27571139 6.00875442 1.60235737 8.01178687 2 10 C1.01 9.34 0.02 8.68 -1 8 C-1.25660094 4.92078868 -1.39431504 2.78863007 0 0 Z " fill="#FD8B33" transform="translate(117,75)"/>
<path d="M0 0 C1.1446875 0.2784375 1.1446875 0.2784375 2.3125 0.5625 C5.08967375 1.22819173 5.08967375 1.22819173 8 0 C7.67 1.32 7.34 2.64 7 4 C5.35 4 3.7 4 2 4 C2 3.34 2 2.68 2 2 C1.34 2 0.68 2 0 2 C0 1.34 0 0.68 0 0 Z " fill="#EA8642" transform="translate(100,23)"/>
<path d="M0 0 C2.5 1.125 2.5 1.125 5 3 C5.3125 6.1875 5.3125 6.1875 5 9 C4.34 9 3.68 9 3 9 C3.33 7.35 3.66 5.7 4 4 C2.68 3.34 1.36 2.68 0 2 C0 1.34 0 0.68 0 0 Z " fill="#F2B470" transform="translate(203,159)"/>
<path d="M0 0 C2.97 0 5.94 0 9 0 C9 0.33 9 0.66 9 1 C7.02 1.33 5.04 1.66 3 2 C3 2.66 3 3.32 3 4 C1.68 3.67 0.36 3.34 -1 3 C-0.67 2.01 -0.34 1.02 0 0 Z " fill="#EC5A1A" transform="translate(108,103)"/>
<path d="M0 0 C1.98 0.99 3.96 1.98 6 3 C5.67 3.99 5.34 4.98 5 6 C4.01 5.67 3.02 5.34 2 5 C0.8125 2.4375 0.8125 2.4375 0 0 Z " fill="#EF9B57" transform="translate(124,80)"/>
<path d="M0 0 C1.65 0.99 3.3 1.98 5 3 C4.67 3.66 4.34 4.32 4 5 C2.35 5 0.7 5 -1 5 C-0.67 3.35 -0.34 1.7 0 0 Z " fill="#FC731F" transform="translate(16,56)"/>
<path d="M0 0 C3.625 0.375 3.625 0.375 7 1 C5.3125 2.625 5.3125 2.625 3 4 C0.25 3.1875 0.25 3.1875 -2 2 C-1.34 1.34 -0.68 0.68 0 0 Z " fill="#F09D59" transform="translate(129,147)"/>
<path d="M0 0 C1 2 1 2 1 6 C-1.64 6 -4.28 6 -7 6 C-6.401875 5.7525 -5.80375 5.505 -5.1875 5.25 C-2.71352479 3.83629988 -1.56629745 2.34944617 0 0 Z " fill="#ECA963" transform="translate(145,144)"/>
<path d="M0 0 C0 0.99 0 1.98 0 3 C-2.5 5.1875 -2.5 5.1875 -5 7 C-4.67 5.02 -4.34 3.04 -4 1 C-2.68 0.67 -1.36 0.34 0 0 Z " fill="#E56227" transform="translate(66,129)"/>
<path d="M0 0 C0.66 0 1.32 0 2 0 C2 0.66 2 1.32 2 2 C1.34 2 0.68 2 0 2 C0 1.34 0 0.68 0 0 Z M-1 2 C-0.34 2.99 0.32 3.98 1 5 C0.67 5.99 0.34 6.98 0 8 C-1.5 6.625 -1.5 6.625 -3 5 C-3 4.34 -3 3.68 -3 3 C-2.34 2.67 -1.68 2.34 -1 2 Z " fill="#FDAD56" transform="translate(148,128)"/>
<path d="M0 0 C0.66 0 1.32 0 2 0 C2.103125 0.61875 2.20625 1.2375 2.3125 1.875 C2.87525373 4.36526484 2.87525373 4.36526484 6 6 C6 6.66 6 7.32 6 8 C4.68 7.67 3.36 7.34 2 7 C1.34 4.69 0.68 2.38 0 0 Z " fill="#EC9252" transform="translate(113,79)"/>
<path d="M0 0 C1.32 0.33 2.64 0.66 4 1 C4 1.66 4 2.32 4 3 C3.01 3 2.02 3 1 3 C1 4.32 1 5.64 1 7 C0.01 6.67 -0.98 6.34 -2 6 C-1.34 4.02 -0.68 2.04 0 0 Z " fill="#F3A860" transform="translate(201,55)"/>
<path d="M0 0 C0.99 0 1.98 0 3 0 C2.45276317 3.37462715 1.9451 5.08235 0 8 C0 5.36 0 2.72 0 0 Z " fill="#FC6012" transform="translate(94,6)"/>
</svg>
