<?xml version="1.0" encoding="UTF-8"?>
<svg version="1.1" xmlns="http://www.w3.org/2000/svg" width="240" height="240">
<path d="M0 0 C3 0.25 3 0.25 5 2.25 C5 7.2 5 12.15 5 17.25 C41.63 17.25 78.26 17.25 116 17.25 C116 12.96 116 8.67 116 4.25 C116.99 2.93 117.98 1.61 119 0.25 C122.0625 -0.125 122.0625 -0.125 125 0.25 C127 2.25 127 2.25 127.1953125 5.7265625 C127.18201493 7.10950968 127.15816232 8.49238654 127.125 9.875 C127.11597656 10.58140625 127.10695312 11.2878125 127.09765625 12.015625 C127.07407603 13.76056098 127.03820461 15.50532295 127 17.25 C127.64437012 17.23428955 128.28874023 17.2185791 128.95263672 17.20239258 C131.92666529 17.13929099 134.90055229 17.10077414 137.875 17.0625 C138.88820312 17.03736328 139.90140625 17.01222656 140.9453125 16.98632812 C152.79653655 16.87237405 162.31125342 19.86528736 170.9765625 28.13671875 C177.54940951 35.25497221 181.10756041 42.42789521 181.14717102 52.14830017 C181.15790398 53.95844604 181.15790398 53.95844604 181.16885376 55.80516052 C181.17169388 57.13955663 181.17440563 58.47395301 181.17700195 59.80834961 C181.18327004 61.21640184 181.18991714 62.62445243 181.19691467 64.03250122 C181.21792806 68.65577042 181.22831904 73.27903981 181.23828125 77.90234375 C181.24233075 79.49812906 181.24644773 81.09391421 181.25063133 82.68969917 C181.26968223 90.19311133 181.28390976 97.6965137 181.2922433 105.19994539 C181.30199578 113.83683874 181.32826341 122.47347445 181.36874419 131.11027712 C181.39901327 137.8001043 181.41372261 144.48985813 181.41702431 151.17975241 C181.41936381 155.16807185 181.42817845 159.15611606 181.45348549 163.1443615 C181.47695905 166.9045618 181.4809232 170.66430947 181.47072411 174.42456436 C181.4700014 176.44144349 181.48895915 178.45830063 181.50878906 180.4750824 C181.41048217 197.91910174 175.22347562 212.00587662 163 224.25 C162.360625 224.90097656 161.72125 225.55195313 161.0625 226.22265625 C148.60856342 238.0279503 133.47407414 240.70595529 117.00048828 240.66992188 C115.40273449 240.67727386 113.80498599 240.68586334 112.20724487 240.69558716 C107.89307175 240.71769227 103.57909023 240.72073942 99.26486826 240.71883965 C95.6518133 240.71871944 92.03879821 240.72730375 88.42575443 240.73561716 C79.89595082 240.75481135 71.36624506 240.75774949 62.83642578 240.75097656 C54.0623842 240.74433747 45.28876318 240.76720396 36.51480687 240.80429029 C28.95776784 240.83506356 21.4008636 240.84633912 13.84376323 240.84245348 C9.34079284 240.84039399 4.83814996 240.84574088 0.33523941 240.87034607 C-3.90200079 240.89273757 -8.13856058 240.8906335 -12.3758049 240.87041855 C-13.92205849 240.86703038 -15.46835901 240.87200198 -17.01454926 240.88640213 C-29.27998986 240.99266514 -40.08626588 239.03235201 -49.25 230.26953125 C-55.89456174 222.60158835 -59.23452387 214.40619283 -59.27415466 204.22492981 C-59.27939134 203.55362949 -59.28462802 202.88232916 -59.29002339 202.1906864 C-59.30492405 199.96015172 -59.30572633 197.72984844 -59.30639648 195.49926758 C-59.31402477 193.8921063 -59.32245341 192.28494865 -59.33161926 190.67779541 C-59.35350746 186.32423013 -59.36235571 181.97073506 -59.36744571 177.61712098 C-59.37109656 174.89243575 -59.37734045 172.16776871 -59.3844471 169.44309044 C-59.40892363 159.92388481 -59.42198923 150.40473352 -59.42553711 140.88549805 C-59.42916911 132.03485146 -59.45904498 123.18455233 -59.50094169 114.33401185 C-59.53572261 106.71759834 -59.55108691 99.10129953 -59.55178314 91.48480719 C-59.55257342 86.9437696 -59.56119637 82.40308612 -59.58978081 77.86213112 C-59.6160951 73.5863797 -59.61809294 69.31127262 -59.60212517 65.03547668 C-59.60032113 63.47470371 -59.60690599 61.91389253 -59.62294388 60.35320091 C-59.75247076 46.91917345 -57.10513208 36.33077809 -47.60546875 26.44921875 C-40.26273412 20.25137828 -32.02852341 17.09900266 -22.48046875 17.15234375 C-21.45888672 17.15556641 -20.43730469 17.15878906 -19.38476562 17.16210938 C-18.32966797 17.17048828 -17.27457031 17.17886719 -16.1875 17.1875 C-15.11306641 17.19201172 -14.03863281 17.19652344 -12.93164062 17.20117188 C-10.28770317 17.21292271 -7.64388048 17.22935213 -5 17.25 C-5.02320313 16.19039062 -5.04640625 15.13078125 -5.0703125 14.0390625 C-5.08906944 12.6510487 -5.10726972 11.2630273 -5.125 9.875 C-5.14175781 9.17632812 -5.15851562 8.47765625 -5.17578125 7.7578125 C-5.19344267 5.92102514 -5.10303261 4.08398037 -5 2.25 C-3 0.25 -3 0.25 0 0 Z M-44 38.25 C-48.03395822 44.49098704 -49.11927517 50.31355323 -49.14717102 57.69961548 C-49.15432632 59.00320007 -49.16148163 60.30678467 -49.16885376 61.64987183 C-49.17169371 63.08770728 -49.17440548 64.52554299 -49.17700195 65.96337891 C-49.18327108 67.48319655 -49.18991828 69.00301268 -49.19691467 70.52282715 C-49.21790657 75.50739484 -49.22831351 80.49196267 -49.23828125 85.4765625 C-49.24233083 87.196527 -49.24644781 88.91649135 -49.25063133 90.63645554 C-49.26967346 98.71971485 -49.28390572 106.80296509 -49.2922433 114.88624251 C-49.30200794 124.1977932 -49.3283113 133.50910569 -49.36874419 142.8205725 C-49.39896895 150.03012939 -49.41371825 157.23961824 -49.41702431 164.44923723 C-49.41936781 168.74934308 -49.42823633 173.04919418 -49.45348549 177.34923172 C-49.47688253 181.3991636 -49.48095318 185.44867509 -49.47072411 189.49865723 C-49.47023142 190.97760802 -49.47647214 192.45658035 -49.49028015 193.93546677 C-49.57828573 203.92756397 -48.53647577 212.44007552 -43.25 221.125 C-34.73253037 229.16927687 -26.06670682 230.55529874 -14.74047852 230.47705078 C-13.62754929 230.47734283 -12.51462006 230.47763489 -11.3679657 230.47793579 C-7.70486541 230.47654717 -4.04197083 230.46100772 -0.37890625 230.4453125 C2.16699614 230.44158072 4.71289998 230.43873452 7.25880432 230.43673706 C13.26516019 230.42989202 19.27142834 230.41414369 25.27774912 230.39403808 C32.11936706 230.37163647 38.9609886 230.36067496 45.80263412 230.35064721 C59.86846325 230.32977614 73.9342276 230.29462686 88 230.25 C87.04047939 229.12385873 86.08001087 227.99852508 85.11914062 226.87353516 C84.5843811 226.24677887 84.04962158 225.62002258 83.49865723 224.97427368 C81.89354417 223.12751769 80.2003901 221.38373682 78.5 219.625 C69.25992647 209.11467246 65.93120183 194.91331569 66 181.25 C67.48293433 165.03339557 73.75559849 151.30945943 86 140.25 C99.1610285 129.90643508 114.63146241 126.9483704 131 128.25 C146.57841847 130.90504873 159.2828893 138.87342415 168.58203125 151.45703125 C169.28392578 152.34455078 169.28392578 152.34455078 170 153.25 C170.33 153.25 170.66 153.25 171 153.25 C171.06960734 139.97593812 171.1228659 126.70191989 171.15543652 113.42771244 C171.17107125 107.26351014 171.19226973 101.09943301 171.22631836 94.93530273 C171.2589896 88.98306999 171.2768695 83.03095741 171.28463173 77.07864189 C171.29016127 74.81132555 171.30095908 72.54401555 171.31719017 70.27675056 C171.33906731 67.09329298 171.34196258 63.91032768 171.34057617 60.72680664 C171.351362 59.79603806 171.36214783 58.86526947 171.3732605 57.90629578 C171.33028205 48.74543211 169.23188641 41.69417437 162.90234375 34.9765625 C157.4117404 29.99330443 151.90339602 28.1116478 144.578125 28.15234375 C143.55332031 28.15556641 142.52851563 28.15878906 141.47265625 28.16210938 C139.87744141 28.17467773 139.87744141 28.17467773 138.25 28.1875 C137.17105469 28.19201172 136.09210938 28.19652344 134.98046875 28.20117188 C132.32025617 28.21294273 129.66015635 28.22938601 127 28.25 C126.67 31.22 126.34 34.19 126 37.25 C121.375 39.375 121.375 39.375 118 38.25 C117.01 33.3 117.01 33.3 116 28.25 C79.37 28.25 42.74 28.25 5 28.25 C4.67 31.22 4.34 34.19 4 37.25 C1.6875 38.375 1.6875 38.375 -1 39.25 C-4 37.25 -4 37.25 -4.51171875 35.0859375 C-4.56972656 34.27382813 -4.62773438 33.46171875 -4.6875 32.625 C-4.75324219 31.80773437 -4.81898437 30.99046875 -4.88671875 30.1484375 C-4.94279297 29.20871094 -4.94279297 29.20871094 -5 28.25 C-8.64555558 28.13244519 -12.29061474 28.06230188 -15.9375 28 C-16.95908203 27.96648438 -17.98066406 27.93296875 -19.03320312 27.8984375 C-28.99584194 27.77111943 -37.28086085 30.62334076 -44 38.25 Z M86.625 152.5625 C78.49452648 162.32573255 74.91720918 173.63819876 75 186.25 C76.39341458 198.73608747 81.20695137 210.83982137 91.11328125 218.98828125 C98.97025681 224.84028697 108.06455041 229.67680099 118 230.25 C119.216875 230.3325 120.43375 230.415 121.6875 230.5 C134.77890583 230.27210319 146.41047951 224.5696927 155.7421875 215.69140625 C164.67007044 206.03755359 168.80306268 193.43623076 168.31640625 180.375 C167.05420897 167.90885403 161.77531602 156.92270408 152.62109375 148.32421875 C132.27322548 132.22180735 104.73596899 133.40211038 86.625 152.5625 Z " fill="#FF8836" transform="translate(59,-0.25)"/>
<path d="M0 0 C2.13329342 -0.00968688 4.26561475 -0.04072669 6.39868164 -0.07226562 C7.77042076 -0.07879872 9.14216672 -0.08404799 10.51391602 -0.08789062 C11.75052979 -0.09723633 12.98714355 -0.10658203 14.26123047 -0.11621094 C18.94466974 0.35050269 22.97142569 1.59535396 26.58032227 4.77539062 C30.36607817 9.87963393 31.01525133 12.8115208 31.07641602 19.06445312 C31.08448776 19.84407913 31.09255951 20.62370514 31.10087585 21.42695618 C31.11471856 23.08043189 31.12543989 24.7339362 31.13330078 26.38745117 C31.15045091 28.9007907 31.19432524 31.4127929 31.23852539 33.92578125 C31.24865822 35.53449556 31.25717247 37.14322104 31.26391602 38.75195312 C31.2814241 39.49700607 31.29893219 40.24205902 31.31697083 41.00968933 C31.29547226 46.25478362 30.30971424 50.19882033 26.83813477 54.24023438 C22.27448897 58.10843298 17.63656229 58.83891748 11.74438477 58.77148438 C10.99402954 58.77531128 10.24367432 58.77913818 9.47058105 58.78308105 C7.89402921 58.78578667 6.31743143 58.77852059 4.7409668 58.76171875 C2.34394131 58.74028629 -0.0500879 58.76156304 -2.44702148 58.78710938 C-3.9873926 58.78446585 -5.52776188 58.77934037 -7.06811523 58.77148438 C-7.77560913 58.7795813 -8.48310303 58.78767822 -9.21203613 58.79602051 C-14.45526027 58.6984562 -18.12773347 57.48686013 -22.16186523 54.24023438 C-26.31636523 49.53520407 -26.75726863 45.79975651 -26.69311523 39.80664062 C-26.69694214 39.01047836 -26.70076904 38.2143161 -26.70471191 37.39402771 C-26.70742262 35.71734343 -26.70012047 34.04061626 -26.68334961 32.36401367 C-26.66195402 29.81331943 -26.68316285 27.26545038 -26.70874023 24.71484375 C-26.70609625 23.07876989 -26.70096981 21.44269777 -26.69311523 19.80664062 C-26.70121216 19.05226212 -26.70930908 18.29788361 -26.71765137 17.52064514 C-26.62144646 12.02032919 -25.29067167 8.78196892 -22.16186523 4.24023438 C-15.48208342 -0.76960199 -7.98259806 0.02193273 0 0 Z M-15.16186523 13.24023438 C-15.47453379 16.51224076 -15.47453379 16.51224076 -15.42749023 20.36523438 C-15.42940369 21.06793457 -15.43131714 21.77063477 -15.43328857 22.49462891 C-15.43464999 23.98079791 -15.43095656 25.46697882 -15.42260742 26.953125 C-15.41190677 29.23139083 -15.42250363 31.50886814 -15.43530273 33.78710938 C-15.43398113 35.22981945 -15.43141872 36.67252904 -15.42749023 38.11523438 C-15.42523438 39.43265625 -15.42297852 40.75007813 -15.4206543 42.10742188 C-15.49351962 45.33957567 -15.49351962 45.33957567 -13.16186523 47.24023438 C-9.98763 47.55274809 -9.98763 47.55274809 -6.25561523 47.50585938 C-5.57511108 47.50777283 -4.89460693 47.50968628 -4.19348145 47.51165771 C-2.75439077 47.51301901 -1.3152878 47.50932643 0.1237793 47.50097656 C2.32962564 47.49027565 4.53465758 47.50087309 6.74047852 47.51367188 C8.13761573 47.51235027 9.53475245 47.50978785 10.93188477 47.50585938 C12.20741211 47.50360352 13.48293945 47.50134766 14.79711914 47.49902344 C17.94815907 47.55994503 17.94815907 47.55994503 19.83813477 45.24023438 C20.15080332 41.96822799 20.15080332 41.96822799 20.10375977 38.11523438 C20.10567322 37.41253418 20.10758667 36.70983398 20.10955811 35.98583984 C20.11091952 34.49967084 20.10722609 33.01348993 20.09887695 31.52734375 C20.0881763 29.24907792 20.09877316 26.97160061 20.11157227 24.69335938 C20.11025066 23.2506493 20.10768825 21.80793971 20.10375977 20.36523438 C20.10150391 19.0478125 20.09924805 17.73039062 20.09692383 16.37304688 C20.16978915 13.14089308 20.16978915 13.14089308 17.83813477 11.24023438 C14.66389953 10.92772066 14.66389953 10.92772066 10.93188477 10.97460938 C10.25138062 10.97269592 9.57087646 10.97078247 8.86975098 10.96881104 C7.4306603 10.96744974 5.99155733 10.97114232 4.55249023 10.97949219 C2.3466439 10.9901931 0.14161195 10.97959566 -2.06420898 10.96679688 C-3.4613462 10.96811848 -4.85848291 10.9706809 -6.25561523 10.97460938 C-7.53114258 10.97686523 -8.80666992 10.97912109 -10.12084961 10.98144531 C-13.27188954 10.92052372 -13.27188954 10.92052372 -15.16186523 13.24023438 Z " fill="#FFB158" transform="translate(160.161865234375,60.759765625)"/>
<path d="M0 0 C2.12231159 -0.00967105 4.24363942 -0.04070315 6.36572266 -0.07226562 C13.45637851 -0.12832051 19.50828191 -0.0741852 25.89306641 3.24023438 C30.66382725 8.25564962 31.06960064 11.83273858 31.13134766 18.53710938 C31.1394194 19.36349915 31.14749115 20.18988892 31.1558075 21.0413208 C31.16965012 22.79315085 31.18037148 24.5450079 31.18823242 26.296875 C31.20541058 28.96602133 31.2492893 31.63391769 31.29345703 34.30273438 C31.30358723 36.00585028 31.31210231 37.7089767 31.31884766 39.41210938 C31.33635574 40.20607117 31.35386383 41.00003296 31.37190247 41.8180542 C31.35144829 47.08882504 30.47358373 50.12630596 26.89306641 54.24023438 C22.34288507 58.12723631 18.53276669 58.84610429 12.71337891 58.80664062 C11.94178436 58.8128392 11.17018982 58.81903778 10.37521362 58.82542419 C8.74982966 58.83249787 7.12437286 58.82939127 5.49902344 58.81665039 C3.03133572 58.8028088 0.56746429 58.83685499 -1.89990234 58.875 C-16.0433654 58.94873675 -16.0433654 58.94873675 -21.70117188 54.90014648 C-25.79593471 50.06508353 -26.55754278 45.35849476 -26.50537109 39.20898438 C-26.50824127 38.45484253 -26.51111145 37.70070068 -26.5140686 36.92370605 C-26.51610054 35.33698776 -26.51063181 33.75024391 -26.49804688 32.16357422 C-26.48197956 29.74714678 -26.49792396 27.3323916 -26.51708984 24.91601562 C-26.51510726 23.36783488 -26.51126326 21.81965517 -26.50537109 20.27148438 C-26.51144379 19.55569214 -26.51751648 18.8398999 -26.52377319 18.10241699 C-26.44926598 12.73758005 -25.24499908 8.64056923 -21.64208984 4.59570312 C-14.9067699 -0.74610235 -8.25734336 0.02275273 0 0 Z M-15.10693359 13.24023438 C-15.5589597 16.50795521 -15.5589597 16.50795521 -15.47021484 20.36523438 C-15.47071335 21.06793457 -15.47121185 21.77063477 -15.47172546 22.49462891 C-15.4693842 23.98082303 -15.45965248 25.46702105 -15.44311523 26.953125 C-15.41952425 29.23147942 -15.42255293 31.50866391 -15.42919922 33.78710938 C-16.01009927 41.1299929 -16.01009927 41.1299929 -13.10693359 47.24023438 C-8.70692022 47.63971909 -4.29235197 47.56924999 0.1237793 47.5559082 C2.31886561 47.5527512 4.51260026 47.57619198 6.70751953 47.6015625 C8.10139804 47.60383581 9.49528017 47.60453884 10.88916016 47.60351562 C12.15945068 47.60649658 13.42974121 47.60947754 14.73852539 47.61254883 C17.79951474 47.46118453 17.79951474 47.46118453 19.8059082 46.1394043 C21.45601608 43.25681073 21.28236255 40.79156945 21.29150391 37.49023438 C21.29580917 36.50845215 21.29580917 36.50845215 21.30020142 35.50683594 C21.30224008 34.12499118 21.29672386 32.74311744 21.28417969 31.36132812 C21.26812076 29.24738987 21.28403242 27.13536324 21.30322266 25.02148438 C21.30124019 23.67773016 21.29739643 22.33397713 21.29150391 20.99023438 C21.28812012 19.76820312 21.28473633 18.54617187 21.28125 17.28710938 C21.10390647 14.31979939 21.10390647 14.31979939 19.79003906 12.34106445 C16.90820219 10.66870892 14.45325285 10.86887843 11.14306641 10.87695312 C10.16128418 10.87620537 10.16128418 10.87620537 9.15966797 10.8754425 C7.7778011 10.8777798 6.39592972 10.88748822 5.01416016 10.90405273 C2.90049117 10.92765148 0.78808373 10.92461118 -1.32568359 10.91796875 C-8.58095616 10.63201713 -8.58095616 10.63201713 -15.10693359 13.24023438 Z " fill="#FF8A37" transform="translate(75.10693359375,60.759765625)"/>
<path d="M0 0 C0.79853394 -0.0038269 1.59706787 -0.00765381 2.4197998 -0.01159668 C4.10068022 -0.01430711 5.78160343 -0.00700688 7.46240234 0.00976562 C10.02407546 0.03119 12.58294456 0.00993679 15.14453125 -0.015625 C16.78386031 -0.01298157 18.42318763 -0.00785626 20.0625 0 C20.82203979 -0.00809692 21.58157959 -0.01619385 22.36413574 -0.02453613 C28.76795469 0.08746003 32.19551642 2.33748188 36.87304688 6.73071289 C39.18828941 10.64092301 39.1072479 13.87192743 39.0625 18.33984375 C39.0663269 19.18418472 39.07015381 20.0285257 39.07409668 20.89845276 C39.07681165 22.6794657 39.06947946 24.46051879 39.05273438 26.24145508 C39.03134411 28.956804 39.05253481 31.66949932 39.078125 34.38476562 C39.07548113 36.11979747 39.07035491 37.85482767 39.0625 39.58984375 C39.07059692 40.39626816 39.07869385 41.20269257 39.08703613 42.03355408 C39.00008193 47.30390221 38.10439763 50.41041875 34.53125 54.53125 C30.36046976 58.01372497 26.16052871 57.98432245 20.94140625 57.96484375 C20.11926132 57.9700856 19.29711639 57.97532745 18.45005798 57.98072815 C16.71614712 57.98713401 14.98219271 57.98582996 13.24829102 57.97729492 C10.60548966 57.96878779 7.96485354 57.99755925 5.32226562 58.02929688 C3.63281314 58.03090924 1.94335686 58.03033067 0.25390625 58.02734375 C-0.92291969 58.04419472 -0.92291969 58.04419472 -2.1235199 58.06138611 C-7.35869266 57.9953943 -10.28893484 56.94575248 -14.46875 53.53125 C-18.48158714 48.96491808 -18.64756752 44.68953866 -18.70703125 38.828125 C-18.715103 38.07210999 -18.72317474 37.31609497 -18.73149109 36.53717041 C-18.74531341 34.93675008 -18.75604384 33.3363005 -18.76391602 31.73583984 C-18.77542206 30.10651963 -18.79585229 28.47723671 -18.82543945 26.84814453 C-18.86831191 24.48704559 -18.88431242 22.12706586 -18.89453125 19.765625 C-18.91203934 19.04558289 -18.92954742 18.32554077 -18.94758606 17.5836792 C-18.9238345 11.97765821 -17.69021155 8.96942533 -14.46875 4.53125 C-9.75598281 0.36655767 -6.00453318 -0.06401014 0 0 Z M-7.46875 13.53125 C-8.07199471 16.77051433 -8.07199471 16.77051433 -7.96484375 20.5 C-7.96629898 21.17671753 -7.96775421 21.85343506 -7.96925354 22.55065918 C-7.96759555 23.97961742 -7.95604506 25.40859369 -7.93530273 26.83740234 C-7.90634755 29.02388398 -7.91469259 31.20794042 -7.92773438 33.39453125 C-7.92149659 34.78386594 -7.91310532 36.17319298 -7.90234375 37.5625 C-7.89259521 38.82642578 -7.88284668 40.09035156 -7.87280273 41.39257812 C-7.68852803 44.44253804 -7.68852803 44.44253804 -6.34765625 46.44189453 C-3.54172549 48.06872185 -1.19868453 47.9203874 2.02734375 47.9296875 C3.30802734 47.93355469 4.58871094 47.93742187 5.90820312 47.94140625 C6.90799194 47.93197998 6.90799194 47.93197998 7.92797852 47.92236328 C9.95853194 47.90633068 11.98708722 47.9222019 14.01757812 47.94140625 C15.29955078 47.93753906 16.58152344 47.93367188 17.90234375 47.9296875 C19.07724365 47.92630371 20.25214355 47.92291992 21.46264648 47.91943359 C24.88054556 47.48706351 26.29113039 47.1531122 28.53125 44.53125 C29.15027369 41.40750378 29.15027369 41.40750378 29.0625 37.81640625 C29.0663269 37.16425644 29.07015381 36.51210663 29.07409668 35.8401947 C29.07681527 34.46253921 29.06945737 33.08483206 29.05273438 31.70727539 C29.03135218 29.60380205 29.05251324 27.50375664 29.078125 25.40039062 C29.07548103 24.05988832 29.07035461 22.71938815 29.0625 21.37890625 C29.05798828 20.16211182 29.05347656 18.94531738 29.04882812 17.69165039 C28.75383809 14.49500493 28.75383809 14.49500493 26.89648438 12.13427734 C23.81662369 10.04691512 21.86169968 10.02906176 18.15625 10.03515625 C16.92390625 10.03451172 15.6915625 10.03386719 14.421875 10.03320312 C13.13796875 10.05318359 11.8540625 10.07316406 10.53125 10.09375 C9.24734375 10.08666016 7.9634375 10.07957031 6.640625 10.07226562 C-1.20119103 9.65336676 -1.20119103 9.65336676 -7.46875 13.53125 Z " fill="#FF7F2E" transform="translate(67.46875,138.46875)"/>
<path d="M0 0 C4.55555556 1.55555556 4.55555556 1.55555556 6 3 C6.54734274 5.66705187 6.3915438 7.37324176 4.93847656 9.69921875 C3.38797235 11.68471084 1.77467394 13.59609 0.125 15.5 C-1.07302456 16.92589987 -2.26962215 18.3529998 -3.46484375 19.78125 C-4.06280762 20.49023438 -4.66077148 21.19921875 -5.27685547 21.9296875 C-7.74355062 24.89335637 -10.09923373 27.93464839 -12.4375 31 C-13.23671875 32.03640625 -14.0359375 33.0728125 -14.859375 34.140625 C-16.18450625 35.91069084 -17.4740085 37.7088384 -18.703125 39.546875 C-22.23027757 44.78191198 -22.23027757 44.78191198 -26.75 46.0625 C-30 46 -30 46 -32 45 C-32 44.34 -32 43.68 -32 43 C-32.556875 42.79375 -33.11375 42.5875 -33.6875 42.375 C-36.87277155 40.48105476 -38.70517652 37.88323975 -41 35 C-41.598125 34.484375 -42.19625 33.96875 -42.8125 33.4375 C-44 32 -44 32 -44.3125 29.4375 C-44 27 -44 27 -42 25 C-38.31086424 24.927664 -35.89408831 25.27571916 -32.984375 27.6328125 C-31.25297825 29.37124745 -29.59847908 31.13915657 -28 33 C-23.80713542 28.40450935 -19.89349354 23.63556266 -16.125 18.6875 C-3.03455813 1.51727906 -3.03455813 1.51727906 0 0 Z " fill="#FF4900" transform="translate(200,160)"/>
</svg>
