<?xml version="1.0" encoding="UTF-8"?>
<svg version="1.1" xmlns="http://www.w3.org/2000/svg" width="240" height="240">
<path d="M0 0 C0.61810547 0.19335938 1.23621094 0.38671875 1.87304688 0.5859375 C29.33356795 9.33442209 50.60691866 28.37035638 63.95751953 53.82568359 C68.91774415 63.58087676 73.29455496 73.65109676 74.58984375 84.6015625 C75.22437798 93.05061772 75.22437798 93.05061772 79.01171875 100.26953125 C81.33428488 101.7831261 81.33428488 101.7831261 83.77734375 102.91796875 C87.79554371 104.87410476 89.98546148 108.14284453 92.10791016 112.02807617 C93.4480977 116.49280057 93.32537364 120.85024345 93.3359375 125.48828125 C93.3459227 127.01403023 93.3459227 127.01403023 93.35610962 128.57060242 C93.36622 130.71982011 93.37092714 132.8690691 93.37060547 135.01831055 C93.37497096 138.29073406 93.41128752 141.56179997 93.44921875 144.83398438 C93.45508891 146.92707875 93.45905697 149.02017949 93.4609375 151.11328125 C93.47530853 152.08437332 93.48967957 153.05546539 93.50448608 154.0559845 C93.45571499 161.38150695 91.89544281 166.75999394 86.96484375 172.27734375 C86.29582031 172.82519531 85.62679687 173.37304688 84.9375 173.9375 C84.26589844 174.50339844 83.59429687 175.06929687 82.90234375 175.65234375 C81 177 81 177 78 178 C77.97421875 179.14855469 77.9484375 180.29710937 77.921875 181.48046875 C77.50527321 194.37979785 76.55792546 207.33170589 67 217 C58.14280697 225.2017982 49.20854971 226.46421545 37.4375 226.1875 C36.33341797 226.17396484 35.22933594 226.16042969 34.09179688 226.14648438 C31.39400728 226.11144815 28.69727364 226.06232591 26 226 C25.58041016 227.15242188 25.58041016 227.15242188 25.15234375 228.328125 C23.69596188 231.70495619 21.74754546 233.58752106 19 236 C13.6264584 237.79118053 7.87360916 237.26998279 2.25 237.3125 C0.98671875 237.34150391 -0.2765625 237.37050781 -1.578125 237.40039062 C-8.58416719 237.448226 -13.40086013 237.40328397 -19 233 C-22.97131164 228.01040333 -23.63845459 223.92273626 -23.38671875 217.5859375 C-22.64010327 212.59341783 -20.0650809 209.96117056 -16.4375 206.6875 C-11.05936521 202.96417591 -5.1137567 203.74135689 1.1875 203.6875 C2.29931641 203.65849609 3.41113281 203.62949219 4.55664062 203.59960938 C11.54952831 203.54578608 16.07010912 204.21701956 22 208 C26 212.1 26 212.1 26 216 C29.95975055 216.0063356 33.91594399 215.94617404 37.875 215.875 C39.53789062 215.87886719 39.53789062 215.87886719 41.234375 215.8828125 C49.21692701 215.69498775 54.70880813 214.00878659 61 209 C66.64923605 202.36214764 67.30146222 194.92729965 67.625 186.5625 C67.68300781 185.32209961 67.68300781 185.32209961 67.7421875 184.05664062 C67.83553092 182.03808927 67.91880961 180.01907669 68 178 C66.84757812 177.59587891 66.84757812 177.59587891 65.671875 177.18359375 C61.82141937 175.47790946 60.48155007 173.37766538 58 170 C56.98107976 166.94323928 56.86147139 164.83134451 56.83886719 161.62988281 C56.82925964 160.53154114 56.8196521 159.43319946 56.80975342 158.30157471 C56.8033786 156.5203421 56.8033786 156.5203421 56.796875 154.703125 C56.79117493 153.48099304 56.78547485 152.25886108 56.77960205 150.99969482 C56.77014818 148.41061266 56.76361654 145.82151844 56.75976562 143.23242188 C56.75007291 139.27973289 56.71905742 135.32756663 56.6875 131.375 C56.68096862 128.85937809 56.67571868 126.34375246 56.671875 123.828125 C56.6595282 122.64873352 56.6471814 121.46934204 56.63446045 120.25421143 C56.65116851 114.06919962 56.88055482 109.40840078 60 104 C62.5625 101.6875 62.5625 101.6875 65 100 C65.66 99.34 66.32 98.68 67 98 C66.80344007 95.39250967 66.48155603 92.99617339 66 90.4375 C65.85973389 89.68098145 65.71946777 88.92446289 65.57495117 88.14501953 C61.94618949 69.90497249 54.26074253 53.0372991 42 39 C41.47148437 38.32839844 40.94296875 37.65679687 40.3984375 36.96484375 C26.96132011 20.31738057 5.02833783 9.57649189 -16 7 C-43.06035908 5.54563943 -66.89649743 11.41115029 -87.4375 29.625 C-88.96542196 31.07590476 -90.48701476 32.53352606 -92 34 C-92.59941406 34.5259375 -93.19882813 35.051875 -93.81640625 35.59375 C-110.05217197 50.36038611 -118.8215791 74.26142984 -121.4375 95.5625 C-121.38090603 99.23451525 -121.38090603 99.23451525 -118.1875 101.1875 C-117.135625 101.785625 -116.08375 102.38375 -115 103 C-111.50750797 106.97421507 -110.87480803 110.27804938 -110.83886719 115.4777832 C-110.82925964 116.59937332 -110.8196521 117.72096344 -110.80975342 118.87654114 C-110.80550354 120.08904037 -110.80125366 121.30153961 -110.796875 122.55078125 C-110.79117493 123.79748093 -110.78547485 125.0441806 -110.77960205 126.32865906 C-110.77014834 128.96906179 -110.76325347 131.60935076 -110.75976562 134.24975586 C-110.75537563 136.95301781 -110.74146434 139.65596153 -110.71875 142.35913086 C-110.68828921 146.25644633 -110.67771743 150.15336 -110.671875 154.05078125 C-110.6595282 155.25720779 -110.6471814 156.46363434 -110.63446045 157.70661926 C-110.65472012 165.34203434 -111.38706387 169.91807533 -116.4375 175.875 C-120.27893482 178.8425084 -124.41265549 178.63412434 -129.09765625 178.4140625 C-135.72920449 177.46797352 -139.5663232 173.81045971 -143.73828125 168.78125 C-146.22889127 165.26509468 -147.25025867 162.59636182 -147.29052734 158.26660156 C-147.30328705 157.33172913 -147.31604675 156.39685669 -147.32919312 155.43365479 C-147.33141876 154.42945496 -147.33364441 153.42525513 -147.3359375 152.390625 C-147.3425943 151.34984802 -147.3492511 150.30907104 -147.35610962 149.23675537 C-147.36623146 147.03448248 -147.37092678 144.83217894 -147.37060547 142.62988281 C-147.37496597 139.27617152 -147.41125672 135.92378991 -147.44921875 132.5703125 C-147.45508967 130.42708781 -147.45905722 128.2838569 -147.4609375 126.140625 C-147.47530853 125.14452209 -147.48967957 124.14841919 -147.50448608 123.12213135 C-147.457625 115.90644425 -146.05050753 110.46526952 -141.21875 104.9765625 C-140.6515625 104.53054687 -140.084375 104.08453125 -139.5 103.625 C-138.64921875 102.93277344 -138.64921875 102.93277344 -137.78125 102.2265625 C-136 101 -136 101 -133.95239258 100.19458008 C-131.83645932 99.17821823 -131.83645932 99.17821823 -131.28979492 97.05493164 C-131.18771729 96.26465576 -131.08563965 95.47437988 -130.98046875 94.66015625 C-130.84938721 93.77150879 -130.71830566 92.88286133 -130.58325195 91.96728516 C-130.45265381 91.00870605 -130.32205566 90.05012695 -130.1875 89.0625 C-126.70167863 67.33155255 -117.98345784 47.30623502 -103 31 C-102.55285645 30.51047852 -102.10571289 30.02095703 -101.64501953 29.51660156 C-76.58443488 2.38269013 -36.18721551 -11.76530159 0 0 Z M-137 114 C-138.99573488 118.81689989 -139.30698216 123.28728375 -139.30078125 128.43359375 C-139.30506638 129.22975601 -139.3093515 130.02591827 -139.31376648 130.84620667 C-139.31948558 132.52286838 -139.32002797 134.19955489 -139.31567383 135.8762207 C-139.31251378 138.42637886 -139.33600255 140.97537557 -139.36132812 143.52539062 C-139.36360154 145.16145688 -139.36430442 146.79752623 -139.36328125 148.43359375 C-139.372491 149.18797226 -139.38170074 149.94235077 -139.39118958 150.71958923 C-139.33803196 156.87164853 -138.07565392 161.60985306 -133.9375 166.375 C-130.33565329 169.39590369 -127.65260389 169.32649852 -123 169 C-121.19860213 167.87892982 -121.19860213 167.87892982 -120 166 C-119.5451088 163.54937091 -119.5451088 163.54937091 -119.61181641 160.76586914 C-119.60235992 159.69788589 -119.59290344 158.62990265 -119.5831604 157.52955627 C-119.58923309 156.37640427 -119.59530579 155.22325226 -119.6015625 154.03515625 C-119.59869232 152.85030136 -119.59582214 151.66544647 -119.59286499 150.44468689 C-119.59082208 147.93715945 -119.59636769 145.42961616 -119.60888672 142.92211914 C-119.62492201 139.0811804 -119.60905197 135.2412963 -119.58984375 131.40039062 C-119.59182642 128.96614351 -119.59567058 126.53189705 -119.6015625 124.09765625 C-119.59548981 122.94652847 -119.58941711 121.7954007 -119.5831604 120.60939026 C-119.59261688 119.53825485 -119.60207336 118.46711945 -119.61181641 117.36352539 C-119.61420319 116.42215225 -119.61658997 115.48077911 -119.61904907 114.51087952 C-120.07317652 111.51768745 -120.88496287 110.14650529 -123 108 C-129.26019198 106.79611693 -133.21924144 109.1518505 -137 114 Z M67.31723022 109.70666504 C65.74432577 112.44513604 65.6199705 114.11078651 65.61181641 117.25585938 C65.60235992 118.30374634 65.59290344 119.3516333 65.5831604 120.43127441 C65.58923309 121.55739136 65.59530579 122.6835083 65.6015625 123.84375 C65.59869232 125.0049939 65.59582214 126.16623779 65.59286499 127.3626709 C65.59082406 129.81714363 65.59635586 132.27163262 65.60888672 134.72607422 C65.62493903 138.48572109 65.60903801 142.24429286 65.58984375 146.00390625 C65.59182618 148.38802321 65.59566983 150.7721395 65.6015625 153.15625 C65.59548981 154.28236694 65.58941711 155.40848389 65.5831604 156.56872559 C65.59261688 157.61661255 65.60207336 158.66449951 65.61181641 159.74414062 C65.61420319 160.66473267 65.61658997 161.58532471 65.61904907 162.53381348 C66.07732349 165.50057407 66.8934704 166.87826287 69 169 C72.79103748 169.49143078 75.23383579 169.33084364 78.75 167.8125 C82.39565955 164.8757187 84.16063074 161.54815536 85 157 C85.11869073 154.2454758 85.18785375 151.51682166 85.203125 148.76171875 C85.21167511 147.56323051 85.21167511 147.56323051 85.22039795 146.3405304 C85.22982871 144.65191972 85.23637428 142.9632908 85.24023438 141.2746582 C85.24992691 138.70686286 85.28096236 136.13987287 85.3125 133.57226562 C85.31903218 131.92708806 85.32428181 130.2819048 85.328125 128.63671875 C85.3404718 127.87606613 85.3528186 127.11541351 85.36553955 126.33171082 C85.34171053 120.55665273 84.23431852 115.92130727 80.640625 111.22265625 C77.81813003 108.86793432 75.95877015 107.9937107 72.3125 107.4375 C68.99934812 107.66812323 68.99934812 107.66812323 67.31723022 109.70666504 Z M-13.37719727 216.34179688 C-15.28182059 218.92566551 -15.28182059 218.92566551 -14.9375 222.125 C-13.95626737 225.13411339 -13.4872011 226.14174244 -11 228 C-6.71910298 228.67483667 -2.3906371 228.50932286 1.9375 228.5 C3.13052734 228.52835938 4.32355469 228.55671875 5.55273438 228.5859375 C6.69935547 228.58851563 7.84597656 228.59109375 9.02734375 228.59375 C10.07656006 228.60083984 11.12577637 228.60792969 12.20678711 228.61523438 C15.20354255 228.21490454 15.20354255 228.21490454 17.37719727 225.65820312 C19.28182059 223.07433449 19.28182059 223.07433449 18.9375 219.875 C17.95626737 216.86588661 17.4872011 215.85825756 15 214 C10.71910298 213.32516333 6.3906371 213.49067714 2.0625 213.5 C0.86947266 213.47164062 -0.32355469 213.44328125 -1.55273438 213.4140625 C-2.69935547 213.41148437 -3.84597656 213.40890625 -5.02734375 213.40625 C-6.07656006 213.39916016 -7.12577637 213.39207031 -8.20678711 213.38476562 C-11.20354255 213.78509546 -11.20354255 213.78509546 -13.37719727 216.34179688 Z " fill="#FF8533" transform="translate(147,3)"/>
<path d="M0 0 C0.77499847 -0.00671722 1.54999695 -0.01343445 2.34848022 -0.02035522 C4.89213603 -0.03924014 7.43552664 -0.0432546 9.97924805 -0.04541016 C11.76132818 -0.0518448 13.54340727 -0.05857365 15.32548523 -0.06558228 C19.05506843 -0.07753136 22.78455917 -0.08126555 26.51416016 -0.08007812 C31.27187759 -0.0798751 36.02899663 -0.10717093 40.78657246 -0.14162254 C44.46624933 -0.16395967 48.14578376 -0.16791358 51.82552147 -0.16685867 C53.57845305 -0.16920462 55.33138916 -0.17797089 57.08425331 -0.19352341 C77.55354634 -0.35813804 77.55354634 -0.35813804 85.05366516 6.12857056 C92.13056548 13.10650116 93.26202148 22.12172458 93.3453064 31.70507812 C93.3392337 32.84702637 93.33316101 33.98897461 93.3269043 35.16552734 C93.32977448 36.37063965 93.33264465 37.57575195 93.33560181 38.81738281 C93.33763306 41.35205559 93.33216936 43.88674439 93.31958008 46.42138672 C93.3035141 50.27916853 93.31946204 54.13590274 93.33862305 57.99365234 C93.33664045 60.46761297 93.33279644 62.94157294 93.3269043 65.41552734 C93.33297699 66.55747559 93.33904968 67.69942383 93.3453064 68.87597656 C93.26788239 77.78493159 92.1549876 86.52516887 86.5144043 93.75537109 C82.19097181 97.94036855 76.84345955 100.44134021 70.9284668 101.29052734 C69.00312387 101.2072376 67.07732964 101.11841232 65.15597534 100.96914673 C45.16138335 99.03638047 45.16138335 99.03638047 27.10165405 105.95602417 C21.23298833 110.99277992 16.2824849 116.89960325 11.66381836 123.08154297 C9.9284668 125.29052734 9.9284668 125.29052734 7.9284668 126.29052734 C1.68586999 126.86854557 1.68586999 126.86854557 -1.4465332 124.47802734 C-3.77817742 121.33927552 -4.19612885 118.85851292 -4.16918945 115.06005859 C-4.1659668 114.25761719 -4.16274414 113.45517578 -4.15942383 112.62841797 C-4.15104492 111.79503906 -4.14266602 110.96166016 -4.1340332 110.10302734 C-4.12952148 109.25804687 -4.12500977 108.41306641 -4.12036133 107.54248047 C-4.10858723 105.4584658 -4.0906521 103.37448758 -4.0715332 101.29052734 C-5.01512695 101.16097656 -5.01512695 101.16097656 -5.9777832 101.02880859 C-12.12556329 100.01960975 -17.47934261 98.69903032 -22.0715332 94.29052734 C-26.48276502 87.61881355 -28.17246397 81.29904188 -28.24853516 73.35791016 C-28.26137039 72.18609192 -28.27420563 71.01427368 -28.28742981 69.8069458 C-28.29481674 68.54855896 -28.30220367 67.29017212 -28.30981445 65.99365234 C-28.3178862 64.69030945 -28.32595795 63.38696655 -28.33427429 62.04412842 C-28.34926093 59.28707005 -28.35911783 56.53003704 -28.36669922 53.77294922 C-28.37774505 50.26159057 -28.41213983 46.75086882 -28.45187092 43.23973465 C-28.48448667 39.86606767 -28.48882781 36.49246468 -28.49731445 33.11865234 C-28.51482254 31.86836243 -28.53233063 30.61807251 -28.55036926 29.32989502 C-28.52881328 20.60287703 -27.38860486 14.10515975 -21.5715332 7.41552734 C-20.3340332 6.36365234 -20.3340332 6.36365234 -19.0715332 5.29052734 C-18.4527832 4.73365234 -17.8340332 4.17677734 -17.1965332 3.60302734 C-11.90144906 0.3325342 -6.06970933 -0.00767783 0 0 Z M-16.3215332 15.79052734 C-18.88995401 19.45969992 -19.19920981 22.18699513 -19.21679688 26.55297852 C-19.22317673 27.62807175 -19.22955658 28.70316498 -19.23612976 29.81083679 C-19.23724258 30.97331436 -19.23835541 32.13579193 -19.23950195 33.33349609 C-19.24283035 34.53106033 -19.24615875 35.72862457 -19.24958801 36.96247864 C-19.25465573 39.50029109 -19.25699639 42.03811022 -19.25683594 44.57592773 C-19.25901466 48.44510012 -19.27715091 52.31398384 -19.29614258 56.18310547 C-19.29907813 58.64990137 -19.30106184 61.11669862 -19.30200195 63.58349609 C-19.30918747 64.73585251 -19.31637299 65.88820892 -19.32377625 67.07548523 C-19.30348843 74.26876122 -19.07691294 80.68084381 -15.5090332 87.10302734 C-11.16362999 91.00274818 -5.77265536 92.15948877 -0.0715332 92.85302734 C0.9184668 92.99740234 1.9084668 93.14177734 2.9284668 93.29052734 C4.13117644 95.69594663 4.13163343 97.39419326 4.24487305 100.07958984 C4.28676758 101.02060547 4.32866211 101.96162109 4.37182617 102.93115234 C4.41114258 103.91599609 4.45045898 104.90083984 4.4909668 105.91552734 C4.53415039 106.90810547 4.57733398 107.90068359 4.62182617 108.92333984 C4.72807748 111.37892572 4.83011643 113.83461438 4.9284668 116.29052734 C11.35857446 110.95762059 17.14353163 105.11266581 22.96362305 99.12841797 C23.68936523 98.39171875 24.41510742 97.65501953 25.1628418 96.89599609 C25.81478516 96.22721436 26.46672852 95.55843262 27.13842773 94.86938477 C29.90012547 92.43350107 32.41586989 92.16533138 35.95336914 92.1328125 C36.75785492 92.12255035 37.5623407 92.11228821 38.39120483 92.10171509 C39.25686066 92.09441376 40.12251648 92.08711243 41.0144043 92.07958984 C42.85035073 92.05152271 44.68628812 92.02285825 46.5222168 91.99365234 C49.41446696 91.95239062 52.30654784 91.91549929 55.19897461 91.88916016 C57.99197194 91.86152559 60.78420295 91.8156572 63.5769043 91.76708984 C64.43851166 91.76383698 65.30011902 91.76058411 66.18783569 91.75723267 C71.78797107 91.64280791 75.28606081 90.79280574 79.4753418 86.82568359 C83.39764789 82.02467905 84.0432973 78.89717486 84.10546875 72.82275391 C84.11830399 71.72771545 84.13113922 70.632677 84.1443634 69.50445557 C84.15175034 68.3252655 84.15913727 67.14607544 84.16674805 65.93115234 C84.17885567 64.10363434 84.17885567 64.10363434 84.19120789 62.23919678 C84.20503692 59.66029275 84.21576435 57.08137051 84.22363281 54.50244141 C84.24084017 50.56946935 84.28473846 46.6373391 84.32885742 42.70458984 C84.33898522 40.19678351 84.34750105 37.68897005 84.35424805 35.18115234 C84.38051018 33.42451263 84.38051018 33.42451263 84.40730286 31.63238525 C84.39049514 25.2688269 84.24173349 19.32409041 79.9284668 14.29052734 C75.29519247 10.44745568 71.55879851 9.71305679 65.70751953 9.78881836 C64.90512848 9.78341537 64.10273743 9.77801239 63.27603149 9.77244568 C60.6376599 9.75999183 58.00038659 9.77642507 55.36206055 9.79443359 C53.52173302 9.79427854 51.68140517 9.79278855 49.84107971 9.7900238 C45.99025989 9.78864136 42.13981322 9.80117308 38.2890625 9.82397461 C33.35712378 9.85237876 28.4258039 9.84961443 23.49381924 9.8368845 C19.69593534 9.82992506 15.89819412 9.83771931 12.10032845 9.85014153 C10.2818869 9.85465203 8.46343002 9.85499633 6.64498711 9.85107613 C4.10301248 9.84816078 1.56188678 9.86468517 -0.97998047 9.88647461 C-1.72868912 9.88197296 -2.47739777 9.87747131 -3.24879456 9.87283325 C-9.20323608 9.95749947 -12.37425654 11.40466438 -16.3215332 15.79052734 Z " fill="#FF7E2D" transform="translate(88.071533203125,56.70947265625)"/>
<path d="M0 0 C3.24875254 2.22283069 3.89631231 3.61981182 4.9375 7.4375 C5.00735492 11.41923028 4.39706001 12.89269999 2 16 C-0.35858628 18.35858628 -1.07631948 18.36946499 -4.3125 18.5 C-6.94616023 18.44053025 -8.49761143 18.33415753 -10.703125 16.8671875 C-12.97394595 14.37450474 -13.96036764 12.24274824 -14.5 8.9375 C-13.80633322 4.86220764 -12.52937462 2.20165149 -9.25 -0.375 C-5.85887913 -1.31697802 -3.39008797 -0.84752199 0 0 Z " fill="#FF4900" transform="translate(97,99)"/>
<path d="M0 0 C2.51666056 2.12948202 3.71851452 3.6855159 4.4140625 6.93359375 C4.69682873 10.86999737 4.23298334 12.65052498 2 16 C-1.32887629 18.21925086 -3.13936508 18.75890933 -7.0625 18.4765625 C-10.61497432 17.60276841 -12.01078114 15.9838283 -14 13 C-14.98751539 8.66541919 -14.52008514 5.84289661 -12.1875 2.0625 C-8.25001223 -1.64998847 -5.05313156 -1.24112003 0 0 Z " fill="#FF4900" transform="translate(153,99)"/>
<path d="M0 0 C2.4375 1.5 2.4375 1.5 4 4 C4.94476566 8.76839269 4.67629941 11.96441653 2 16.0625 C-2.16005119 18.74919973 -4.10298688 18.6995733 -9 18 C-11.43119623 16.12984906 -12.64069173 14.71861655 -14 12 C-14.39069343 7.85864965 -14.43382227 5.68813188 -12.1875 2.125 C-8.26403475 -1.68636625 -5.10164568 -1.16353322 0 0 Z " fill="#FF4900" transform="translate(125,99)"/>
</svg>
