<?xml version="1.0" encoding="UTF-8"?>
<svg version="1.1" xmlns="http://www.w3.org/2000/svg" width="240" height="240">
<path d="M0 0 C1.43350296 -0.03891357 1.43350296 -0.03891357 2.89596558 -0.07861328 C3.94832397 -0.10172577 5.00068237 -0.12483826 6.08493042 -0.14865112 C7.74393875 -0.18983063 7.74393875 -0.18983063 9.4364624 -0.23184204 C19.68042498 -0.472346 29.9260751 -0.61713802 40.17218208 -0.72828865 C47.05191141 -0.80463947 53.9280212 -0.91269423 60.80563354 -1.10275269 C67.46099426 -1.28664768 74.1120186 -1.37916154 80.77007675 -1.417202 C83.29726041 -1.44590851 85.82430101 -1.50406549 88.35007095 -1.59332657 C109.11710068 -2.29417846 109.11710068 -2.29417846 116.43873596 3.88618469 C119.94268394 7.35886274 122.93544571 11.11178635 125.83120918 15.09790993 C128.40803851 18.47140502 131.41388712 21.36408358 134.46725464 24.30105591 C135.56953286 25.39277661 136.67062575 26.48569677 137.76998901 27.58035278 C138.85496396 28.65293361 139.94025173 29.72519809 141.02584839 30.79714966 C154.2131399 43.82345694 154.2131399 43.82345694 158.81295776 49.42752075 C160.4454419 51.3245512 160.4454419 51.3245512 162.64108276 52.88552856 C166.54462214 55.9725462 168.2596487 57.98506469 169.07711792 62.99978638 C169.31457785 67.55994618 169.18667615 72.11129941 169.02584839 76.67214966 C168.16180244 88.77954647 168.16180244 88.77954647 172.81881714 99.49636841 C174.02119916 100.754491 175.23435416 102.00250999 176.46334839 103.23464966 C178.5045533 106.77337406 180.00356091 110.42209116 181.46334839 114.23464966 C181.94481323 115.44314575 181.94481323 115.44314575 182.43600464 116.67605591 C187.68196364 132.26753406 185.03809735 149.27799184 177.96334839 163.67214966 C176.03984732 167.44744232 174.1248876 170.93206899 171.46334839 174.23464966 C172.75738127 177.12133839 173.96142415 179.26480886 176.46334839 181.23464966 C178.96154929 181.40234301 181.30380524 181.16967905 183.79537964 180.94949341 C190.6408724 181.6811493 195.81782847 188.29715185 200.41647339 192.92214966 C201.15790588 193.6616687 201.89933838 194.40118774 202.66323853 195.16311646 C204.22211435 196.72063641 205.7784879 198.2806644 207.33248901 199.8430481 C209.7124381 202.23373527 212.10290418 204.6135315 214.49459839 206.99246216 C216.01086534 208.51005021 217.52651203 210.02825828 219.04147339 211.54714966 C219.75603699 212.25766479 220.47060059 212.96817993 221.20681763 213.70022583 C222.19860016 214.70146484 222.19860016 214.70146484 223.2104187 215.72293091 C223.7918866 216.30598999 224.37335449 216.88904907 224.97244263 217.48977661 C228.5366962 221.66118043 228.94469112 225.41132863 228.85787964 230.75418091 C228.21533682 234.79393031 226.42470208 236.48482123 223.46334839 239.23464966 C221.12321127 240.40471822 219.44876886 240.57301372 216.83834839 240.73464966 C216.02108276 240.80683716 215.20381714 240.87902466 214.36178589 240.95339966 C207.09874351 239.15232176 200.96024049 230.90074162 195.75241089 225.72683716 C195.05820038 225.03832672 194.36398987 224.34981628 193.64874268 223.64044189 C192.19706124 222.19812866 190.74676738 220.75441758 189.29782104 219.30935669 C187.08009993 217.10143765 184.85193354 214.90441053 182.62350464 212.70730591 C181.2074843 211.29780815 179.79209691 209.88767415 178.37741089 208.47683716 C177.71286896 207.82464203 177.04832703 207.1724469 176.36364746 206.50048828 C173.166376 203.28760683 170.70875133 200.72473956 169.46334839 196.23464966 C169.44932983 197.77789917 169.44932983 197.77789917 169.43502808 199.35232544 C169.3950007 203.18820678 169.32920785 207.02329678 169.25582886 210.8586731 C169.22769277 212.5151448 169.20644169 214.17174893 169.19235229 215.82839966 C169.17081948 218.21710641 169.12412084 220.60423352 169.07272339 222.99246216 C169.07149475 223.72707672 169.07026611 224.46169128 169.06900024 225.21856689 C168.90058353 231.19959675 167.03423065 234.78538918 162.73898029 238.87744236 C159.6579029 240.71502458 157.42018865 240.61501725 153.84132385 240.62232971 C152.84517719 240.63040802 152.84517719 240.63040802 151.82890636 240.63864952 C149.60489548 240.65295037 147.38147803 240.64582044 145.15744019 240.63870239 C143.56231202 240.64440499 141.96718794 240.65136883 140.37207031 240.65950012 C136.03927201 240.67746204 131.70667591 240.6762571 127.37385154 240.67055774 C123.75565785 240.66746928 120.1375032 240.67355474 116.51931506 240.67959648 C107.98117669 240.69365098 99.44313834 240.69207365 90.90499878 240.68069458 C82.10149855 240.66922098 73.29830322 240.68327411 64.49484318 240.71009105 C56.93375971 240.73225978 49.37277186 240.73888254 41.8116582 240.73301464 C37.29707563 240.72964562 32.78268837 240.73205603 28.26813316 240.74926567 C24.02038729 240.76475072 19.77309209 240.76076215 15.52536392 240.74196053 C13.96895877 240.73827848 12.41252012 240.74137194 10.85614586 240.75184631 C-4.04283241 240.84443588 -4.04283241 240.84443588 -9.53665161 236.23464966 C-12.06496742 232.07728518 -11.82410719 227.98698421 -11.81080627 223.25213623 C-11.81604295 222.33415264 -11.82127963 221.41616906 -11.826675 220.47036779 C-11.84170407 217.38735675 -11.84238079 214.30451125 -11.8430481 211.22146606 C-11.85066757 209.01388772 -11.8590947 206.80631204 -11.86827087 204.59873962 C-11.89024244 198.59669383 -11.89901825 192.59469898 -11.90409732 186.59261751 C-11.90773746 182.84434559 -11.91397571 179.09608709 -11.92109871 175.34782028 C-11.94055557 164.96785882 -11.95706813 154.58790665 -11.95997524 144.2079258 C-11.96016281 143.54386312 -11.96035038 142.87980045 -11.96054364 142.19561466 C-11.96090988 140.84943255 -11.96127358 139.50325044 -11.96163475 138.15706833 C-11.96181756 137.48883228 -11.96200037 136.82059622 -11.96218872 136.1321106 C-11.96236927 135.46305814 -11.96254982 134.79400569 -11.96273584 134.10467891 C-11.96627823 123.26129936 -11.99330572 112.4181183 -12.03068661 101.5748076 C-12.06876667 90.43950976 -12.08769158 79.30428454 -12.08843476 68.1689142 C-12.08922878 61.91778821 -12.09802552 55.66691834 -12.12643242 49.41585159 C-12.15254899 43.5372373 -12.15485384 37.65909267 -12.13877678 31.78044701 C-12.13695725 29.62212668 -12.1436982 27.46377974 -12.15959549 25.3055172 C-12.17996881 22.36016197 -12.1695553 19.41646352 -12.15138245 16.47113037 C-12.16458241 15.61587253 -12.17778238 14.76061469 -12.19138235 13.87943995 C-12.13227486 9.68888319 -11.80217211 7.0397129 -9.12323093 3.71986961 C-5.83020641 0.55588767 -4.41557465 0.11218223 0 0 Z M-2.53665161 10.23464966 C-2.63900499 13.04954102 -2.67550694 15.84004519 -2.67036438 18.65553284 C-2.67262994 19.5492741 -2.67489549 20.44301536 -2.6772297 21.36383969 C-2.68360023 24.38255677 -2.6827384 27.4012293 -2.68191528 30.41995239 C-2.68490487 32.57446349 -2.68830693 34.72897404 -2.6920929 36.88348389 C-2.70095735 42.75320933 -2.70327203 48.62292021 -2.70390868 54.4926517 C-2.70485569 59.38364094 -2.70853156 64.27462674 -2.71208078 69.16561466 C-2.72023457 80.69945165 -2.72266416 92.23328083 -2.72195435 103.76712036 C-2.72135325 115.68624555 -2.73190936 127.60532553 -2.74769801 139.52443928 C-2.76074959 149.7392703 -2.76613925 159.95408651 -2.76549894 170.16892582 C-2.76524325 176.27791592 -2.76813297 182.38686587 -2.77867699 188.4958477 C-2.78831804 194.23886105 -2.78846476 199.98179552 -2.78116035 205.72481155 C-2.78010953 207.83803611 -2.78250663 209.95126548 -2.78852081 212.06448174 C-2.79617375 214.93867658 -2.79164078 217.81259447 -2.78388977 220.68678284 C-2.78903333 221.53239271 -2.7941769 222.37800259 -2.79947633 223.249237 C-2.96241135 227.71416473 -2.96241135 227.71416473 -0.53665161 231.23464966 C2.28196467 231.5431274 2.28196467 231.5431274 5.64399719 231.49534607 C7.62315125 231.50597328 7.62315125 231.50597328 9.64228821 231.51681519 C11.11315952 231.51452114 12.58403051 231.51201141 14.05490112 231.50930786 C15.59710945 231.51365293 17.13931562 231.51883539 18.68151855 231.52479553 C22.87777292 231.53821908 27.07393741 231.53876048 31.27020907 231.53623223 C34.76937625 231.53516476 38.26852507 231.54004015 41.76768833 231.54483765 C50.02082913 231.55594451 58.27392443 231.55636368 66.52706909 231.55032349 C75.04994615 231.54428193 83.57265819 231.5565966 92.09550709 231.57789356 C99.40509866 231.59548928 106.71463763 231.60151412 114.02424961 231.59825581 C118.39338829 231.59643951 122.76240928 231.59911345 127.13152885 231.61297035 C131.23963506 231.62551114 135.34748341 231.62364042 139.45558548 231.61055946 C140.96529412 231.60818589 142.47502069 231.6109562 143.98470879 231.61918259 C146.04201372 231.62958652 148.09844322 231.62160199 150.15571594 231.60887146 C151.30812491 231.6090392 152.46053389 231.60920694 153.64786434 231.60937977 C156.47019456 231.46665938 156.47019456 231.46665938 158.33502769 229.83583641 C159.80273727 227.75302686 159.8262416 226.48351115 159.80392456 223.94680786 C159.80358467 222.65580925 159.80358467 222.65580925 159.80323792 221.33872986 C159.78775406 220.4136412 159.7722702 219.48855255 159.75631714 218.53543091 C159.7520723 217.58524582 159.74782745 216.63506073 159.74345398 215.65608215 C159.72665323 212.61948378 159.68899831 209.58354764 159.65084839 206.54714966 C159.63580336 204.48921653 159.62211464 202.43127301 159.60983276 200.37332153 C159.57674509 195.32684218 159.52495301 190.28085822 159.46334839 185.23464966 C158.34057495 185.78894653 157.21780151 186.34324341 156.06100464 186.91433716 C154.54952698 187.64660584 153.03779443 188.37834856 151.52584839 189.10964966 C150.42273315 189.65685669 150.42273315 189.65685669 149.29733276 190.21511841 C136.23734863 196.48847323 120.30211805 197.49571736 106.38522339 193.32449341 C89.65607378 187.08461007 77.38426318 177.59181588 69.46334839 161.23464966 C62.7365916 143.64310202 62.61227617 126.01346998 69.97116089 108.68386841 C78.10172369 92.59291737 90.27706077 82.8955173 107.23678589 77.14480591 C126.03733363 71.8415037 142.60508366 76.88429423 159.46334839 85.23464966 C159.46334839 78.63464966 159.46334839 72.03464966 159.46334839 65.23464966 C140.65334839 65.23464966 121.84334839 65.23464966 102.46334839 65.23464966 C102.46334839 46.75464966 102.46334839 28.27464966 102.46334839 9.23464966 C84.00338899 9.2055872 84.00338899 9.2055872 65.54342651 9.18582153 C58.01973774 9.17983244 50.49606109 9.17273039 42.97238159 9.15921021 C36.90997115 9.14838352 30.8475737 9.14237329 24.78515434 9.13977242 C22.46658562 9.13791777 20.14801765 9.13429641 17.82945442 9.1289196 C14.59420331 9.12171208 11.35900656 9.12065859 8.12374878 9.12112427 C6.67042648 9.11573135 6.67042648 9.11573135 5.18774414 9.11022949 C3.87307411 9.11229149 3.87307411 9.11229149 2.53184509 9.11439514 C1.38283014 9.11301245 1.38283014 9.11301245 0.21060276 9.11160183 C-1.56534567 9.04478175 -1.56534567 9.04478175 -2.53665161 10.23464966 Z M111.46334839 15.23464966 C111.46334839 28.76464966 111.46334839 42.29464966 111.46334839 56.23464966 C124.66334839 56.23464966 137.86334839 56.23464966 151.46334839 56.23464966 C142.31066207 45.55651562 132.76561788 35.4359855 122.83834839 25.48464966 C122.33537231 24.97908539 121.83239624 24.47352112 121.31417847 23.95263672 C119.87464164 22.50726124 118.43080128 21.0661758 116.98678589 19.62527466 C116.14035522 18.77997192 115.29392456 17.93466919 114.42184448 17.06375122 C112.78817527 15.120891 112.78817527 15.120891 111.46334839 15.23464966 Z M84.46334839 101.23464966 C75.22968573 113.1976483 71.47894471 126.24983807 72.46334839 141.23464966 C74.84852479 156.87978977 82.6972549 169.65892738 95.33834839 179.10964966 C100.38500192 182.45305763 105.68002323 184.51628148 111.46334839 186.23464966 C112.06534058 186.42671997 112.66733276 186.61879028 113.28756714 186.81668091 C127.31214955 189.51081074 141.35795575 186.51654439 153.25631714 178.78933716 C164.78905995 170.66538735 172.44767081 159.16136207 175.46334839 145.23464966 C176.84379523 128.85969404 174.58724032 115.55977224 164.46334839 102.23464966 C155.36680861 91.51493549 144.36686165 85.20097882 130.46334839 83.23464966 C112.67065958 82.04694771 96.59095183 87.88798036 84.46334839 101.23464966 Z M180.46334839 190.23464966 C179.80334839 190.89464966 179.14334839 191.55464966 178.46334839 192.23464966 C178.78009081 195.72283316 180.31316539 197.47490629 182.7104187 199.91751099 C183.73718719 200.97298882 183.73718719 200.97298882 184.78469849 202.04978943 C185.5294342 202.79786362 186.27416992 203.54593781 187.04147339 204.31668091 C188.18685577 205.47704109 188.18685577 205.47704109 189.3553772 206.6608429 C190.97218353 208.29283423 192.59308541 209.92077678 194.21774292 211.54495239 C196.70569051 214.03947155 199.1686747 216.55697389 201.63131714 219.07644653 C203.20406228 220.65799144 204.77823417 222.23811908 206.35397339 223.81668091 C207.09061218 224.57487625 207.82725098 225.33307159 208.58621216 226.11424255 C209.28333313 226.80213364 209.9804541 227.49002472 210.69869995 228.19876099 C211.30635193 228.81068802 211.91400391 229.42261505 212.54006958 230.05308533 C214.48046577 231.51721458 214.48046577 231.51721458 217.19863892 230.9243927 C217.94599304 230.6967775 218.69334717 230.46916229 219.46334839 230.23464966 C219.71439661 227.34749784 219.8094705 225.74779203 218.16152954 223.30464172 C217.55182312 222.69397354 216.9421167 222.08330536 216.31393433 221.45413208 C215.62611877 220.75378342 214.93830322 220.05343475 214.22964478 219.3318634 C213.47661072 218.59208755 212.72357666 217.85231171 211.94772339 217.09011841 C211.18034851 216.32033157 210.41297363 215.55054474 209.62234497 214.75743103 C207.99742963 213.13349505 206.36628858 211.51576827 204.72946167 209.90383911 C202.22117139 207.42986563 199.73775523 204.93278959 197.25631714 202.43191528 C195.67571607 200.8582119 194.09373031 199.2858978 192.51022339 197.71511841 C191.76528625 196.96522141 191.02034912 196.2153244 190.25283813 195.44270325 C189.20220184 194.41582146 189.20220184 194.41582146 188.13034058 193.36819458 C187.51745178 192.76150436 186.90456299 192.15481415 186.27310181 191.52973938 C184.29210314 189.84667988 184.29210314 189.84667988 180.46334839 190.23464966 Z " fill="#FF7C2B" transform="translate(11.536651611328125,-0.234649658203125)"/>
<path d="M0 0 C1.76204018 -0.00956978 1.76204018 -0.00956978 3.55967712 -0.01933289 C5.4783535 -0.02100212 5.4783535 -0.02100212 7.43579102 -0.02270508 C8.73919937 -0.02603348 10.04260773 -0.02936188 11.38551331 -0.03279114 C14.14878161 -0.03878833 16.91201861 -0.04063044 19.67529297 -0.04003906 C23.220882 -0.03993742 26.76627084 -0.05358863 30.3118124 -0.07081127 C33.68647526 -0.08458646 37.06110036 -0.08401955 40.43579102 -0.08520508 C42.35143105 -0.09598335 42.35143105 -0.09598335 44.30577087 -0.10697937 C46.07253929 -0.10236443 46.07253929 -0.10236443 47.875 -0.09765625 C49.43600685 -0.09979378 49.43600685 -0.09979378 51.02854919 -0.10197449 C53.50219727 0.14526367 53.50219727 0.14526367 55.50219727 2.14526367 C55.25219727 5.20776367 55.25219727 5.20776367 54.50219727 8.14526367 C51.90647921 9.4431227 49.99709554 9.2865314 47.09033203 9.30639648 C45.95898331 9.31600403 44.82763458 9.32561157 43.66200256 9.33551025 C42.43493088 9.33976013 41.20785919 9.34401001 39.94360352 9.34838867 C38.68837387 9.35408875 37.43314423 9.35978882 36.13987732 9.36566162 C33.48090994 9.37512138 30.82205571 9.38201339 28.16308594 9.38549805 C24.75541544 9.39098642 21.34814379 9.41502236 17.94059849 9.44347 C14.69163023 9.46656666 11.44264241 9.46854385 8.19360352 9.47338867 C6.35603233 9.49190887 6.35603233 9.49190887 4.4813385 9.51080322 C3.34683762 9.50780212 2.21233673 9.50480103 1.04345703 9.50170898 C-0.45639992 9.50717743 -0.45639992 9.50717743 -1.98655701 9.51275635 C-4.49780273 9.14526367 -4.49780273 9.14526367 -6.35975647 7.78704834 C-7.49780273 6.14526367 -7.49780273 6.14526367 -7.24780273 3.52026367 C-5.90152498 -0.74294922 -4.22930679 0.01550307 0 0 Z " fill="#FF4900" transform="translate(111.497802734375,129.854736328125)"/>
<path d="M0 0 C1.76204018 -0.00956978 1.76204018 -0.00956978 3.55967712 -0.01933289 C5.4783535 -0.02100212 5.4783535 -0.02100212 7.43579102 -0.02270508 C8.73919937 -0.02603348 10.04260773 -0.02936188 11.38551331 -0.03279114 C14.14878161 -0.03878833 16.91201861 -0.04063044 19.67529297 -0.04003906 C23.220882 -0.03993742 26.76627084 -0.05358863 30.3118124 -0.07081127 C33.68647526 -0.08458646 37.06110036 -0.08401955 40.43579102 -0.08520508 C42.35143105 -0.09598335 42.35143105 -0.09598335 44.30577087 -0.10697937 C46.07253929 -0.10236443 46.07253929 -0.10236443 47.875 -0.09765625 C49.43600685 -0.09979378 49.43600685 -0.09979378 51.02854919 -0.10197449 C53.50219727 0.14526367 53.50219727 0.14526367 55.50219727 2.14526367 C55.25219727 5.20776367 55.25219727 5.20776367 54.50219727 8.14526367 C51.93251413 9.43010524 50.07532531 9.28631488 47.19799805 9.30639648 C45.53584763 9.3208078 45.53584763 9.3208078 43.84011841 9.33551025 C42.03702713 9.34188507 42.03702713 9.34188507 40.19750977 9.34838867 C38.35151688 9.35693878 38.35151688 9.35693878 36.4682312 9.36566162 C33.86058413 9.37512167 31.25292506 9.38164957 28.64526367 9.38549805 C25.96999537 9.389892 23.29504792 9.40381641 20.61987305 9.42651367 C16.77065179 9.45690851 12.92183751 9.46753877 9.07250977 9.47338867 C7.87449738 9.48573547 6.67648499 9.49808228 5.44216919 9.51080322 C4.32776459 9.50780212 3.21335999 9.50480103 2.06518555 9.50170898 C0.59530685 9.50717743 0.59530685 9.50717743 -0.90426636 9.51275635 C-3.89610239 9.08882637 -5.27098925 8.13678173 -7.49780273 6.14526367 C-6.43505566 0.22424424 -6.01631485 0.02205358 0 0 Z " fill="#FF4A00" transform="translate(111.497802734375,153.854736328125)"/>
<path d="M0 0 C1.13127319 -0.00938095 2.26254639 -0.0187619 3.42810059 -0.02842712 C5.26096619 -0.01157616 5.26096619 -0.01157616 7.13085938 0.00561523 C8.38467407 0.00416 9.63848877 0.00270477 10.93029785 0.00120544 C13.58380685 0.00286704 16.23588792 0.01237886 18.88916016 0.03515625 C22.28905739 0.06354214 25.68805663 0.06080438 29.08802032 0.04806614 C32.3315246 0.03943665 35.57488325 0.05455516 38.81835938 0.06811523 C40.65122498 0.06371178 40.65122498 0.06371178 42.52111816 0.05921936 C44.21802795 0.07824562 44.21802795 0.07824562 45.94921875 0.09765625 C46.94610718 0.10305923 47.94299561 0.10846222 48.97009277 0.11402893 C51.47460938 0.50170898 51.47460938 0.50170898 53.33557129 1.86289978 C54.47460938 3.50170898 54.47460938 3.50170898 54.22460938 6.12670898 C53.47460938 8.50170898 53.47460938 8.50170898 52.47460938 9.50170898 C50.63342908 9.59552201 48.78863296 9.61914852 46.94506836 9.61523438 C45.76391953 9.61515884 44.58277069 9.61508331 43.36582947 9.61500549 C42.08043777 9.60984421 40.79504608 9.60468292 39.47070312 9.59936523 C38.16255142 9.59795029 36.85439972 9.59653534 35.50660706 9.59507751 C32.02298079 9.59125308 28.53939598 9.58142345 25.05578613 9.57037354 C21.5033423 9.56015781 17.95089178 9.55557955 14.3984375 9.55053711 C7.42381105 9.5398011 0.4492122 9.52272558 -6.52539062 9.50170898 C-7.71289062 7.25170898 -7.71289062 7.25170898 -8.52539062 4.50170898 C-6.61006805 0.25845203 -4.42193549 0.00073708 0 0 Z " fill="#FF4900" transform="translate(112.525390625,105.498291015625)"/>
</svg>
