<?xml version="1.0" encoding="UTF-8"?>
<svg version="1.1" xmlns="http://www.w3.org/2000/svg" width="152" height="152">
<path d="M0 0 C1.23959221 -0.01467567 1.23959221 -0.01467567 2.50422668 -0.02964783 C5.24148961 -0.05958164 7.97870368 -0.08098348 10.71606445 -0.09985352 C11.65212839 -0.10642534 12.58819233 -0.11299717 13.55262184 -0.11976814 C18.50902419 -0.15235541 23.46540512 -0.17680596 28.421875 -0.19628906 C32.51822293 -0.21408973 36.61388088 -0.24889088 40.70996094 -0.29882812 C45.66073398 -0.35911183 50.61086814 -0.38977613 55.56199074 -0.39946175 C57.44502 -0.40800475 59.32803272 -0.42679438 61.21085167 -0.45620537 C77.79301715 -0.7012504 77.79301715 -0.7012504 82.9309082 3.08740234 C84.54736328 4.66783142 84.54736328 4.66783142 85.8918457 6.20874023 C87.30916992 7.47717773 87.30916992 7.47717773 88.75512695 8.77124023 C89.96749023 9.97780273 89.96749023 9.97780273 91.2043457 11.20874023 C92.43604492 12.41530273 92.43604492 12.41530273 93.69262695 13.64624023 C98.4287618 19.16472063 99.34605045 23.88259645 99.40356445 30.88842773 C99.42151566 31.70119171 99.43946686 32.51395569 99.45796204 33.35134888 C99.51182928 35.92876103 99.54588407 38.50599054 99.5793457 41.08374023 C99.6125397 42.83897385 99.64703127 44.59418345 99.68286133 46.34936523 C99.76754181 50.63569127 99.83446468 54.92196536 99.8918457 59.20874023 C100.78387695 58.29350586 101.6759082 57.37827148 102.5949707 56.43530273 C103.77699375 55.23451742 104.95930031 54.03401114 106.1418457 52.83374023 C106.72836914 52.23045898 107.31489258 51.62717773 107.91918945 51.00561523 C108.49282227 50.42553711 109.06645508 49.84545898 109.6574707 49.24780273 C110.44299316 48.44656982 110.44299316 48.44656982 111.24438477 47.62915039 C115.30447038 44.12862014 119.12771423 43.67062438 124.3449707 43.74780273 C128.57646173 44.51362473 131.17019303 46.99602485 133.8918457 50.20874023 C135.09217819 52.60940521 135.12722062 54.27965843 135.2043457 56.95874023 C135.26041992 58.21944336 135.26041992 58.21944336 135.31762695 59.50561523 C134.27860936 66.10194714 128.54089996 70.81703923 123.97387695 75.28686523 C123.31602707 75.93951355 122.65817719 76.59216187 121.98039246 77.2645874 C119.89311172 79.33415633 117.79922261 81.396863 115.7043457 83.45874023 C113.59967443 85.53579115 111.49648912 87.61429392 109.39616394 89.69573975 C108.09235524 90.98728968 106.7858827 92.27615709 105.47651672 93.56207275 C104.88888046 94.1431781 104.3012442 94.72428345 103.69580078 95.32299805 C102.91780876 96.08861053 102.91780876 96.08861053 102.12409973 96.86968994 C99.88951938 99.29793558 99.76497234 101.09775777 99.75 104.2878418 C99.74296555 105.12921692 99.73593109 105.97059204 99.72868347 106.83746338 C99.72243706 108.2046048 99.72243706 108.2046048 99.71606445 109.59936523 C99.69286052 111.52515735 99.66874295 113.45093863 99.64379883 115.37670898 C99.60872057 118.41600732 99.57936265 121.45490888 99.56591797 124.49438477 C99.55040961 127.4257026 99.51017479 130.35585625 99.46606445 133.28686523 C99.46797287 134.19019592 99.46988129 135.09352661 99.47184753 136.02423096 C99.36520473 141.54673272 98.69994197 144.91426942 94.8918457 149.20874023 C90.29818962 152.87601796 86.02440992 152.63522634 80.4074707 152.59692383 C79.45892212 152.60218079 78.51037354 152.60743774 77.53308105 152.612854 C74.402501 152.62604092 71.2724308 152.61732038 68.1418457 152.60717773 C65.96378482 152.60919884 63.78572459 152.61211058 61.60766602 152.61587524 C57.0447749 152.62029683 52.48206007 152.61387272 47.91918945 152.59985352 C42.0714108 152.58276189 36.22404523 152.59260393 30.37628174 152.61057091 C25.87928151 152.6214131 21.38237916 152.61796036 16.88537598 152.61018753 C14.72920686 152.60818674 12.57302885 152.61064055 10.41687012 152.61762619 C7.40308095 152.62524766 4.38996011 152.6136263 1.3762207 152.59692383 C0.48567993 152.60299652 -0.40486084 152.60906921 -1.3223877 152.61532593 C-6.07090844 152.56658983 -9.30878846 152.35823435 -13.1081543 149.20874023 C-16.47614017 145.59663475 -17.60831003 143.45366172 -17.60935974 138.51599121 C-17.61919388 137.38043289 -17.62902802 136.24487457 -17.63916016 135.0749054 C-17.62949219 133.8383873 -17.61982422 132.6018692 -17.60986328 131.32788086 C-17.61526627 130.01845016 -17.62066925 128.70901947 -17.62623596 127.35990906 C-17.6401805 123.77510392 -17.62902829 120.19077928 -17.61252475 116.6060009 C-17.59865786 112.85138461 -17.60513619 109.09679575 -17.60865784 105.34216309 C-17.61135867 99.03735628 -17.59789537 92.73273999 -17.57470703 86.42797852 C-17.54809797 79.14280066 -17.5463506 71.8579413 -17.5580954 64.57273149 C-17.5688814 57.55944787 -17.56267968 50.54627926 -17.54854012 43.53300476 C-17.54278742 40.55064672 -17.54285733 37.56837305 -17.54760551 34.58601379 C-17.55327184 30.42036655 -17.53404058 26.25519341 -17.51220703 22.08959961 C-17.51670868 20.85308151 -17.52121033 19.61656342 -17.52584839 18.34257507 C-17.51594376 17.20701675 -17.50603912 16.07145844 -17.49583435 14.90148926 C-17.49340446 13.91705589 -17.49097456 12.93262253 -17.48847103 11.91835785 C-16.86685009 7.48953601 -14.51993972 4.05189475 -11.1081543 1.20874023 C-7.3777128 -0.03474027 -3.88766621 0.02903264 0 0 Z M-7.1081543 11.20874023 C-8.35807934 13.70859031 -8.24235748 15.4075899 -8.25532532 18.20578003 C-8.26248062 19.26293213 -8.26963593 20.32008423 -8.27700806 21.40927124 C-8.27969696 22.57398956 -8.28238586 23.73870789 -8.28515625 24.9387207 C-8.29172745 26.16153748 -8.29829865 27.38435425 -8.30506897 28.64422607 C-8.32142385 32.00378591 -8.33303065 35.36328273 -8.3412745 38.72286749 C-8.34642379 40.82113867 -8.35249951 42.91940543 -8.35878563 45.01767349 C-8.37783683 51.58081222 -8.39206887 58.14393969 -8.4003976 64.70710075 C-8.41017493 72.28686022 -8.4365073 79.86632805 -8.47689849 87.44598472 C-8.50703814 93.30251722 -8.52186435 99.15896601 -8.52517861 105.01557457 C-8.52753132 108.5146027 -8.53651984 112.01331922 -8.56163979 115.51226425 C-8.58920572 119.41492858 -8.58509594 123.31720761 -8.578125 127.2199707 C-8.59093506 128.38064056 -8.60374512 129.54131042 -8.61694336 130.7371521 C-8.60999954 131.79994385 -8.60305573 132.8627356 -8.59590149 133.95773315 C-8.59828984 134.88061567 -8.6006782 135.80349819 -8.60313892 136.75434685 C-7.94577064 140.01392358 -6.7160375 141.20116397 -4.1081543 143.20874023 C-1.09502568 143.59298021 1.54914639 143.73572394 4.56005859 143.69458008 C5.43364517 143.69837677 6.30723175 143.70217346 7.20729065 143.70608521 C10.09339356 143.71349164 12.97848861 143.69210869 15.86450195 143.66967773 C17.86941917 143.66729346 19.87433864 143.66638795 21.8792572 143.66690063 C26.07996619 143.66377257 30.28033389 143.6472054 34.48095703 143.62036133 C39.87042192 143.58635968 45.25951211 143.57873337 50.64907169 143.58025169 C54.78828012 143.57970837 58.92740634 143.56874757 63.06658745 143.55424881 C65.05414648 143.5478768 67.04171483 143.54394098 69.02928352 143.5424614 C71.80402692 143.53813392 74.57836976 143.52064549 77.35302734 143.49926758 C78.1775238 143.50017395 79.00202026 143.50108032 79.85150146 143.50201416 C83.71613328 143.45838733 85.60157798 143.40225205 88.8918457 141.20874023 C89.31038619 138.00448699 89.31038619 138.00448699 89.18481445 134.23217773 C89.18056961 133.54693024 89.17632477 132.86168274 89.17195129 132.15567017 C89.15514323 129.96462894 89.11748975 127.77450392 89.0793457 125.58374023 C89.0643015 124.09937851 89.05061263 122.61500238 89.03833008 121.13061523 C89.00523361 117.48969191 88.95343777 113.84930546 88.8918457 110.20874023 C81.97920606 111.66127952 81.97920606 111.66127952 75.2668457 113.83374023 C71.28143318 115.22758398 68.09197892 115.47683384 63.8918457 115.20874023 C63.64665161 109.93025618 64.41068957 105.59167749 66.1418457 100.64624023 C66.34680664 100.01266602 66.55176758 99.3790918 66.76293945 98.72631836 C69.53932171 90.55702389 74.52590944 85.32210666 80.5793457 79.45874023 C81.93959637 78.13284575 83.29777705 76.80482327 84.65356445 75.47436523 C85.25128662 74.89460938 85.84900879 74.31485352 86.46484375 73.7175293 C89.5976701 70.40514832 89.01972026 66.86975736 88.98950195 62.57592773 C88.98808701 61.8240921 88.98667206 61.07225647 88.98521423 60.29763794 C88.97961035 57.89296514 88.96705727 55.48838496 88.9543457 53.08374023 C88.9493312 51.45483533 88.94476821 49.82592896 88.94067383 48.19702148 C88.92963967 44.20089197 88.91237249 40.20483181 88.8918457 36.20874023 C88.17005127 36.18368408 87.44825684 36.15862793 86.70458984 36.1328125 C83.45431071 36.01722722 80.20434882 35.89433249 76.9543457 35.77124023 C75.81803711 35.73192383 74.68172852 35.69260742 73.51098633 35.65209961 C71.89160156 35.58925781 71.89160156 35.58925781 70.23950195 35.52514648 C69.23927002 35.48848877 68.23903809 35.45183105 67.20849609 35.4140625 C64.8918457 35.20874023 64.8918457 35.20874023 63.8918457 34.20874023 C63.73398262 32.35699317 63.64077215 30.49964914 63.57543945 28.64233398 C63.53354492 27.51762695 63.49165039 26.39291992 63.44848633 25.23413086 C63.40916992 24.05012695 63.36985352 22.86612305 63.3293457 21.64624023 C63.28616211 20.45836914 63.24297852 19.27049805 63.19848633 18.04663086 C63.09201024 15.10079239 62.98999729 12.15486594 62.8918457 9.20874023 C54.35561122 9.16239221 45.81942935 9.12685852 37.28310013 9.10511589 C33.31930343 9.09468033 29.35559284 9.08052531 25.3918457 9.05786133 C21.56634424 9.03612479 17.74092558 9.02416989 13.91536713 9.01898575 C12.45613044 9.01529145 10.99689826 9.0080774 9.53769684 8.99728012 C7.49321205 8.98275423 5.44906913 8.98076272 3.40454102 8.98168945 C2.24094055 8.97724823 1.07734009 8.97280701 -0.121521 8.9682312 C-3.04119314 9.20334795 -4.69444236 9.58914246 -7.1081543 11.20874023 Z M72.8918457 10.20874023 C72.8918457 15.48874023 72.8918457 20.76874023 72.8918457 26.20874023 C78.1718457 26.20874023 83.4518457 26.20874023 88.8918457 26.20874023 C85.81860393 19.79501827 81.56155523 15.48973638 75.8918457 11.20874023 C74.9018457 10.87874023 73.9118457 10.54874023 72.8918457 10.20874023 Z M117.7668457 55.70874023 C116.8180957 56.53374023 115.8693457 57.35874023 114.8918457 58.20874023 C117.3668457 61.17874023 117.3668457 61.17874023 119.8918457 64.20874023 C123.47350009 61.69313823 123.47350009 61.69313823 125.8918457 58.14624023 C126.0855957 56.10249023 126.0855957 56.10249023 124.5793457 54.45874023 C121.54977276 52.21461213 120.31770895 53.49059828 117.7668457 55.70874023 Z M104.9206543 68.95288086 C103.74237061 70.146875 103.74237061 70.146875 102.5402832 71.36499023 C101.68950195 72.2222168 100.8387207 73.07944336 99.9621582 73.96264648 C99.07270508 74.86885742 98.18325195 75.77506836 97.2668457 76.70874023 C96.3696582 77.61495117 95.4724707 78.52116211 94.5480957 79.45483398 C92.32483032 81.70175113 90.10634913 83.9531924 87.8918457 86.20874023 C88.5518457 87.52874023 89.2118457 88.84874023 89.8918457 90.20874023 C93.81350305 90.62020228 93.81350305 90.62020228 95.99829102 88.55639648 C96.73144531 87.80229492 97.46459961 87.04819336 98.2199707 86.27124023 C99.41879883 85.05307617 99.41879883 85.05307617 100.6418457 83.81030273 C101.4668457 82.95178711 102.2918457 82.09327148 103.1418457 81.20874023 C103.98231445 80.35022461 104.8227832 79.49170898 105.6887207 78.60717773 C107.76566075 76.48303451 109.83271793 74.35013187 111.8918457 72.20874023 C110.5365131 69.67200735 110.5365131 69.67200735 108.8918457 67.20874023 C106.7028135 66.98785426 106.7028135 66.98785426 104.9206543 68.95288086 Z M78.8918457 94.20874023 C76.53274218 98.47246834 76.53274218 98.47246834 75.8918457 103.20874023 C79.62672348 102.71075653 81.70422205 102.33382267 84.8918457 100.20874023 C83.84309573 97.5868653 83.24253257 96.41502663 80.7668457 94.95874023 C80.1480957 94.71124023 79.5293457 94.46374023 78.8918457 94.20874023 Z " fill="#000000" transform="translate(17.108154296875,-0.208740234375)"/>
<path d="M0 0 C2.7734375 1.65234375 2.7734375 1.65234375 5.375 3.9375 C6.78265625 5.16339844 6.78265625 5.16339844 8.21875 6.4140625 C11.58883183 9.54748128 14.85774779 12.75689537 18.05078125 16.0703125 C20.07377289 18.17558906 20.07377289 18.17558906 23.0625 20.1875 C25 22 25 22 25.3125 25.25 C25.209375 26.1575 25.10625 27.065 25 28 C23.35 28.33 21.7 28.66 20 29 C20.02094727 29.60996826 20.04189453 30.21993652 20.06347656 30.84838867 C20.14692861 33.62792294 20.19875011 36.4071932 20.25 39.1875 C20.30027344 40.62706055 20.30027344 40.62706055 20.3515625 42.09570312 C20.36445312 43.02705078 20.37734375 43.95839844 20.390625 44.91796875 C20.41157227 45.77156982 20.43251953 46.6251709 20.45410156 47.50463867 C19.80291874 51.08299331 18.7261162 52.58535662 16 55 C12.95618156 55.50768623 10.47960106 55.70264543 7.4375 55.6640625 C6.19504517 55.67123795 6.19504517 55.67123795 4.92749023 55.67855835 C3.17917986 55.68195533 1.4308058 55.67276682 -0.31738281 55.65185547 C-2.99167664 55.62508332 -5.66177402 55.65160615 -8.3359375 55.68359375 C-10.03646759 55.68028961 -11.73699506 55.67388328 -13.4375 55.6640625 C-14.63451538 55.67924423 -14.63451538 55.67924423 -15.85571289 55.69473267 C-19.68525273 55.61399619 -21.60299541 55.35164477 -24.51074219 52.77612305 C-26.09565217 49.82169495 -26.47201896 48.23477261 -26.390625 44.91796875 C-26.37773437 43.98662109 -26.36484375 43.05527344 -26.3515625 42.09570312 C-26.31804688 41.13599609 -26.28453125 40.17628906 -26.25 39.1875 C-26.23195313 38.20845703 -26.21390625 37.22941406 -26.1953125 36.22070312 C-26.14832887 33.81279229 -26.08265694 31.40690665 -26 29 C-27.65 28.67 -29.3 28.34 -31 28 C-31.65234375 26.20703125 -31.65234375 26.20703125 -32 24 C-29.32637004 19.20089015 -24.43278895 15.46659302 -20.2734375 11.9765625 C-18.56029539 10.48712967 -16.90818908 8.92706766 -15.2890625 7.3359375 C-14.34804688 6.42070312 -13.40703125 5.50546875 -12.4375 4.5625 C-11.56996094 3.69753906 -10.70242187 2.83257813 -9.80859375 1.94140625 C-6.20008552 -0.55293115 -4.30804278 -0.65462996 0 0 Z M-4 9 C-5.2108454 10.03874555 -6.41851795 11.08118969 -7.625 12.125 C-8.29789063 12.70507812 -8.97078125 13.28515625 -9.6640625 13.8828125 C-10.43492188 14.58148438 -11.20578125 15.28015625 -12 16 C-12.52770996 16.37237793 -13.05541992 16.74475586 -13.59912109 17.12841797 C-16.53099438 19.45327815 -17.84207258 21.06711514 -18.47802734 24.82373047 C-18.59056906 28.19336187 -18.52325648 31.50691679 -18.375 34.875 C-18.34792969 36.0403125 -18.32085937 37.205625 -18.29296875 38.40625 C-18.22248125 41.27274172 -18.12399461 44.13540655 -18 47 C-16.35 47 -14.7 47 -13 47 C-12.96261719 46.11957031 -12.92523438 45.23914062 -12.88671875 44.33203125 C-12.82097656 43.17058594 -12.75523438 42.00914063 -12.6875 40.8125 C-12.62949219 39.66394531 -12.57148437 38.51539062 -12.51171875 37.33203125 C-11.97235751 33.82000728 -11.1005277 31.83700902 -9 29 C-5.81496713 27.40748357 -2.4667595 27.60870239 1 28 C4.23613354 29.74253345 4.82395315 30.47185944 6 34 C6.22451458 36.22574335 6.40782878 38.45581519 6.5625 40.6875 C6.64628906 41.86699219 6.73007812 43.04648437 6.81640625 44.26171875 C6.87699219 45.16535156 6.93757813 46.06898437 7 47 C8.65 47 10.3 47 12 47 C13.9505503 31.88839009 13.9505503 31.88839009 9.7265625 17.9609375 C5.85692401 13.71253722 1.41586669 10.89109787 -4 9 Z M-4 35 C-5.28612676 36.05978933 -5.28612676 36.05978933 -5.09765625 38.50390625 C-5.08605469 39.51324219 -5.07445313 40.52257813 -5.0625 41.5625 C-5.05347656 42.57441406 -5.04445313 43.58632813 -5.03515625 44.62890625 C-5.02355469 45.41136719 -5.01195313 46.19382812 -5 47 C-4.01 47 -3.02 47 -2 47 C-2 43.04 -2 39.08 -2 35 C-2.66 35 -3.32 35 -4 35 Z " fill="#FF4900" transform="translate(49,16)"/>
<path d="M0 0 C0.97110718 -0.00945648 1.94221436 -0.01891296 2.94274902 -0.02865601 C4.51312927 -0.01954697 4.51312927 -0.01954697 6.11523438 -0.01025391 C7.72960388 -0.01455917 7.72960388 -0.01455917 9.37658691 -0.01895142 C11.65291876 -0.02099365 13.92926809 -0.0154527 16.20556641 -0.00292969 C19.69538511 0.01312105 23.18404557 -0.00277368 26.67382812 -0.02197266 C28.88346611 -0.01999025 31.09310336 -0.01614664 33.30273438 -0.01025391 C34.34965454 -0.0163266 35.39657471 -0.02239929 36.47521973 -0.02865601 C37.93188049 -0.01447128 37.93188049 -0.01447128 39.41796875 0 C40.27273804 0.00238678 41.12750732 0.00477356 42.00817871 0.00723267 C44.69628645 0.47253369 45.60850855 1.20736238 47.20898438 3.38818359 C47.20898438 5.95068359 47.20898438 5.95068359 46.20898438 8.38818359 C41.59767034 11.0669839 36.65791942 10.67707811 31.49023438 10.65380859 C30.08698914 10.65667877 30.08698914 10.65667877 28.65539551 10.65960693 C26.68188202 10.66096503 24.70835949 10.65729487 22.73486328 10.64892578 C19.71952182 10.638221 16.70477612 10.64883388 13.68945312 10.66162109 C11.7688789 10.66029943 9.84830504 10.6577369 7.92773438 10.65380859 C7.02865356 10.65785706 6.12957275 10.66190552 5.20324707 10.66607666 C-2.97493728 10.60501632 -2.97493728 10.60501632 -6.79101562 8.38818359 C-7.79101562 5.95068359 -7.79101562 5.95068359 -7.79101562 3.38818359 C-5.51782762 0.29071936 -3.74034801 0.01044421 0 0 Z " fill="#000000" transform="translate(24.791015625,79.61181640625)"/>
<path d="M0 0 C1.01452744 -0.00960754 2.02905487 -0.01921509 3.07432556 -0.02911377 C4.17845291 -0.03336365 5.28258026 -0.03761353 6.42016602 -0.04199219 C7.54600601 -0.04769226 8.67184601 -0.05339233 9.83180237 -0.05926514 C12.21842504 -0.06873131 14.60506087 -0.07525551 16.99169922 -0.07910156 C20.65493385 -0.08881643 24.31760989 -0.11982907 27.98071289 -0.15136719 C30.29386058 -0.15789582 32.60701231 -0.16314684 34.92016602 -0.16699219 C36.02226913 -0.17933899 37.12437225 -0.19168579 38.25987244 -0.20440674 C39.27755203 -0.20140564 40.29523163 -0.19840454 41.34375 -0.1953125 C42.24230209 -0.19895813 43.14085419 -0.20260376 44.06663513 -0.20635986 C44.78271439 -0.08508728 45.49879364 0.0361853 46.23657227 0.16113281 C48.23657227 3.16113281 48.23657227 3.16113281 47.92407227 5.78613281 C47.23657227 8.16113281 47.23657227 8.16113281 46.23657227 9.16113281 C44.68754358 9.27000176 43.13361323 9.31017573 41.58081055 9.32226562 C40.58953156 9.33187317 39.59825256 9.34148071 38.57693481 9.35137939 C37.4978183 9.35562927 36.41870178 9.35987915 35.30688477 9.36425781 C34.20561249 9.36995789 33.10434021 9.37565796 31.96969604 9.38153076 C29.63434821 9.39099758 27.29898691 9.39752138 24.96362305 9.40136719 C21.38379693 9.41107256 17.80454471 9.44208065 14.22485352 9.47363281 C11.96053402 9.48016244 9.69621041 9.48541307 7.43188477 9.48925781 C5.81928268 9.50777802 5.81928268 9.50777802 4.17410278 9.52667236 C3.17651947 9.52367126 2.17893616 9.52067017 1.15112305 9.51757812 C0.27255646 9.52122375 -0.60601013 9.52486938 -1.51119995 9.52862549 C-3.76342773 9.16113281 -3.76342773 9.16113281 -5.58621216 7.80291748 C-6.76342773 6.16113281 -6.76342773 6.16113281 -6.51342773 3.53613281 C-5.24526604 -0.47971257 -3.99406666 0.03037739 0 0 Z " fill="#000000" transform="translate(23.763427734375,97.8388671875)"/>
<path d="M0 0 C2.26810526 -0.01190288 4.53349438 -0.0610732 6.80102539 -0.11157227 C8.24046522 -0.12103587 9.67992178 -0.12827121 11.11938477 -0.13305664 C12.43156982 -0.14651123 13.74375488 -0.15996582 15.09570312 -0.17382812 C18.34204102 0.42553711 18.34204102 0.42553711 20.33251953 2.81982422 C21.34204102 5.42553711 21.34204102 5.42553711 20.71704102 7.67553711 C19.34204102 9.42553711 19.34204102 9.42553711 16.34204102 10.42553711 C11.70033344 10.68820769 7.05287325 10.65699015 2.40454102 10.67553711 C1.11612305 10.69616211 -0.17229492 10.71678711 -1.49975586 10.73803711 C-3.35503906 10.74577148 -3.35503906 10.74577148 -5.24780273 10.75366211 C-6.38080811 10.76300781 -7.51381348 10.77235352 -8.68115234 10.78198242 C-11.96541212 10.38872241 -13.34780016 9.75967682 -15.65795898 7.42553711 C-16.03295898 4.86303711 -16.03295898 4.86303711 -15.65795898 2.42553711 C-11.8793949 -1.35302698 -5.16081696 0.01285871 0 0 Z " fill="#000000" transform="translate(68.657958984375,124.574462890625)"/>
</svg>
